<?xml version="1.0" encoding="utf-8" standalone="no"?>
<!DOCTYPE svg PUBLIC "-//W3C//DTD SVG 1.1//EN"
  "http://www.w3.org/Graphics/SVG/1.1/DTD/svg11.dtd">
<svg height="406.811875pt" version="1.1" viewBox="0 0 1258.74 406.811875" width="1258.74pt" xmlns="http://www.w3.org/2000/svg" xmlns:xlink="http://www.w3.org/1999/xlink">
 <metadata>
  <rdf:RDF xmlns:cc="http://creativecommons.org/ns#" xmlns:dc="http://purl.org/dc/elements/1.1/" xmlns:rdf="http://www.w3.org/1999/02/22-rdf-syntax-ns#">
   <cc:Work>
    <dc:type rdf:resource="http://purl.org/dc/dcmitype/StillImage"/>
    <dc:date>2023-04-11T16:41:23.111184</dc:date>
    <dc:format>image/svg+xml</dc:format>
    <dc:creator>
     <cc:Agent>
      <dc:title>Matplotlib v3.4.3, https://matplotlib.org/</dc:title>
     </cc:Agent>
    </dc:creator>
   </cc:Work>
  </rdf:RDF>
 </metadata>
 <defs>
  <style type="text/css">*{stroke-linecap:butt;stroke-linejoin:round;}</style>
 </defs>
 <g id="figure_1">
  <g id="patch_1">
   <path d="M 0 406.811875 
L 1258.74 406.811875 
L 1258.74 0 
L 0 0 
z
" style="fill:#ffffff;"/>
  </g>
  <g id="axes_1">
   <g id="patch_2">
    <path d="M 7.2 379.123125 
L 969 379.123125 
L 969 52.503125 
L 7.2 52.503125 
z
" style="fill:#ffffff;"/>
   </g>
   <g id="matplotlib.axis_1">
    <g id="xtick_1">
     <g id="line2d_1">
      <defs>
       <path d="M 0 0 
L 0 5 
" id="maac4596e07" style="stroke:#caced3;stroke-width:0.5;"/>
      </defs>
      <g>
       <use style="fill:#caced3;stroke:#caced3;stroke-width:0.5;" x="79.788679" xlink:href="#maac4596e07" y="379.123125"/>
      </g>
     </g>
     <g id="text_1">
      <!-- 2020 -->
      <g style="fill:#565e69;" transform="translate(66.067429 396.74125)scale(0.12 -0.12)">
       <defs>
        <path d="M 3309 0 
L 316 0 
L 316 434 
L 1538 1675 
Q 1878 2019 2111 2287 
Q 2344 2556 2466 2817 
Q 2588 3078 2588 3391 
Q 2588 3778 2358 3983 
Q 2128 4188 1753 4188 
Q 1425 4188 1172 4075 
Q 919 3963 653 3756 
L 375 4106 
Q 556 4259 770 4378 
Q 984 4497 1229 4565 
Q 1475 4634 1753 4634 
Q 2175 4634 2481 4487 
Q 2788 4341 2955 4069 
Q 3122 3797 3122 3422 
Q 3122 3059 2978 2748 
Q 2834 2438 2575 2133 
Q 2316 1828 1969 1488 
L 975 497 
L 975 475 
L 3309 475 
L 3309 0 
z
" id="OpenSans-Regular-32" transform="scale(0.015625)"/>
        <path d="M 3334 2291 
Q 3334 1734 3250 1296 
Q 3166 859 2984 556 
Q 2803 253 2515 95 
Q 2228 -63 1825 -63 
Q 1316 -63 983 215 
Q 650 494 486 1020 
Q 322 1547 322 2291 
Q 322 3022 470 3548 
Q 619 4075 950 4358 
Q 1281 4641 1825 4641 
Q 2341 4641 2675 4361 
Q 3009 4081 3171 3554 
Q 3334 3028 3334 2291 
z
M 844 2291 
Q 844 1653 941 1228 
Q 1038 803 1255 592 
Q 1472 381 1825 381 
Q 2178 381 2395 590 
Q 2613 800 2711 1225 
Q 2809 1650 2809 2291 
Q 2809 2919 2712 3342 
Q 2616 3766 2400 3980 
Q 2184 4194 1825 4194 
Q 1466 4194 1250 3980 
Q 1034 3766 939 3342 
Q 844 2919 844 2291 
z
" id="OpenSans-Regular-30" transform="scale(0.015625)"/>
       </defs>
       <use xlink:href="#OpenSans-Regular-32"/>
       <use x="57.177734" xlink:href="#OpenSans-Regular-30"/>
       <use x="114.355469" xlink:href="#OpenSans-Regular-32"/>
       <use x="171.533203" xlink:href="#OpenSans-Regular-30"/>
      </g>
     </g>
    </g>
    <g id="xtick_2">
     <g id="line2d_2">
      <g>
       <use style="fill:#caced3;stroke:#caced3;stroke-width:0.5;" x="368.565381" xlink:href="#maac4596e07" y="379.123125"/>
      </g>
     </g>
     <g id="text_2">
      <!-- 2021 -->
      <g style="fill:#565e69;" transform="translate(354.844131 396.74125)scale(0.12 -0.12)">
       <defs>
        <path d="M 2247 0 
L 1741 0 
L 1741 3238 
Q 1741 3422 1742 3555 
Q 1744 3688 1748 3798 
Q 1753 3909 1763 4025 
Q 1666 3925 1581 3854 
Q 1497 3784 1372 3681 
L 850 3263 
L 578 3616 
L 1816 4569 
L 2247 4569 
L 2247 0 
z
" id="OpenSans-Regular-31" transform="scale(0.015625)"/>
       </defs>
       <use xlink:href="#OpenSans-Regular-32"/>
       <use x="57.177734" xlink:href="#OpenSans-Regular-30"/>
       <use x="114.355469" xlink:href="#OpenSans-Regular-32"/>
       <use x="171.533203" xlink:href="#OpenSans-Regular-31"/>
      </g>
     </g>
    </g>
    <g id="xtick_3">
     <g id="line2d_3">
      <g>
       <use style="fill:#caced3;stroke:#caced3;stroke-width:0.5;" x="656.553076" xlink:href="#maac4596e07" y="379.123125"/>
      </g>
     </g>
     <g id="text_3">
      <!-- 2022 -->
      <g style="fill:#565e69;" transform="translate(642.831826 396.74125)scale(0.12 -0.12)">
       <use xlink:href="#OpenSans-Regular-32"/>
       <use x="57.177734" xlink:href="#OpenSans-Regular-30"/>
       <use x="114.355469" xlink:href="#OpenSans-Regular-32"/>
       <use x="171.533203" xlink:href="#OpenSans-Regular-32"/>
      </g>
     </g>
    </g>
    <g id="xtick_4">
     <g id="line2d_4">
      <g>
       <use style="fill:#caced3;stroke:#caced3;stroke-width:0.5;" x="944.540771" xlink:href="#maac4596e07" y="379.123125"/>
      </g>
     </g>
     <g id="text_4">
      <!-- 2023 -->
      <g style="fill:#565e69;" transform="translate(930.819521 396.74125)scale(0.12 -0.12)">
       <defs>
        <path d="M 3141 3503 
Q 3141 3197 3022 2972 
Q 2903 2747 2690 2605 
Q 2478 2463 2191 2406 
L 2191 2381 
Q 2734 2313 3007 2031 
Q 3281 1750 3281 1294 
Q 3281 897 3095 590 
Q 2909 284 2526 110 
Q 2144 -63 1547 -63 
Q 1184 -63 876 -5 
Q 569 53 288 188 
L 288 675 
Q 572 534 906 454 
Q 1241 375 1553 375 
Q 2178 375 2456 623 
Q 2734 872 2734 1303 
Q 2734 1600 2579 1783 
Q 2425 1966 2136 2052 
Q 1847 2138 1441 2138 
L 984 2138 
L 984 2581 
L 1444 2581 
Q 1816 2581 2075 2690 
Q 2334 2800 2470 2998 
Q 2606 3197 2606 3469 
Q 2606 3816 2375 4005 
Q 2144 4194 1747 4194 
Q 1503 4194 1303 4144 
Q 1103 4094 928 4006 
Q 753 3919 578 3803 
L 316 4159 
Q 566 4353 925 4493 
Q 1284 4634 1741 4634 
Q 2441 4634 2791 4315 
Q 3141 3997 3141 3503 
z
" id="OpenSans-Regular-33" transform="scale(0.015625)"/>
       </defs>
       <use xlink:href="#OpenSans-Regular-32"/>
       <use x="57.177734" xlink:href="#OpenSans-Regular-30"/>
       <use x="114.355469" xlink:href="#OpenSans-Regular-32"/>
       <use x="171.533203" xlink:href="#OpenSans-Regular-33"/>
      </g>
     </g>
    </g>
    <g id="xtick_5">
     <g id="line2d_5">
      <defs>
       <path d="M 0 0 
L 0 6 
" id="md80cbd99d1" style="stroke:#caced3;stroke-width:0.5;"/>
      </defs>
      <g>
       <use style="fill:#caced3;stroke:#caced3;stroke-width:0.5;" x="7.2" xlink:href="#md80cbd99d1" y="379.123125"/>
      </g>
     </g>
    </g>
    <g id="xtick_6">
     <g id="line2d_6">
      <g>
       <use style="fill:#caced3;stroke:#caced3;stroke-width:0.5;" x="31.659229" xlink:href="#md80cbd99d1" y="379.123125"/>
      </g>
     </g>
    </g>
    <g id="xtick_7">
     <g id="line2d_7">
      <g>
       <use style="fill:#caced3;stroke:#caced3;stroke-width:0.5;" x="55.32945" xlink:href="#md80cbd99d1" y="379.123125"/>
      </g>
     </g>
    </g>
    <g id="xtick_8">
     <g id="line2d_8">
      <g>
       <use style="fill:#caced3;stroke:#caced3;stroke-width:0.5;" x="104.247908" xlink:href="#md80cbd99d1" y="379.123125"/>
      </g>
     </g>
    </g>
    <g id="xtick_9">
     <g id="line2d_9">
      <g>
       <use style="fill:#caced3;stroke:#caced3;stroke-width:0.5;" x="127.129122" xlink:href="#md80cbd99d1" y="379.123125"/>
      </g>
     </g>
    </g>
    <g id="xtick_10">
     <g id="line2d_10">
      <g>
       <use style="fill:#caced3;stroke:#caced3;stroke-width:0.5;" x="151.588351" xlink:href="#md80cbd99d1" y="379.123125"/>
      </g>
     </g>
    </g>
    <g id="xtick_11">
     <g id="line2d_11">
      <g>
       <use style="fill:#caced3;stroke:#caced3;stroke-width:0.5;" x="175.258573" xlink:href="#md80cbd99d1" y="379.123125"/>
      </g>
     </g>
    </g>
    <g id="xtick_12">
     <g id="line2d_12">
      <g>
       <use style="fill:#caced3;stroke:#caced3;stroke-width:0.5;" x="199.717801" xlink:href="#md80cbd99d1" y="379.123125"/>
      </g>
     </g>
    </g>
    <g id="xtick_13">
     <g id="line2d_13">
      <g>
       <use style="fill:#caced3;stroke:#caced3;stroke-width:0.5;" x="223.388023" xlink:href="#md80cbd99d1" y="379.123125"/>
      </g>
     </g>
    </g>
    <g id="xtick_14">
     <g id="line2d_14">
      <g>
       <use style="fill:#caced3;stroke:#caced3;stroke-width:0.5;" x="247.847252" xlink:href="#md80cbd99d1" y="379.123125"/>
      </g>
     </g>
    </g>
    <g id="xtick_15">
     <g id="line2d_15">
      <g>
       <use style="fill:#caced3;stroke:#caced3;stroke-width:0.5;" x="272.306481" xlink:href="#md80cbd99d1" y="379.123125"/>
      </g>
     </g>
    </g>
    <g id="xtick_16">
     <g id="line2d_16">
      <g>
       <use style="fill:#caced3;stroke:#caced3;stroke-width:0.5;" x="295.976702" xlink:href="#md80cbd99d1" y="379.123125"/>
      </g>
     </g>
    </g>
    <g id="xtick_17">
     <g id="line2d_17">
      <g>
       <use style="fill:#caced3;stroke:#caced3;stroke-width:0.5;" x="320.435931" xlink:href="#md80cbd99d1" y="379.123125"/>
      </g>
     </g>
    </g>
    <g id="xtick_18">
     <g id="line2d_18">
      <g>
       <use style="fill:#caced3;stroke:#caced3;stroke-width:0.5;" x="344.106153" xlink:href="#md80cbd99d1" y="379.123125"/>
      </g>
     </g>
    </g>
    <g id="xtick_19">
     <g id="line2d_19">
      <g>
       <use style="fill:#caced3;stroke:#caced3;stroke-width:0.5;" x="393.02461" xlink:href="#md80cbd99d1" y="379.123125"/>
      </g>
     </g>
    </g>
    <g id="xtick_20">
     <g id="line2d_20">
      <g>
       <use style="fill:#caced3;stroke:#caced3;stroke-width:0.5;" x="415.116817" xlink:href="#md80cbd99d1" y="379.123125"/>
      </g>
     </g>
    </g>
    <g id="xtick_21">
     <g id="line2d_21">
      <g>
       <use style="fill:#caced3;stroke:#caced3;stroke-width:0.5;" x="439.576046" xlink:href="#md80cbd99d1" y="379.123125"/>
      </g>
     </g>
    </g>
    <g id="xtick_22">
     <g id="line2d_22">
      <g>
       <use style="fill:#caced3;stroke:#caced3;stroke-width:0.5;" x="463.246267" xlink:href="#md80cbd99d1" y="379.123125"/>
      </g>
     </g>
    </g>
    <g id="xtick_23">
     <g id="line2d_23">
      <g>
       <use style="fill:#caced3;stroke:#caced3;stroke-width:0.5;" x="487.705496" xlink:href="#md80cbd99d1" y="379.123125"/>
      </g>
     </g>
    </g>
    <g id="xtick_24">
     <g id="line2d_24">
      <g>
       <use style="fill:#caced3;stroke:#caced3;stroke-width:0.5;" x="511.375718" xlink:href="#md80cbd99d1" y="379.123125"/>
      </g>
     </g>
    </g>
    <g id="xtick_25">
     <g id="line2d_25">
      <g>
       <use style="fill:#caced3;stroke:#caced3;stroke-width:0.5;" x="535.834947" xlink:href="#md80cbd99d1" y="379.123125"/>
      </g>
     </g>
    </g>
    <g id="xtick_26">
     <g id="line2d_26">
      <g>
       <use style="fill:#caced3;stroke:#caced3;stroke-width:0.5;" x="560.294176" xlink:href="#md80cbd99d1" y="379.123125"/>
      </g>
     </g>
    </g>
    <g id="xtick_27">
     <g id="line2d_27">
      <g>
       <use style="fill:#caced3;stroke:#caced3;stroke-width:0.5;" x="583.964397" xlink:href="#md80cbd99d1" y="379.123125"/>
      </g>
     </g>
    </g>
    <g id="xtick_28">
     <g id="line2d_28">
      <g>
       <use style="fill:#caced3;stroke:#caced3;stroke-width:0.5;" x="608.423626" xlink:href="#md80cbd99d1" y="379.123125"/>
      </g>
     </g>
    </g>
    <g id="xtick_29">
     <g id="line2d_29">
      <g>
       <use style="fill:#caced3;stroke:#caced3;stroke-width:0.5;" x="632.093847" xlink:href="#md80cbd99d1" y="379.123125"/>
      </g>
     </g>
    </g>
    <g id="xtick_30">
     <g id="line2d_30">
      <g>
       <use style="fill:#caced3;stroke:#caced3;stroke-width:0.5;" x="681.012305" xlink:href="#md80cbd99d1" y="379.123125"/>
      </g>
     </g>
    </g>
    <g id="xtick_31">
     <g id="line2d_31">
      <g>
       <use style="fill:#caced3;stroke:#caced3;stroke-width:0.5;" x="703.104512" xlink:href="#md80cbd99d1" y="379.123125"/>
      </g>
     </g>
    </g>
    <g id="xtick_32">
     <g id="line2d_32">
      <g>
       <use style="fill:#caced3;stroke:#caced3;stroke-width:0.5;" x="727.563741" xlink:href="#md80cbd99d1" y="379.123125"/>
      </g>
     </g>
    </g>
    <g id="xtick_33">
     <g id="line2d_33">
      <g>
       <use style="fill:#caced3;stroke:#caced3;stroke-width:0.5;" x="751.233962" xlink:href="#md80cbd99d1" y="379.123125"/>
      </g>
     </g>
    </g>
    <g id="xtick_34">
     <g id="line2d_34">
      <g>
       <use style="fill:#caced3;stroke:#caced3;stroke-width:0.5;" x="775.693191" xlink:href="#md80cbd99d1" y="379.123125"/>
      </g>
     </g>
    </g>
    <g id="xtick_35">
     <g id="line2d_35">
      <g>
       <use style="fill:#caced3;stroke:#caced3;stroke-width:0.5;" x="799.363413" xlink:href="#md80cbd99d1" y="379.123125"/>
      </g>
     </g>
    </g>
    <g id="xtick_36">
     <g id="line2d_36">
      <g>
       <use style="fill:#caced3;stroke:#caced3;stroke-width:0.5;" x="823.822642" xlink:href="#md80cbd99d1" y="379.123125"/>
      </g>
     </g>
    </g>
    <g id="xtick_37">
     <g id="line2d_37">
      <g>
       <use style="fill:#caced3;stroke:#caced3;stroke-width:0.5;" x="848.28187" xlink:href="#md80cbd99d1" y="379.123125"/>
      </g>
     </g>
    </g>
    <g id="xtick_38">
     <g id="line2d_38">
      <g>
       <use style="fill:#caced3;stroke:#caced3;stroke-width:0.5;" x="871.952092" xlink:href="#md80cbd99d1" y="379.123125"/>
      </g>
     </g>
    </g>
    <g id="xtick_39">
     <g id="line2d_39">
      <g>
       <use style="fill:#caced3;stroke:#caced3;stroke-width:0.5;" x="896.411321" xlink:href="#md80cbd99d1" y="379.123125"/>
      </g>
     </g>
    </g>
    <g id="xtick_40">
     <g id="line2d_40">
      <g>
       <use style="fill:#caced3;stroke:#caced3;stroke-width:0.5;" x="920.081542" xlink:href="#md80cbd99d1" y="379.123125"/>
      </g>
     </g>
    </g>
    <g id="xtick_41">
     <g id="line2d_41">
      <g>
       <use style="fill:#caced3;stroke:#caced3;stroke-width:0.5;" x="969" xlink:href="#md80cbd99d1" y="379.123125"/>
      </g>
     </g>
    </g>
   </g>
   <g id="matplotlib.axis_2">
    <g id="ytick_1">
     <g id="line2d_42">
      <path clip-path="url(#p0ade2b101c)" d="M 7.2 379.123125 
L 969 379.123125 
" style="fill:none;stroke:#caced3;stroke-dasharray:1.85,0.8;stroke-dashoffset:0;stroke-width:0.5;"/>
     </g>
     <g id="line2d_43">
      <defs>
       <path d="M 0 0 
L 10 0 
" id="m0c422b202b" style="stroke:#caced3;stroke-width:0.5;"/>
      </defs>
      <g>
       <use style="fill:#caced3;stroke:#caced3;stroke-width:0.5;" x="7.2" xlink:href="#m0c422b202b" y="379.123125"/>
      </g>
     </g>
     <g id="text_5">
      <!-- 0% -->
      <g style="fill:#565e69;" transform="translate(25.41875 376.2525)scale(0.12 -0.12)">
       <defs>
        <path d="M 1247 4634 
Q 1716 4634 1958 4261 
Q 2200 3888 2200 3206 
Q 2200 2525 1965 2145 
Q 1731 1766 1247 1766 
Q 797 1766 558 2145 
Q 319 2525 319 3206 
Q 319 3888 547 4261 
Q 775 4634 1247 4634 
z
M 1247 4263 
Q 994 4263 875 3998 
Q 756 3734 756 3206 
Q 756 2678 875 2409 
Q 994 2141 1247 2141 
Q 1509 2141 1637 2409 
Q 1766 2678 1766 3206 
Q 1766 3731 1639 3997 
Q 1513 4263 1247 4263 
z
M 4141 4569 
L 1606 0 
L 1150 0 
L 3684 4569 
L 4141 4569 
z
M 4019 2803 
Q 4484 2803 4728 2429 
Q 4972 2056 4972 1375 
Q 4972 697 4737 317 
Q 4503 -63 4019 -63 
Q 3566 -63 3328 317 
Q 3091 697 3091 1375 
Q 3091 2056 3317 2429 
Q 3544 2803 4019 2803 
z
M 4019 2428 
Q 3766 2428 3647 2165 
Q 3528 1903 3528 1375 
Q 3528 847 3647 580 
Q 3766 313 4019 313 
Q 4281 313 4409 577 
Q 4538 841 4538 1375 
Q 4538 1900 4411 2164 
Q 4284 2428 4019 2428 
z
" id="OpenSans-Regular-25" transform="scale(0.015625)"/>
       </defs>
       <use xlink:href="#OpenSans-Regular-30"/>
       <use x="57.177734" xlink:href="#OpenSans-Regular-25"/>
      </g>
     </g>
    </g>
    <g id="ytick_2">
     <g id="line2d_44">
      <path clip-path="url(#p0ade2b101c)" d="M 7.2 313.799125 
L 969 313.799125 
" style="fill:none;stroke:#caced3;stroke-dasharray:1.85,0.8;stroke-dashoffset:0;stroke-width:0.5;"/>
     </g>
     <g id="line2d_45">
      <g>
       <use style="fill:#caced3;stroke:#caced3;stroke-width:0.5;" x="7.2" xlink:href="#m0c422b202b" y="313.799125"/>
      </g>
     </g>
     <g id="text_6">
      <!-- 20% -->
      <g style="fill:#565e69;" transform="translate(18.558125 310.9285)scale(0.12 -0.12)">
       <use xlink:href="#OpenSans-Regular-32"/>
       <use x="57.177734" xlink:href="#OpenSans-Regular-30"/>
       <use x="114.355469" xlink:href="#OpenSans-Regular-25"/>
      </g>
     </g>
    </g>
    <g id="ytick_3">
     <g id="line2d_46">
      <path clip-path="url(#p0ade2b101c)" d="M 7.2 248.475125 
L 969 248.475125 
" style="fill:none;stroke:#caced3;stroke-dasharray:1.85,0.8;stroke-dashoffset:0;stroke-width:0.5;"/>
     </g>
     <g id="line2d_47">
      <g>
       <use style="fill:#caced3;stroke:#caced3;stroke-width:0.5;" x="7.2" xlink:href="#m0c422b202b" y="248.475125"/>
      </g>
     </g>
     <g id="text_7">
      <!-- 40% -->
      <g style="fill:#565e69;" transform="translate(18.558125 245.6045)scale(0.12 -0.12)">
       <defs>
        <path d="M 3538 1059 
L 2853 1059 
L 2853 0 
L 2347 0 
L 2347 1059 
L 138 1059 
L 138 1497 
L 2313 4594 
L 2853 4594 
L 2853 1528 
L 3538 1528 
L 3538 1059 
z
M 2347 1528 
L 2347 3022 
Q 2347 3194 2350 3333 
Q 2353 3472 2359 3592 
Q 2366 3713 2370 3822 
Q 2375 3931 2378 4038 
L 2353 4038 
Q 2294 3913 2217 3773 
Q 2141 3634 2063 3525 
L 653 1528 
L 2347 1528 
z
" id="OpenSans-Regular-34" transform="scale(0.015625)"/>
       </defs>
       <use xlink:href="#OpenSans-Regular-34"/>
       <use x="57.177734" xlink:href="#OpenSans-Regular-30"/>
       <use x="114.355469" xlink:href="#OpenSans-Regular-25"/>
      </g>
     </g>
    </g>
    <g id="ytick_4">
     <g id="line2d_48">
      <path clip-path="url(#p0ade2b101c)" d="M 7.2 183.151125 
L 969 183.151125 
" style="fill:none;stroke:#caced3;stroke-dasharray:1.85,0.8;stroke-dashoffset:0;stroke-width:0.5;"/>
     </g>
     <g id="line2d_49">
      <g>
       <use style="fill:#caced3;stroke:#caced3;stroke-width:0.5;" x="7.2" xlink:href="#m0c422b202b" y="183.151125"/>
      </g>
     </g>
     <g id="text_8">
      <!-- 60% -->
      <g style="fill:#565e69;" transform="translate(18.558125 180.2805)scale(0.12 -0.12)">
       <defs>
        <path d="M 363 1953 
Q 363 2366 420 2759 
Q 478 3153 615 3492 
Q 753 3831 990 4087 
Q 1228 4344 1583 4489 
Q 1938 4634 2434 4634 
Q 2575 4634 2737 4620 
Q 2900 4606 3006 4575 
L 3006 4128 
Q 2891 4169 2742 4187 
Q 2594 4206 2444 4206 
Q 1863 4206 1530 3953 
Q 1197 3700 1050 3267 
Q 903 2834 881 2294 
L 916 2294 
Q 1013 2450 1163 2576 
Q 1313 2703 1527 2778 
Q 1741 2853 2025 2853 
Q 2425 2853 2723 2690 
Q 3022 2528 3186 2218 
Q 3350 1909 3350 1469 
Q 3350 997 3175 653 
Q 3000 309 2676 123 
Q 2353 -63 1906 -63 
Q 1572 -63 1290 65 
Q 1009 194 801 447 
Q 594 700 478 1076 
Q 363 1453 363 1953 
z
M 1900 375 
Q 2325 375 2581 647 
Q 2838 919 2838 1469 
Q 2838 1919 2609 2181 
Q 2381 2444 1922 2444 
Q 1609 2444 1378 2314 
Q 1147 2184 1019 1987 
Q 891 1791 891 1588 
Q 891 1381 952 1168 
Q 1013 956 1138 775 
Q 1263 594 1453 484 
Q 1644 375 1900 375 
z
" id="OpenSans-Regular-36" transform="scale(0.015625)"/>
       </defs>
       <use xlink:href="#OpenSans-Regular-36"/>
       <use x="57.177734" xlink:href="#OpenSans-Regular-30"/>
       <use x="114.355469" xlink:href="#OpenSans-Regular-25"/>
      </g>
     </g>
    </g>
    <g id="ytick_5">
     <g id="line2d_50">
      <path clip-path="url(#p0ade2b101c)" d="M 7.2 117.827125 
L 969 117.827125 
" style="fill:none;stroke:#caced3;stroke-dasharray:1.85,0.8;stroke-dashoffset:0;stroke-width:0.5;"/>
     </g>
     <g id="line2d_51">
      <g>
       <use style="fill:#caced3;stroke:#caced3;stroke-width:0.5;" x="7.2" xlink:href="#m0c422b202b" y="117.827125"/>
      </g>
     </g>
     <g id="text_9">
      <!-- 80% -->
      <g style="fill:#565e69;" transform="translate(18.558125 114.9565)scale(0.12 -0.12)">
       <defs>
        <path d="M 1825 4634 
Q 2222 4634 2528 4509 
Q 2834 4384 3007 4142 
Q 3181 3900 3181 3547 
Q 3181 3269 3061 3061 
Q 2941 2853 2737 2698 
Q 2534 2544 2288 2422 
Q 2581 2288 2817 2119 
Q 3053 1950 3190 1722 
Q 3328 1494 3328 1181 
Q 3328 797 3142 517 
Q 2956 238 2622 87 
Q 2288 -63 1838 -63 
Q 1353 -63 1014 82 
Q 675 228 498 501 
Q 322 775 322 1159 
Q 322 1475 456 1708 
Q 591 1941 812 2109 
Q 1034 2278 1297 2394 
Q 1069 2519 880 2678 
Q 691 2838 580 3052 
Q 469 3266 469 3550 
Q 469 3897 645 4139 
Q 822 4381 1130 4507 
Q 1438 4634 1825 4634 
z
M 831 1156 
Q 831 806 1078 579 
Q 1325 353 1825 353 
Q 2300 353 2559 579 
Q 2819 806 2819 1175 
Q 2819 1403 2700 1576 
Q 2581 1750 2362 1887 
Q 2144 2025 1847 2138 
L 1734 2178 
Q 1447 2059 1245 1914 
Q 1044 1769 937 1584 
Q 831 1400 831 1156 
z
M 1819 4209 
Q 1450 4209 1215 4032 
Q 981 3856 981 3525 
Q 981 3288 1095 3123 
Q 1209 2959 1406 2842 
Q 1603 2725 1847 2625 
Q 2084 2725 2268 2845 
Q 2453 2966 2559 3131 
Q 2666 3297 2666 3528 
Q 2666 3859 2433 4034 
Q 2200 4209 1819 4209 
z
" id="OpenSans-Regular-38" transform="scale(0.015625)"/>
       </defs>
       <use xlink:href="#OpenSans-Regular-38"/>
       <use x="57.177734" xlink:href="#OpenSans-Regular-30"/>
       <use x="114.355469" xlink:href="#OpenSans-Regular-25"/>
      </g>
     </g>
    </g>
    <g id="ytick_6">
     <g id="line2d_52">
      <path clip-path="url(#p0ade2b101c)" d="M 7.2 52.503125 
L 969 52.503125 
" style="fill:none;stroke:#caced3;stroke-dasharray:1.85,0.8;stroke-dashoffset:0;stroke-width:0.5;"/>
     </g>
     <g id="line2d_53">
      <g>
       <use style="fill:#caced3;stroke:#caced3;stroke-width:0.5;" x="7.2" xlink:href="#m0c422b202b" y="52.503125"/>
      </g>
     </g>
     <g id="text_10">
      <!-- 100% -->
      <g style="fill:#565e69;" transform="translate(11.6975 49.6325)scale(0.12 -0.12)">
       <use xlink:href="#OpenSans-Regular-31"/>
       <use x="57.177734" xlink:href="#OpenSans-Regular-30"/>
       <use x="114.355469" xlink:href="#OpenSans-Regular-30"/>
       <use x="171.533203" xlink:href="#OpenSans-Regular-25"/>
      </g>
     </g>
    </g>
    <g id="text_11">
     <!-- of policies -->
     <g style="fill:#565e69;" transform="translate(45.96875 49.6325)scale(0.12 -0.12)">
      <defs>
       <path d="M 3500 1719 
Q 3500 1297 3390 965 
Q 3281 634 3075 406 
Q 2869 178 2576 57 
Q 2284 -63 1916 -63 
Q 1572 -63 1286 57 
Q 1000 178 792 406 
Q 584 634 470 965 
Q 356 1297 356 1719 
Q 356 2281 547 2676 
Q 738 3072 1092 3280 
Q 1447 3488 1938 3488 
Q 2406 3488 2757 3278 
Q 3109 3069 3304 2673 
Q 3500 2278 3500 1719 
z
M 894 1719 
Q 894 1306 1003 1003 
Q 1113 700 1341 534 
Q 1569 369 1928 369 
Q 2284 369 2514 534 
Q 2744 700 2853 1003 
Q 2963 1306 2963 1719 
Q 2963 2128 2853 2426 
Q 2744 2725 2516 2887 
Q 2288 3050 1925 3050 
Q 1391 3050 1142 2697 
Q 894 2344 894 1719 
z
" id="OpenSans-Regular-6f" transform="scale(0.015625)"/>
       <path d="M 2072 3019 
L 1219 3019 
L 1219 0 
L 700 0 
L 700 3019 
L 94 3019 
L 94 3269 
L 700 3441 
L 700 3669 
Q 700 4100 828 4370 
Q 956 4641 1200 4769 
Q 1444 4897 1794 4897 
Q 1991 4897 2155 4862 
Q 2319 4828 2444 4784 
L 2309 4375 
Q 2203 4409 2070 4439 
Q 1938 4469 1800 4469 
Q 1503 4469 1361 4276 
Q 1219 4084 1219 3675 
L 1219 3425 
L 2072 3425 
L 2072 3019 
z
" id="OpenSans-Regular-66" transform="scale(0.015625)"/>
       <path id="OpenSans-Regular-20" transform="scale(0.015625)"/>
       <path d="M 2156 3488 
Q 2797 3488 3178 3047 
Q 3559 2606 3559 1722 
Q 3559 1138 3384 741 
Q 3209 344 2892 140 
Q 2575 -63 2144 -63 
Q 1872 -63 1665 9 
Q 1459 81 1312 203 
Q 1166 325 1069 469 
L 1031 469 
Q 1041 347 1055 175 
Q 1069 3 1069 -125 
L 1069 -1531 
L 547 -1531 
L 547 3425 
L 975 3425 
L 1044 2919 
L 1069 2919 
Q 1169 3075 1312 3204 
Q 1456 3334 1664 3411 
Q 1872 3488 2156 3488 
z
M 2066 3050 
Q 1709 3050 1492 2912 
Q 1275 2775 1175 2501 
Q 1075 2228 1069 1816 
L 1069 1716 
Q 1069 1281 1164 981 
Q 1259 681 1479 525 
Q 1700 369 2072 369 
Q 2391 369 2603 541 
Q 2816 713 2920 1020 
Q 3025 1328 3025 1728 
Q 3025 2334 2789 2692 
Q 2553 3050 2066 3050 
z
" id="OpenSans-Regular-70" transform="scale(0.015625)"/>
       <path d="M 1069 0 
L 547 0 
L 547 4863 
L 1069 4863 
L 1069 0 
z
" id="OpenSans-Regular-6c" transform="scale(0.015625)"/>
       <path d="M 1066 3425 
L 1066 0 
L 547 0 
L 547 3425 
L 1066 3425 
z
M 813 4706 
Q 941 4706 1033 4623 
Q 1125 4541 1125 4366 
Q 1125 4194 1033 4109 
Q 941 4025 813 4025 
Q 678 4025 589 4109 
Q 500 4194 500 4366 
Q 500 4541 589 4623 
Q 678 4706 813 4706 
z
" id="OpenSans-Regular-69" transform="scale(0.015625)"/>
       <path d="M 1919 -63 
Q 1456 -63 1103 128 
Q 750 319 553 709 
Q 356 1100 356 1694 
Q 356 2316 564 2711 
Q 772 3106 1137 3297 
Q 1503 3488 1969 3488 
Q 2225 3488 2464 3436 
Q 2703 3384 2856 3306 
L 2700 2872 
Q 2544 2934 2339 2984 
Q 2134 3034 1956 3034 
Q 1600 3034 1364 2881 
Q 1128 2728 1011 2431 
Q 894 2134 894 1700 
Q 894 1284 1008 990 
Q 1122 697 1348 542 
Q 1575 388 1916 388 
Q 2188 388 2406 445 
Q 2625 503 2803 581 
L 2803 119 
Q 2631 31 2420 -16 
Q 2209 -63 1919 -63 
z
" id="OpenSans-Regular-63" transform="scale(0.015625)"/>
       <path d="M 1866 3488 
Q 2303 3488 2615 3294 
Q 2928 3100 3093 2751 
Q 3259 2403 3259 1938 
L 3259 1616 
L 894 1616 
Q 903 1013 1193 697 
Q 1484 381 2013 381 
Q 2338 381 2588 440 
Q 2838 500 3106 616 
L 3106 159 
Q 2847 44 2592 -9 
Q 2338 -63 1991 -63 
Q 1497 -63 1130 139 
Q 763 341 559 731 
Q 356 1122 356 1688 
Q 356 2241 542 2645 
Q 728 3050 1067 3269 
Q 1406 3488 1866 3488 
z
M 1859 3063 
Q 1444 3063 1197 2791 
Q 950 2519 903 2031 
L 2716 2031 
Q 2713 2338 2620 2570 
Q 2528 2803 2340 2933 
Q 2153 3063 1859 3063 
z
" id="OpenSans-Regular-65" transform="scale(0.015625)"/>
       <path d="M 2763 938 
Q 2763 609 2598 386 
Q 2434 163 2129 50 
Q 1825 -63 1403 -63 
Q 1044 -63 781 -6 
Q 519 50 322 153 
L 322 631 
Q 531 528 822 443 
Q 1113 359 1416 359 
Q 1859 359 2059 503 
Q 2259 647 2259 894 
Q 2259 1034 2179 1142 
Q 2100 1250 1912 1351 
Q 1725 1453 1394 1575 
Q 1066 1700 827 1823 
Q 588 1947 458 2125 
Q 328 2303 328 2588 
Q 328 3022 679 3255 
Q 1031 3488 1603 3488 
Q 1913 3488 2183 3427 
Q 2453 3366 2688 3263 
L 2513 2847 
Q 2300 2938 2059 3000 
Q 1819 3063 1569 3063 
Q 1209 3063 1017 2944 
Q 825 2825 825 2619 
Q 825 2459 914 2356 
Q 1003 2253 1200 2162 
Q 1397 2072 1719 1950 
Q 2041 1831 2275 1704 
Q 2509 1578 2636 1398 
Q 2763 1219 2763 938 
z
" id="OpenSans-Regular-73" transform="scale(0.015625)"/>
      </defs>
      <use xlink:href="#OpenSans-Regular-6f"/>
      <use x="60.15625" xlink:href="#OpenSans-Regular-66"/>
      <use x="93.798828" xlink:href="#OpenSans-Regular-20"/>
      <use x="119.775391" xlink:href="#OpenSans-Regular-70"/>
      <use x="180.957031" xlink:href="#OpenSans-Regular-6f"/>
      <use x="241.113281" xlink:href="#OpenSans-Regular-6c"/>
      <use x="266.357422" xlink:href="#OpenSans-Regular-69"/>
      <use x="291.601562" xlink:href="#OpenSans-Regular-63"/>
      <use x="339.501953" xlink:href="#OpenSans-Regular-69"/>
      <use x="364.746094" xlink:href="#OpenSans-Regular-65"/>
      <use x="420.898438" xlink:href="#OpenSans-Regular-73"/>
     </g>
    </g>
   </g>
   <g id="patch_3">
    <path clip-path="url(#p0ade2b101c)" d="M 71.898605 204.593354 
L 87.678753 204.593354 
L 87.678753 52.503125 
L 71.898605 52.503125 
z
" style="fill:#d6d9de;stroke:#ffffff;stroke-linejoin:miter;stroke-width:0.5;"/>
   </g>
   <g id="patch_4">
    <path clip-path="url(#p0ade2b101c)" d="M 96.357834 200.80626 
L 112.137982 200.80626 
L 112.137982 52.503125 
L 96.357834 52.503125 
z
" style="fill:#d6d9de;stroke:#ffffff;stroke-linejoin:miter;stroke-width:0.5;"/>
   </g>
   <g id="patch_5">
    <path clip-path="url(#p0ade2b101c)" d="M 119.239048 182.998244 
L 135.019196 182.998244 
L 135.019196 52.503125 
L 119.239048 52.503125 
z
" style="fill:#d6d9de;stroke:#ffffff;stroke-linejoin:miter;stroke-width:0.5;"/>
   </g>
   <g id="patch_6">
    <path clip-path="url(#p0ade2b101c)" d="M 143.698277 206.625602 
L 159.478425 206.625602 
L 159.478425 52.503125 
L 143.698277 52.503125 
z
" style="fill:#d6d9de;stroke:#ffffff;stroke-linejoin:miter;stroke-width:0.5;"/>
   </g>
   <g id="patch_7">
    <path clip-path="url(#p0ade2b101c)" d="M 167.368499 163.310135 
L 183.148646 163.310135 
L 183.148646 52.503125 
L 167.368499 52.503125 
z
" style="fill:#d6d9de;stroke:#ffffff;stroke-linejoin:miter;stroke-width:0.5;"/>
   </g>
   <g id="patch_8">
    <path clip-path="url(#p0ade2b101c)" d="M 191.827728 155.513378 
L 207.607875 155.513378 
L 207.607875 52.503125 
L 191.827728 52.503125 
z
" style="fill:#d6d9de;stroke:#ffffff;stroke-linejoin:miter;stroke-width:0.5;"/>
   </g>
   <g id="patch_9">
    <path clip-path="url(#p0ade2b101c)" d="M 215.497949 162.217603 
L 231.278097 162.217603 
L 231.278097 52.503125 
L 215.497949 52.503125 
z
" style="fill:#d6d9de;stroke:#ffffff;stroke-linejoin:miter;stroke-width:0.5;"/>
   </g>
   <g id="patch_10">
    <path clip-path="url(#p0ade2b101c)" d="M 239.957178 179.479815 
L 255.737326 179.479815 
L 255.737326 52.503125 
L 239.957178 52.503125 
z
" style="fill:#d6d9de;stroke:#ffffff;stroke-linejoin:miter;stroke-width:0.5;"/>
   </g>
   <g id="patch_11">
    <path clip-path="url(#p0ade2b101c)" d="M 264.416407 174.316322 
L 280.196555 174.316322 
L 280.196555 52.503125 
L 264.416407 52.503125 
z
" style="fill:#d6d9de;stroke:#ffffff;stroke-linejoin:miter;stroke-width:0.5;"/>
   </g>
   <g id="patch_12">
    <path clip-path="url(#p0ade2b101c)" d="M 288.086628 172.935464 
L 303.866776 172.935464 
L 303.866776 52.503125 
L 288.086628 52.503125 
z
" style="fill:#d6d9de;stroke:#ffffff;stroke-linejoin:miter;stroke-width:0.5;"/>
   </g>
   <g id="patch_13">
    <path clip-path="url(#p0ade2b101c)" d="M 312.545857 166.535045 
L 328.326005 166.535045 
L 328.326005 52.503125 
L 312.545857 52.503125 
z
" style="fill:#d6d9de;stroke:#ffffff;stroke-linejoin:miter;stroke-width:0.5;"/>
   </g>
   <g id="patch_14">
    <path clip-path="url(#p0ade2b101c)" d="M 336.216079 172.594689 
L 351.996226 172.594689 
L 351.996226 52.503125 
L 336.216079 52.503125 
z
" style="fill:#d6d9de;stroke:#ffffff;stroke-linejoin:miter;stroke-width:0.5;"/>
   </g>
   <g id="patch_15">
    <path clip-path="url(#p0ade2b101c)" d="M 360.675308 163.204865 
L 376.455455 163.204865 
L 376.455455 52.503125 
L 360.675308 52.503125 
z
" style="fill:#d6d9de;stroke:#ffffff;stroke-linejoin:miter;stroke-width:0.5;"/>
   </g>
   <g id="patch_16">
    <path clip-path="url(#p0ade2b101c)" d="M 385.134537 185.290832 
L 400.914684 185.290832 
L 400.914684 52.503125 
L 385.134537 52.503125 
z
" style="fill:#d6d9de;stroke:#ffffff;stroke-linejoin:miter;stroke-width:0.5;"/>
   </g>
   <g id="patch_17">
    <path clip-path="url(#p0ade2b101c)" d="M 407.226743 199.148839 
L 423.006891 199.148839 
L 423.006891 52.503125 
L 407.226743 52.503125 
z
" style="fill:#d6d9de;stroke:#ffffff;stroke-linejoin:miter;stroke-width:0.5;"/>
   </g>
   <g id="patch_18">
    <path clip-path="url(#p0ade2b101c)" d="M 431.685972 194.009957 
L 447.46612 194.009957 
L 447.46612 52.503125 
L 431.685972 52.503125 
z
" style="fill:#d6d9de;stroke:#ffffff;stroke-linejoin:miter;stroke-width:0.5;"/>
   </g>
   <g id="patch_19">
    <path clip-path="url(#p0ade2b101c)" d="M 455.356194 199.202165 
L 471.136341 199.202165 
L 471.136341 52.503125 
L 455.356194 52.503125 
z
" style="fill:#d6d9de;stroke:#ffffff;stroke-linejoin:miter;stroke-width:0.5;"/>
   </g>
   <g id="patch_20">
    <path clip-path="url(#p0ade2b101c)" d="M 479.815422 261.539925 
L 495.59557 261.539925 
L 495.59557 52.503125 
L 479.815422 52.503125 
z
" style="fill:#d6d9de;stroke:#ffffff;stroke-linejoin:miter;stroke-width:0.5;"/>
   </g>
   <g id="patch_21">
    <path clip-path="url(#p0ade2b101c)" d="M 503.485644 261.897865 
L 519.265792 261.897865 
L 519.265792 52.503125 
L 503.485644 52.503125 
z
" style="fill:#d6d9de;stroke:#ffffff;stroke-linejoin:miter;stroke-width:0.5;"/>
   </g>
   <g id="patch_22">
    <path clip-path="url(#p0ade2b101c)" d="M 527.944873 248.045362 
L 543.725021 248.045362 
L 543.725021 52.503125 
L 527.944873 52.503125 
z
" style="fill:#d6d9de;stroke:#ffffff;stroke-linejoin:miter;stroke-width:0.5;"/>
   </g>
   <g id="patch_23">
    <path clip-path="url(#p0ade2b101c)" d="M 552.404102 268.450232 
L 568.184249 268.450232 
L 568.184249 52.503125 
L 552.404102 52.503125 
z
" style="fill:#d6d9de;stroke:#ffffff;stroke-linejoin:miter;stroke-width:0.5;"/>
   </g>
   <g id="patch_24">
    <path clip-path="url(#p0ade2b101c)" d="M 576.074323 259.274657 
L 591.854471 259.274657 
L 591.854471 52.503125 
L 576.074323 52.503125 
z
" style="fill:#d6d9de;stroke:#ffffff;stroke-linejoin:miter;stroke-width:0.5;"/>
   </g>
   <g id="patch_25">
    <path clip-path="url(#p0ade2b101c)" d="M 600.533552 177.109599 
L 616.3137 177.109599 
L 616.3137 52.503125 
L 600.533552 52.503125 
z
" style="fill:#d6d9de;stroke:#ffffff;stroke-linejoin:miter;stroke-width:0.5;"/>
   </g>
   <g id="patch_26">
    <path clip-path="url(#p0ade2b101c)" d="M 624.203774 178.37132 
L 639.983921 178.37132 
L 639.983921 52.503125 
L 624.203774 52.503125 
z
" style="fill:#d6d9de;stroke:#ffffff;stroke-linejoin:miter;stroke-width:0.5;"/>
   </g>
   <g id="patch_27">
    <path clip-path="url(#p0ade2b101c)" d="M 648.663002 243.678114 
L 664.44315 243.678114 
L 664.44315 52.503125 
L 648.663002 52.503125 
z
" style="fill:#d6d9de;stroke:#ffffff;stroke-linejoin:miter;stroke-width:0.5;"/>
   </g>
   <g id="patch_28">
    <path clip-path="url(#p0ade2b101c)" d="M 673.122231 173.210516 
L 688.902379 173.210516 
L 688.902379 52.503125 
L 673.122231 52.503125 
z
" style="fill:#d6d9de;stroke:#ffffff;stroke-linejoin:miter;stroke-width:0.5;"/>
   </g>
   <g id="patch_29">
    <path clip-path="url(#p0ade2b101c)" d="M 695.214438 221.256792 
L 710.994586 221.256792 
L 710.994586 52.503125 
L 695.214438 52.503125 
z
" style="fill:#d6d9de;stroke:#ffffff;stroke-linejoin:miter;stroke-width:0.5;"/>
   </g>
   <g id="patch_30">
    <path clip-path="url(#p0ade2b101c)" d="M 719.673667 221.256792 
L 735.453815 221.256792 
L 735.453815 52.503125 
L 719.673667 52.503125 
z
" style="fill:#d6d9de;stroke:#ffffff;stroke-linejoin:miter;stroke-width:0.5;"/>
   </g>
   <g id="patch_31">
    <path clip-path="url(#p0ade2b101c)" d="M 743.343888 263.845478 
L 759.124036 263.845478 
L 759.124036 52.503125 
L 743.343888 52.503125 
z
" style="fill:#d6d9de;stroke:#ffffff;stroke-linejoin:miter;stroke-width:0.5;"/>
   </g>
   <g id="patch_32">
    <path clip-path="url(#p0ade2b101c)" d="M 767.803117 282.743453 
L 783.583265 282.743453 
L 783.583265 52.503125 
L 767.803117 52.503125 
z
" style="fill:#d6d9de;stroke:#ffffff;stroke-linejoin:miter;stroke-width:0.5;"/>
   </g>
   <g id="patch_33">
    <path clip-path="url(#p0ade2b101c)" d="M 791.473339 261.744063 
L 807.253486 261.744063 
L 807.253486 52.503125 
L 791.473339 52.503125 
z
" style="fill:#d6d9de;stroke:#ffffff;stroke-linejoin:miter;stroke-width:0.5;"/>
   </g>
   <g id="patch_34">
    <path clip-path="url(#p0ade2b101c)" d="M 815.932568 307.675 
L 831.712715 307.675 
L 831.712715 52.503125 
L 815.932568 52.503125 
z
" style="fill:#d6d9de;stroke:#ffffff;stroke-linejoin:miter;stroke-width:0.5;"/>
   </g>
   <g id="patch_35">
    <path clip-path="url(#p0ade2b101c)" d="M 840.391797 239.143125 
L 856.171944 239.143125 
L 856.171944 52.503125 
L 840.391797 52.503125 
z
" style="fill:#d6d9de;stroke:#ffffff;stroke-linejoin:miter;stroke-width:0.5;"/>
   </g>
   <g id="patch_36">
    <path clip-path="url(#p0ade2b101c)" d="M 864.062018 166.110082 
L 879.842166 166.110082 
L 879.842166 52.503125 
L 864.062018 52.503125 
z
" style="fill:#d6d9de;stroke:#ffffff;stroke-linejoin:miter;stroke-width:0.5;"/>
   </g>
   <g id="patch_37">
    <path clip-path="url(#p0ade2b101c)" d="M 888.521247 297.468125 
L 904.301395 297.468125 
L 904.301395 52.503125 
L 888.521247 52.503125 
z
" style="fill:#d6d9de;stroke:#ffffff;stroke-linejoin:miter;stroke-width:0.5;"/>
   </g>
   <g id="patch_38">
    <path clip-path="url(#p0ade2b101c)" d="M 912.191468 188.594792 
L 927.971616 188.594792 
L 927.971616 52.503125 
L 912.191468 52.503125 
z
" style="fill:#d6d9de;stroke:#ffffff;stroke-linejoin:miter;stroke-width:0.5;"/>
   </g>
   <g id="patch_39">
    <path clip-path="url(#p0ade2b101c)" d="M 71.898605 217.059766 
L 87.678753 217.059766 
L 87.678753 204.593354 
L 71.898605 204.593354 
z
" style="fill:#87bbd8;stroke:#ffffff;stroke-linejoin:miter;stroke-width:0.5;"/>
   </g>
   <g id="patch_40">
    <path clip-path="url(#p0ade2b101c)" d="M 96.357834 211.399341 
L 112.137982 211.399341 
L 112.137982 200.80626 
L 96.357834 200.80626 
z
" style="fill:#87bbd8;stroke:#ffffff;stroke-linejoin:miter;stroke-width:0.5;"/>
   </g>
   <g id="patch_41">
    <path clip-path="url(#p0ade2b101c)" d="M 119.239048 199.269183 
L 135.019196 199.269183 
L 135.019196 182.998244 
L 119.239048 182.998244 
z
" style="fill:#87bbd8;stroke:#ffffff;stroke-linejoin:miter;stroke-width:0.5;"/>
   </g>
   <g id="patch_42">
    <path clip-path="url(#p0ade2b101c)" d="M 143.698277 239.957081 
L 159.478425 239.957081 
L 159.478425 206.625602 
L 143.698277 206.625602 
z
" style="fill:#87bbd8;stroke:#ffffff;stroke-linejoin:miter;stroke-width:0.5;"/>
   </g>
   <g id="patch_43">
    <path clip-path="url(#p0ade2b101c)" d="M 167.368499 261.04647 
L 183.148646 261.04647 
L 183.148646 163.310135 
L 167.368499 163.310135 
z
" style="fill:#87bbd8;stroke:#ffffff;stroke-linejoin:miter;stroke-width:0.5;"/>
   </g>
   <g id="patch_44">
    <path clip-path="url(#p0ade2b101c)" d="M 191.827728 278.812211 
L 207.607875 278.812211 
L 207.607875 155.513378 
L 191.827728 155.513378 
z
" style="fill:#87bbd8;stroke:#ffffff;stroke-linejoin:miter;stroke-width:0.5;"/>
   </g>
   <g id="patch_45">
    <path clip-path="url(#p0ade2b101c)" d="M 215.497949 249.440612 
L 231.278097 249.440612 
L 231.278097 162.217603 
L 215.497949 162.217603 
z
" style="fill:#87bbd8;stroke:#ffffff;stroke-linejoin:miter;stroke-width:0.5;"/>
   </g>
   <g id="patch_46">
    <path clip-path="url(#p0ade2b101c)" d="M 239.957178 261.894396 
L 255.737326 261.894396 
L 255.737326 179.479815 
L 239.957178 179.479815 
z
" style="fill:#87bbd8;stroke:#ffffff;stroke-linejoin:miter;stroke-width:0.5;"/>
   </g>
   <g id="patch_47">
    <path clip-path="url(#p0ade2b101c)" d="M 264.416407 273.521941 
L 280.196555 273.521941 
L 280.196555 174.316322 
L 264.416407 174.316322 
z
" style="fill:#87bbd8;stroke:#ffffff;stroke-linejoin:miter;stroke-width:0.5;"/>
   </g>
   <g id="patch_48">
    <path clip-path="url(#p0ade2b101c)" d="M 288.086628 248.381403 
L 303.866776 248.381403 
L 303.866776 172.935464 
L 288.086628 172.935464 
z
" style="fill:#87bbd8;stroke:#ffffff;stroke-linejoin:miter;stroke-width:0.5;"/>
   </g>
   <g id="patch_49">
    <path clip-path="url(#p0ade2b101c)" d="M 312.545857 231.831895 
L 328.326005 231.831895 
L 328.326005 166.535045 
L 312.545857 166.535045 
z
" style="fill:#87bbd8;stroke:#ffffff;stroke-linejoin:miter;stroke-width:0.5;"/>
   </g>
   <g id="patch_50">
    <path clip-path="url(#p0ade2b101c)" d="M 336.216079 236.635453 
L 351.996226 236.635453 
L 351.996226 172.594689 
L 336.216079 172.594689 
z
" style="fill:#87bbd8;stroke:#ffffff;stroke-linejoin:miter;stroke-width:0.5;"/>
   </g>
   <g id="patch_51">
    <path clip-path="url(#p0ade2b101c)" d="M 360.675308 247.976469 
L 376.455455 247.976469 
L 376.455455 163.204865 
L 360.675308 163.204865 
z
" style="fill:#87bbd8;stroke:#ffffff;stroke-linejoin:miter;stroke-width:0.5;"/>
   </g>
   <g id="patch_52">
    <path clip-path="url(#p0ade2b101c)" d="M 385.134537 265.424962 
L 400.914684 265.424962 
L 400.914684 185.290832 
L 385.134537 185.290832 
z
" style="fill:#87bbd8;stroke:#ffffff;stroke-linejoin:miter;stroke-width:0.5;"/>
   </g>
   <g id="patch_53">
    <path clip-path="url(#p0ade2b101c)" d="M 407.226743 277.232921 
L 423.006891 277.232921 
L 423.006891 199.148839 
L 407.226743 199.148839 
z
" style="fill:#87bbd8;stroke:#ffffff;stroke-linejoin:miter;stroke-width:0.5;"/>
   </g>
   <g id="patch_54">
    <path clip-path="url(#p0ade2b101c)" d="M 431.685972 268.397235 
L 447.46612 268.397235 
L 447.46612 194.009957 
L 431.685972 194.009957 
z
" style="fill:#87bbd8;stroke:#ffffff;stroke-linejoin:miter;stroke-width:0.5;"/>
   </g>
   <g id="patch_55">
    <path clip-path="url(#p0ade2b101c)" d="M 455.356194 289.535925 
L 471.136341 289.535925 
L 471.136341 199.202165 
L 455.356194 199.202165 
z
" style="fill:#87bbd8;stroke:#ffffff;stroke-linejoin:miter;stroke-width:0.5;"/>
   </g>
   <g id="patch_56">
    <path clip-path="url(#p0ade2b101c)" d="M 479.815422 326.863925 
L 495.59557 326.863925 
L 495.59557 261.539925 
L 479.815422 261.539925 
z
" style="fill:#87bbd8;stroke:#ffffff;stroke-linejoin:miter;stroke-width:0.5;"/>
   </g>
   <g id="patch_57">
    <path clip-path="url(#p0ade2b101c)" d="M 503.485644 305.745481 
L 519.265792 305.745481 
L 519.265792 261.897865 
L 503.485644 261.897865 
z
" style="fill:#87bbd8;stroke:#ffffff;stroke-linejoin:miter;stroke-width:0.5;"/>
   </g>
   <g id="patch_58">
    <path clip-path="url(#p0ade2b101c)" d="M 527.944873 297.468125 
L 543.725021 297.468125 
L 543.725021 248.045362 
L 527.944873 248.045362 
z
" style="fill:#87bbd8;stroke:#ffffff;stroke-linejoin:miter;stroke-width:0.5;"/>
   </g>
   <g id="patch_59">
    <path clip-path="url(#p0ade2b101c)" d="M 552.404102 321.53723 
L 568.184249 321.53723 
L 568.184249 268.450232 
L 552.404102 268.450232 
z
" style="fill:#87bbd8;stroke:#ffffff;stroke-linejoin:miter;stroke-width:0.5;"/>
   </g>
   <g id="patch_60">
    <path clip-path="url(#p0ade2b101c)" d="M 576.074323 333.02756 
L 591.854471 333.02756 
L 591.854471 259.274657 
L 576.074323 259.274657 
z
" style="fill:#87bbd8;stroke:#ffffff;stroke-linejoin:miter;stroke-width:0.5;"/>
   </g>
   <g id="patch_61">
    <path clip-path="url(#p0ade2b101c)" d="M 600.533552 211.093183 
L 616.3137 211.093183 
L 616.3137 177.109599 
L 600.533552 177.109599 
z
" style="fill:#87bbd8;stroke:#ffffff;stroke-linejoin:miter;stroke-width:0.5;"/>
   </g>
   <g id="patch_62">
    <path clip-path="url(#p0ade2b101c)" d="M 624.203774 223.779466 
L 639.983921 223.779466 
L 639.983921 178.37132 
L 624.203774 178.37132 
z
" style="fill:#87bbd8;stroke:#ffffff;stroke-linejoin:miter;stroke-width:0.5;"/>
   </g>
   <g id="patch_63">
    <path clip-path="url(#p0ade2b101c)" d="M 648.663002 297.997207 
L 664.44315 297.997207 
L 664.44315 243.678114 
L 648.663002 243.678114 
z
" style="fill:#87bbd8;stroke:#ffffff;stroke-linejoin:miter;stroke-width:0.5;"/>
   </g>
   <g id="patch_64">
    <path clip-path="url(#p0ade2b101c)" d="M 673.122231 252.735386 
L 688.902379 252.735386 
L 688.902379 173.210516 
L 673.122231 173.210516 
z
" style="fill:#87bbd8;stroke:#ffffff;stroke-linejoin:miter;stroke-width:0.5;"/>
   </g>
   <g id="patch_65">
    <path clip-path="url(#p0ade2b101c)" d="M 695.214438 333.759236 
L 710.994586 333.759236 
L 710.994586 221.256792 
L 695.214438 221.256792 
z
" style="fill:#87bbd8;stroke:#ffffff;stroke-linejoin:miter;stroke-width:0.5;"/>
   </g>
   <g id="patch_66">
    <path clip-path="url(#p0ade2b101c)" d="M 719.673667 321.964625 
L 735.453815 321.964625 
L 735.453815 221.256792 
L 719.673667 221.256792 
z
" style="fill:#87bbd8;stroke:#ffffff;stroke-linejoin:miter;stroke-width:0.5;"/>
   </g>
   <g id="patch_67">
    <path clip-path="url(#p0ade2b101c)" d="M 743.343888 340.697243 
L 759.124036 340.697243 
L 759.124036 263.845478 
L 743.343888 263.845478 
z
" style="fill:#87bbd8;stroke:#ffffff;stroke-linejoin:miter;stroke-width:0.5;"/>
   </g>
   <g id="patch_68">
    <path clip-path="url(#p0ade2b101c)" d="M 767.803117 341.642141 
L 783.583265 341.642141 
L 783.583265 282.743453 
L 767.803117 282.743453 
z
" style="fill:#87bbd8;stroke:#ffffff;stroke-linejoin:miter;stroke-width:0.5;"/>
   </g>
   <g id="patch_69">
    <path clip-path="url(#p0ade2b101c)" d="M 791.473339 333.192187 
L 807.253486 333.192187 
L 807.253486 261.744062 
L 791.473339 261.744062 
z
" style="fill:#87bbd8;stroke:#ffffff;stroke-linejoin:miter;stroke-width:0.5;"/>
   </g>
   <g id="patch_70">
    <path clip-path="url(#p0ade2b101c)" d="M 815.932568 348.5025 
L 831.712715 348.5025 
L 831.712715 307.675 
L 815.932568 307.675 
z
" style="fill:#87bbd8;stroke:#ffffff;stroke-linejoin:miter;stroke-width:0.5;"/>
   </g>
   <g id="patch_71">
    <path clip-path="url(#p0ade2b101c)" d="M 840.391797 351.127125 
L 856.171944 351.127125 
L 856.171944 239.143125 
L 840.391797 239.143125 
z
" style="fill:#87bbd8;stroke:#ffffff;stroke-linejoin:miter;stroke-width:0.5;"/>
   </g>
   <g id="patch_72">
    <path clip-path="url(#p0ade2b101c)" d="M 864.062018 279.717038 
L 879.842166 279.717038 
L 879.842166 166.110082 
L 864.062018 166.110082 
z
" style="fill:#87bbd8;stroke:#ffffff;stroke-linejoin:miter;stroke-width:0.5;"/>
   </g>
   <g id="patch_73">
    <path clip-path="url(#p0ade2b101c)" d="M 888.521247 338.295625 
L 904.301395 338.295625 
L 904.301395 297.468125 
L 888.521247 297.468125 
z
" style="fill:#87bbd8;stroke:#ffffff;stroke-linejoin:miter;stroke-width:0.5;"/>
   </g>
   <g id="patch_74">
    <path clip-path="url(#p0ade2b101c)" d="M 912.191468 297.468125 
L 927.971616 297.468125 
L 927.971616 188.594792 
L 912.191468 188.594792 
z
" style="fill:#87bbd8;stroke:#ffffff;stroke-linejoin:miter;stroke-width:0.5;"/>
   </g>
   <g id="patch_75">
    <path clip-path="url(#p0ade2b101c)" d="M 71.898605 379.123125 
L 87.678753 379.123125 
L 87.678753 217.059766 
L 71.898605 217.059766 
z
" style="fill:#eea45f;stroke:#ffffff;stroke-linejoin:miter;stroke-width:0.5;"/>
   </g>
   <g id="patch_76">
    <path clip-path="url(#p0ade2b101c)" d="M 96.357834 379.123125 
L 112.137982 379.123125 
L 112.137982 211.399341 
L 96.357834 211.399341 
z
" style="fill:#eea45f;stroke:#ffffff;stroke-linejoin:miter;stroke-width:0.5;"/>
   </g>
   <g id="patch_77">
    <path clip-path="url(#p0ade2b101c)" d="M 119.239048 379.123125 
L 135.019196 379.123125 
L 135.019196 199.269183 
L 119.239048 199.269183 
z
" style="fill:#eea45f;stroke:#ffffff;stroke-linejoin:miter;stroke-width:0.5;"/>
   </g>
   <g id="patch_78">
    <path clip-path="url(#p0ade2b101c)" d="M 143.698277 379.123125 
L 159.478425 379.123125 
L 159.478425 239.957081 
L 143.698277 239.957081 
z
" style="fill:#eea45f;stroke:#ffffff;stroke-linejoin:miter;stroke-width:0.5;"/>
   </g>
   <g id="patch_79">
    <path clip-path="url(#p0ade2b101c)" d="M 167.368499 379.123125 
L 183.148646 379.123125 
L 183.148646 261.04647 
L 167.368499 261.04647 
z
" style="fill:#eea45f;stroke:#ffffff;stroke-linejoin:miter;stroke-width:0.5;"/>
   </g>
   <g id="patch_80">
    <path clip-path="url(#p0ade2b101c)" d="M 191.827728 379.123125 
L 207.607875 379.123125 
L 207.607875 278.812211 
L 191.827728 278.812211 
z
" style="fill:#eea45f;stroke:#ffffff;stroke-linejoin:miter;stroke-width:0.5;"/>
   </g>
   <g id="patch_81">
    <path clip-path="url(#p0ade2b101c)" d="M 215.497949 379.123125 
L 231.278097 379.123125 
L 231.278097 249.440612 
L 215.497949 249.440612 
z
" style="fill:#eea45f;stroke:#ffffff;stroke-linejoin:miter;stroke-width:0.5;"/>
   </g>
   <g id="patch_82">
    <path clip-path="url(#p0ade2b101c)" d="M 239.957178 379.123125 
L 255.737326 379.123125 
L 255.737326 261.894396 
L 239.957178 261.894396 
z
" style="fill:#eea45f;stroke:#ffffff;stroke-linejoin:miter;stroke-width:0.5;"/>
   </g>
   <g id="patch_83">
    <path clip-path="url(#p0ade2b101c)" d="M 264.416407 379.123125 
L 280.196555 379.123125 
L 280.196555 273.521941 
L 264.416407 273.521941 
z
" style="fill:#eea45f;stroke:#ffffff;stroke-linejoin:miter;stroke-width:0.5;"/>
   </g>
   <g id="patch_84">
    <path clip-path="url(#p0ade2b101c)" d="M 288.086628 379.123125 
L 303.866776 379.123125 
L 303.866776 248.381403 
L 288.086628 248.381403 
z
" style="fill:#eea45f;stroke:#ffffff;stroke-linejoin:miter;stroke-width:0.5;"/>
   </g>
   <g id="patch_85">
    <path clip-path="url(#p0ade2b101c)" d="M 312.545857 379.123125 
L 328.326005 379.123125 
L 328.326005 231.831895 
L 312.545857 231.831895 
z
" style="fill:#eea45f;stroke:#ffffff;stroke-linejoin:miter;stroke-width:0.5;"/>
   </g>
   <g id="patch_86">
    <path clip-path="url(#p0ade2b101c)" d="M 336.216079 379.123125 
L 351.996226 379.123125 
L 351.996226 236.635453 
L 336.216079 236.635453 
z
" style="fill:#eea45f;stroke:#ffffff;stroke-linejoin:miter;stroke-width:0.5;"/>
   </g>
   <g id="patch_87">
    <path clip-path="url(#p0ade2b101c)" d="M 360.675308 379.123125 
L 376.455455 379.123125 
L 376.455455 247.976469 
L 360.675308 247.976469 
z
" style="fill:#eea45f;stroke:#ffffff;stroke-linejoin:miter;stroke-width:0.5;"/>
   </g>
   <g id="patch_88">
    <path clip-path="url(#p0ade2b101c)" d="M 385.134537 379.123125 
L 400.914684 379.123125 
L 400.914684 265.424962 
L 385.134537 265.424962 
z
" style="fill:#eea45f;stroke:#ffffff;stroke-linejoin:miter;stroke-width:0.5;"/>
   </g>
   <g id="patch_89">
    <path clip-path="url(#p0ade2b101c)" d="M 407.226743 379.123125 
L 423.006891 379.123125 
L 423.006891 277.232921 
L 407.226743 277.232921 
z
" style="fill:#eea45f;stroke:#ffffff;stroke-linejoin:miter;stroke-width:0.5;"/>
   </g>
   <g id="patch_90">
    <path clip-path="url(#p0ade2b101c)" d="M 431.685972 379.123125 
L 447.46612 379.123125 
L 447.46612 268.397235 
L 431.685972 268.397235 
z
" style="fill:#eea45f;stroke:#ffffff;stroke-linejoin:miter;stroke-width:0.5;"/>
   </g>
   <g id="patch_91">
    <path clip-path="url(#p0ade2b101c)" d="M 455.356194 379.123125 
L 471.136341 379.123125 
L 471.136341 289.535925 
L 455.356194 289.535925 
z
" style="fill:#eea45f;stroke:#ffffff;stroke-linejoin:miter;stroke-width:0.5;"/>
   </g>
   <g id="patch_92">
    <path clip-path="url(#p0ade2b101c)" d="M 479.815422 379.123125 
L 495.59557 379.123125 
L 495.59557 326.863925 
L 479.815422 326.863925 
z
" style="fill:#eea45f;stroke:#ffffff;stroke-linejoin:miter;stroke-width:0.5;"/>
   </g>
   <g id="patch_93">
    <path clip-path="url(#p0ade2b101c)" d="M 503.485644 379.123125 
L 519.265792 379.123125 
L 519.265792 305.745481 
L 503.485644 305.745481 
z
" style="fill:#eea45f;stroke:#ffffff;stroke-linejoin:miter;stroke-width:0.5;"/>
   </g>
   <g id="patch_94">
    <path clip-path="url(#p0ade2b101c)" d="M 527.944873 379.123125 
L 543.725021 379.123125 
L 543.725021 297.468125 
L 527.944873 297.468125 
z
" style="fill:#eea45f;stroke:#ffffff;stroke-linejoin:miter;stroke-width:0.5;"/>
   </g>
   <g id="patch_95">
    <path clip-path="url(#p0ade2b101c)" d="M 552.404102 379.123125 
L 568.184249 379.123125 
L 568.184249 321.53723 
L 552.404102 321.53723 
z
" style="fill:#eea45f;stroke:#ffffff;stroke-linejoin:miter;stroke-width:0.5;"/>
   </g>
   <g id="patch_96">
    <path clip-path="url(#p0ade2b101c)" d="M 576.074323 379.123125 
L 591.854471 379.123125 
L 591.854471 333.02756 
L 576.074323 333.02756 
z
" style="fill:#eea45f;stroke:#ffffff;stroke-linejoin:miter;stroke-width:0.5;"/>
   </g>
   <g id="patch_97">
    <path clip-path="url(#p0ade2b101c)" d="M 600.533552 379.123125 
L 616.3137 379.123125 
L 616.3137 211.093183 
L 600.533552 211.093183 
z
" style="fill:#eea45f;stroke:#ffffff;stroke-linejoin:miter;stroke-width:0.5;"/>
   </g>
   <g id="patch_98">
    <path clip-path="url(#p0ade2b101c)" d="M 624.203774 379.123125 
L 639.983921 379.123125 
L 639.983921 223.779466 
L 624.203774 223.779466 
z
" style="fill:#eea45f;stroke:#ffffff;stroke-linejoin:miter;stroke-width:0.5;"/>
   </g>
   <g id="patch_99">
    <path clip-path="url(#p0ade2b101c)" d="M 648.663002 379.123125 
L 664.44315 379.123125 
L 664.44315 297.997207 
L 648.663002 297.997207 
z
" style="fill:#eea45f;stroke:#ffffff;stroke-linejoin:miter;stroke-width:0.5;"/>
   </g>
   <g id="patch_100">
    <path clip-path="url(#p0ade2b101c)" d="M 673.122231 379.123125 
L 688.902379 379.123125 
L 688.902379 252.735386 
L 673.122231 252.735386 
z
" style="fill:#eea45f;stroke:#ffffff;stroke-linejoin:miter;stroke-width:0.5;"/>
   </g>
   <g id="patch_101">
    <path clip-path="url(#p0ade2b101c)" d="M 695.214438 379.123125 
L 710.994586 379.123125 
L 710.994586 333.759236 
L 695.214438 333.759236 
z
" style="fill:#eea45f;stroke:#ffffff;stroke-linejoin:miter;stroke-width:0.5;"/>
   </g>
   <g id="patch_102">
    <path clip-path="url(#p0ade2b101c)" d="M 719.673667 379.123125 
L 735.453815 379.123125 
L 735.453815 321.964625 
L 719.673667 321.964625 
z
" style="fill:#eea45f;stroke:#ffffff;stroke-linejoin:miter;stroke-width:0.5;"/>
   </g>
   <g id="patch_103">
    <path clip-path="url(#p0ade2b101c)" d="M 743.343888 379.123125 
L 759.124036 379.123125 
L 759.124036 340.697243 
L 743.343888 340.697243 
z
" style="fill:#eea45f;stroke:#ffffff;stroke-linejoin:miter;stroke-width:0.5;"/>
   </g>
   <g id="patch_104">
    <path clip-path="url(#p0ade2b101c)" d="M 767.803117 379.123125 
L 783.583265 379.123125 
L 783.583265 341.642141 
L 767.803117 341.642141 
z
" style="fill:#eea45f;stroke:#ffffff;stroke-linejoin:miter;stroke-width:0.5;"/>
   </g>
   <g id="patch_105">
    <path clip-path="url(#p0ade2b101c)" d="M 791.473339 379.123125 
L 807.253486 379.123125 
L 807.253486 333.192187 
L 791.473339 333.192187 
z
" style="fill:#eea45f;stroke:#ffffff;stroke-linejoin:miter;stroke-width:0.5;"/>
   </g>
   <g id="patch_106">
    <path clip-path="url(#p0ade2b101c)" d="M 815.932568 379.123125 
L 831.712715 379.123125 
L 831.712715 348.5025 
L 815.932568 348.5025 
z
" style="fill:#eea45f;stroke:#ffffff;stroke-linejoin:miter;stroke-width:0.5;"/>
   </g>
   <g id="patch_107">
    <path clip-path="url(#p0ade2b101c)" d="M 840.391797 379.123125 
L 856.171944 379.123125 
L 856.171944 351.127125 
L 840.391797 351.127125 
z
" style="fill:#eea45f;stroke:#ffffff;stroke-linejoin:miter;stroke-width:0.5;"/>
   </g>
   <g id="patch_108">
    <path clip-path="url(#p0ade2b101c)" d="M 864.062018 379.123125 
L 879.842166 379.123125 
L 879.842166 279.717038 
L 864.062018 279.717038 
z
" style="fill:#eea45f;stroke:#ffffff;stroke-linejoin:miter;stroke-width:0.5;"/>
   </g>
   <g id="patch_109">
    <path clip-path="url(#p0ade2b101c)" d="M 888.521247 379.123125 
L 904.301395 379.123125 
L 904.301395 338.295625 
L 888.521247 338.295625 
z
" style="fill:#eea45f;stroke:#ffffff;stroke-linejoin:miter;stroke-width:0.5;"/>
   </g>
   <g id="patch_110">
    <path clip-path="url(#p0ade2b101c)" d="M 912.191468 379.123125 
L 927.971616 379.123125 
L 927.971616 297.468125 
L 912.191468 297.468125 
z
" style="fill:#eea45f;stroke:#ffffff;stroke-linejoin:miter;stroke-width:0.5;"/>
   </g>
   <g id="patch_111">
    <path d="M 7.2 379.123125 
L 969 379.123125 
" style="fill:none;stroke:#caced3;stroke-linecap:square;stroke-linejoin:miter;"/>
   </g>
   <g id="text_12">
    <!-- Type of policies enacted over time, compared to caseload, globally -->
    <g style="fill:#2c2b2b;" transform="translate(7.2 22.503125)scale(0.2 -0.2)">
     <defs>
      <path d="M 2028 0 
L 1494 0 
L 1494 4100 
L 56 4100 
L 56 4569 
L 3459 4569 
L 3459 4100 
L 2028 4100 
L 2028 0 
z
" id="OpenSans-Regular-54" transform="scale(0.015625)"/>
      <path d="M 6 3425 
L 563 3425 
L 1319 1438 
Q 1384 1263 1440 1102 
Q 1497 941 1540 794 
Q 1584 647 1609 509 
L 1631 509 
Q 1675 666 1756 920 
Q 1838 1175 1931 1441 
L 2647 3425 
L 3206 3425 
L 1716 -503 
Q 1597 -819 1439 -1053 
Q 1281 -1288 1056 -1414 
Q 831 -1541 513 -1541 
Q 366 -1541 253 -1523 
Q 141 -1506 59 -1484 
L 59 -1069 
Q 128 -1084 226 -1096 
Q 325 -1109 431 -1109 
Q 625 -1109 767 -1036 
Q 909 -963 1012 -822 
Q 1116 -681 1191 -488 
L 1378 -6 
L 6 3425 
z
" id="OpenSans-Regular-79" transform="scale(0.015625)"/>
      <path d="M 2169 3488 
Q 2778 3488 3090 3189 
Q 3403 2891 3403 2231 
L 3403 0 
L 2891 0 
L 2891 2197 
Q 2891 2625 2695 2837 
Q 2500 3050 2097 3050 
Q 1528 3050 1297 2728 
Q 1066 2406 1066 1794 
L 1066 0 
L 547 0 
L 547 3425 
L 966 3425 
L 1044 2931 
L 1072 2931 
Q 1181 3113 1350 3236 
Q 1519 3359 1728 3423 
Q 1938 3488 2169 3488 
z
" id="OpenSans-Regular-6e" transform="scale(0.015625)"/>
      <path d="M 1828 3481 
Q 2441 3481 2737 3206 
Q 3034 2931 3034 2328 
L 3034 0 
L 2656 0 
L 2556 506 
L 2531 506 
Q 2388 319 2231 192 
Q 2075 66 1870 1 
Q 1666 -63 1369 -63 
Q 1056 -63 814 46 
Q 572 156 433 378 
Q 294 600 294 941 
Q 294 1453 700 1728 
Q 1106 2003 1938 2028 
L 2528 2053 
L 2528 2263 
Q 2528 2706 2337 2884 
Q 2147 3063 1800 3063 
Q 1531 3063 1287 2984 
Q 1044 2906 825 2800 
L 666 3194 
Q 897 3313 1197 3397 
Q 1497 3481 1828 3481 
z
M 2522 1688 
L 2000 1666 
Q 1359 1641 1096 1456 
Q 834 1272 834 934 
Q 834 641 1012 500 
Q 1191 359 1484 359 
Q 1941 359 2231 612 
Q 2522 866 2522 1372 
L 2522 1688 
z
" id="OpenSans-Regular-61" transform="scale(0.015625)"/>
      <path d="M 1653 363 
Q 1781 363 1915 384 
Q 2050 406 2134 438 
L 2134 34 
Q 2044 -6 1883 -34 
Q 1722 -63 1569 -63 
Q 1297 -63 1075 32 
Q 853 128 720 356 
Q 588 584 588 988 
L 588 3019 
L 100 3019 
L 100 3272 
L 591 3475 
L 797 4219 
L 1109 4219 
L 1109 3425 
L 2113 3425 
L 2113 3019 
L 1109 3019 
L 1109 1003 
Q 1109 681 1257 522 
Q 1406 363 1653 363 
z
" id="OpenSans-Regular-74" transform="scale(0.015625)"/>
      <path d="M 1766 -63 
Q 1116 -63 736 381 
Q 356 825 356 1700 
Q 356 2584 743 3036 
Q 1131 3488 1775 3488 
Q 2047 3488 2250 3416 
Q 2453 3344 2600 3223 
Q 2747 3103 2847 2950 
L 2884 2950 
Q 2872 3047 2859 3215 
Q 2847 3384 2847 3491 
L 2847 4863 
L 3366 4863 
L 3366 0 
L 2947 0 
L 2869 488 
L 2847 488 
Q 2750 334 2601 209 
Q 2453 84 2248 10 
Q 2044 -63 1766 -63 
z
M 1847 369 
Q 2397 369 2625 681 
Q 2853 994 2853 1609 
L 2853 1703 
Q 2853 2356 2636 2706 
Q 2419 3056 1847 3056 
Q 1369 3056 1131 2689 
Q 894 2322 894 1688 
Q 894 1056 1130 712 
Q 1366 369 1847 369 
z
" id="OpenSans-Regular-64" transform="scale(0.015625)"/>
      <path d="M 1300 0 
L 0 3425 
L 556 3425 
L 1309 1353 
Q 1388 1141 1469 884 
Q 1550 628 1581 472 
L 1603 472 
Q 1641 628 1728 886 
Q 1816 1144 1888 1353 
L 2641 3425 
L 3197 3425 
L 1894 0 
L 1300 0 
z
" id="OpenSans-Regular-76" transform="scale(0.015625)"/>
      <path d="M 2103 3488 
Q 2206 3488 2318 3477 
Q 2431 3466 2519 3447 
L 2453 2966 
Q 2369 2988 2266 3000 
Q 2163 3013 2072 3013 
Q 1866 3013 1683 2930 
Q 1500 2847 1362 2692 
Q 1225 2538 1147 2320 
Q 1069 2103 1069 1838 
L 1069 0 
L 547 0 
L 547 3425 
L 978 3425 
L 1034 2794 
L 1056 2794 
Q 1163 2984 1313 3142 
Q 1463 3300 1661 3394 
Q 1859 3488 2103 3488 
z
" id="OpenSans-Regular-72" transform="scale(0.015625)"/>
      <path d="M 4266 3488 
Q 4831 3488 5118 3192 
Q 5406 2897 5406 2244 
L 5406 0 
L 4894 0 
L 4894 2219 
Q 4894 2634 4714 2842 
Q 4534 3050 4181 3050 
Q 3684 3050 3459 2762 
Q 3234 2475 3234 1916 
L 3234 0 
L 2719 0 
L 2719 2219 
Q 2719 2497 2639 2681 
Q 2559 2866 2401 2958 
Q 2244 3050 2003 3050 
Q 1663 3050 1456 2909 
Q 1250 2769 1158 2492 
Q 1066 2216 1066 1813 
L 1066 0 
L 547 0 
L 547 3425 
L 966 3425 
L 1044 2941 
L 1072 2941 
Q 1175 3119 1331 3241 
Q 1488 3363 1681 3425 
Q 1875 3488 2094 3488 
Q 2484 3488 2748 3342 
Q 3013 3197 3131 2900 
L 3159 2900 
Q 3328 3197 3622 3342 
Q 3916 3488 4266 3488 
z
" id="OpenSans-Regular-6d" transform="scale(0.015625)"/>
      <path d="M 1141 744 
L 1181 672 
Q 1125 444 1039 184 
Q 953 -75 851 -336 
Q 750 -597 647 -825 
L 259 -825 
Q 325 -575 387 -298 
Q 450 -22 501 248 
Q 553 519 584 744 
L 1141 744 
z
" id="OpenSans-Regular-2c" transform="scale(0.015625)"/>
      <path d="M 1503 -1538 
Q 828 -1538 462 -1286 
Q 97 -1034 97 -581 
Q 97 -259 301 -31 
Q 506 197 869 272 
Q 734 334 639 459 
Q 544 584 544 747 
Q 544 934 648 1076 
Q 753 1219 969 1350 
Q 700 1459 533 1720 
Q 366 1981 366 2328 
Q 366 2697 519 2958 
Q 672 3219 962 3356 
Q 1253 3494 1666 3494 
Q 1756 3494 1848 3486 
Q 1941 3478 2025 3464 
Q 2109 3450 2172 3431 
L 3347 3431 
L 3347 3097 
L 2716 3019 
Q 2809 2897 2871 2725 
Q 2934 2553 2934 2344 
Q 2934 1831 2587 1529 
Q 2241 1228 1634 1228 
Q 1491 1228 1341 1253 
Q 1188 1169 1108 1066 
Q 1028 963 1028 828 
Q 1028 728 1089 668 
Q 1150 609 1265 582 
Q 1381 556 1544 556 
L 2147 556 
Q 2706 556 3004 322 
Q 3303 88 3303 -363 
Q 3303 -931 2840 -1234 
Q 2378 -1538 1503 -1538 
z
M 1519 -1131 
Q 1944 -1131 2223 -1045 
Q 2503 -959 2642 -798 
Q 2781 -638 2781 -416 
Q 2781 -209 2687 -104 
Q 2594 0 2412 36 
Q 2231 72 1969 72 
L 1375 72 
Q 1144 72 972 0 
Q 800 -72 708 -212 
Q 616 -353 616 -563 
Q 616 -841 850 -986 
Q 1084 -1131 1519 -1131 
z
M 1653 1606 
Q 2025 1606 2212 1793 
Q 2400 1981 2400 2341 
Q 2400 2725 2209 2917 
Q 2019 3109 1647 3109 
Q 1291 3109 1098 2911 
Q 906 2713 906 2331 
Q 906 1981 1100 1793 
Q 1294 1606 1653 1606 
z
" id="OpenSans-Regular-67" transform="scale(0.015625)"/>
      <path d="M 1066 4863 
L 1066 3647 
Q 1066 3438 1055 3241 
Q 1044 3044 1038 2934 
L 1066 2934 
Q 1206 3166 1472 3325 
Q 1738 3484 2150 3484 
Q 2794 3484 3176 3039 
Q 3559 2594 3559 1716 
Q 3559 1138 3384 741 
Q 3209 344 2890 140 
Q 2572 -63 2138 -63 
Q 1731 -63 1470 89 
Q 1209 241 1069 459 
L 1028 459 
L 922 0 
L 547 0 
L 547 4863 
L 1066 4863 
z
M 2066 3050 
Q 1694 3050 1475 2904 
Q 1256 2759 1161 2467 
Q 1066 2175 1066 1728 
L 1066 1700 
Q 1066 1053 1281 711 
Q 1497 369 2066 369 
Q 2544 369 2783 719 
Q 3022 1069 3022 1719 
Q 3022 2381 2786 2715 
Q 2550 3050 2066 3050 
z
" id="OpenSans-Regular-62" transform="scale(0.015625)"/>
     </defs>
     <use xlink:href="#OpenSans-Regular-54"/>
     <use x="55.078125" xlink:href="#OpenSans-Regular-79"/>
     <use x="105.175781" xlink:href="#OpenSans-Regular-70"/>
     <use x="166.357422" xlink:href="#OpenSans-Regular-65"/>
     <use x="222.509766" xlink:href="#OpenSans-Regular-20"/>
     <use x="248.486328" xlink:href="#OpenSans-Regular-6f"/>
     <use x="308.642578" xlink:href="#OpenSans-Regular-66"/>
     <use x="342.285156" xlink:href="#OpenSans-Regular-20"/>
     <use x="368.261719" xlink:href="#OpenSans-Regular-70"/>
     <use x="429.443359" xlink:href="#OpenSans-Regular-6f"/>
     <use x="489.599609" xlink:href="#OpenSans-Regular-6c"/>
     <use x="514.84375" xlink:href="#OpenSans-Regular-69"/>
     <use x="540.087891" xlink:href="#OpenSans-Regular-63"/>
     <use x="587.988281" xlink:href="#OpenSans-Regular-69"/>
     <use x="613.232422" xlink:href="#OpenSans-Regular-65"/>
     <use x="669.384766" xlink:href="#OpenSans-Regular-73"/>
     <use x="717.041016" xlink:href="#OpenSans-Regular-20"/>
     <use x="743.017578" xlink:href="#OpenSans-Regular-65"/>
     <use x="799.169922" xlink:href="#OpenSans-Regular-6e"/>
     <use x="860.498047" xlink:href="#OpenSans-Regular-61"/>
     <use x="916.064453" xlink:href="#OpenSans-Regular-63"/>
     <use x="963.964844" xlink:href="#OpenSans-Regular-74"/>
     <use x="999.609375" xlink:href="#OpenSans-Regular-65"/>
     <use x="1055.761719" xlink:href="#OpenSans-Regular-64"/>
     <use x="1116.943359" xlink:href="#OpenSans-Regular-20"/>
     <use x="1142.919922" xlink:href="#OpenSans-Regular-6f"/>
     <use x="1203.076172" xlink:href="#OpenSans-Regular-76"/>
     <use x="1253.027344" xlink:href="#OpenSans-Regular-65"/>
     <use x="1309.179688" xlink:href="#OpenSans-Regular-72"/>
     <use x="1350.048828" xlink:href="#OpenSans-Regular-20"/>
     <use x="1376.025391" xlink:href="#OpenSans-Regular-74"/>
     <use x="1411.669922" xlink:href="#OpenSans-Regular-69"/>
     <use x="1436.914062" xlink:href="#OpenSans-Regular-6d"/>
     <use x="1529.492188" xlink:href="#OpenSans-Regular-65"/>
     <use x="1585.644531" xlink:href="#OpenSans-Regular-2c"/>
     <use x="1611.523438" xlink:href="#OpenSans-Regular-20"/>
     <use x="1637.5" xlink:href="#OpenSans-Regular-63"/>
     <use x="1685.400391" xlink:href="#OpenSans-Regular-6f"/>
     <use x="1745.556641" xlink:href="#OpenSans-Regular-6d"/>
     <use x="1838.134766" xlink:href="#OpenSans-Regular-70"/>
     <use x="1899.316406" xlink:href="#OpenSans-Regular-61"/>
     <use x="1954.882812" xlink:href="#OpenSans-Regular-72"/>
     <use x="1995.751953" xlink:href="#OpenSans-Regular-65"/>
     <use x="2051.904297" xlink:href="#OpenSans-Regular-64"/>
     <use x="2113.085938" xlink:href="#OpenSans-Regular-20"/>
     <use x="2139.0625" xlink:href="#OpenSans-Regular-74"/>
     <use x="2174.707031" xlink:href="#OpenSans-Regular-6f"/>
     <use x="2234.863281" xlink:href="#OpenSans-Regular-20"/>
     <use x="2260.839844" xlink:href="#OpenSans-Regular-63"/>
     <use x="2308.740234" xlink:href="#OpenSans-Regular-61"/>
     <use x="2364.306641" xlink:href="#OpenSans-Regular-73"/>
     <use x="2411.962891" xlink:href="#OpenSans-Regular-65"/>
     <use x="2468.115234" xlink:href="#OpenSans-Regular-6c"/>
     <use x="2493.359375" xlink:href="#OpenSans-Regular-6f"/>
     <use x="2553.515625" xlink:href="#OpenSans-Regular-61"/>
     <use x="2609.082031" xlink:href="#OpenSans-Regular-64"/>
     <use x="2670.263672" xlink:href="#OpenSans-Regular-2c"/>
     <use x="2696.142578" xlink:href="#OpenSans-Regular-20"/>
     <use x="2722.119141" xlink:href="#OpenSans-Regular-67"/>
     <use x="2776.416016" xlink:href="#OpenSans-Regular-6c"/>
     <use x="2801.660156" xlink:href="#OpenSans-Regular-6f"/>
     <use x="2861.816406" xlink:href="#OpenSans-Regular-62"/>
     <use x="2922.998047" xlink:href="#OpenSans-Regular-61"/>
     <use x="2978.564453" xlink:href="#OpenSans-Regular-6c"/>
     <use x="3003.808594" xlink:href="#OpenSans-Regular-6c"/>
     <use x="3029.052734" xlink:href="#OpenSans-Regular-79"/>
    </g>
   </g>
   <g id="legend_1">
    <g id="text_13">
     <!-- Type of policy -->
     <g style="fill:#262626;" transform="translate(1157.4025 51.151912)scale(0.14 -0.14)">
      <use xlink:href="#OpenSans-Regular-54"/>
      <use x="55.078125" xlink:href="#OpenSans-Regular-79"/>
      <use x="105.175781" xlink:href="#OpenSans-Regular-70"/>
      <use x="166.357422" xlink:href="#OpenSans-Regular-65"/>
      <use x="222.509766" xlink:href="#OpenSans-Regular-20"/>
      <use x="248.486328" xlink:href="#OpenSans-Regular-6f"/>
      <use x="308.642578" xlink:href="#OpenSans-Regular-66"/>
      <use x="342.285156" xlink:href="#OpenSans-Regular-20"/>
      <use x="368.261719" xlink:href="#OpenSans-Regular-70"/>
      <use x="429.443359" xlink:href="#OpenSans-Regular-6f"/>
      <use x="489.599609" xlink:href="#OpenSans-Regular-6c"/>
      <use x="514.84375" xlink:href="#OpenSans-Regular-69"/>
      <use x="540.087891" xlink:href="#OpenSans-Regular-63"/>
      <use x="587.988281" xlink:href="#OpenSans-Regular-79"/>
     </g>
    </g>
    <g id="patch_112">
     <path d="M 1161.768125 80.63785 
L 1173.768125 80.63785 
L 1173.768125 68.92285 
L 1161.768125 68.92285 
z
" style="fill:#d6d9de;stroke:#ffffff;stroke-linejoin:miter;stroke-width:0.5;"/>
    </g>
    <g id="text_14">
     <!-- Other -->
     <g style="fill:#565e69;" transform="translate(1183.368125 78.85285)scale(0.12 -0.12)">
      <defs>
       <path d="M 4588 2291 
Q 4588 1763 4453 1330 
Q 4319 897 4055 586 
Q 3791 275 3400 106 
Q 3009 -63 2494 -63 
Q 1963 -63 1567 106 
Q 1172 275 911 587 
Q 650 900 520 1334 
Q 391 1769 391 2297 
Q 391 2997 622 3525 
Q 853 4053 1323 4347 
Q 1794 4641 2503 4641 
Q 3181 4641 3645 4350 
Q 4109 4059 4348 3532 
Q 4588 3006 4588 2291 
z
M 950 2291 
Q 950 1709 1115 1284 
Q 1281 859 1623 628 
Q 1966 397 2494 397 
Q 3025 397 3364 628 
Q 3703 859 3865 1284 
Q 4028 1709 4028 2291 
Q 4028 3175 3658 3673 
Q 3288 4172 2503 4172 
Q 1972 4172 1628 3944 
Q 1284 3716 1117 3295 
Q 950 2875 950 2291 
z
" id="OpenSans-Regular-4f" transform="scale(0.015625)"/>
       <path d="M 1066 4863 
L 1066 3409 
Q 1066 3284 1059 3157 
Q 1053 3031 1038 2925 
L 1072 2925 
Q 1178 3106 1342 3229 
Q 1506 3353 1715 3417 
Q 1925 3481 2159 3481 
Q 2572 3481 2848 3350 
Q 3125 3219 3264 2944 
Q 3403 2669 3403 2231 
L 3403 0 
L 2891 0 
L 2891 2197 
Q 2891 2625 2695 2837 
Q 2500 3050 2097 3050 
Q 1716 3050 1489 2904 
Q 1263 2759 1164 2478 
Q 1066 2197 1066 1791 
L 1066 0 
L 547 0 
L 547 4863 
L 1066 4863 
z
" id="OpenSans-Regular-68" transform="scale(0.015625)"/>
      </defs>
      <use xlink:href="#OpenSans-Regular-4f"/>
      <use x="77.783203" xlink:href="#OpenSans-Regular-74"/>
      <use x="113.427734" xlink:href="#OpenSans-Regular-68"/>
      <use x="174.755859" xlink:href="#OpenSans-Regular-65"/>
      <use x="230.908203" xlink:href="#OpenSans-Regular-72"/>
     </g>
    </g>
    <g id="patch_113">
     <path d="M 1161.768125 107.838475 
L 1173.768125 107.838475 
L 1173.768125 96.123475 
L 1161.768125 96.123475 
z
" style="fill:#87bbd8;stroke:#ffffff;stroke-linejoin:miter;stroke-width:0.5;"/>
    </g>
    <g id="text_15">
     <!-- Relaxing -->
     <g style="fill:#565e69;" transform="translate(1183.368125 106.053475)scale(0.12 -0.12)">
      <defs>
       <path d="M 1859 4569 
Q 2422 4569 2789 4430 
Q 3156 4291 3337 4006 
Q 3519 3722 3519 3281 
Q 3519 2919 3387 2676 
Q 3256 2434 3043 2284 
Q 2831 2134 2591 2053 
L 3844 0 
L 3225 0 
L 2106 1906 
L 1156 1906 
L 1156 0 
L 625 0 
L 625 4569 
L 1859 4569 
z
M 1828 4109 
L 1156 4109 
L 1156 2356 
L 1881 2356 
Q 2441 2356 2705 2584 
Q 2969 2813 2969 3256 
Q 2969 3722 2689 3915 
Q 2409 4109 1828 4109 
z
" id="OpenSans-Regular-52" transform="scale(0.015625)"/>
       <path d="M 1363 1753 
L 178 3425 
L 772 3425 
L 1675 2106 
L 2575 3425 
L 3163 3425 
L 1978 1753 
L 3228 0 
L 2634 0 
L 1675 1397 
L 709 0 
L 122 0 
L 1363 1753 
z
" id="OpenSans-Regular-78" transform="scale(0.015625)"/>
      </defs>
      <use xlink:href="#OpenSans-Regular-52"/>
      <use x="61.71875" xlink:href="#OpenSans-Regular-65"/>
      <use x="117.871094" xlink:href="#OpenSans-Regular-6c"/>
      <use x="143.115234" xlink:href="#OpenSans-Regular-61"/>
      <use x="198.681641" xlink:href="#OpenSans-Regular-78"/>
      <use x="251.025391" xlink:href="#OpenSans-Regular-69"/>
      <use x="276.269531" xlink:href="#OpenSans-Regular-6e"/>
      <use x="337.597656" xlink:href="#OpenSans-Regular-67"/>
     </g>
    </g>
    <g id="patch_114">
     <path d="M 1161.768125 135.052225 
L 1173.768125 135.052225 
L 1173.768125 123.337225 
L 1161.768125 123.337225 
z
" style="fill:#eea45f;stroke:#ffffff;stroke-linejoin:miter;stroke-width:0.5;"/>
    </g>
    <g id="text_16">
     <!-- Restricting -->
     <g style="fill:#565e69;" transform="translate(1183.368125 133.267225)scale(0.12 -0.12)">
      <use xlink:href="#OpenSans-Regular-52"/>
      <use x="61.71875" xlink:href="#OpenSans-Regular-65"/>
      <use x="117.871094" xlink:href="#OpenSans-Regular-73"/>
      <use x="165.527344" xlink:href="#OpenSans-Regular-74"/>
      <use x="201.171875" xlink:href="#OpenSans-Regular-72"/>
      <use x="242.041016" xlink:href="#OpenSans-Regular-69"/>
      <use x="267.285156" xlink:href="#OpenSans-Regular-63"/>
      <use x="315.185547" xlink:href="#OpenSans-Regular-74"/>
      <use x="350.830078" xlink:href="#OpenSans-Regular-69"/>
      <use x="376.074219" xlink:href="#OpenSans-Regular-6e"/>
      <use x="437.402344" xlink:href="#OpenSans-Regular-67"/>
     </g>
    </g>
    <g id="line2d_54">
     <path d="M 1161.768125 155.515975 
L 1173.768125 155.515975 
" style="fill:none;stroke:#2c2b2b;stroke-linecap:round;stroke-width:3;"/>
    </g>
    <g id="line2d_55"/>
    <g id="text_17">
     <!-- Cases -->
     <g style="fill:#565e69;" transform="translate(1183.368125 160.480975)scale(0.12 -0.12)">
      <defs>
       <path d="M 2578 4166 
Q 2200 4166 1898 4036 
Q 1597 3906 1386 3661 
Q 1175 3416 1062 3069 
Q 950 2722 950 2288 
Q 950 1713 1129 1289 
Q 1309 866 1667 634 
Q 2025 403 2563 403 
Q 2869 403 3139 454 
Q 3409 506 3666 584 
L 3666 122 
Q 3416 28 3141 -17 
Q 2866 -63 2488 -63 
Q 1791 -63 1323 226 
Q 856 516 623 1044 
Q 391 1572 391 2291 
Q 391 2809 536 3239 
Q 681 3669 961 3981 
Q 1241 4294 1648 4464 
Q 2056 4634 2584 4634 
Q 2931 4634 3253 4565 
Q 3575 4497 3834 4369 
L 3622 3919 
Q 3403 4019 3142 4092 
Q 2881 4166 2578 4166 
z
" id="OpenSans-Regular-43" transform="scale(0.015625)"/>
      </defs>
      <use xlink:href="#OpenSans-Regular-43"/>
      <use x="62.988281" xlink:href="#OpenSans-Regular-61"/>
      <use x="118.554688" xlink:href="#OpenSans-Regular-73"/>
      <use x="166.210938" xlink:href="#OpenSans-Regular-65"/>
      <use x="222.363281" xlink:href="#OpenSans-Regular-73"/>
     </g>
    </g>
   </g>
  </g>
  <g id="axes_2">
   <g id="matplotlib.axis_3">
    <g id="ytick_7">
     <g id="line2d_56">
      <defs>
       <path d="M 0 0 
L -10 0 
" id="m9d92ba547c" style="stroke:#caced3;stroke-width:0.5;"/>
      </defs>
      <g>
       <use style="fill:#caced3;stroke:#caced3;stroke-width:0.5;" x="969" xlink:href="#m9d92ba547c" y="379.123125"/>
      </g>
     </g>
     <g id="text_18">
      <!-- 0 -->
      <g style="fill:#565e69;" transform="translate(959 376.2525)scale(0.12 -0.12)">
       <use xlink:href="#OpenSans-Regular-30"/>
      </g>
     </g>
    </g>
    <g id="ytick_8">
     <g id="line2d_57">
      <g>
       <use style="fill:#caced3;stroke:#caced3;stroke-width:0.5;" x="969" xlink:href="#m9d92ba547c" y="313.799125"/>
      </g>
     </g>
     <g id="text_19">
      <!-- 10 -->
      <g style="fill:#565e69;" transform="translate(959 310.9285)scale(0.12 -0.12)">
       <use xlink:href="#OpenSans-Regular-31"/>
       <use x="57.177734" xlink:href="#OpenSans-Regular-30"/>
      </g>
     </g>
    </g>
    <g id="ytick_9">
     <g id="line2d_58">
      <g>
       <use style="fill:#caced3;stroke:#caced3;stroke-width:0.5;" x="969" xlink:href="#m9d92ba547c" y="248.475125"/>
      </g>
     </g>
     <g id="text_20">
      <!-- 20 -->
      <g style="fill:#565e69;" transform="translate(959 245.6045)scale(0.12 -0.12)">
       <use xlink:href="#OpenSans-Regular-32"/>
       <use x="57.177734" xlink:href="#OpenSans-Regular-30"/>
      </g>
     </g>
    </g>
    <g id="ytick_10">
     <g id="line2d_59">
      <g>
       <use style="fill:#caced3;stroke:#caced3;stroke-width:0.5;" x="969" xlink:href="#m9d92ba547c" y="183.151125"/>
      </g>
     </g>
     <g id="text_21">
      <!-- 30 -->
      <g style="fill:#565e69;" transform="translate(959 180.2805)scale(0.12 -0.12)">
       <use xlink:href="#OpenSans-Regular-33"/>
       <use x="57.177734" xlink:href="#OpenSans-Regular-30"/>
      </g>
     </g>
    </g>
    <g id="ytick_11">
     <g id="line2d_60">
      <g>
       <use style="fill:#caced3;stroke:#caced3;stroke-width:0.5;" x="969" xlink:href="#m9d92ba547c" y="117.827125"/>
      </g>
     </g>
     <g id="text_22">
      <!-- 40 -->
      <g style="fill:#565e69;" transform="translate(959 114.9565)scale(0.12 -0.12)">
       <use xlink:href="#OpenSans-Regular-34"/>
       <use x="57.177734" xlink:href="#OpenSans-Regular-30"/>
      </g>
     </g>
    </g>
    <g id="ytick_12">
     <g id="line2d_61">
      <g>
       <use style="fill:#caced3;stroke:#caced3;stroke-width:0.5;" x="969" xlink:href="#m9d92ba547c" y="52.503125"/>
      </g>
     </g>
     <g id="text_23">
      <!-- 50 -->
      <g style="fill:#565e69;" transform="translate(959 49.6325)scale(0.12 -0.12)">
       <defs>
        <path d="M 1759 2794 
Q 2225 2794 2569 2636 
Q 2913 2478 3102 2178 
Q 3291 1878 3291 1450 
Q 3291 981 3087 642 
Q 2884 303 2503 120 
Q 2122 -63 1591 -63 
Q 1234 -63 928 0 
Q 622 63 413 188 
L 413 681 
Q 641 544 966 462 
Q 1291 381 1597 381 
Q 1944 381 2205 492 
Q 2466 603 2611 829 
Q 2756 1056 2756 1400 
Q 2756 1856 2476 2104 
Q 2197 2353 1594 2353 
Q 1400 2353 1169 2322 
Q 938 2291 788 2253 
L 525 2425 
L 700 4569 
L 2972 4569 
L 2972 4094 
L 1144 4094 
L 1028 2716 
Q 1147 2741 1334 2767 
Q 1522 2794 1759 2794 
z
" id="OpenSans-Regular-35" transform="scale(0.015625)"/>
       </defs>
       <use xlink:href="#OpenSans-Regular-35"/>
       <use x="57.177734" xlink:href="#OpenSans-Regular-30"/>
      </g>
     </g>
    </g>
    <g id="text_24">
     <!-- average new 7-day cases, -->
     <g style="fill:#565e69;" transform="translate(971.851875 48.55645)scale(0.12 -0.12)">
      <defs>
       <path d="M 3334 6 
L 2725 2000 
Q 2684 2128 2648 2251 
Q 2613 2375 2583 2489 
Q 2553 2603 2529 2701 
Q 2506 2800 2491 2872 
L 2469 2872 
Q 2456 2800 2434 2701 
Q 2413 2603 2383 2487 
Q 2353 2372 2318 2245 
Q 2284 2119 2241 1991 
L 1603 6 
L 1019 6 
L 75 3431 
L 613 3431 
L 1106 1541 
Q 1156 1353 1201 1170 
Q 1247 988 1280 827 
Q 1313 666 1328 547 
L 1353 547 
Q 1372 625 1395 734 
Q 1419 844 1448 967 
Q 1478 1091 1512 1214 
Q 1547 1338 1581 1447 
L 2213 3431 
L 2772 3431 
L 3381 1450 
Q 3428 1300 3473 1137 
Q 3519 975 3556 823 
Q 3594 672 3609 553 
L 3634 553 
Q 3647 659 3681 815 
Q 3716 972 3761 1159 
Q 3806 1347 3856 1541 
L 4356 3431 
L 4884 3431 
L 3938 6 
L 3334 6 
z
" id="OpenSans-Regular-77" transform="scale(0.015625)"/>
       <path d="M 906 0 
L 2781 4094 
L 291 4094 
L 291 4569 
L 3338 4569 
L 3338 4169 
L 1475 0 
L 906 0 
z
" id="OpenSans-Regular-37" transform="scale(0.015625)"/>
       <path d="M 256 1488 
L 256 1950 
L 1806 1950 
L 1806 1488 
L 256 1488 
z
" id="OpenSans-Regular-2d" transform="scale(0.015625)"/>
      </defs>
      <use xlink:href="#OpenSans-Regular-61"/>
      <use x="55.566406" xlink:href="#OpenSans-Regular-76"/>
      <use x="105.517578" xlink:href="#OpenSans-Regular-65"/>
      <use x="161.669922" xlink:href="#OpenSans-Regular-72"/>
      <use x="202.539062" xlink:href="#OpenSans-Regular-61"/>
      <use x="258.105469" xlink:href="#OpenSans-Regular-67"/>
      <use x="312.402344" xlink:href="#OpenSans-Regular-65"/>
      <use x="368.554688" xlink:href="#OpenSans-Regular-20"/>
      <use x="394.53125" xlink:href="#OpenSans-Regular-6e"/>
      <use x="455.859375" xlink:href="#OpenSans-Regular-65"/>
      <use x="512.011719" xlink:href="#OpenSans-Regular-77"/>
      <use x="589.501953" xlink:href="#OpenSans-Regular-20"/>
      <use x="615.478516" xlink:href="#OpenSans-Regular-37"/>
      <use x="672.65625" xlink:href="#OpenSans-Regular-2d"/>
      <use x="704.833984" xlink:href="#OpenSans-Regular-64"/>
      <use x="766.015625" xlink:href="#OpenSans-Regular-61"/>
      <use x="821.582031" xlink:href="#OpenSans-Regular-79"/>
      <use x="871.679688" xlink:href="#OpenSans-Regular-20"/>
      <use x="897.65625" xlink:href="#OpenSans-Regular-63"/>
      <use x="945.556641" xlink:href="#OpenSans-Regular-61"/>
      <use x="1001.123047" xlink:href="#OpenSans-Regular-73"/>
      <use x="1048.779297" xlink:href="#OpenSans-Regular-65"/>
      <use x="1104.931641" xlink:href="#OpenSans-Regular-73"/>
      <use x="1152.587891" xlink:href="#OpenSans-Regular-2c"/>
     </g>
     <!-- per 100k -->
     <g style="fill:#565e69;" transform="translate(1064.278125 62.387575)scale(0.12 -0.12)">
      <defs>
       <path d="M 1063 4863 
L 1063 2338 
Q 1063 2213 1053 2033 
Q 1044 1853 1038 1716 
L 1059 1716 
Q 1125 1797 1251 1956 
Q 1378 2116 1466 2213 
L 2603 3425 
L 3213 3425 
L 1834 1963 
L 3313 0 
L 2688 0 
L 1478 1622 
L 1063 1241 
L 1063 0 
L 547 0 
L 547 4863 
L 1063 4863 
z
" id="OpenSans-Regular-6b" transform="scale(0.015625)"/>
      </defs>
      <use xlink:href="#OpenSans-Regular-70"/>
      <use x="61.181641" xlink:href="#OpenSans-Regular-65"/>
      <use x="117.333984" xlink:href="#OpenSans-Regular-72"/>
      <use x="158.203125" xlink:href="#OpenSans-Regular-20"/>
      <use x="184.179688" xlink:href="#OpenSans-Regular-31"/>
      <use x="241.357422" xlink:href="#OpenSans-Regular-30"/>
      <use x="298.535156" xlink:href="#OpenSans-Regular-30"/>
      <use x="355.712891" xlink:href="#OpenSans-Regular-6b"/>
     </g>
    </g>
   </g>
   <g id="line2d_62">
    <path clip-path="url(#p0ade2b101c)" d="M 101.091879 379.076288 
L 107.403938 378.922776 
L 118.450041 378.843408 
L 120.028056 379.03435 
L 130.285152 378.979935 
L 136.597211 378.708644 
L 140.542248 378.289199 
L 144.487285 377.270406 
L 146.065299 376.704504 
L 149.221329 375.513909 
L 150.010336 375.304349 
L 151.588351 374.637718 
L 153.166366 374.246558 
L 153.955373 374.334876 
L 155.533388 374.102388 
L 157.111403 374.230096 
L 159.478425 374.021582 
L 160.267432 373.584238 
L 161.05644 373.611282 
L 161.845447 373.46476 
L 163.423462 373.433339 
L 165.001477 373.39421 
L 165.790484 373.788571 
L 166.579491 373.745196 
L 167.368499 373.824957 
L 168.157506 373.789616 
L 169.735521 373.9396 
L 171.313536 373.944957 
L 173.680558 374.042616 
L 178.414602 373.901843 
L 179.992617 373.728473 
L 186.304676 373.553078 
L 191.03872 372.922048 
L 194.19475 372.589419 
L 195.772765 372.648406 
L 197.350779 372.386065 
L 198.139787 372.097725 
L 199.717801 371.895416 
L 200.506809 371.612825 
L 202.084824 371.36185 
L 202.873831 371.250146 
L 203.662838 371.30345 
L 207.607875 370.947173 
L 209.18589 370.959781 
L 211.552912 370.39316 
L 213.130927 370.272376 
L 214.708942 369.287878 
L 215.497949 369.650753 
L 217.075964 369.262075 
L 219.442986 368.551481 
L 220.231993 368.639864 
L 221.021001 367.936259 
L 222.599016 367.693646 
L 223.388023 367.285959 
L 224.17703 367.048376 
L 226.544053 366.663813 
L 229.700082 366.092947 
L 231.278097 365.595047 
L 232.067104 365.532401 
L 232.856112 365.287894 
L 236.012141 364.813707 
L 237.590156 364.426597 
L 239.168171 364.093836 
L 241.535193 362.914477 
L 242.3242 362.781804 
L 243.113208 362.782588 
L 244.691222 362.342957 
L 246.269237 362.37072 
L 248.636259 362.188989 
L 249.425267 362.453355 
L 252.581296 362.395216 
L 253.370304 362.218319 
L 254.159311 362.196043 
L 254.948318 361.942652 
L 257.31534 361.909402 
L 258.104348 361.679461 
L 261.260377 362.29207 
L 262.049385 362.269598 
L 262.838392 362.44336 
L 263.6274 362.864373 
L 264.416407 362.729022 
L 265.205414 362.797024 
L 265.994422 362.65501 
L 266.783429 362.787487 
L 268.361444 362.600791 
L 269.150451 362.395674 
L 269.939459 362.421738 
L 270.728466 362.263262 
L 271.517473 361.925406 
L 272.306481 361.723098 
L 273.884495 361.738384 
L 275.46251 361.451154 
L 276.251518 361.36473 
L 277.040525 361.803512 
L 277.829532 361.99367 
L 278.61854 361.961726 
L 281.774569 361.323119 
L 282.563577 360.857816 
L 283.352584 360.540211 
L 284.930599 360.252524 
L 287.297621 360.056813 
L 288.875636 360.089149 
L 291.242658 359.939426 
L 293.60968 360.06818 
L 294.398687 360.082355 
L 295.187695 359.962028 
L 296.76571 359.989595 
L 298.343724 359.758348 
L 299.132732 359.290824 
L 302.288761 358.086249 
L 303.077769 357.543472 
L 303.866776 357.273162 
L 304.655783 357.472138 
L 305.444791 357.441828 
L 306.233798 357.147021 
L 307.811813 356.234445 
L 308.60082 356.079431 
L 309.389828 355.689838 
L 310.967842 354.248726 
L 311.75685 353.699743 
L 313.334865 352.220938 
L 314.123872 351.43509 
L 314.912879 351.177648 
L 315.701887 350.168915 
L 318.857916 347.286363 
L 319.646924 347.139319 
L 322.013946 344.874144 
L 322.802953 345.150595 
L 323.591961 344.516364 
L 324.380968 344.036363 
L 325.169975 342.850406 
L 325.958983 342.368315 
L 326.74799 342.728185 
L 327.536998 342.679323 
L 328.326005 341.442674 
L 329.115012 341.248009 
L 329.90402 340.895716 
L 331.482034 341.014998 
L 332.271042 340.8673 
L 333.060049 340.572689 
L 333.849057 340.595095 
L 336.216079 340.292449 
L 337.794094 340.141028 
L 339.372108 340.296956 
L 340.161116 340.901007 
L 341.73913 340.562172 
L 342.528138 340.585101 
L 343.317145 340.841105 
L 344.89516 340.399842 
L 345.684167 339.454211 
L 346.473175 339.444674 
L 347.262182 339.120079 
L 348.051189 338.669148 
L 349.629204 338.25826 
L 350.418212 338.024008 
L 351.207219 330.513512 
L 352.785234 330.366729 
L 353.574241 330.414742 
L 355.152256 330.094981 
L 355.941263 329.607925 
L 356.730271 336.670429 
L 357.519278 336.524038 
L 358.308285 336.647109 
L 359.097293 336.567675 
L 360.675308 336.587272 
L 362.253322 337.34 
L 363.04233 339.469693 
L 363.831337 340.429564 
L 364.620345 341.681041 
L 365.409352 342.120019 
L 366.198359 341.929468 
L 366.987367 341.526289 
L 367.776374 340.160625 
L 369.354389 338.833633 
L 370.143396 337.83385 
L 371.721411 336.646129 
L 372.510418 336.033847 
L 373.299426 335.751778 
L 374.088433 333.216031 
L 374.877441 331.798565 
L 375.666448 331.040742 
L 376.455455 330.508482 
L 378.03347 331.404335 
L 378.822477 332.439263 
L 379.611485 332.92044 
L 380.400492 333.847975 
L 381.1895 334.537862 
L 382.767514 336.376079 
L 383.556522 336.899324 
L 384.345529 337.742004 
L 385.134537 338.865316 
L 386.712551 340.225753 
L 388.290566 340.852537 
L 389.079573 341.657329 
L 389.868581 342.157906 
L 391.446596 343.430418 
L 392.235603 344.040479 
L 393.02461 344.400218 
L 393.813618 345.294765 
L 394.602625 346.001309 
L 395.391632 347.338949 
L 396.18064 347.828683 
L 396.969647 348.572135 
L 397.758655 348.992626 
L 398.547662 349.954653 
L 399.336669 350.49743 
L 400.125677 351.288634 
L 400.914684 351.549995 
L 401.703692 352.547754 
L 404.070714 354.010162 
L 406.437736 355.265755 
L 407.226743 355.451732 
L 408.015751 355.500987 
L 409.593765 355.261444 
L 410.382773 354.953964 
L 411.17178 354.407594 
L 412.749795 353.712873 
L 413.538802 353.512002 
L 414.32781 353.621877 
L 415.116817 353.529247 
L 415.905824 354.270936 
L 417.483839 354.248922 
L 419.061854 354.020745 
L 419.850861 353.398664 
L 420.639869 353.398991 
L 421.428876 352.458521 
L 422.217884 352.299653 
L 423.795898 351.633153 
L 424.584906 351.245193 
L 425.373913 351.332662 
L 426.951928 350.384484 
L 427.740935 349.57401 
L 428.529943 349.030449 
L 429.31895 348.346441 
L 430.107957 347.946593 
L 431.685972 346.616792 
L 432.474979 346.254636 
L 433.263987 345.470878 
L 434.052994 344.497943 
L 435.631009 342.971321 
L 436.420016 342.484331 
L 437.209024 342.128903 
L 439.576046 340.652646 
L 440.365053 340.608421 
L 441.154061 341.020746 
L 441.943068 340.392983 
L 443.521083 339.618436 
L 444.31009 339.718774 
L 445.099098 338.540786 
L 445.888105 337.58392 
L 448.255127 333.880572 
L 449.833142 331.038978 
L 450.622149 331.177334 
L 452.200164 328.976111 
L 452.989171 329.064821 
L 456.145201 326.181616 
L 456.934208 325.735453 
L 458.512223 325.18843 
L 460.090238 325.210444 
L 460.879245 325.121277 
L 462.45726 325.323389 
L 464.035275 325.981659 
L 464.824282 325.968529 
L 466.402297 327.003914 
L 467.191304 327.20165 
L 467.980312 327.729337 
L 468.769319 327.791069 
L 469.558326 328.144341 
L 471.925349 329.996603 
L 474.292371 333.916957 
L 475.081378 334.876175 
L 475.870386 335.642295 
L 477.4484 337.523691 
L 478.237408 341.745385 
L 479.026415 342.520781 
L 480.60443 343.680282 
L 482.971452 346.314865 
L 483.760459 343.845683 
L 484.549467 344.974547 
L 486.127482 346.688061 
L 487.705496 347.970501 
L 490.861526 350.878203 
L 492.439541 352.112435 
L 493.228548 352.95126 
L 494.017555 353.598295 
L 494.806563 353.850184 
L 495.59557 353.876836 
L 497.173585 354.329009 
L 497.962592 354.445286 
L 498.7516 354.401976 
L 499.540607 354.673724 
L 500.329614 355.210426 
L 501.907629 355.580029 
L 502.696637 355.561738 
L 503.485644 355.679779 
L 504.274651 355.348847 
L 505.852666 355.155619 
L 508.219688 354.817502 
L 509.008696 354.478144 
L 509.797703 354.748846 
L 510.58671 354.722259 
L 512.164725 354.246766 
L 513.74274 353.990696 
L 514.531747 353.571708 
L 516.109762 352.310955 
L 516.898769 351.878575 
L 517.687777 351.216973 
L 520.054799 349.85745 
L 521.632814 348.477546 
L 523.210829 346.823477 
L 523.999836 346.191337 
L 525.577851 345.205728 
L 527.944873 345.078347 
L 528.73388 343.844638 
L 529.522888 344.375918 
L 530.311895 344.138857 
L 531.100902 343.661404 
L 531.88991 342.971648 
L 533.467925 341.369772 
L 534.256932 341.330447 
L 535.045939 340.533233 
L 536.623954 339.899329 
L 538.201969 339.355115 
L 538.990976 338.956116 
L 539.779984 338.142636 
L 540.568991 337.732728 
L 541.357998 337.875984 
L 542.147006 337.428253 
L 542.936013 337.320599 
L 543.725021 336.851769 
L 544.514028 336.664027 
L 546.092043 336.90749 
L 546.88105 336.917093 
L 548.459065 336.150581 
L 550.03708 336.048479 
L 550.826087 336.203232 
L 551.615094 336.145877 
L 552.404102 336.319574 
L 553.193109 336.134315 
L 554.771124 336.172987 
L 555.560131 335.942393 
L 556.349139 336.260521 
L 558.716161 336.404822 
L 559.505168 336.928459 
L 560.294176 337.099543 
L 561.083183 337.65643 
L 561.87219 337.91348 
L 562.661198 338.477814 
L 563.450205 338.476442 
L 564.239212 340.287615 
L 565.02822 339.953287 
L 565.817227 340.712613 
L 566.606235 341.054453 
L 567.395242 341.659746 
L 568.184249 341.922805 
L 568.973257 342.627978 
L 569.762264 341.693584 
L 570.551272 342.688925 
L 571.340279 343.3502 
L 572.129286 343.842874 
L 572.918294 344.174066 
L 573.707301 343.65755 
L 574.496308 343.73228 
L 577.652338 345.416268 
L 578.441345 346.106612 
L 579.230353 347.505198 
L 580.01936 347.575879 
L 583.17539 349.319638 
L 584.753404 349.79193 
L 586.331419 350.561643 
L 587.120427 350.824115 
L 587.909434 350.674066 
L 588.698441 350.93595 
L 589.487449 351.370681 
L 590.276456 351.468079 
L 591.065463 351.398901 
L 591.854471 351.950235 
L 592.643478 351.806915 
L 593.432486 352.279403 
L 596.588515 352.539458 
L 597.377523 352.168091 
L 598.16653 352.230018 
L 600.533552 351.638575 
L 601.322559 351.368917 
L 602.111567 351.407132 
L 602.900574 351.177452 
L 603.689582 351.225008 
L 604.478589 350.873304 
L 605.267596 350.677528 
L 606.845611 350.625138 
L 607.634619 350.255208 
L 608.423626 350.206281 
L 609.212633 350.41179 
L 610.001641 350.310995 
L 612.368663 349.417363 
L 613.15767 349.4934 
L 614.735685 348.258123 
L 615.524692 347.803272 
L 616.3137 347.771328 
L 617.102707 347.067005 
L 617.891715 347.160614 
L 618.680722 347.089868 
L 619.469729 346.375616 
L 621.047744 345.63752 
L 621.836751 344.697116 
L 622.625759 344.558172 
L 624.203774 343.869461 
L 625.781788 342.107215 
L 626.570796 341.708804 
L 627.359803 341.93685 
L 628.148811 341.945669 
L 628.937818 342.124918 
L 629.726825 342.031635 
L 630.515833 341.679931 
L 631.30484 341.606507 
L 632.093847 341.190654 
L 633.671862 339.07076 
L 634.46087 338.572403 
L 635.249877 338.292359 
L 636.038884 338.652686 
L 636.827892 338.290791 
L 637.616899 338.20796 
L 638.405906 338.29053 
L 639.194914 338.638707 
L 639.983921 338.688222 
L 640.772929 338.625185 
L 642.350943 338.739894 
L 643.139951 338.470824 
L 643.928958 338.043017 
L 645.506973 336.763908 
L 646.29598 336.218844 
L 647.873995 333.997436 
L 648.663002 332.370738 
L 649.45201 329.871638 
L 650.241017 329.04542 
L 651.030025 327.626517 
L 651.819032 326.781747 
L 653.397047 316.430114 
L 654.186054 309.054251 
L 655.764069 292.396304 
L 656.553076 287.532933 
L 657.342084 284.331795 
L 658.131091 275.029984 
L 658.920098 263.112535 
L 659.709106 254.908363 
L 660.498113 248.197759 
L 661.287121 236.527169 
L 662.076128 227.816214 
L 662.865135 217.676361 
L 663.654143 209.153147 
L 664.44315 205.261862 
L 665.232158 197.211659 
L 666.021165 192.378793 
L 666.810172 188.992985 
L 667.59918 186.275703 
L 668.388187 184.725499 
L 669.177194 189.147934 
L 670.755209 176.355404 
L 672.333224 166.642182 
L 673.911239 162.591245 
L 674.700246 154.611984 
L 675.489253 155.646063 
L 676.278261 158.647439 
L 677.067268 158.97014 
L 677.856276 160.194508 
L 678.645283 160.999691 
L 679.43429 162.924724 
L 680.223298 160.810186 
L 682.59032 175.805115 
L 683.379327 182.555631 
L 684.957342 190.71277 
L 685.746349 198.974819 
L 686.535357 203.921021 
L 687.324364 210.935121 
L 688.113372 214.478882 
L 688.902379 219.431683 
L 690.480394 226.293969 
L 691.269401 234.983955 
L 692.058409 241.786078 
L 692.847416 243.58889 
L 693.636423 250.600637 
L 694.425431 254.719577 
L 696.003445 259.016263 
L 696.792453 262.163247 
L 697.58146 264.002248 
L 698.370468 267.010091 
L 699.159475 269.57641 
L 699.948482 272.647879 
L 700.73749 274.543124 
L 701.526497 275.862539 
L 702.315505 276.765708 
L 703.104512 277.465524 
L 703.893519 279.869513 
L 704.682527 279.988141 
L 705.471534 278.979147 
L 706.260541 278.826615 
L 707.049549 278.289195 
L 707.838556 277.051762 
L 708.627564 277.18646 
L 709.416571 274.104082 
L 710.994586 272.182119 
L 711.783593 269.65898 
L 712.5726 269.398598 
L 714.150615 264.90483 
L 714.939623 262.584194 
L 715.72863 260.653152 
L 716.517637 260.476516 
L 717.306645 261.23545 
L 718.095652 262.885534 
L 718.88466 263.986962 
L 719.673667 262.420819 
L 720.462674 266.479857 
L 721.251682 269.220721 
L 722.040689 270.452078 
L 722.829696 273.764658 
L 723.618704 274.791813 
L 724.407711 275.12392 
L 726.774733 281.213619 
L 727.563741 284.391632 
L 728.352748 286.740944 
L 729.141756 288.21178 
L 729.930763 293.913193 
L 731.508778 301.044026 
L 733.086792 305.985787 
L 734.664807 308.430145 
L 736.242822 313.029282 
L 737.031829 314.381946 
L 737.820837 317.32845 
L 738.609844 322.138256 
L 739.398852 323.890768 
L 740.187859 325.326525 
L 740.976866 330.263778 
L 742.554881 332.268049 
L 743.343888 332.649737 
L 744.132896 331.039762 
L 744.921903 331.746045 
L 745.710911 332.141778 
L 746.499918 330.464453 
L 747.288925 332.696444 
L 748.077933 335.284385 
L 750.444955 339.712699 
L 751.233962 340.234637 
L 752.02297 342.003742 
L 752.811977 343.001239 
L 753.600984 343.532193 
L 754.389992 345.021972 
L 755.968007 345.282941 
L 756.757014 345.568211 
L 757.546021 343.300554 
L 758.335029 343.587914 
L 759.913043 342.465974 
L 760.702051 343.006531 
L 762.280066 341.194377 
L 763.069073 342.127531 
L 763.85808 342.434488 
L 764.647088 341.819528 
L 765.436095 342.347477 
L 766.225103 341.851472 
L 768.592125 343.966859 
L 769.381132 344.095416 
L 770.170139 345.184041 
L 770.959147 346.05494 
L 771.748154 346.581844 
L 773.326169 347.302759 
L 774.115176 348.691286 
L 774.904184 348.404318 
L 775.693191 347.896228 
L 776.482199 347.634932 
L 777.271206 347.87846 
L 778.060213 348.587225 
L 778.849221 348.71513 
L 779.638228 347.870098 
L 780.427235 347.997807 
L 781.216243 347.921508 
L 782.00525 347.601355 
L 782.794258 347.478089 
L 783.583265 347.191513 
L 784.372272 347.795694 
L 785.16128 346.928649 
L 785.950287 344.638651 
L 787.528302 344.327774 
L 788.317309 344.549418 
L 789.106317 345.064563 
L 789.895324 344.408972 
L 790.684331 342.286987 
L 791.473339 342.669524 
L 792.262346 341.888184 
L 793.051354 340.01443 
L 793.840361 337.734427 
L 794.629368 336.910103 
L 795.418376 336.739673 
L 797.785398 333.286189 
L 798.574405 330.53742 
L 799.363413 328.915164 
L 800.15242 328.518386 
L 800.941427 327.849142 
L 801.730435 328.038516 
L 803.30845 322.851398 
L 804.097457 323.085258 
L 804.886464 322.567566 
L 805.675472 321.219997 
L 806.464479 320.619147 
L 807.253486 318.741669 
L 808.042494 318.576204 
L 808.831501 316.693435 
L 809.620509 317.1671 
L 810.409516 317.205445 
L 811.987531 316.405357 
L 812.776538 315.054391 
L 813.565546 312.051773 
L 815.14356 309.002776 
L 817.510582 306.499691 
L 818.29959 308.593259 
L 819.088597 311.841887 
L 819.877605 313.479364 
L 820.666612 313.83342 
L 821.455619 311.21948 
L 822.244627 311.784729 
L 823.033634 311.843847 
L 823.822642 312.781508 
L 824.611649 312.838274 
L 825.400656 315.368599 
L 826.189664 312.213907 
L 826.978671 316.637975 
L 827.767678 311.019458 
L 829.345693 311.988213 
L 830.923708 314.589872 
L 831.712715 318.777206 
L 832.501723 320.161617 
L 833.29073 325.217303 
L 834.079737 325.564173 
L 835.657752 324.797858 
L 836.44676 325.138653 
L 837.235767 325.705273 
L 838.024774 325.252774 
L 838.813782 325.83259 
L 839.602789 325.610684 
L 840.391797 326.955705 
L 841.180804 328.767532 
L 841.969811 329.75621 
L 842.758819 330.500512 
L 843.547826 331.425435 
L 844.336833 332.561615 
L 845.125841 333.292199 
L 847.492863 337.087196 
L 848.28187 338.815865 
L 849.070878 339.234592 
L 849.859885 339.943815 
L 850.648893 340.278404 
L 851.4379 341.392179 
L 852.226907 342.083176 
L 853.015915 343.358235 
L 853.804922 344.252259 
L 854.593929 345.482702 
L 856.171944 346.598305 
L 856.960952 346.343607 
L 857.749959 347.513625 
L 858.538966 346.753254 
L 859.327974 346.498164 
L 860.116981 347.148921 
L 860.905989 347.318111 
L 862.484003 348.512103 
L 863.273011 348.46422 
L 864.062018 350.14259 
L 864.851025 350.064723 
L 865.640033 349.484581 
L 867.218048 350.059302 
L 868.007055 350.004952 
L 868.796062 349.576296 
L 870.374077 349.051156 
L 871.163084 349.476154 
L 872.741099 349.908403 
L 873.530107 350.867882 
L 874.319114 350.861807 
L 875.108121 350.553412 
L 875.897129 350.586336 
L 876.686136 349.627902 
L 877.475144 349.833607 
L 878.264151 349.663373 
L 879.053158 348.415031 
L 879.842166 347.574965 
L 880.631173 347.87944 
L 881.42018 347.671383 
L 882.209188 348.579713 
L 882.998195 348.588336 
L 883.787203 348.838265 
L 884.57621 348.624917 
L 885.365217 349.198854 
L 886.154225 349.417428 
L 886.943232 350.047413 
L 888.521247 350.816603 
L 889.310254 351.109385 
L 890.099262 351.954024 
L 890.888269 352.269082 
L 891.677276 352.828386 
L 892.466284 353.990369 
L 893.255291 354.618982 
L 894.833306 354.40178 
L 895.622313 355.201215 
L 896.411321 357.005202 
L 897.200328 358.112902 
L 897.989336 357.900729 
L 898.778343 357.148197 
L 899.56735 357.127554 
L 900.356358 356.947129 
L 901.145365 356.907151 
L 901.934372 356.448185 
L 902.72338 355.648488 
L 903.512387 355.958385 
L 905.090402 355.164503 
L 905.879409 355.193768 
L 907.457424 354.305623 
L 908.246432 353.817653 
L 909.035439 353.640821 
L 909.824446 352.312392 
L 910.613454 352.267122 
L 911.402461 351.903921 
L 912.191468 351.952979 
L 912.980476 351.295297 
L 913.769483 350.320467 
L 914.558491 350.870691 
L 915.347498 350.241098 
L 916.136505 350.023896 
L 916.925513 349.641032 
L 917.71452 349.041815 
L 918.503527 347.581693 
L 919.292535 348.094878 
L 920.081542 345.427307 
L 920.87055 344.835668 
L 921.659557 344.562418 
L 922.448564 344.62134 
L 923.237572 343.69093 
L 924.026579 344.68183 
L 925.604594 342.810101 
L 926.393601 343.66062 
L 927.182609 343.896047 
L 927.971616 343.50332 
L 928.760623 342.875621 
L 928.760623 342.875621 
" style="fill:none;stroke:#2c2b2b;stroke-linecap:round;stroke-width:3;"/>
   </g>
   <g id="patch_115">
    <path d="M 7.2 379.123125 
L 969 379.123125 
" style="fill:none;stroke:#caced3;stroke-linecap:square;stroke-linejoin:miter;"/>
   </g>
  </g>
 </g>
 <defs>
  <clipPath id="p0ade2b101c">
   <rect height="326.62" width="961.8" x="7.2" y="52.503125"/>
  </clipPath>
 </defs>
</svg>
