<?xml version="1.0" encoding="utf-8" standalone="no"?>
<!DOCTYPE svg PUBLIC "-//W3C//DTD SVG 1.1//EN"
  "http://www.w3.org/Graphics/SVG/1.1/DTD/svg11.dtd">
<svg height="695.074523pt" version="1.1" viewBox="0 0 1057.580625 695.074523" width="1057.580625pt" xmlns="http://www.w3.org/2000/svg" xmlns:xlink="http://www.w3.org/1999/xlink">
 <metadata>
  <rdf:RDF xmlns:cc="http://creativecommons.org/ns#" xmlns:dc="http://purl.org/dc/elements/1.1/" xmlns:rdf="http://www.w3.org/1999/02/22-rdf-syntax-ns#">
   <cc:Work>
    <dc:type rdf:resource="http://purl.org/dc/dcmitype/StillImage"/>
    <dc:date>2023-04-03T15:53:31.370168</dc:date>
    <dc:format>image/svg+xml</dc:format>
    <dc:creator>
     <cc:Agent>
      <dc:title>Matplotlib v3.4.3, https://matplotlib.org/</dc:title>
     </cc:Agent>
    </dc:creator>
   </cc:Work>
  </rdf:RDF>
 </metadata>
 <defs>
  <style type="text/css">*{stroke-linecap:butt;stroke-linejoin:round;}</style>
 </defs>
 <g id="figure_1">
  <g id="patch_1">
   <path d="M 0 695.074523 
L 1057.580625 695.074523 
L 1057.580625 0 
L 0 0 
z
" style="fill:#ffffff;"/>
  </g>
  <g id="axes_1">
   <g id="patch_2">
    <path d="M 275.885625 632.673477 
L 1050.380625 632.673477 
L 1050.380625 7.2 
L 275.885625 7.2 
z
" style="fill:#ffffff;"/>
   </g>
   <g id="matplotlib.axis_1">
    <g id="xtick_1">
     <g id="line2d_1"/>
     <g id="text_1">
      <!-- Restricting -->
      <g style="fill:#565e69;" transform="translate(425.746536 685.835404)rotate(-45)scale(0.12 -0.12)">
       <defs>
        <path d="M 1859 4569 
Q 2422 4569 2789 4430 
Q 3156 4291 3337 4006 
Q 3519 3722 3519 3281 
Q 3519 2919 3387 2676 
Q 3256 2434 3043 2284 
Q 2831 2134 2591 2053 
L 3844 0 
L 3225 0 
L 2106 1906 
L 1156 1906 
L 1156 0 
L 625 0 
L 625 4569 
L 1859 4569 
z
M 1828 4109 
L 1156 4109 
L 1156 2356 
L 1881 2356 
Q 2441 2356 2705 2584 
Q 2969 2813 2969 3256 
Q 2969 3722 2689 3915 
Q 2409 4109 1828 4109 
z
" id="OpenSans-Regular-52" transform="scale(0.015625)"/>
        <path d="M 1866 3488 
Q 2303 3488 2615 3294 
Q 2928 3100 3093 2751 
Q 3259 2403 3259 1938 
L 3259 1616 
L 894 1616 
Q 903 1013 1193 697 
Q 1484 381 2013 381 
Q 2338 381 2588 440 
Q 2838 500 3106 616 
L 3106 159 
Q 2847 44 2592 -9 
Q 2338 -63 1991 -63 
Q 1497 -63 1130 139 
Q 763 341 559 731 
Q 356 1122 356 1688 
Q 356 2241 542 2645 
Q 728 3050 1067 3269 
Q 1406 3488 1866 3488 
z
M 1859 3063 
Q 1444 3063 1197 2791 
Q 950 2519 903 2031 
L 2716 2031 
Q 2713 2338 2620 2570 
Q 2528 2803 2340 2933 
Q 2153 3063 1859 3063 
z
" id="OpenSans-Regular-65" transform="scale(0.015625)"/>
        <path d="M 2763 938 
Q 2763 609 2598 386 
Q 2434 163 2129 50 
Q 1825 -63 1403 -63 
Q 1044 -63 781 -6 
Q 519 50 322 153 
L 322 631 
Q 531 528 822 443 
Q 1113 359 1416 359 
Q 1859 359 2059 503 
Q 2259 647 2259 894 
Q 2259 1034 2179 1142 
Q 2100 1250 1912 1351 
Q 1725 1453 1394 1575 
Q 1066 1700 827 1823 
Q 588 1947 458 2125 
Q 328 2303 328 2588 
Q 328 3022 679 3255 
Q 1031 3488 1603 3488 
Q 1913 3488 2183 3427 
Q 2453 3366 2688 3263 
L 2513 2847 
Q 2300 2938 2059 3000 
Q 1819 3063 1569 3063 
Q 1209 3063 1017 2944 
Q 825 2825 825 2619 
Q 825 2459 914 2356 
Q 1003 2253 1200 2162 
Q 1397 2072 1719 1950 
Q 2041 1831 2275 1704 
Q 2509 1578 2636 1398 
Q 2763 1219 2763 938 
z
" id="OpenSans-Regular-73" transform="scale(0.015625)"/>
        <path d="M 1653 363 
Q 1781 363 1915 384 
Q 2050 406 2134 438 
L 2134 34 
Q 2044 -6 1883 -34 
Q 1722 -63 1569 -63 
Q 1297 -63 1075 32 
Q 853 128 720 356 
Q 588 584 588 988 
L 588 3019 
L 100 3019 
L 100 3272 
L 591 3475 
L 797 4219 
L 1109 4219 
L 1109 3425 
L 2113 3425 
L 2113 3019 
L 1109 3019 
L 1109 1003 
Q 1109 681 1257 522 
Q 1406 363 1653 363 
z
" id="OpenSans-Regular-74" transform="scale(0.015625)"/>
        <path d="M 2103 3488 
Q 2206 3488 2318 3477 
Q 2431 3466 2519 3447 
L 2453 2966 
Q 2369 2988 2266 3000 
Q 2163 3013 2072 3013 
Q 1866 3013 1683 2930 
Q 1500 2847 1362 2692 
Q 1225 2538 1147 2320 
Q 1069 2103 1069 1838 
L 1069 0 
L 547 0 
L 547 3425 
L 978 3425 
L 1034 2794 
L 1056 2794 
Q 1163 2984 1313 3142 
Q 1463 3300 1661 3394 
Q 1859 3488 2103 3488 
z
" id="OpenSans-Regular-72" transform="scale(0.015625)"/>
        <path d="M 1066 3425 
L 1066 0 
L 547 0 
L 547 3425 
L 1066 3425 
z
M 813 4706 
Q 941 4706 1033 4623 
Q 1125 4541 1125 4366 
Q 1125 4194 1033 4109 
Q 941 4025 813 4025 
Q 678 4025 589 4109 
Q 500 4194 500 4366 
Q 500 4541 589 4623 
Q 678 4706 813 4706 
z
" id="OpenSans-Regular-69" transform="scale(0.015625)"/>
        <path d="M 1919 -63 
Q 1456 -63 1103 128 
Q 750 319 553 709 
Q 356 1100 356 1694 
Q 356 2316 564 2711 
Q 772 3106 1137 3297 
Q 1503 3488 1969 3488 
Q 2225 3488 2464 3436 
Q 2703 3384 2856 3306 
L 2700 2872 
Q 2544 2934 2339 2984 
Q 2134 3034 1956 3034 
Q 1600 3034 1364 2881 
Q 1128 2728 1011 2431 
Q 894 2134 894 1700 
Q 894 1284 1008 990 
Q 1122 697 1348 542 
Q 1575 388 1916 388 
Q 2188 388 2406 445 
Q 2625 503 2803 581 
L 2803 119 
Q 2631 31 2420 -16 
Q 2209 -63 1919 -63 
z
" id="OpenSans-Regular-63" transform="scale(0.015625)"/>
        <path d="M 2169 3488 
Q 2778 3488 3090 3189 
Q 3403 2891 3403 2231 
L 3403 0 
L 2891 0 
L 2891 2197 
Q 2891 2625 2695 2837 
Q 2500 3050 2097 3050 
Q 1528 3050 1297 2728 
Q 1066 2406 1066 1794 
L 1066 0 
L 547 0 
L 547 3425 
L 966 3425 
L 1044 2931 
L 1072 2931 
Q 1181 3113 1350 3236 
Q 1519 3359 1728 3423 
Q 1938 3488 2169 3488 
z
" id="OpenSans-Regular-6e" transform="scale(0.015625)"/>
        <path d="M 1503 -1538 
Q 828 -1538 462 -1286 
Q 97 -1034 97 -581 
Q 97 -259 301 -31 
Q 506 197 869 272 
Q 734 334 639 459 
Q 544 584 544 747 
Q 544 934 648 1076 
Q 753 1219 969 1350 
Q 700 1459 533 1720 
Q 366 1981 366 2328 
Q 366 2697 519 2958 
Q 672 3219 962 3356 
Q 1253 3494 1666 3494 
Q 1756 3494 1848 3486 
Q 1941 3478 2025 3464 
Q 2109 3450 2172 3431 
L 3347 3431 
L 3347 3097 
L 2716 3019 
Q 2809 2897 2871 2725 
Q 2934 2553 2934 2344 
Q 2934 1831 2587 1529 
Q 2241 1228 1634 1228 
Q 1491 1228 1341 1253 
Q 1188 1169 1108 1066 
Q 1028 963 1028 828 
Q 1028 728 1089 668 
Q 1150 609 1265 582 
Q 1381 556 1544 556 
L 2147 556 
Q 2706 556 3004 322 
Q 3303 88 3303 -363 
Q 3303 -931 2840 -1234 
Q 2378 -1538 1503 -1538 
z
M 1519 -1131 
Q 1944 -1131 2223 -1045 
Q 2503 -959 2642 -798 
Q 2781 -638 2781 -416 
Q 2781 -209 2687 -104 
Q 2594 0 2412 36 
Q 2231 72 1969 72 
L 1375 72 
Q 1144 72 972 0 
Q 800 -72 708 -212 
Q 616 -353 616 -563 
Q 616 -841 850 -986 
Q 1084 -1131 1519 -1131 
z
M 1653 1606 
Q 2025 1606 2212 1793 
Q 2400 1981 2400 2341 
Q 2400 2725 2209 2917 
Q 2019 3109 1647 3109 
Q 1291 3109 1098 2911 
Q 906 2713 906 2331 
Q 906 1981 1100 1793 
Q 1294 1606 1653 1606 
z
" id="OpenSans-Regular-67" transform="scale(0.015625)"/>
       </defs>
       <use xlink:href="#OpenSans-Regular-52"/>
       <use x="61.71875" xlink:href="#OpenSans-Regular-65"/>
       <use x="117.871094" xlink:href="#OpenSans-Regular-73"/>
       <use x="165.527344" xlink:href="#OpenSans-Regular-74"/>
       <use x="201.171875" xlink:href="#OpenSans-Regular-72"/>
       <use x="242.041016" xlink:href="#OpenSans-Regular-69"/>
       <use x="267.285156" xlink:href="#OpenSans-Regular-63"/>
       <use x="315.185547" xlink:href="#OpenSans-Regular-74"/>
       <use x="350.830078" xlink:href="#OpenSans-Regular-69"/>
       <use x="376.074219" xlink:href="#OpenSans-Regular-6e"/>
       <use x="437.402344" xlink:href="#OpenSans-Regular-67"/>
      </g>
     </g>
    </g>
    <g id="xtick_2">
     <g id="line2d_2"/>
     <g id="text_2">
      <!-- Relaxing -->
      <g style="fill:#565e69;" transform="translate(627.839658 677.375313)rotate(-45)scale(0.12 -0.12)">
       <defs>
        <path d="M 1069 0 
L 547 0 
L 547 4863 
L 1069 4863 
L 1069 0 
z
" id="OpenSans-Regular-6c" transform="scale(0.015625)"/>
        <path d="M 1828 3481 
Q 2441 3481 2737 3206 
Q 3034 2931 3034 2328 
L 3034 0 
L 2656 0 
L 2556 506 
L 2531 506 
Q 2388 319 2231 192 
Q 2075 66 1870 1 
Q 1666 -63 1369 -63 
Q 1056 -63 814 46 
Q 572 156 433 378 
Q 294 600 294 941 
Q 294 1453 700 1728 
Q 1106 2003 1938 2028 
L 2528 2053 
L 2528 2263 
Q 2528 2706 2337 2884 
Q 2147 3063 1800 3063 
Q 1531 3063 1287 2984 
Q 1044 2906 825 2800 
L 666 3194 
Q 897 3313 1197 3397 
Q 1497 3481 1828 3481 
z
M 2522 1688 
L 2000 1666 
Q 1359 1641 1096 1456 
Q 834 1272 834 934 
Q 834 641 1012 500 
Q 1191 359 1484 359 
Q 1941 359 2231 612 
Q 2522 866 2522 1372 
L 2522 1688 
z
" id="OpenSans-Regular-61" transform="scale(0.015625)"/>
        <path d="M 1363 1753 
L 178 3425 
L 772 3425 
L 1675 2106 
L 2575 3425 
L 3163 3425 
L 1978 1753 
L 3228 0 
L 2634 0 
L 1675 1397 
L 709 0 
L 122 0 
L 1363 1753 
z
" id="OpenSans-Regular-78" transform="scale(0.015625)"/>
       </defs>
       <use xlink:href="#OpenSans-Regular-52"/>
       <use x="61.71875" xlink:href="#OpenSans-Regular-65"/>
       <use x="117.871094" xlink:href="#OpenSans-Regular-6c"/>
       <use x="143.115234" xlink:href="#OpenSans-Regular-61"/>
       <use x="198.681641" xlink:href="#OpenSans-Regular-78"/>
       <use x="251.025391" xlink:href="#OpenSans-Regular-69"/>
       <use x="276.269531" xlink:href="#OpenSans-Regular-6e"/>
       <use x="337.597656" xlink:href="#OpenSans-Regular-67"/>
      </g>
     </g>
    </g>
    <g id="xtick_3">
     <g id="line2d_3"/>
     <g id="text_3">
      <!-- Other -->
      <g style="fill:#565e69;" transform="translate(831.665633 667.182369)rotate(-45)scale(0.12 -0.12)">
       <defs>
        <path d="M 4588 2291 
Q 4588 1763 4453 1330 
Q 4319 897 4055 586 
Q 3791 275 3400 106 
Q 3009 -63 2494 -63 
Q 1963 -63 1567 106 
Q 1172 275 911 587 
Q 650 900 520 1334 
Q 391 1769 391 2297 
Q 391 2997 622 3525 
Q 853 4053 1323 4347 
Q 1794 4641 2503 4641 
Q 3181 4641 3645 4350 
Q 4109 4059 4348 3532 
Q 4588 3006 4588 2291 
z
M 950 2291 
Q 950 1709 1115 1284 
Q 1281 859 1623 628 
Q 1966 397 2494 397 
Q 3025 397 3364 628 
Q 3703 859 3865 1284 
Q 4028 1709 4028 2291 
Q 4028 3175 3658 3673 
Q 3288 4172 2503 4172 
Q 1972 4172 1628 3944 
Q 1284 3716 1117 3295 
Q 950 2875 950 2291 
z
" id="OpenSans-Regular-4f" transform="scale(0.015625)"/>
        <path d="M 1066 4863 
L 1066 3409 
Q 1066 3284 1059 3157 
Q 1053 3031 1038 2925 
L 1072 2925 
Q 1178 3106 1342 3229 
Q 1506 3353 1715 3417 
Q 1925 3481 2159 3481 
Q 2572 3481 2848 3350 
Q 3125 3219 3264 2944 
Q 3403 2669 3403 2231 
L 3403 0 
L 2891 0 
L 2891 2197 
Q 2891 2625 2695 2837 
Q 2500 3050 2097 3050 
Q 1716 3050 1489 2904 
Q 1263 2759 1164 2478 
Q 1066 2197 1066 1791 
L 1066 0 
L 547 0 
L 547 4863 
L 1066 4863 
z
" id="OpenSans-Regular-68" transform="scale(0.015625)"/>
       </defs>
       <use xlink:href="#OpenSans-Regular-4f"/>
       <use x="77.783203" xlink:href="#OpenSans-Regular-74"/>
       <use x="113.427734" xlink:href="#OpenSans-Regular-68"/>
       <use x="174.755859" xlink:href="#OpenSans-Regular-65"/>
       <use x="230.908203" xlink:href="#OpenSans-Regular-72"/>
      </g>
     </g>
    </g>
   </g>
   <g id="matplotlib.axis_2">
    <g id="ytick_1">
     <g id="text_4">
      <!-- Vaccinations -->
      <g style="fill:#565e69;" transform="translate(190.905 591.241842)scale(0.12 -0.12)">
       <defs>
        <path d="M 3816 4569 
L 2175 0 
L 1641 0 
L 0 4569 
L 556 4569 
L 1625 1559 
Q 1691 1378 1742 1212 
Q 1794 1047 1834 894 
Q 1875 741 1906 597 
Q 1938 741 1978 895 
Q 2019 1050 2072 1217 
Q 2125 1384 2191 1569 
L 3253 4569 
L 3816 4569 
z
" id="OpenSans-Regular-56" transform="scale(0.015625)"/>
        <path d="M 3500 1719 
Q 3500 1297 3390 965 
Q 3281 634 3075 406 
Q 2869 178 2576 57 
Q 2284 -63 1916 -63 
Q 1572 -63 1286 57 
Q 1000 178 792 406 
Q 584 634 470 965 
Q 356 1297 356 1719 
Q 356 2281 547 2676 
Q 738 3072 1092 3280 
Q 1447 3488 1938 3488 
Q 2406 3488 2757 3278 
Q 3109 3069 3304 2673 
Q 3500 2278 3500 1719 
z
M 894 1719 
Q 894 1306 1003 1003 
Q 1113 700 1341 534 
Q 1569 369 1928 369 
Q 2284 369 2514 534 
Q 2744 700 2853 1003 
Q 2963 1306 2963 1719 
Q 2963 2128 2853 2426 
Q 2744 2725 2516 2887 
Q 2288 3050 1925 3050 
Q 1391 3050 1142 2697 
Q 894 2344 894 1719 
z
" id="OpenSans-Regular-6f" transform="scale(0.015625)"/>
       </defs>
       <use xlink:href="#OpenSans-Regular-56"/>
       <use x="59.619141" xlink:href="#OpenSans-Regular-61"/>
       <use x="115.185547" xlink:href="#OpenSans-Regular-63"/>
       <use x="163.085938" xlink:href="#OpenSans-Regular-63"/>
       <use x="210.986328" xlink:href="#OpenSans-Regular-69"/>
       <use x="236.230469" xlink:href="#OpenSans-Regular-6e"/>
       <use x="297.558594" xlink:href="#OpenSans-Regular-61"/>
       <use x="353.125" xlink:href="#OpenSans-Regular-74"/>
       <use x="388.769531" xlink:href="#OpenSans-Regular-69"/>
       <use x="414.013672" xlink:href="#OpenSans-Regular-6f"/>
       <use x="474.169922" xlink:href="#OpenSans-Regular-6e"/>
       <use x="535.498047" xlink:href="#OpenSans-Regular-73"/>
      </g>
     </g>
    </g>
    <g id="ytick_2">
     <g id="text_5">
      <!-- Travel restrictions -->
      <g style="fill:#565e69;" transform="translate(160.895625 529.920913)scale(0.12 -0.12)">
       <defs>
        <path d="M 2028 0 
L 1494 0 
L 1494 4100 
L 56 4100 
L 56 4569 
L 3459 4569 
L 3459 4100 
L 2028 4100 
L 2028 0 
z
" id="OpenSans-Regular-54" transform="scale(0.015625)"/>
        <path d="M 1300 0 
L 0 3425 
L 556 3425 
L 1309 1353 
Q 1388 1141 1469 884 
Q 1550 628 1581 472 
L 1603 472 
Q 1641 628 1728 886 
Q 1816 1144 1888 1353 
L 2641 3425 
L 3197 3425 
L 1894 0 
L 1300 0 
z
" id="OpenSans-Regular-76" transform="scale(0.015625)"/>
        <path id="OpenSans-Regular-20" transform="scale(0.015625)"/>
       </defs>
       <use xlink:href="#OpenSans-Regular-54"/>
       <use x="55.078125" xlink:href="#OpenSans-Regular-72"/>
       <use x="95.947266" xlink:href="#OpenSans-Regular-61"/>
       <use x="151.513672" xlink:href="#OpenSans-Regular-76"/>
       <use x="201.464844" xlink:href="#OpenSans-Regular-65"/>
       <use x="257.617188" xlink:href="#OpenSans-Regular-6c"/>
       <use x="282.861328" xlink:href="#OpenSans-Regular-20"/>
       <use x="308.837891" xlink:href="#OpenSans-Regular-72"/>
       <use x="349.707031" xlink:href="#OpenSans-Regular-65"/>
       <use x="405.859375" xlink:href="#OpenSans-Regular-73"/>
       <use x="453.515625" xlink:href="#OpenSans-Regular-74"/>
       <use x="489.160156" xlink:href="#OpenSans-Regular-72"/>
       <use x="530.029297" xlink:href="#OpenSans-Regular-69"/>
       <use x="555.273438" xlink:href="#OpenSans-Regular-63"/>
       <use x="603.173828" xlink:href="#OpenSans-Regular-74"/>
       <use x="638.818359" xlink:href="#OpenSans-Regular-69"/>
       <use x="664.0625" xlink:href="#OpenSans-Regular-6f"/>
       <use x="724.21875" xlink:href="#OpenSans-Regular-6e"/>
       <use x="785.546875" xlink:href="#OpenSans-Regular-73"/>
      </g>
     </g>
    </g>
    <g id="ytick_3">
     <g id="text_6">
      <!-- Support for public health and clinical capacity -->
      <g style="fill:#565e69;" transform="translate(7.2 468.631859)scale(0.12 -0.12)">
       <defs>
        <path d="M 3203 1216 
Q 3203 809 3001 523 
Q 2800 238 2437 87 
Q 2075 -63 1584 -63 
Q 1325 -63 1094 -38 
Q 863 -13 669 34 
Q 475 81 328 150 
L 328 659 
Q 563 563 900 480 
Q 1238 397 1606 397 
Q 1950 397 2187 489 
Q 2425 581 2548 754 
Q 2672 928 2672 1172 
Q 2672 1406 2569 1564 
Q 2466 1722 2227 1851 
Q 1988 1981 1575 2128 
Q 1284 2231 1062 2354 
Q 841 2478 691 2634 
Q 541 2791 464 2997 
Q 388 3203 388 3469 
Q 388 3834 573 4095 
Q 759 4356 1089 4495 
Q 1419 4634 1847 4634 
Q 2213 4634 2523 4565 
Q 2834 4497 3094 4381 
L 2928 3925 
Q 2681 4028 2404 4097 
Q 2128 4166 1834 4166 
Q 1541 4166 1339 4080 
Q 1138 3994 1031 3837 
Q 925 3681 925 3466 
Q 925 3225 1026 3065 
Q 1128 2906 1351 2782 
Q 1575 2659 1944 2525 
Q 2347 2378 2628 2214 
Q 2909 2050 3056 1814 
Q 3203 1578 3203 1216 
z
" id="OpenSans-Regular-53" transform="scale(0.015625)"/>
        <path d="M 3375 3425 
L 3375 0 
L 2950 0 
L 2875 481 
L 2847 481 
Q 2741 303 2572 181 
Q 2403 59 2192 -2 
Q 1981 -63 1744 -63 
Q 1338 -63 1063 68 
Q 788 200 648 475 
Q 509 750 509 1181 
L 509 3425 
L 1034 3425 
L 1034 1219 
Q 1034 791 1228 580 
Q 1422 369 1819 369 
Q 2200 369 2426 512 
Q 2653 656 2753 936 
Q 2853 1216 2853 1622 
L 2853 3425 
L 3375 3425 
z
" id="OpenSans-Regular-75" transform="scale(0.015625)"/>
        <path d="M 2156 3488 
Q 2797 3488 3178 3047 
Q 3559 2606 3559 1722 
Q 3559 1138 3384 741 
Q 3209 344 2892 140 
Q 2575 -63 2144 -63 
Q 1872 -63 1665 9 
Q 1459 81 1312 203 
Q 1166 325 1069 469 
L 1031 469 
Q 1041 347 1055 175 
Q 1069 3 1069 -125 
L 1069 -1531 
L 547 -1531 
L 547 3425 
L 975 3425 
L 1044 2919 
L 1069 2919 
Q 1169 3075 1312 3204 
Q 1456 3334 1664 3411 
Q 1872 3488 2156 3488 
z
M 2066 3050 
Q 1709 3050 1492 2912 
Q 1275 2775 1175 2501 
Q 1075 2228 1069 1816 
L 1069 1716 
Q 1069 1281 1164 981 
Q 1259 681 1479 525 
Q 1700 369 2072 369 
Q 2391 369 2603 541 
Q 2816 713 2920 1020 
Q 3025 1328 3025 1728 
Q 3025 2334 2789 2692 
Q 2553 3050 2066 3050 
z
" id="OpenSans-Regular-70" transform="scale(0.015625)"/>
        <path d="M 2072 3019 
L 1219 3019 
L 1219 0 
L 700 0 
L 700 3019 
L 94 3019 
L 94 3269 
L 700 3441 
L 700 3669 
Q 700 4100 828 4370 
Q 956 4641 1200 4769 
Q 1444 4897 1794 4897 
Q 1991 4897 2155 4862 
Q 2319 4828 2444 4784 
L 2309 4375 
Q 2203 4409 2070 4439 
Q 1938 4469 1800 4469 
Q 1503 4469 1361 4276 
Q 1219 4084 1219 3675 
L 1219 3425 
L 2072 3425 
L 2072 3019 
z
" id="OpenSans-Regular-66" transform="scale(0.015625)"/>
        <path d="M 1066 4863 
L 1066 3647 
Q 1066 3438 1055 3241 
Q 1044 3044 1038 2934 
L 1066 2934 
Q 1206 3166 1472 3325 
Q 1738 3484 2150 3484 
Q 2794 3484 3176 3039 
Q 3559 2594 3559 1716 
Q 3559 1138 3384 741 
Q 3209 344 2890 140 
Q 2572 -63 2138 -63 
Q 1731 -63 1470 89 
Q 1209 241 1069 459 
L 1028 459 
L 922 0 
L 547 0 
L 547 4863 
L 1066 4863 
z
M 2066 3050 
Q 1694 3050 1475 2904 
Q 1256 2759 1161 2467 
Q 1066 2175 1066 1728 
L 1066 1700 
Q 1066 1053 1281 711 
Q 1497 369 2066 369 
Q 2544 369 2783 719 
Q 3022 1069 3022 1719 
Q 3022 2381 2786 2715 
Q 2550 3050 2066 3050 
z
" id="OpenSans-Regular-62" transform="scale(0.015625)"/>
        <path d="M 1766 -63 
Q 1116 -63 736 381 
Q 356 825 356 1700 
Q 356 2584 743 3036 
Q 1131 3488 1775 3488 
Q 2047 3488 2250 3416 
Q 2453 3344 2600 3223 
Q 2747 3103 2847 2950 
L 2884 2950 
Q 2872 3047 2859 3215 
Q 2847 3384 2847 3491 
L 2847 4863 
L 3366 4863 
L 3366 0 
L 2947 0 
L 2869 488 
L 2847 488 
Q 2750 334 2601 209 
Q 2453 84 2248 10 
Q 2044 -63 1766 -63 
z
M 1847 369 
Q 2397 369 2625 681 
Q 2853 994 2853 1609 
L 2853 1703 
Q 2853 2356 2636 2706 
Q 2419 3056 1847 3056 
Q 1369 3056 1131 2689 
Q 894 2322 894 1688 
Q 894 1056 1130 712 
Q 1366 369 1847 369 
z
" id="OpenSans-Regular-64" transform="scale(0.015625)"/>
        <path d="M 6 3425 
L 563 3425 
L 1319 1438 
Q 1384 1263 1440 1102 
Q 1497 941 1540 794 
Q 1584 647 1609 509 
L 1631 509 
Q 1675 666 1756 920 
Q 1838 1175 1931 1441 
L 2647 3425 
L 3206 3425 
L 1716 -503 
Q 1597 -819 1439 -1053 
Q 1281 -1288 1056 -1414 
Q 831 -1541 513 -1541 
Q 366 -1541 253 -1523 
Q 141 -1506 59 -1484 
L 59 -1069 
Q 128 -1084 226 -1096 
Q 325 -1109 431 -1109 
Q 625 -1109 767 -1036 
Q 909 -963 1012 -822 
Q 1116 -681 1191 -488 
L 1378 -6 
L 6 3425 
z
" id="OpenSans-Regular-79" transform="scale(0.015625)"/>
       </defs>
       <use xlink:href="#OpenSans-Regular-53"/>
       <use x="54.833984" xlink:href="#OpenSans-Regular-75"/>
       <use x="116.162109" xlink:href="#OpenSans-Regular-70"/>
       <use x="177.34375" xlink:href="#OpenSans-Regular-70"/>
       <use x="238.525391" xlink:href="#OpenSans-Regular-6f"/>
       <use x="298.681641" xlink:href="#OpenSans-Regular-72"/>
       <use x="339.550781" xlink:href="#OpenSans-Regular-74"/>
       <use x="375.195312" xlink:href="#OpenSans-Regular-20"/>
       <use x="401.171875" xlink:href="#OpenSans-Regular-66"/>
       <use x="434.814453" xlink:href="#OpenSans-Regular-6f"/>
       <use x="494.970703" xlink:href="#OpenSans-Regular-72"/>
       <use x="535.839844" xlink:href="#OpenSans-Regular-20"/>
       <use x="561.816406" xlink:href="#OpenSans-Regular-70"/>
       <use x="622.998047" xlink:href="#OpenSans-Regular-75"/>
       <use x="684.326172" xlink:href="#OpenSans-Regular-62"/>
       <use x="745.507812" xlink:href="#OpenSans-Regular-6c"/>
       <use x="770.751953" xlink:href="#OpenSans-Regular-69"/>
       <use x="795.996094" xlink:href="#OpenSans-Regular-63"/>
       <use x="843.896484" xlink:href="#OpenSans-Regular-20"/>
       <use x="869.873047" xlink:href="#OpenSans-Regular-68"/>
       <use x="931.201172" xlink:href="#OpenSans-Regular-65"/>
       <use x="987.353516" xlink:href="#OpenSans-Regular-61"/>
       <use x="1042.919922" xlink:href="#OpenSans-Regular-6c"/>
       <use x="1068.164062" xlink:href="#OpenSans-Regular-74"/>
       <use x="1103.808594" xlink:href="#OpenSans-Regular-68"/>
       <use x="1165.136719" xlink:href="#OpenSans-Regular-20"/>
       <use x="1191.113281" xlink:href="#OpenSans-Regular-61"/>
       <use x="1246.679688" xlink:href="#OpenSans-Regular-6e"/>
       <use x="1308.007812" xlink:href="#OpenSans-Regular-64"/>
       <use x="1369.189453" xlink:href="#OpenSans-Regular-20"/>
       <use x="1395.166016" xlink:href="#OpenSans-Regular-63"/>
       <use x="1443.066406" xlink:href="#OpenSans-Regular-6c"/>
       <use x="1468.310547" xlink:href="#OpenSans-Regular-69"/>
       <use x="1493.554688" xlink:href="#OpenSans-Regular-6e"/>
       <use x="1554.882812" xlink:href="#OpenSans-Regular-69"/>
       <use x="1580.126953" xlink:href="#OpenSans-Regular-63"/>
       <use x="1628.027344" xlink:href="#OpenSans-Regular-61"/>
       <use x="1683.59375" xlink:href="#OpenSans-Regular-6c"/>
       <use x="1708.837891" xlink:href="#OpenSans-Regular-20"/>
       <use x="1734.814453" xlink:href="#OpenSans-Regular-63"/>
       <use x="1782.714844" xlink:href="#OpenSans-Regular-61"/>
       <use x="1838.28125" xlink:href="#OpenSans-Regular-70"/>
       <use x="1899.462891" xlink:href="#OpenSans-Regular-61"/>
       <use x="1955.029297" xlink:href="#OpenSans-Regular-63"/>
       <use x="2002.929688" xlink:href="#OpenSans-Regular-69"/>
       <use x="2028.173828" xlink:href="#OpenSans-Regular-74"/>
       <use x="2063.818359" xlink:href="#OpenSans-Regular-79"/>
      </g>
     </g>
    </g>
    <g id="ytick_4">
     <g id="text_7">
      <!-- Social distancing -->
      <g style="fill:#565e69;" transform="translate(168.444375 407.279055)scale(0.12 -0.12)">
       <use xlink:href="#OpenSans-Regular-53"/>
       <use x="54.833984" xlink:href="#OpenSans-Regular-6f"/>
       <use x="114.990234" xlink:href="#OpenSans-Regular-63"/>
       <use x="162.890625" xlink:href="#OpenSans-Regular-69"/>
       <use x="188.134766" xlink:href="#OpenSans-Regular-61"/>
       <use x="243.701172" xlink:href="#OpenSans-Regular-6c"/>
       <use x="268.945312" xlink:href="#OpenSans-Regular-20"/>
       <use x="294.921875" xlink:href="#OpenSans-Regular-64"/>
       <use x="356.103516" xlink:href="#OpenSans-Regular-69"/>
       <use x="381.347656" xlink:href="#OpenSans-Regular-73"/>
       <use x="429.003906" xlink:href="#OpenSans-Regular-74"/>
       <use x="464.648438" xlink:href="#OpenSans-Regular-61"/>
       <use x="520.214844" xlink:href="#OpenSans-Regular-6e"/>
       <use x="581.542969" xlink:href="#OpenSans-Regular-63"/>
       <use x="629.443359" xlink:href="#OpenSans-Regular-69"/>
       <use x="654.6875" xlink:href="#OpenSans-Regular-6e"/>
       <use x="716.015625" xlink:href="#OpenSans-Regular-67"/>
      </g>
     </g>
    </g>
    <g id="ytick_5">
     <g id="text_8">
      <!-- Military mobilization -->
      <g style="fill:#565e69;" transform="translate(147.08625 345.958126)scale(0.12 -0.12)">
       <defs>
        <path d="M 2634 0 
L 1100 4044 
L 1075 4044 
Q 1088 3916 1097 3731 
Q 1106 3547 1112 3330 
Q 1119 3113 1119 2888 
L 1119 0 
L 625 0 
L 625 4569 
L 1413 4569 
L 2859 769 
L 2881 769 
L 4350 4569 
L 5131 4569 
L 5131 0 
L 4606 0 
L 4606 2925 
Q 4606 3128 4612 3333 
Q 4619 3538 4628 3720 
Q 4638 3903 4647 4038 
L 4622 4038 
L 3069 0 
L 2634 0 
z
" id="OpenSans-Regular-4d" transform="scale(0.015625)"/>
        <path d="M 4266 3488 
Q 4831 3488 5118 3192 
Q 5406 2897 5406 2244 
L 5406 0 
L 4894 0 
L 4894 2219 
Q 4894 2634 4714 2842 
Q 4534 3050 4181 3050 
Q 3684 3050 3459 2762 
Q 3234 2475 3234 1916 
L 3234 0 
L 2719 0 
L 2719 2219 
Q 2719 2497 2639 2681 
Q 2559 2866 2401 2958 
Q 2244 3050 2003 3050 
Q 1663 3050 1456 2909 
Q 1250 2769 1158 2492 
Q 1066 2216 1066 1813 
L 1066 0 
L 547 0 
L 547 3425 
L 966 3425 
L 1044 2941 
L 1072 2941 
Q 1175 3119 1331 3241 
Q 1488 3363 1681 3425 
Q 1875 3488 2094 3488 
Q 2484 3488 2748 3342 
Q 3013 3197 3131 2900 
L 3159 2900 
Q 3328 3197 3622 3342 
Q 3916 3488 4266 3488 
z
" id="OpenSans-Regular-6d" transform="scale(0.015625)"/>
        <path d="M 2747 0 
L 250 0 
L 250 344 
L 2128 3019 
L 369 3019 
L 369 3425 
L 2706 3425 
L 2706 3041 
L 853 403 
L 2747 403 
L 2747 0 
z
" id="OpenSans-Regular-7a" transform="scale(0.015625)"/>
       </defs>
       <use xlink:href="#OpenSans-Regular-4d"/>
       <use x="89.941406" xlink:href="#OpenSans-Regular-69"/>
       <use x="115.185547" xlink:href="#OpenSans-Regular-6c"/>
       <use x="140.429688" xlink:href="#OpenSans-Regular-69"/>
       <use x="165.673828" xlink:href="#OpenSans-Regular-74"/>
       <use x="201.318359" xlink:href="#OpenSans-Regular-61"/>
       <use x="256.884766" xlink:href="#OpenSans-Regular-72"/>
       <use x="297.753906" xlink:href="#OpenSans-Regular-79"/>
       <use x="347.851562" xlink:href="#OpenSans-Regular-20"/>
       <use x="373.828125" xlink:href="#OpenSans-Regular-6d"/>
       <use x="466.40625" xlink:href="#OpenSans-Regular-6f"/>
       <use x="526.5625" xlink:href="#OpenSans-Regular-62"/>
       <use x="587.744141" xlink:href="#OpenSans-Regular-69"/>
       <use x="612.988281" xlink:href="#OpenSans-Regular-6c"/>
       <use x="638.232422" xlink:href="#OpenSans-Regular-69"/>
       <use x="663.476562" xlink:href="#OpenSans-Regular-7a"/>
       <use x="710.351562" xlink:href="#OpenSans-Regular-61"/>
       <use x="765.917969" xlink:href="#OpenSans-Regular-74"/>
       <use x="801.5625" xlink:href="#OpenSans-Regular-69"/>
       <use x="826.806641" xlink:href="#OpenSans-Regular-6f"/>
       <use x="886.962891" xlink:href="#OpenSans-Regular-6e"/>
      </g>
     </g>
    </g>
    <g id="ytick_6">
     <g id="text_9">
      <!-- Face mask -->
      <g style="fill:#565e69;" transform="translate(202.618125 284.637197)scale(0.12 -0.12)">
       <defs>
        <path d="M 1156 0 
L 625 0 
L 625 4569 
L 3169 4569 
L 3169 4100 
L 1156 4100 
L 1156 2425 
L 3047 2425 
L 3047 1959 
L 1156 1959 
L 1156 0 
z
" id="OpenSans-Regular-46" transform="scale(0.015625)"/>
        <path d="M 1063 4863 
L 1063 2338 
Q 1063 2213 1053 2033 
Q 1044 1853 1038 1716 
L 1059 1716 
Q 1125 1797 1251 1956 
Q 1378 2116 1466 2213 
L 2603 3425 
L 3213 3425 
L 1834 1963 
L 3313 0 
L 2688 0 
L 1478 1622 
L 1063 1241 
L 1063 0 
L 547 0 
L 547 4863 
L 1063 4863 
z
" id="OpenSans-Regular-6b" transform="scale(0.015625)"/>
       </defs>
       <use xlink:href="#OpenSans-Regular-46"/>
       <use x="51.611328" xlink:href="#OpenSans-Regular-61"/>
       <use x="107.177734" xlink:href="#OpenSans-Regular-63"/>
       <use x="155.078125" xlink:href="#OpenSans-Regular-65"/>
       <use x="211.230469" xlink:href="#OpenSans-Regular-20"/>
       <use x="237.207031" xlink:href="#OpenSans-Regular-6d"/>
       <use x="329.785156" xlink:href="#OpenSans-Regular-61"/>
       <use x="385.351562" xlink:href="#OpenSans-Regular-73"/>
       <use x="433.007812" xlink:href="#OpenSans-Regular-6b"/>
      </g>
     </g>
    </g>
    <g id="ytick_7">
     <g id="text_10">
      <!-- Enabling and relief measures -->
      <g style="fill:#565e69;" transform="translate(98.754375 223.348143)scale(0.12 -0.12)">
       <defs>
        <path d="M 3169 0 
L 625 0 
L 625 4569 
L 3169 4569 
L 3169 4100 
L 1156 4100 
L 1156 2622 
L 3053 2622 
L 3053 2159 
L 1156 2159 
L 1156 469 
L 3169 469 
L 3169 0 
z
" id="OpenSans-Regular-45" transform="scale(0.015625)"/>
       </defs>
       <use xlink:href="#OpenSans-Regular-45"/>
       <use x="55.566406" xlink:href="#OpenSans-Regular-6e"/>
       <use x="116.894531" xlink:href="#OpenSans-Regular-61"/>
       <use x="172.460938" xlink:href="#OpenSans-Regular-62"/>
       <use x="233.642578" xlink:href="#OpenSans-Regular-6c"/>
       <use x="258.886719" xlink:href="#OpenSans-Regular-69"/>
       <use x="284.130859" xlink:href="#OpenSans-Regular-6e"/>
       <use x="345.458984" xlink:href="#OpenSans-Regular-67"/>
       <use x="399.755859" xlink:href="#OpenSans-Regular-20"/>
       <use x="425.732422" xlink:href="#OpenSans-Regular-61"/>
       <use x="481.298828" xlink:href="#OpenSans-Regular-6e"/>
       <use x="542.626953" xlink:href="#OpenSans-Regular-64"/>
       <use x="603.808594" xlink:href="#OpenSans-Regular-20"/>
       <use x="629.785156" xlink:href="#OpenSans-Regular-72"/>
       <use x="670.654297" xlink:href="#OpenSans-Regular-65"/>
       <use x="726.806641" xlink:href="#OpenSans-Regular-6c"/>
       <use x="752.050781" xlink:href="#OpenSans-Regular-69"/>
       <use x="777.294922" xlink:href="#OpenSans-Regular-65"/>
       <use x="833.447266" xlink:href="#OpenSans-Regular-66"/>
       <use x="867.089844" xlink:href="#OpenSans-Regular-20"/>
       <use x="893.066406" xlink:href="#OpenSans-Regular-6d"/>
       <use x="985.644531" xlink:href="#OpenSans-Regular-65"/>
       <use x="1041.796875" xlink:href="#OpenSans-Regular-61"/>
       <use x="1097.363281" xlink:href="#OpenSans-Regular-73"/>
       <use x="1145.019531" xlink:href="#OpenSans-Regular-75"/>
       <use x="1206.347656" xlink:href="#OpenSans-Regular-72"/>
       <use x="1247.216797" xlink:href="#OpenSans-Regular-65"/>
       <use x="1303.369141" xlink:href="#OpenSans-Regular-73"/>
      </g>
     </g>
    </g>
    <g id="ytick_8">
     <g id="text_11">
      <!-- Emergency declarations -->
      <g style="fill:#565e69;" transform="translate(127.269375 161.995339)scale(0.12 -0.12)">
       <use xlink:href="#OpenSans-Regular-45"/>
       <use x="55.566406" xlink:href="#OpenSans-Regular-6d"/>
       <use x="148.144531" xlink:href="#OpenSans-Regular-65"/>
       <use x="204.296875" xlink:href="#OpenSans-Regular-72"/>
       <use x="245.166016" xlink:href="#OpenSans-Regular-67"/>
       <use x="299.462891" xlink:href="#OpenSans-Regular-65"/>
       <use x="355.615234" xlink:href="#OpenSans-Regular-6e"/>
       <use x="416.943359" xlink:href="#OpenSans-Regular-63"/>
       <use x="464.84375" xlink:href="#OpenSans-Regular-79"/>
       <use x="514.941406" xlink:href="#OpenSans-Regular-20"/>
       <use x="540.917969" xlink:href="#OpenSans-Regular-64"/>
       <use x="602.099609" xlink:href="#OpenSans-Regular-65"/>
       <use x="658.251953" xlink:href="#OpenSans-Regular-63"/>
       <use x="706.152344" xlink:href="#OpenSans-Regular-6c"/>
       <use x="731.396484" xlink:href="#OpenSans-Regular-61"/>
       <use x="786.962891" xlink:href="#OpenSans-Regular-72"/>
       <use x="827.832031" xlink:href="#OpenSans-Regular-61"/>
       <use x="883.398438" xlink:href="#OpenSans-Regular-74"/>
       <use x="919.042969" xlink:href="#OpenSans-Regular-69"/>
       <use x="944.287109" xlink:href="#OpenSans-Regular-6f"/>
       <use x="1004.443359" xlink:href="#OpenSans-Regular-6e"/>
       <use x="1065.771484" xlink:href="#OpenSans-Regular-73"/>
      </g>
     </g>
    </g>
    <g id="ytick_9">
     <g id="text_12">
      <!-- Contact tracing/Testing -->
      <g style="fill:#565e69;" transform="translate(131.50875 100.667847)scale(0.12 -0.12)">
       <defs>
        <path d="M 2578 4166 
Q 2200 4166 1898 4036 
Q 1597 3906 1386 3661 
Q 1175 3416 1062 3069 
Q 950 2722 950 2288 
Q 950 1713 1129 1289 
Q 1309 866 1667 634 
Q 2025 403 2563 403 
Q 2869 403 3139 454 
Q 3409 506 3666 584 
L 3666 122 
Q 3416 28 3141 -17 
Q 2866 -63 2488 -63 
Q 1791 -63 1323 226 
Q 856 516 623 1044 
Q 391 1572 391 2291 
Q 391 2809 536 3239 
Q 681 3669 961 3981 
Q 1241 4294 1648 4464 
Q 2056 4634 2584 4634 
Q 2931 4634 3253 4565 
Q 3575 4497 3834 4369 
L 3622 3919 
Q 3403 4019 3142 4092 
Q 2881 4166 2578 4166 
z
" id="OpenSans-Regular-43" transform="scale(0.015625)"/>
        <path d="M 2278 4569 
L 578 0 
L 66 0 
L 1769 4569 
L 2278 4569 
z
" id="OpenSans-Regular-2f" transform="scale(0.015625)"/>
       </defs>
       <use xlink:href="#OpenSans-Regular-43"/>
       <use x="62.988281" xlink:href="#OpenSans-Regular-6f"/>
       <use x="123.144531" xlink:href="#OpenSans-Regular-6e"/>
       <use x="184.472656" xlink:href="#OpenSans-Regular-74"/>
       <use x="220.117188" xlink:href="#OpenSans-Regular-61"/>
       <use x="275.683594" xlink:href="#OpenSans-Regular-63"/>
       <use x="323.583984" xlink:href="#OpenSans-Regular-74"/>
       <use x="359.228516" xlink:href="#OpenSans-Regular-20"/>
       <use x="385.205078" xlink:href="#OpenSans-Regular-74"/>
       <use x="420.849609" xlink:href="#OpenSans-Regular-72"/>
       <use x="461.71875" xlink:href="#OpenSans-Regular-61"/>
       <use x="517.285156" xlink:href="#OpenSans-Regular-63"/>
       <use x="565.185547" xlink:href="#OpenSans-Regular-69"/>
       <use x="590.429688" xlink:href="#OpenSans-Regular-6e"/>
       <use x="651.757812" xlink:href="#OpenSans-Regular-67"/>
       <use x="706.054688" xlink:href="#OpenSans-Regular-2f"/>
       <use x="742.724609" xlink:href="#OpenSans-Regular-54"/>
       <use x="797.802734" xlink:href="#OpenSans-Regular-65"/>
       <use x="853.955078" xlink:href="#OpenSans-Regular-73"/>
       <use x="901.611328" xlink:href="#OpenSans-Regular-74"/>
       <use x="937.255859" xlink:href="#OpenSans-Regular-69"/>
       <use x="962.5" xlink:href="#OpenSans-Regular-6e"/>
       <use x="1023.828125" xlink:href="#OpenSans-Regular-67"/>
      </g>
     </g>
    </g>
    <g id="ytick_10">
     <g id="text_13">
      <!-- Authorization and enforcement -->
      <g style="fill:#565e69;" transform="translate(85.134375 39.353481)scale(0.12 -0.12)">
       <defs>
        <path d="M 3491 0 
L 2928 1450 
L 1097 1450 
L 538 0 
L 0 0 
L 1788 4588 
L 2266 4588 
L 4041 0 
L 3491 0 
z
M 2769 1922 
L 2234 3363 
Q 2216 3419 2173 3547 
Q 2131 3675 2087 3812 
Q 2044 3950 2016 4034 
Q 1984 3906 1948 3779 
Q 1913 3653 1878 3545 
Q 1844 3438 1819 3363 
L 1275 1922 
L 2769 1922 
z
" id="OpenSans-Regular-41" transform="scale(0.015625)"/>
       </defs>
       <use xlink:href="#OpenSans-Regular-41"/>
       <use x="63.232422" xlink:href="#OpenSans-Regular-75"/>
       <use x="124.560547" xlink:href="#OpenSans-Regular-74"/>
       <use x="160.205078" xlink:href="#OpenSans-Regular-68"/>
       <use x="221.533203" xlink:href="#OpenSans-Regular-6f"/>
       <use x="281.689453" xlink:href="#OpenSans-Regular-72"/>
       <use x="322.558594" xlink:href="#OpenSans-Regular-69"/>
       <use x="347.802734" xlink:href="#OpenSans-Regular-7a"/>
       <use x="394.677734" xlink:href="#OpenSans-Regular-61"/>
       <use x="450.244141" xlink:href="#OpenSans-Regular-74"/>
       <use x="485.888672" xlink:href="#OpenSans-Regular-69"/>
       <use x="511.132812" xlink:href="#OpenSans-Regular-6f"/>
       <use x="571.289062" xlink:href="#OpenSans-Regular-6e"/>
       <use x="632.617188" xlink:href="#OpenSans-Regular-20"/>
       <use x="658.59375" xlink:href="#OpenSans-Regular-61"/>
       <use x="714.160156" xlink:href="#OpenSans-Regular-6e"/>
       <use x="775.488281" xlink:href="#OpenSans-Regular-64"/>
       <use x="836.669922" xlink:href="#OpenSans-Regular-20"/>
       <use x="862.646484" xlink:href="#OpenSans-Regular-65"/>
       <use x="918.798828" xlink:href="#OpenSans-Regular-6e"/>
       <use x="980.126953" xlink:href="#OpenSans-Regular-66"/>
       <use x="1013.769531" xlink:href="#OpenSans-Regular-6f"/>
       <use x="1073.925781" xlink:href="#OpenSans-Regular-72"/>
       <use x="1114.794922" xlink:href="#OpenSans-Regular-63"/>
       <use x="1162.695312" xlink:href="#OpenSans-Regular-65"/>
       <use x="1218.847656" xlink:href="#OpenSans-Regular-6d"/>
       <use x="1311.425781" xlink:href="#OpenSans-Regular-65"/>
       <use x="1367.578125" xlink:href="#OpenSans-Regular-6e"/>
       <use x="1428.90625" xlink:href="#OpenSans-Regular-74"/>
      </g>
     </g>
    </g>
   </g>
   <g id="PathCollection_1">
    <path clip-path="url(#p12e84d51c3)" d="M 469.509375 598.973531 
C 472.76892 598.973531 475.895402 597.6785 478.200248 595.373653 
C 480.505095 593.068807 481.800126 589.942325 481.800126 586.68278 
C 481.800126 583.423235 480.505095 580.296753 478.200248 577.991906 
C 475.895402 575.68706 472.76892 574.392029 469.509375 574.392029 
C 466.24983 574.392029 463.123348 575.68706 460.818502 577.991906 
C 458.513655 580.296753 457.218624 583.423235 457.218624 586.68278 
C 457.218624 589.942325 458.513655 593.068807 460.818502 595.373653 
C 463.123348 597.6785 466.24983 598.973531 469.509375 598.973531 
z
" style="fill:#eea45f;stroke:#eea45f;stroke-width:1.5;"/>
    <path clip-path="url(#p12e84d51c3)" d="M 469.509375 551.403537 
C 476.415711 551.403537 483.040111 548.65962 487.923628 543.776104 
C 492.807145 538.892587 495.551061 532.268187 495.551061 525.361851 
C 495.551061 518.455515 492.807145 511.831115 487.923628 506.947598 
C 483.040111 502.064081 476.415711 499.320165 469.509375 499.320165 
C 462.603039 499.320165 455.978639 502.064081 451.095122 506.947598 
C 446.211605 511.831115 443.467689 518.455515 443.467689 525.361851 
C 443.467689 532.268187 446.211605 538.892587 451.095122 543.776104 
C 455.978639 548.65962 462.603039 551.403537 469.509375 551.403537 
z
" style="fill:#eea45f;stroke:#eea45f;stroke-width:1.5;"/>
    <path clip-path="url(#p12e84d51c3)" d="M 469.509375 471.3256 
C 471.441294 471.3256 473.294347 470.55804 474.66042 469.191967 
C 476.026493 467.825894 476.794053 465.972841 476.794053 464.040922 
C 476.794053 462.109003 476.026493 460.25595 474.66042 458.889877 
C 473.294347 457.523804 471.441294 456.756244 469.509375 456.756244 
C 467.577456 456.756244 465.724403 457.523804 464.35833 458.889877 
C 462.992257 460.25595 462.224697 462.109003 462.224697 464.040922 
C 462.224697 465.972841 462.992257 467.825894 464.35833 469.191967 
C 465.724403 470.55804 467.577456 471.3256 469.509375 471.3256 
z
" style="fill:#eea45f;stroke:#eea45f;stroke-width:1.5;"/>
    <path clip-path="url(#p12e84d51c3)" d="M 469.509375 427.319231 
C 476.033169 427.319231 482.290644 424.7273 486.903663 420.114281 
C 491.516682 415.501262 494.108613 409.243787 494.108613 402.719993 
C 494.108613 396.196199 491.516682 389.938724 486.903663 385.325705 
C 482.290644 380.712686 476.033169 378.120755 469.509375 378.120755 
C 462.985581 378.120755 456.728106 380.712686 452.115087 385.325705 
C 447.502068 389.938724 444.910137 396.196199 444.910137 402.719993 
C 444.910137 409.243787 447.502068 415.501262 452.115087 420.114281 
C 456.728106 424.7273 462.985581 427.319231 469.509375 427.319231 
z
" style="fill:#eea45f;stroke:#eea45f;stroke-width:1.5;"/>
    <path clip-path="url(#p12e84d51c3)" d="M 469.509375 347.13515 
C 471.030603 347.13515 472.48973 346.53076 473.5654 345.455089 
C 474.641071 344.379418 475.245461 342.920291 475.245461 341.399064 
C 475.245461 339.877836 474.641071 338.418709 473.5654 337.343038 
C 472.48973 336.267368 471.030603 335.662977 469.509375 335.662977 
C 467.988147 335.662977 466.52902 336.267368 465.45335 337.343038 
C 464.377679 338.418709 463.773289 339.877836 463.773289 341.399064 
C 463.773289 342.920291 464.377679 344.379418 465.45335 345.455089 
C 466.52902 346.53076 467.988147 347.13515 469.509375 347.13515 
z
" style="fill:#eea45f;stroke:#eea45f;stroke-width:1.5;"/>
    <path clip-path="url(#p12e84d51c3)" d="M 469.509375 305.090445 
C 476.142717 305.090445 482.505268 302.45499 487.19575 297.764509 
C 491.886231 293.074028 494.521686 286.711477 494.521686 280.078134 
C 494.521686 273.444792 491.886231 267.082241 487.19575 262.39176 
C 482.505268 257.701279 476.142717 255.065824 469.509375 255.065824 
C 462.876033 255.065824 456.513482 257.701279 451.823 262.39176 
C 447.132519 267.082241 444.497064 273.444792 444.497064 280.078134 
C 444.497064 286.711477 447.132519 293.074028 451.823 297.764509 
C 456.513482 302.45499 462.876033 305.090445 469.509375 305.090445 
z
" style="fill:#eea45f;stroke:#eea45f;stroke-width:1.5;"/>
    <path clip-path="url(#p12e84d51c3)" d="M 469.509375 221.340748 
C 470.194539 221.340748 470.851732 221.06853 471.336216 220.584046 
C 471.8207 220.099562 472.092918 219.442369 472.092918 218.757205 
C 472.092918 218.072042 471.8207 217.414848 471.336216 216.930365 
C 470.851732 216.445881 470.194539 216.173662 469.509375 216.173662 
C 468.824211 216.173662 468.167018 216.445881 467.682534 216.930365 
C 467.19805 217.414848 466.925832 218.072042 466.925832 218.757205 
C 466.925832 219.442369 467.19805 220.099562 467.682534 220.584046 
C 468.167018 221.06853 468.824211 221.340748 469.509375 221.340748 
z
" style="fill:#eea45f;stroke:#eea45f;stroke-width:1.5;"/>
    <path clip-path="url(#p12e84d51c3)" d="M 469.509375 170.606718 
C 473.002217 170.606718 476.352471 169.218997 478.822283 166.749185 
C 481.292096 164.279373 482.679816 160.929118 482.679816 157.436276 
C 482.679816 153.943434 481.292096 150.59318 478.822283 148.123368 
C 476.352471 145.653556 473.002217 144.265835 469.509375 144.265835 
C 466.016533 144.265835 462.666279 145.653556 460.196467 148.123368 
C 457.726654 150.59318 456.338934 153.943434 456.338934 157.436276 
C 456.338934 160.929118 457.726654 164.279373 460.196467 166.749185 
C 462.666279 169.218997 466.016533 170.606718 469.509375 170.606718 
z
" style="fill:#eea45f;stroke:#eea45f;stroke-width:1.5;"/>
    <path clip-path="url(#p12e84d51c3)" d="M 469.509375 111.223019 
C 473.515976 111.223019 477.359017 109.631179 480.192112 106.798084 
C 483.025207 103.964989 484.617047 100.121949 484.617047 96.115347 
C 484.617047 92.108746 483.025207 88.265705 480.192112 85.43261 
C 477.359017 82.599515 473.515976 81.007675 469.509375 81.007675 
C 465.502774 81.007675 461.659733 82.599515 458.826638 85.43261 
C 455.993543 88.265705 454.401703 92.108746 454.401703 96.115347 
C 454.401703 100.121949 455.993543 103.964989 458.826638 106.798084 
C 461.659733 109.631179 465.502774 111.223019 469.509375 111.223019 
z
" style="fill:#eea45f;stroke:#eea45f;stroke-width:1.5;"/>
    <path clip-path="url(#p12e84d51c3)" d="M 469.509375 51.743211 
C 474.004247 51.743211 478.315627 49.957379 481.493981 46.779024 
C 484.672336 43.60067 486.458168 39.28929 486.458168 34.794418 
C 486.458168 30.299546 484.672336 25.988167 481.493981 22.809812 
C 478.315627 19.631457 474.004247 17.845625 469.509375 17.845625 
C 465.014503 17.845625 460.703123 19.631457 457.524769 22.809812 
C 454.346414 25.988167 452.560582 30.299546 452.560582 34.794418 
C 452.560582 39.28929 454.346414 43.60067 457.524769 46.779024 
C 460.703123 49.957379 465.014503 51.743211 469.509375 51.743211 
z
" style="fill:#eea45f;stroke:#eea45f;stroke-width:1.5;"/>
    <path clip-path="url(#p12e84d51c3)" d="M 663.133125 594.611922 
C 665.235958 594.611922 667.252948 593.776458 668.739875 592.28953 
C 670.226803 590.802603 671.062267 588.785613 671.062267 586.68278 
C 671.062267 584.579947 670.226803 582.562957 668.739875 581.07603 
C 667.252948 579.589102 665.235958 578.753638 663.133125 578.753638 
C 661.030292 578.753638 659.013302 579.589102 657.526375 581.07603 
C 656.039447 582.562957 655.203983 584.579947 655.203983 586.68278 
C 655.203983 588.785613 656.039447 590.802603 657.526375 592.28953 
C 659.013302 593.776458 661.030292 594.611922 663.133125 594.611922 
z
" style="fill:#87bbd8;stroke:#87bbd8;stroke-width:1.5;"/>
    <path clip-path="url(#p12e84d51c3)" d="M 663.133125 538.99789 
C 666.749445 538.99789 670.218136 537.561111 672.775261 535.003987 
C 675.332385 532.446862 676.769164 528.978171 676.769164 525.361851 
C 676.769164 521.745531 675.332385 518.276839 672.775261 515.719715 
C 670.218136 513.162591 666.749445 511.725812 663.133125 511.725812 
C 659.516805 511.725812 656.048114 513.162591 653.490989 515.719715 
C 650.933865 518.276839 649.497086 521.745531 649.497086 525.361851 
C 649.497086 528.978171 650.933865 532.446862 653.490989 535.003987 
C 656.048114 537.561111 659.516805 538.99789 663.133125 538.99789 
z
" style="fill:#87bbd8;stroke:#87bbd8;stroke-width:1.5;"/>
    <path clip-path="url(#p12e84d51c3)" d="M 663.133125 471.292799 
C 665.056345 471.292799 666.901054 470.528695 668.260976 469.168773 
C 669.620899 467.808851 670.385002 465.964142 670.385002 464.040922 
C 670.385002 462.117702 669.620899 460.272992 668.260976 458.91307 
C 666.901054 457.553148 665.056345 456.789045 663.133125 456.789045 
C 661.209905 456.789045 659.365196 457.553148 658.005274 458.91307 
C 656.645351 460.272992 655.881248 462.117702 655.881248 464.040922 
C 655.881248 465.964142 656.645351 467.808851 658.005274 469.168773 
C 659.365196 470.528695 661.209905 471.292799 663.133125 471.292799 
z
" style="fill:#87bbd8;stroke:#87bbd8;stroke-width:1.5;"/>
    <path clip-path="url(#p12e84d51c3)" d="M 663.133125 420.632034 
C 667.883454 420.632034 672.439861 418.744708 675.798851 415.385718 
C 679.15784 412.026729 681.045166 407.470321 681.045166 402.719993 
C 681.045166 397.969664 679.15784 393.413257 675.798851 390.054267 
C 672.439861 386.695277 667.883454 384.807952 663.133125 384.807952 
C 658.382796 384.807952 653.826389 386.695277 650.467399 390.054267 
C 647.10841 393.413257 645.221084 397.969664 645.221084 402.719993 
C 645.221084 407.470321 647.10841 412.026729 650.467399 415.385718 
C 653.826389 418.744708 658.382796 420.632034 663.133125 420.632034 
z
" style="fill:#87bbd8;stroke:#87bbd8;stroke-width:1.5;"/>
    <path clip-path="url(#p12e84d51c3)" d="M 663.133125 341.399064 
C 663.133125 341.399064 663.133125 341.399064 663.133125 341.399064 
C 663.133125 341.399064 663.133125 341.399064 663.133125 341.399064 
C 663.133125 341.399064 663.133125 341.399064 663.133125 341.399064 
C 663.133125 341.399064 663.133125 341.399064 663.133125 341.399064 
C 663.133125 341.399064 663.133125 341.399064 663.133125 341.399064 
C 663.133125 341.399064 663.133125 341.399064 663.133125 341.399064 
C 663.133125 341.399064 663.133125 341.399064 663.133125 341.399064 
C 663.133125 341.399064 663.133125 341.399064 663.133125 341.399064 
z
" style="fill:#87bbd8;stroke:#87bbd8;stroke-width:1.5;"/>
    <path clip-path="url(#p12e84d51c3)" d="M 663.133125 292.010671 
C 666.297671 292.010671 669.333031 290.753384 671.570703 288.515712 
C 673.808374 286.27804 675.065662 283.24268 675.065662 280.078134 
C 675.065662 276.913589 673.808374 273.878229 671.570703 271.640557 
C 669.333031 269.402885 666.297671 268.145598 663.133125 268.145598 
C 659.968579 268.145598 656.933219 269.402885 654.695547 271.640557 
C 652.457876 273.878229 651.200588 276.913589 651.200588 280.078134 
C 651.200588 283.24268 652.457876 286.27804 654.695547 288.515712 
C 656.933219 290.753384 659.968579 292.010671 663.133125 292.010671 
z
" style="fill:#87bbd8;stroke:#87bbd8;stroke-width:1.5;"/>
    <path clip-path="url(#p12e84d51c3)" d="M 663.133125 227.349421 
C 665.411807 227.349421 667.597467 226.444091 669.208739 224.832819 
C 670.82001 223.221547 671.72534 221.035887 671.72534 218.757205 
C 671.72534 216.478523 670.82001 214.292863 669.208739 212.681592 
C 667.597467 211.07032 665.411807 210.16499 663.133125 210.16499 
C 660.854443 210.16499 658.668783 211.07032 657.057511 212.681592 
C 655.44624 214.292863 654.54091 216.478523 654.54091 218.757205 
C 654.54091 221.035887 655.44624 223.221547 657.057511 224.832819 
C 658.668783 226.444091 660.854443 227.349421 663.133125 227.349421 
z
" style="fill:#87bbd8;stroke:#87bbd8;stroke-width:1.5;"/>
    <path clip-path="url(#p12e84d51c3)" d="M 663.133125 162.105834 
C 664.371506 162.105834 665.559333 161.61382 666.435001 160.738152 
C 667.310669 159.862485 667.802683 158.674658 667.802683 157.436276 
C 667.802683 156.197895 667.310669 155.010068 666.435001 154.1344 
C 665.559333 153.258732 664.371506 152.766718 663.133125 152.766718 
C 661.894744 152.766718 660.706917 153.258732 659.831249 154.1344 
C 658.955581 155.010068 658.463567 156.197895 658.463567 157.436276 
C 658.463567 158.674658 658.955581 159.862485 659.831249 160.738152 
C 660.706917 161.61382 661.894744 162.105834 663.133125 162.105834 
z
" style="fill:#87bbd8;stroke:#87bbd8;stroke-width:1.5;"/>
    <path clip-path="url(#p12e84d51c3)" d="M 663.133125 102.376219 
C 664.793528 102.376219 666.386148 101.716534 667.56023 100.542452 
C 668.734312 99.36837 669.393997 97.77575 669.393997 96.115347 
C 669.393997 94.454945 668.734312 92.862324 667.56023 91.688242 
C 666.386148 90.51416 664.793528 89.854475 663.133125 89.854475 
C 661.472722 89.854475 659.880102 90.51416 658.70602 91.688242 
C 657.531938 92.862324 656.872253 94.454945 656.872253 96.115347 
C 656.872253 97.77575 657.531938 99.36837 658.70602 100.542452 
C 659.880102 101.716534 661.472722 102.376219 663.133125 102.376219 
z
" style="fill:#87bbd8;stroke:#87bbd8;stroke-width:1.5;"/>
    <path clip-path="url(#p12e84d51c3)" d="M 663.133125 50.214277 
C 667.222519 50.214277 671.144973 48.589543 674.036612 45.697905 
C 676.92825 42.806266 678.552983 38.883812 678.552983 34.794418 
C 678.552983 30.705024 676.92825 26.78257 674.036612 23.890932 
C 671.144973 20.999293 667.222519 19.37456 663.133125 19.37456 
C 659.043731 19.37456 655.121277 20.999293 652.229638 23.890932 
C 649.338 26.78257 647.713267 30.705024 647.713267 34.794418 
C 647.713267 38.883812 649.338 42.806266 652.229638 45.697905 
C 655.121277 48.589543 659.043731 50.214277 663.133125 50.214277 
z
" style="fill:#87bbd8;stroke:#87bbd8;stroke-width:1.5;"/>
    <path clip-path="url(#p12e84d51c3)" d="M 856.756875 614.95766 
C 864.255461 614.95766 871.447933 611.97844 876.750234 606.676139 
C 882.052535 601.373838 885.031755 594.181366 885.031755 586.68278 
C 885.031755 579.184194 882.052535 571.991722 876.750234 566.689421 
C 871.447933 561.38712 864.255461 558.4079 856.756875 558.4079 
C 849.258289 558.4079 842.065817 561.38712 836.763516 566.689421 
C 831.461215 571.991722 828.481995 579.184194 828.481995 586.68278 
C 828.481995 594.181366 831.461215 601.373838 836.763516 606.676139 
C 842.065817 611.97844 849.258289 614.95766 856.756875 614.95766 
z
" style="fill:#d6d9de;stroke:#d6d9de;stroke-width:1.5;"/>
    <path clip-path="url(#p12e84d51c3)" d="M 856.756875 537.58035 
C 859.997259 537.58035 863.105361 536.292932 865.396658 534.001634 
C 867.687956 531.710337 868.975374 528.602235 868.975374 525.361851 
C 868.975374 522.121467 867.687956 519.013365 865.396658 516.722067 
C 863.105361 514.43077 859.997259 513.143352 856.756875 513.143352 
C 853.516491 513.143352 850.408389 514.43077 848.117092 516.722067 
C 845.825794 519.013365 844.538376 522.121467 844.538376 525.361851 
C 844.538376 528.602235 845.825794 531.710337 848.117092 534.001634 
C 850.408389 536.292932 853.516491 537.58035 856.756875 537.58035 
z
" style="fill:#d6d9de;stroke:#d6d9de;stroke-width:1.5;"/>
    <path clip-path="url(#p12e84d51c3)" d="M 856.756875 494.169752 
C 864.747134 494.169752 872.411209 490.995189 878.061175 485.345222 
C 883.711142 479.695256 886.885706 472.031181 886.885706 464.040922 
C 886.885706 456.050663 883.711142 448.386588 878.061175 442.736621 
C 872.411209 437.086655 864.747134 433.912091 856.756875 433.912091 
C 848.766616 433.912091 841.102541 437.086655 835.452575 442.736621 
C 829.802608 448.386588 826.628044 456.050663 826.628044 464.040922 
C 826.628044 472.031181 829.802608 479.695256 835.452575 485.345222 
C 841.102541 490.995189 848.766616 494.169752 856.756875 494.169752 
z
" style="fill:#d6d9de;stroke:#d6d9de;stroke-width:1.5;"/>
    <path clip-path="url(#p12e84d51c3)" d="M 856.756875 412.070873 
C 859.236758 412.070873 861.615404 411.085606 863.368946 409.332064 
C 865.122488 407.578522 866.107756 405.199875 866.107756 402.719993 
C 866.107756 400.24011 865.122488 397.861463 863.368946 396.107922 
C 861.615404 394.35438 859.236758 393.369112 856.756875 393.369112 
C 854.276992 393.369112 851.898346 394.35438 850.144804 396.107922 
C 848.391262 397.861463 847.405994 400.24011 847.405994 402.719993 
C 847.405994 405.199875 848.391262 407.578522 850.144804 409.332064 
C 851.898346 411.085606 854.276992 412.070873 856.756875 412.070873 
z
" style="fill:#d6d9de;stroke:#d6d9de;stroke-width:1.5;"/>
    <path clip-path="url(#p12e84d51c3)" d="M 856.756875 372.712 
C 865.061163 372.712 873.026447 369.412672 878.898465 363.540653 
C 884.770483 357.668635 888.069812 349.703351 888.069812 341.399064 
C 888.069812 333.094776 884.770483 325.129492 878.898465 319.257474 
C 873.026447 313.385455 865.061163 310.086127 856.756875 310.086127 
C 848.452587 310.086127 840.487303 313.385455 834.615285 319.257474 
C 828.743267 325.129492 825.443938 333.094776 825.443938 341.399064 
C 825.443938 349.703351 828.743267 357.668635 834.615285 363.540653 
C 840.487303 369.412672 848.452587 372.712 856.756875 372.712 
z
" style="fill:#d6d9de;stroke:#d6d9de;stroke-width:1.5;"/>
    <path clip-path="url(#p12e84d51c3)" d="M 856.756875 295.743433 
C 860.911361 295.743433 864.896249 294.092838 867.833913 291.155173 
C 870.771578 288.217508 872.422173 284.23262 872.422173 280.078134 
C 872.422173 275.923649 870.771578 271.938761 867.833913 269.001096 
C 864.896249 266.063431 860.911361 264.412836 856.756875 264.412836 
C 852.602389 264.412836 848.617501 266.063431 845.679837 269.001096 
C 842.742172 271.938761 841.091577 275.923649 841.091577 280.078134 
C 841.091577 284.23262 842.742172 288.217508 845.679837 291.155173 
C 848.617501 294.092838 852.602389 295.743433 856.756875 295.743433 
z
" style="fill:#d6d9de;stroke:#d6d9de;stroke-width:1.5;"/>
    <path clip-path="url(#p12e84d51c3)" d="M 856.756875 249.300647 
C 864.85709 249.300647 872.626632 246.082397 878.35435 240.35468 
C 884.082067 234.626963 887.300317 226.857421 887.300317 218.757205 
C 887.300317 210.65699 884.082067 202.887448 878.35435 197.159731 
C 872.626632 191.432013 864.85709 188.213764 856.756875 188.213764 
C 848.65666 188.213764 840.887118 191.432013 835.1594 197.159731 
C 829.431683 202.887448 826.213433 210.65699 826.213433 218.757205 
C 826.213433 226.857421 829.431683 234.626963 835.1594 240.35468 
C 840.887118 246.082397 848.65666 249.300647 856.756875 249.300647 
z
" style="fill:#d6d9de;stroke:#d6d9de;stroke-width:1.5;"/>
    <path clip-path="url(#p12e84d51c3)" d="M 856.756875 186.039377 
C 864.342506 186.039377 871.618471 183.025574 876.982322 177.661723 
C 882.346173 172.297872 885.359976 165.021907 885.359976 157.436276 
C 885.359976 149.850645 882.346173 142.574681 876.982322 137.21083 
C 871.618471 131.846978 864.342506 128.833175 856.756875 128.833175 
C 849.171244 128.833175 841.895279 131.846978 836.531428 137.21083 
C 831.167577 142.574681 828.153774 149.850645 828.153774 157.436276 
C 828.153774 165.021907 831.167577 172.297872 836.531428 177.661723 
C 841.895279 183.025574 849.171244 186.039377 856.756875 186.039377 
z
" style="fill:#d6d9de;stroke:#d6d9de;stroke-width:1.5;"/>
    <path clip-path="url(#p12e84d51c3)" d="M 856.756875 123.42766 
C 864.000185 123.42766 870.947803 120.549862 876.069596 115.428069 
C 881.19139 110.306275 884.069188 103.358657 884.069188 96.115347 
C 884.069188 88.872037 881.19139 81.924419 876.069596 76.802626 
C 870.947803 71.680832 864.000185 68.803035 856.756875 68.803035 
C 849.513565 68.803035 842.565947 71.680832 837.444154 76.802626 
C 832.32236 81.924419 829.444562 88.872037 829.444562 96.115347 
C 829.444562 103.358657 832.32236 110.306275 837.444154 115.428069 
C 842.565947 120.549862 849.513565 123.42766 856.756875 123.42766 
z
" style="fill:#d6d9de;stroke:#d6d9de;stroke-width:1.5;"/>
    <path clip-path="url(#p12e84d51c3)" d="M 856.756875 56.893492 
C 862.617618 56.893492 868.239109 54.564994 872.38328 50.420823 
C 876.527451 46.276652 878.855949 40.655161 878.855949 34.794418 
C 878.855949 28.933675 876.527451 23.312184 872.38328 19.168013 
C 868.239109 15.023842 862.617618 12.695344 856.756875 12.695344 
C 850.896132 12.695344 845.274641 15.023842 841.13047 19.168013 
C 836.986299 23.312184 834.657801 28.933675 834.657801 34.794418 
C 834.657801 40.655161 836.986299 46.276652 841.13047 50.420823 
C 845.274641 54.564994 850.896132 56.893492 856.756875 56.893492 
z
" style="fill:#d6d9de;stroke:#d6d9de;stroke-width:1.5;"/>
   </g>
   <g id="patch_3">
    <path d="M 275.885625 632.673477 
L 275.885625 7.2 
" style="fill:none;stroke:#caced3;stroke-linecap:square;stroke-linejoin:miter;"/>
   </g>
   <g id="patch_4">
    <path d="M 275.885625 632.673477 
L 1050.380625 632.673477 
" style="fill:none;stroke:#caced3;stroke-linecap:square;stroke-linejoin:miter;"/>
   </g>
  </g>
 </g>
 <defs>
  <clipPath id="p12e84d51c3">
   <rect height="625.473477" width="774.495" x="275.885625" y="7.2"/>
  </clipPath>
 </defs>
</svg>
