<?xml version="1.0" encoding="utf-8" standalone="no"?>
<!DOCTYPE svg PUBLIC "-//W3C//DTD SVG 1.1//EN"
  "http://www.w3.org/Graphics/SVG/1.1/DTD/svg11.dtd">
<svg height="406.811875pt" version="1.1" viewBox="0 0 1258.74 406.811875" width="1258.74pt" xmlns="http://www.w3.org/2000/svg" xmlns:xlink="http://www.w3.org/1999/xlink">
 <metadata>
  <rdf:RDF xmlns:cc="http://creativecommons.org/ns#" xmlns:dc="http://purl.org/dc/elements/1.1/" xmlns:rdf="http://www.w3.org/1999/02/22-rdf-syntax-ns#">
   <cc:Work>
    <dc:type rdf:resource="http://purl.org/dc/dcmitype/StillImage"/>
    <dc:date>2023-04-11T16:41:37.466337</dc:date>
    <dc:format>image/svg+xml</dc:format>
    <dc:creator>
     <cc:Agent>
      <dc:title>Matplotlib v3.4.3, https://matplotlib.org/</dc:title>
     </cc:Agent>
    </dc:creator>
   </cc:Work>
  </rdf:RDF>
 </metadata>
 <defs>
  <style type="text/css">*{stroke-linecap:butt;stroke-linejoin:round;}</style>
 </defs>
 <g id="figure_1">
  <g id="patch_1">
   <path d="M 0 406.811875 
L 1258.74 406.811875 
L 1258.74 0 
L 0 0 
z
" style="fill:#ffffff;"/>
  </g>
  <g id="axes_1">
   <g id="patch_2">
    <path d="M 7.2 379.123125 
L 969 379.123125 
L 969 52.503125 
L 7.2 52.503125 
z
" style="fill:#ffffff;"/>
   </g>
   <g id="matplotlib.axis_1">
    <g id="xtick_1">
     <g id="line2d_1">
      <defs>
       <path d="M 0 0 
L 0 5 
" id="m46cb998028" style="stroke:#caced3;stroke-width:0.5;"/>
      </defs>
      <g>
       <use style="fill:#caced3;stroke:#caced3;stroke-width:0.5;" x="79.788679" xlink:href="#m46cb998028" y="379.123125"/>
      </g>
     </g>
     <g id="text_1">
      <!-- 2020 -->
      <g style="fill:#565e69;" transform="translate(66.067429 396.74125)scale(0.12 -0.12)">
       <defs>
        <path d="M 3309 0 
L 316 0 
L 316 434 
L 1538 1675 
Q 1878 2019 2111 2287 
Q 2344 2556 2466 2817 
Q 2588 3078 2588 3391 
Q 2588 3778 2358 3983 
Q 2128 4188 1753 4188 
Q 1425 4188 1172 4075 
Q 919 3963 653 3756 
L 375 4106 
Q 556 4259 770 4378 
Q 984 4497 1229 4565 
Q 1475 4634 1753 4634 
Q 2175 4634 2481 4487 
Q 2788 4341 2955 4069 
Q 3122 3797 3122 3422 
Q 3122 3059 2978 2748 
Q 2834 2438 2575 2133 
Q 2316 1828 1969 1488 
L 975 497 
L 975 475 
L 3309 475 
L 3309 0 
z
" id="OpenSans-Regular-32" transform="scale(0.015625)"/>
        <path d="M 3334 2291 
Q 3334 1734 3250 1296 
Q 3166 859 2984 556 
Q 2803 253 2515 95 
Q 2228 -63 1825 -63 
Q 1316 -63 983 215 
Q 650 494 486 1020 
Q 322 1547 322 2291 
Q 322 3022 470 3548 
Q 619 4075 950 4358 
Q 1281 4641 1825 4641 
Q 2341 4641 2675 4361 
Q 3009 4081 3171 3554 
Q 3334 3028 3334 2291 
z
M 844 2291 
Q 844 1653 941 1228 
Q 1038 803 1255 592 
Q 1472 381 1825 381 
Q 2178 381 2395 590 
Q 2613 800 2711 1225 
Q 2809 1650 2809 2291 
Q 2809 2919 2712 3342 
Q 2616 3766 2400 3980 
Q 2184 4194 1825 4194 
Q 1466 4194 1250 3980 
Q 1034 3766 939 3342 
Q 844 2919 844 2291 
z
" id="OpenSans-Regular-30" transform="scale(0.015625)"/>
       </defs>
       <use xlink:href="#OpenSans-Regular-32"/>
       <use x="57.177734" xlink:href="#OpenSans-Regular-30"/>
       <use x="114.355469" xlink:href="#OpenSans-Regular-32"/>
       <use x="171.533203" xlink:href="#OpenSans-Regular-30"/>
      </g>
     </g>
    </g>
    <g id="xtick_2">
     <g id="line2d_2">
      <g>
       <use style="fill:#caced3;stroke:#caced3;stroke-width:0.5;" x="368.565381" xlink:href="#m46cb998028" y="379.123125"/>
      </g>
     </g>
     <g id="text_2">
      <!-- 2021 -->
      <g style="fill:#565e69;" transform="translate(354.844131 396.74125)scale(0.12 -0.12)">
       <defs>
        <path d="M 2247 0 
L 1741 0 
L 1741 3238 
Q 1741 3422 1742 3555 
Q 1744 3688 1748 3798 
Q 1753 3909 1763 4025 
Q 1666 3925 1581 3854 
Q 1497 3784 1372 3681 
L 850 3263 
L 578 3616 
L 1816 4569 
L 2247 4569 
L 2247 0 
z
" id="OpenSans-Regular-31" transform="scale(0.015625)"/>
       </defs>
       <use xlink:href="#OpenSans-Regular-32"/>
       <use x="57.177734" xlink:href="#OpenSans-Regular-30"/>
       <use x="114.355469" xlink:href="#OpenSans-Regular-32"/>
       <use x="171.533203" xlink:href="#OpenSans-Regular-31"/>
      </g>
     </g>
    </g>
    <g id="xtick_3">
     <g id="line2d_3">
      <g>
       <use style="fill:#caced3;stroke:#caced3;stroke-width:0.5;" x="656.553076" xlink:href="#m46cb998028" y="379.123125"/>
      </g>
     </g>
     <g id="text_3">
      <!-- 2022 -->
      <g style="fill:#565e69;" transform="translate(642.831826 396.74125)scale(0.12 -0.12)">
       <use xlink:href="#OpenSans-Regular-32"/>
       <use x="57.177734" xlink:href="#OpenSans-Regular-30"/>
       <use x="114.355469" xlink:href="#OpenSans-Regular-32"/>
       <use x="171.533203" xlink:href="#OpenSans-Regular-32"/>
      </g>
     </g>
    </g>
    <g id="xtick_4">
     <g id="line2d_4">
      <g>
       <use style="fill:#caced3;stroke:#caced3;stroke-width:0.5;" x="944.540771" xlink:href="#m46cb998028" y="379.123125"/>
      </g>
     </g>
     <g id="text_4">
      <!-- 2023 -->
      <g style="fill:#565e69;" transform="translate(930.819521 396.74125)scale(0.12 -0.12)">
       <defs>
        <path d="M 3141 3503 
Q 3141 3197 3022 2972 
Q 2903 2747 2690 2605 
Q 2478 2463 2191 2406 
L 2191 2381 
Q 2734 2313 3007 2031 
Q 3281 1750 3281 1294 
Q 3281 897 3095 590 
Q 2909 284 2526 110 
Q 2144 -63 1547 -63 
Q 1184 -63 876 -5 
Q 569 53 288 188 
L 288 675 
Q 572 534 906 454 
Q 1241 375 1553 375 
Q 2178 375 2456 623 
Q 2734 872 2734 1303 
Q 2734 1600 2579 1783 
Q 2425 1966 2136 2052 
Q 1847 2138 1441 2138 
L 984 2138 
L 984 2581 
L 1444 2581 
Q 1816 2581 2075 2690 
Q 2334 2800 2470 2998 
Q 2606 3197 2606 3469 
Q 2606 3816 2375 4005 
Q 2144 4194 1747 4194 
Q 1503 4194 1303 4144 
Q 1103 4094 928 4006 
Q 753 3919 578 3803 
L 316 4159 
Q 566 4353 925 4493 
Q 1284 4634 1741 4634 
Q 2441 4634 2791 4315 
Q 3141 3997 3141 3503 
z
" id="OpenSans-Regular-33" transform="scale(0.015625)"/>
       </defs>
       <use xlink:href="#OpenSans-Regular-32"/>
       <use x="57.177734" xlink:href="#OpenSans-Regular-30"/>
       <use x="114.355469" xlink:href="#OpenSans-Regular-32"/>
       <use x="171.533203" xlink:href="#OpenSans-Regular-33"/>
      </g>
     </g>
    </g>
    <g id="xtick_5">
     <g id="line2d_5">
      <defs>
       <path d="M 0 0 
L 0 6 
" id="m356c3907bf" style="stroke:#caced3;stroke-width:0.5;"/>
      </defs>
      <g>
       <use style="fill:#caced3;stroke:#caced3;stroke-width:0.5;" x="7.2" xlink:href="#m356c3907bf" y="379.123125"/>
      </g>
     </g>
    </g>
    <g id="xtick_6">
     <g id="line2d_6">
      <g>
       <use style="fill:#caced3;stroke:#caced3;stroke-width:0.5;" x="31.659229" xlink:href="#m356c3907bf" y="379.123125"/>
      </g>
     </g>
    </g>
    <g id="xtick_7">
     <g id="line2d_7">
      <g>
       <use style="fill:#caced3;stroke:#caced3;stroke-width:0.5;" x="55.32945" xlink:href="#m356c3907bf" y="379.123125"/>
      </g>
     </g>
    </g>
    <g id="xtick_8">
     <g id="line2d_8">
      <g>
       <use style="fill:#caced3;stroke:#caced3;stroke-width:0.5;" x="104.247908" xlink:href="#m356c3907bf" y="379.123125"/>
      </g>
     </g>
    </g>
    <g id="xtick_9">
     <g id="line2d_9">
      <g>
       <use style="fill:#caced3;stroke:#caced3;stroke-width:0.5;" x="127.129122" xlink:href="#m356c3907bf" y="379.123125"/>
      </g>
     </g>
    </g>
    <g id="xtick_10">
     <g id="line2d_10">
      <g>
       <use style="fill:#caced3;stroke:#caced3;stroke-width:0.5;" x="151.588351" xlink:href="#m356c3907bf" y="379.123125"/>
      </g>
     </g>
    </g>
    <g id="xtick_11">
     <g id="line2d_11">
      <g>
       <use style="fill:#caced3;stroke:#caced3;stroke-width:0.5;" x="175.258573" xlink:href="#m356c3907bf" y="379.123125"/>
      </g>
     </g>
    </g>
    <g id="xtick_12">
     <g id="line2d_12">
      <g>
       <use style="fill:#caced3;stroke:#caced3;stroke-width:0.5;" x="199.717801" xlink:href="#m356c3907bf" y="379.123125"/>
      </g>
     </g>
    </g>
    <g id="xtick_13">
     <g id="line2d_13">
      <g>
       <use style="fill:#caced3;stroke:#caced3;stroke-width:0.5;" x="223.388023" xlink:href="#m356c3907bf" y="379.123125"/>
      </g>
     </g>
    </g>
    <g id="xtick_14">
     <g id="line2d_14">
      <g>
       <use style="fill:#caced3;stroke:#caced3;stroke-width:0.5;" x="247.847252" xlink:href="#m356c3907bf" y="379.123125"/>
      </g>
     </g>
    </g>
    <g id="xtick_15">
     <g id="line2d_15">
      <g>
       <use style="fill:#caced3;stroke:#caced3;stroke-width:0.5;" x="272.306481" xlink:href="#m356c3907bf" y="379.123125"/>
      </g>
     </g>
    </g>
    <g id="xtick_16">
     <g id="line2d_16">
      <g>
       <use style="fill:#caced3;stroke:#caced3;stroke-width:0.5;" x="295.976702" xlink:href="#m356c3907bf" y="379.123125"/>
      </g>
     </g>
    </g>
    <g id="xtick_17">
     <g id="line2d_17">
      <g>
       <use style="fill:#caced3;stroke:#caced3;stroke-width:0.5;" x="320.435931" xlink:href="#m356c3907bf" y="379.123125"/>
      </g>
     </g>
    </g>
    <g id="xtick_18">
     <g id="line2d_18">
      <g>
       <use style="fill:#caced3;stroke:#caced3;stroke-width:0.5;" x="344.106153" xlink:href="#m356c3907bf" y="379.123125"/>
      </g>
     </g>
    </g>
    <g id="xtick_19">
     <g id="line2d_19">
      <g>
       <use style="fill:#caced3;stroke:#caced3;stroke-width:0.5;" x="393.02461" xlink:href="#m356c3907bf" y="379.123125"/>
      </g>
     </g>
    </g>
    <g id="xtick_20">
     <g id="line2d_20">
      <g>
       <use style="fill:#caced3;stroke:#caced3;stroke-width:0.5;" x="415.116817" xlink:href="#m356c3907bf" y="379.123125"/>
      </g>
     </g>
    </g>
    <g id="xtick_21">
     <g id="line2d_21">
      <g>
       <use style="fill:#caced3;stroke:#caced3;stroke-width:0.5;" x="439.576046" xlink:href="#m356c3907bf" y="379.123125"/>
      </g>
     </g>
    </g>
    <g id="xtick_22">
     <g id="line2d_22">
      <g>
       <use style="fill:#caced3;stroke:#caced3;stroke-width:0.5;" x="463.246267" xlink:href="#m356c3907bf" y="379.123125"/>
      </g>
     </g>
    </g>
    <g id="xtick_23">
     <g id="line2d_23">
      <g>
       <use style="fill:#caced3;stroke:#caced3;stroke-width:0.5;" x="487.705496" xlink:href="#m356c3907bf" y="379.123125"/>
      </g>
     </g>
    </g>
    <g id="xtick_24">
     <g id="line2d_24">
      <g>
       <use style="fill:#caced3;stroke:#caced3;stroke-width:0.5;" x="511.375718" xlink:href="#m356c3907bf" y="379.123125"/>
      </g>
     </g>
    </g>
    <g id="xtick_25">
     <g id="line2d_25">
      <g>
       <use style="fill:#caced3;stroke:#caced3;stroke-width:0.5;" x="535.834947" xlink:href="#m356c3907bf" y="379.123125"/>
      </g>
     </g>
    </g>
    <g id="xtick_26">
     <g id="line2d_26">
      <g>
       <use style="fill:#caced3;stroke:#caced3;stroke-width:0.5;" x="560.294176" xlink:href="#m356c3907bf" y="379.123125"/>
      </g>
     </g>
    </g>
    <g id="xtick_27">
     <g id="line2d_27">
      <g>
       <use style="fill:#caced3;stroke:#caced3;stroke-width:0.5;" x="583.964397" xlink:href="#m356c3907bf" y="379.123125"/>
      </g>
     </g>
    </g>
    <g id="xtick_28">
     <g id="line2d_28">
      <g>
       <use style="fill:#caced3;stroke:#caced3;stroke-width:0.5;" x="608.423626" xlink:href="#m356c3907bf" y="379.123125"/>
      </g>
     </g>
    </g>
    <g id="xtick_29">
     <g id="line2d_29">
      <g>
       <use style="fill:#caced3;stroke:#caced3;stroke-width:0.5;" x="632.093847" xlink:href="#m356c3907bf" y="379.123125"/>
      </g>
     </g>
    </g>
    <g id="xtick_30">
     <g id="line2d_30">
      <g>
       <use style="fill:#caced3;stroke:#caced3;stroke-width:0.5;" x="681.012305" xlink:href="#m356c3907bf" y="379.123125"/>
      </g>
     </g>
    </g>
    <g id="xtick_31">
     <g id="line2d_31">
      <g>
       <use style="fill:#caced3;stroke:#caced3;stroke-width:0.5;" x="703.104512" xlink:href="#m356c3907bf" y="379.123125"/>
      </g>
     </g>
    </g>
    <g id="xtick_32">
     <g id="line2d_32">
      <g>
       <use style="fill:#caced3;stroke:#caced3;stroke-width:0.5;" x="727.563741" xlink:href="#m356c3907bf" y="379.123125"/>
      </g>
     </g>
    </g>
    <g id="xtick_33">
     <g id="line2d_33">
      <g>
       <use style="fill:#caced3;stroke:#caced3;stroke-width:0.5;" x="751.233962" xlink:href="#m356c3907bf" y="379.123125"/>
      </g>
     </g>
    </g>
    <g id="xtick_34">
     <g id="line2d_34">
      <g>
       <use style="fill:#caced3;stroke:#caced3;stroke-width:0.5;" x="775.693191" xlink:href="#m356c3907bf" y="379.123125"/>
      </g>
     </g>
    </g>
    <g id="xtick_35">
     <g id="line2d_35">
      <g>
       <use style="fill:#caced3;stroke:#caced3;stroke-width:0.5;" x="799.363413" xlink:href="#m356c3907bf" y="379.123125"/>
      </g>
     </g>
    </g>
    <g id="xtick_36">
     <g id="line2d_36">
      <g>
       <use style="fill:#caced3;stroke:#caced3;stroke-width:0.5;" x="823.822642" xlink:href="#m356c3907bf" y="379.123125"/>
      </g>
     </g>
    </g>
    <g id="xtick_37">
     <g id="line2d_37">
      <g>
       <use style="fill:#caced3;stroke:#caced3;stroke-width:0.5;" x="848.28187" xlink:href="#m356c3907bf" y="379.123125"/>
      </g>
     </g>
    </g>
    <g id="xtick_38">
     <g id="line2d_38">
      <g>
       <use style="fill:#caced3;stroke:#caced3;stroke-width:0.5;" x="871.952092" xlink:href="#m356c3907bf" y="379.123125"/>
      </g>
     </g>
    </g>
    <g id="xtick_39">
     <g id="line2d_39">
      <g>
       <use style="fill:#caced3;stroke:#caced3;stroke-width:0.5;" x="896.411321" xlink:href="#m356c3907bf" y="379.123125"/>
      </g>
     </g>
    </g>
    <g id="xtick_40">
     <g id="line2d_40">
      <g>
       <use style="fill:#caced3;stroke:#caced3;stroke-width:0.5;" x="920.081542" xlink:href="#m356c3907bf" y="379.123125"/>
      </g>
     </g>
    </g>
    <g id="xtick_41">
     <g id="line2d_41">
      <g>
       <use style="fill:#caced3;stroke:#caced3;stroke-width:0.5;" x="969" xlink:href="#m356c3907bf" y="379.123125"/>
      </g>
     </g>
    </g>
   </g>
   <g id="matplotlib.axis_2">
    <g id="ytick_1">
     <g id="line2d_42">
      <path clip-path="url(#p41f38623ac)" d="M 7.2 379.123125 
L 969 379.123125 
" style="fill:none;stroke:#caced3;stroke-dasharray:1.85,0.8;stroke-dashoffset:0;stroke-width:0.5;"/>
     </g>
     <g id="line2d_43">
      <defs>
       <path d="M 0 0 
L 10 0 
" id="m31d6d08981" style="stroke:#caced3;stroke-width:0.5;"/>
      </defs>
      <g>
       <use style="fill:#caced3;stroke:#caced3;stroke-width:0.5;" x="7.2" xlink:href="#m31d6d08981" y="379.123125"/>
      </g>
     </g>
     <g id="text_5">
      <!-- 0% -->
      <g style="fill:#565e69;" transform="translate(25.41875 376.2525)scale(0.12 -0.12)">
       <defs>
        <path d="M 1247 4634 
Q 1716 4634 1958 4261 
Q 2200 3888 2200 3206 
Q 2200 2525 1965 2145 
Q 1731 1766 1247 1766 
Q 797 1766 558 2145 
Q 319 2525 319 3206 
Q 319 3888 547 4261 
Q 775 4634 1247 4634 
z
M 1247 4263 
Q 994 4263 875 3998 
Q 756 3734 756 3206 
Q 756 2678 875 2409 
Q 994 2141 1247 2141 
Q 1509 2141 1637 2409 
Q 1766 2678 1766 3206 
Q 1766 3731 1639 3997 
Q 1513 4263 1247 4263 
z
M 4141 4569 
L 1606 0 
L 1150 0 
L 3684 4569 
L 4141 4569 
z
M 4019 2803 
Q 4484 2803 4728 2429 
Q 4972 2056 4972 1375 
Q 4972 697 4737 317 
Q 4503 -63 4019 -63 
Q 3566 -63 3328 317 
Q 3091 697 3091 1375 
Q 3091 2056 3317 2429 
Q 3544 2803 4019 2803 
z
M 4019 2428 
Q 3766 2428 3647 2165 
Q 3528 1903 3528 1375 
Q 3528 847 3647 580 
Q 3766 313 4019 313 
Q 4281 313 4409 577 
Q 4538 841 4538 1375 
Q 4538 1900 4411 2164 
Q 4284 2428 4019 2428 
z
" id="OpenSans-Regular-25" transform="scale(0.015625)"/>
       </defs>
       <use xlink:href="#OpenSans-Regular-30"/>
       <use x="57.177734" xlink:href="#OpenSans-Regular-25"/>
      </g>
     </g>
    </g>
    <g id="ytick_2">
     <g id="line2d_44">
      <path clip-path="url(#p41f38623ac)" d="M 7.2 313.799125 
L 969 313.799125 
" style="fill:none;stroke:#caced3;stroke-dasharray:1.85,0.8;stroke-dashoffset:0;stroke-width:0.5;"/>
     </g>
     <g id="line2d_45">
      <g>
       <use style="fill:#caced3;stroke:#caced3;stroke-width:0.5;" x="7.2" xlink:href="#m31d6d08981" y="313.799125"/>
      </g>
     </g>
     <g id="text_6">
      <!-- 20% -->
      <g style="fill:#565e69;" transform="translate(18.558125 310.9285)scale(0.12 -0.12)">
       <use xlink:href="#OpenSans-Regular-32"/>
       <use x="57.177734" xlink:href="#OpenSans-Regular-30"/>
       <use x="114.355469" xlink:href="#OpenSans-Regular-25"/>
      </g>
     </g>
    </g>
    <g id="ytick_3">
     <g id="line2d_46">
      <path clip-path="url(#p41f38623ac)" d="M 7.2 248.475125 
L 969 248.475125 
" style="fill:none;stroke:#caced3;stroke-dasharray:1.85,0.8;stroke-dashoffset:0;stroke-width:0.5;"/>
     </g>
     <g id="line2d_47">
      <g>
       <use style="fill:#caced3;stroke:#caced3;stroke-width:0.5;" x="7.2" xlink:href="#m31d6d08981" y="248.475125"/>
      </g>
     </g>
     <g id="text_7">
      <!-- 40% -->
      <g style="fill:#565e69;" transform="translate(18.558125 245.6045)scale(0.12 -0.12)">
       <defs>
        <path d="M 3538 1059 
L 2853 1059 
L 2853 0 
L 2347 0 
L 2347 1059 
L 138 1059 
L 138 1497 
L 2313 4594 
L 2853 4594 
L 2853 1528 
L 3538 1528 
L 3538 1059 
z
M 2347 1528 
L 2347 3022 
Q 2347 3194 2350 3333 
Q 2353 3472 2359 3592 
Q 2366 3713 2370 3822 
Q 2375 3931 2378 4038 
L 2353 4038 
Q 2294 3913 2217 3773 
Q 2141 3634 2063 3525 
L 653 1528 
L 2347 1528 
z
" id="OpenSans-Regular-34" transform="scale(0.015625)"/>
       </defs>
       <use xlink:href="#OpenSans-Regular-34"/>
       <use x="57.177734" xlink:href="#OpenSans-Regular-30"/>
       <use x="114.355469" xlink:href="#OpenSans-Regular-25"/>
      </g>
     </g>
    </g>
    <g id="ytick_4">
     <g id="line2d_48">
      <path clip-path="url(#p41f38623ac)" d="M 7.2 183.151125 
L 969 183.151125 
" style="fill:none;stroke:#caced3;stroke-dasharray:1.85,0.8;stroke-dashoffset:0;stroke-width:0.5;"/>
     </g>
     <g id="line2d_49">
      <g>
       <use style="fill:#caced3;stroke:#caced3;stroke-width:0.5;" x="7.2" xlink:href="#m31d6d08981" y="183.151125"/>
      </g>
     </g>
     <g id="text_8">
      <!-- 60% -->
      <g style="fill:#565e69;" transform="translate(18.558125 180.2805)scale(0.12 -0.12)">
       <defs>
        <path d="M 363 1953 
Q 363 2366 420 2759 
Q 478 3153 615 3492 
Q 753 3831 990 4087 
Q 1228 4344 1583 4489 
Q 1938 4634 2434 4634 
Q 2575 4634 2737 4620 
Q 2900 4606 3006 4575 
L 3006 4128 
Q 2891 4169 2742 4187 
Q 2594 4206 2444 4206 
Q 1863 4206 1530 3953 
Q 1197 3700 1050 3267 
Q 903 2834 881 2294 
L 916 2294 
Q 1013 2450 1163 2576 
Q 1313 2703 1527 2778 
Q 1741 2853 2025 2853 
Q 2425 2853 2723 2690 
Q 3022 2528 3186 2218 
Q 3350 1909 3350 1469 
Q 3350 997 3175 653 
Q 3000 309 2676 123 
Q 2353 -63 1906 -63 
Q 1572 -63 1290 65 
Q 1009 194 801 447 
Q 594 700 478 1076 
Q 363 1453 363 1953 
z
M 1900 375 
Q 2325 375 2581 647 
Q 2838 919 2838 1469 
Q 2838 1919 2609 2181 
Q 2381 2444 1922 2444 
Q 1609 2444 1378 2314 
Q 1147 2184 1019 1987 
Q 891 1791 891 1588 
Q 891 1381 952 1168 
Q 1013 956 1138 775 
Q 1263 594 1453 484 
Q 1644 375 1900 375 
z
" id="OpenSans-Regular-36" transform="scale(0.015625)"/>
       </defs>
       <use xlink:href="#OpenSans-Regular-36"/>
       <use x="57.177734" xlink:href="#OpenSans-Regular-30"/>
       <use x="114.355469" xlink:href="#OpenSans-Regular-25"/>
      </g>
     </g>
    </g>
    <g id="ytick_5">
     <g id="line2d_50">
      <path clip-path="url(#p41f38623ac)" d="M 7.2 117.827125 
L 969 117.827125 
" style="fill:none;stroke:#caced3;stroke-dasharray:1.85,0.8;stroke-dashoffset:0;stroke-width:0.5;"/>
     </g>
     <g id="line2d_51">
      <g>
       <use style="fill:#caced3;stroke:#caced3;stroke-width:0.5;" x="7.2" xlink:href="#m31d6d08981" y="117.827125"/>
      </g>
     </g>
     <g id="text_9">
      <!-- 80% -->
      <g style="fill:#565e69;" transform="translate(18.558125 114.9565)scale(0.12 -0.12)">
       <defs>
        <path d="M 1825 4634 
Q 2222 4634 2528 4509 
Q 2834 4384 3007 4142 
Q 3181 3900 3181 3547 
Q 3181 3269 3061 3061 
Q 2941 2853 2737 2698 
Q 2534 2544 2288 2422 
Q 2581 2288 2817 2119 
Q 3053 1950 3190 1722 
Q 3328 1494 3328 1181 
Q 3328 797 3142 517 
Q 2956 238 2622 87 
Q 2288 -63 1838 -63 
Q 1353 -63 1014 82 
Q 675 228 498 501 
Q 322 775 322 1159 
Q 322 1475 456 1708 
Q 591 1941 812 2109 
Q 1034 2278 1297 2394 
Q 1069 2519 880 2678 
Q 691 2838 580 3052 
Q 469 3266 469 3550 
Q 469 3897 645 4139 
Q 822 4381 1130 4507 
Q 1438 4634 1825 4634 
z
M 831 1156 
Q 831 806 1078 579 
Q 1325 353 1825 353 
Q 2300 353 2559 579 
Q 2819 806 2819 1175 
Q 2819 1403 2700 1576 
Q 2581 1750 2362 1887 
Q 2144 2025 1847 2138 
L 1734 2178 
Q 1447 2059 1245 1914 
Q 1044 1769 937 1584 
Q 831 1400 831 1156 
z
M 1819 4209 
Q 1450 4209 1215 4032 
Q 981 3856 981 3525 
Q 981 3288 1095 3123 
Q 1209 2959 1406 2842 
Q 1603 2725 1847 2625 
Q 2084 2725 2268 2845 
Q 2453 2966 2559 3131 
Q 2666 3297 2666 3528 
Q 2666 3859 2433 4034 
Q 2200 4209 1819 4209 
z
" id="OpenSans-Regular-38" transform="scale(0.015625)"/>
       </defs>
       <use xlink:href="#OpenSans-Regular-38"/>
       <use x="57.177734" xlink:href="#OpenSans-Regular-30"/>
       <use x="114.355469" xlink:href="#OpenSans-Regular-25"/>
      </g>
     </g>
    </g>
    <g id="ytick_6">
     <g id="line2d_52">
      <path clip-path="url(#p41f38623ac)" d="M 7.2 52.503125 
L 969 52.503125 
" style="fill:none;stroke:#caced3;stroke-dasharray:1.85,0.8;stroke-dashoffset:0;stroke-width:0.5;"/>
     </g>
     <g id="line2d_53">
      <g>
       <use style="fill:#caced3;stroke:#caced3;stroke-width:0.5;" x="7.2" xlink:href="#m31d6d08981" y="52.503125"/>
      </g>
     </g>
     <g id="text_10">
      <!-- 100% -->
      <g style="fill:#565e69;" transform="translate(11.6975 49.6325)scale(0.12 -0.12)">
       <use xlink:href="#OpenSans-Regular-31"/>
       <use x="57.177734" xlink:href="#OpenSans-Regular-30"/>
       <use x="114.355469" xlink:href="#OpenSans-Regular-30"/>
       <use x="171.533203" xlink:href="#OpenSans-Regular-25"/>
      </g>
     </g>
    </g>
    <g id="text_11">
     <!-- of policies -->
     <g style="fill:#565e69;" transform="translate(45.96875 49.6325)scale(0.12 -0.12)">
      <defs>
       <path d="M 3500 1719 
Q 3500 1297 3390 965 
Q 3281 634 3075 406 
Q 2869 178 2576 57 
Q 2284 -63 1916 -63 
Q 1572 -63 1286 57 
Q 1000 178 792 406 
Q 584 634 470 965 
Q 356 1297 356 1719 
Q 356 2281 547 2676 
Q 738 3072 1092 3280 
Q 1447 3488 1938 3488 
Q 2406 3488 2757 3278 
Q 3109 3069 3304 2673 
Q 3500 2278 3500 1719 
z
M 894 1719 
Q 894 1306 1003 1003 
Q 1113 700 1341 534 
Q 1569 369 1928 369 
Q 2284 369 2514 534 
Q 2744 700 2853 1003 
Q 2963 1306 2963 1719 
Q 2963 2128 2853 2426 
Q 2744 2725 2516 2887 
Q 2288 3050 1925 3050 
Q 1391 3050 1142 2697 
Q 894 2344 894 1719 
z
" id="OpenSans-Regular-6f" transform="scale(0.015625)"/>
       <path d="M 2072 3019 
L 1219 3019 
L 1219 0 
L 700 0 
L 700 3019 
L 94 3019 
L 94 3269 
L 700 3441 
L 700 3669 
Q 700 4100 828 4370 
Q 956 4641 1200 4769 
Q 1444 4897 1794 4897 
Q 1991 4897 2155 4862 
Q 2319 4828 2444 4784 
L 2309 4375 
Q 2203 4409 2070 4439 
Q 1938 4469 1800 4469 
Q 1503 4469 1361 4276 
Q 1219 4084 1219 3675 
L 1219 3425 
L 2072 3425 
L 2072 3019 
z
" id="OpenSans-Regular-66" transform="scale(0.015625)"/>
       <path id="OpenSans-Regular-20" transform="scale(0.015625)"/>
       <path d="M 2156 3488 
Q 2797 3488 3178 3047 
Q 3559 2606 3559 1722 
Q 3559 1138 3384 741 
Q 3209 344 2892 140 
Q 2575 -63 2144 -63 
Q 1872 -63 1665 9 
Q 1459 81 1312 203 
Q 1166 325 1069 469 
L 1031 469 
Q 1041 347 1055 175 
Q 1069 3 1069 -125 
L 1069 -1531 
L 547 -1531 
L 547 3425 
L 975 3425 
L 1044 2919 
L 1069 2919 
Q 1169 3075 1312 3204 
Q 1456 3334 1664 3411 
Q 1872 3488 2156 3488 
z
M 2066 3050 
Q 1709 3050 1492 2912 
Q 1275 2775 1175 2501 
Q 1075 2228 1069 1816 
L 1069 1716 
Q 1069 1281 1164 981 
Q 1259 681 1479 525 
Q 1700 369 2072 369 
Q 2391 369 2603 541 
Q 2816 713 2920 1020 
Q 3025 1328 3025 1728 
Q 3025 2334 2789 2692 
Q 2553 3050 2066 3050 
z
" id="OpenSans-Regular-70" transform="scale(0.015625)"/>
       <path d="M 1069 0 
L 547 0 
L 547 4863 
L 1069 4863 
L 1069 0 
z
" id="OpenSans-Regular-6c" transform="scale(0.015625)"/>
       <path d="M 1066 3425 
L 1066 0 
L 547 0 
L 547 3425 
L 1066 3425 
z
M 813 4706 
Q 941 4706 1033 4623 
Q 1125 4541 1125 4366 
Q 1125 4194 1033 4109 
Q 941 4025 813 4025 
Q 678 4025 589 4109 
Q 500 4194 500 4366 
Q 500 4541 589 4623 
Q 678 4706 813 4706 
z
" id="OpenSans-Regular-69" transform="scale(0.015625)"/>
       <path d="M 1919 -63 
Q 1456 -63 1103 128 
Q 750 319 553 709 
Q 356 1100 356 1694 
Q 356 2316 564 2711 
Q 772 3106 1137 3297 
Q 1503 3488 1969 3488 
Q 2225 3488 2464 3436 
Q 2703 3384 2856 3306 
L 2700 2872 
Q 2544 2934 2339 2984 
Q 2134 3034 1956 3034 
Q 1600 3034 1364 2881 
Q 1128 2728 1011 2431 
Q 894 2134 894 1700 
Q 894 1284 1008 990 
Q 1122 697 1348 542 
Q 1575 388 1916 388 
Q 2188 388 2406 445 
Q 2625 503 2803 581 
L 2803 119 
Q 2631 31 2420 -16 
Q 2209 -63 1919 -63 
z
" id="OpenSans-Regular-63" transform="scale(0.015625)"/>
       <path d="M 1866 3488 
Q 2303 3488 2615 3294 
Q 2928 3100 3093 2751 
Q 3259 2403 3259 1938 
L 3259 1616 
L 894 1616 
Q 903 1013 1193 697 
Q 1484 381 2013 381 
Q 2338 381 2588 440 
Q 2838 500 3106 616 
L 3106 159 
Q 2847 44 2592 -9 
Q 2338 -63 1991 -63 
Q 1497 -63 1130 139 
Q 763 341 559 731 
Q 356 1122 356 1688 
Q 356 2241 542 2645 
Q 728 3050 1067 3269 
Q 1406 3488 1866 3488 
z
M 1859 3063 
Q 1444 3063 1197 2791 
Q 950 2519 903 2031 
L 2716 2031 
Q 2713 2338 2620 2570 
Q 2528 2803 2340 2933 
Q 2153 3063 1859 3063 
z
" id="OpenSans-Regular-65" transform="scale(0.015625)"/>
       <path d="M 2763 938 
Q 2763 609 2598 386 
Q 2434 163 2129 50 
Q 1825 -63 1403 -63 
Q 1044 -63 781 -6 
Q 519 50 322 153 
L 322 631 
Q 531 528 822 443 
Q 1113 359 1416 359 
Q 1859 359 2059 503 
Q 2259 647 2259 894 
Q 2259 1034 2179 1142 
Q 2100 1250 1912 1351 
Q 1725 1453 1394 1575 
Q 1066 1700 827 1823 
Q 588 1947 458 2125 
Q 328 2303 328 2588 
Q 328 3022 679 3255 
Q 1031 3488 1603 3488 
Q 1913 3488 2183 3427 
Q 2453 3366 2688 3263 
L 2513 2847 
Q 2300 2938 2059 3000 
Q 1819 3063 1569 3063 
Q 1209 3063 1017 2944 
Q 825 2825 825 2619 
Q 825 2459 914 2356 
Q 1003 2253 1200 2162 
Q 1397 2072 1719 1950 
Q 2041 1831 2275 1704 
Q 2509 1578 2636 1398 
Q 2763 1219 2763 938 
z
" id="OpenSans-Regular-73" transform="scale(0.015625)"/>
      </defs>
      <use xlink:href="#OpenSans-Regular-6f"/>
      <use x="60.15625" xlink:href="#OpenSans-Regular-66"/>
      <use x="93.798828" xlink:href="#OpenSans-Regular-20"/>
      <use x="119.775391" xlink:href="#OpenSans-Regular-70"/>
      <use x="180.957031" xlink:href="#OpenSans-Regular-6f"/>
      <use x="241.113281" xlink:href="#OpenSans-Regular-6c"/>
      <use x="266.357422" xlink:href="#OpenSans-Regular-69"/>
      <use x="291.601562" xlink:href="#OpenSans-Regular-63"/>
      <use x="339.501953" xlink:href="#OpenSans-Regular-69"/>
      <use x="364.746094" xlink:href="#OpenSans-Regular-65"/>
      <use x="420.898438" xlink:href="#OpenSans-Regular-73"/>
     </g>
    </g>
   </g>
   <g id="patch_3">
    <path clip-path="url(#p41f38623ac)" d="M 71.898605 204.593354 
L 87.678753 204.593354 
L 87.678753 52.503125 
L 71.898605 52.503125 
z
" style="fill:#d6d9de;stroke:#ffffff;stroke-linejoin:miter;stroke-width:0.5;"/>
   </g>
   <g id="patch_4">
    <path clip-path="url(#p41f38623ac)" d="M 96.357834 200.80626 
L 112.137982 200.80626 
L 112.137982 52.503125 
L 96.357834 52.503125 
z
" style="fill:#d6d9de;stroke:#ffffff;stroke-linejoin:miter;stroke-width:0.5;"/>
   </g>
   <g id="patch_5">
    <path clip-path="url(#p41f38623ac)" d="M 119.239048 182.998244 
L 135.019196 182.998244 
L 135.019196 52.503125 
L 119.239048 52.503125 
z
" style="fill:#d6d9de;stroke:#ffffff;stroke-linejoin:miter;stroke-width:0.5;"/>
   </g>
   <g id="patch_6">
    <path clip-path="url(#p41f38623ac)" d="M 143.698277 206.625602 
L 159.478425 206.625602 
L 159.478425 52.503125 
L 143.698277 52.503125 
z
" style="fill:#d6d9de;stroke:#ffffff;stroke-linejoin:miter;stroke-width:0.5;"/>
   </g>
   <g id="patch_7">
    <path clip-path="url(#p41f38623ac)" d="M 167.368499 163.310135 
L 183.148646 163.310135 
L 183.148646 52.503125 
L 167.368499 52.503125 
z
" style="fill:#d6d9de;stroke:#ffffff;stroke-linejoin:miter;stroke-width:0.5;"/>
   </g>
   <g id="patch_8">
    <path clip-path="url(#p41f38623ac)" d="M 191.827728 155.513378 
L 207.607875 155.513378 
L 207.607875 52.503125 
L 191.827728 52.503125 
z
" style="fill:#d6d9de;stroke:#ffffff;stroke-linejoin:miter;stroke-width:0.5;"/>
   </g>
   <g id="patch_9">
    <path clip-path="url(#p41f38623ac)" d="M 215.497949 162.217603 
L 231.278097 162.217603 
L 231.278097 52.503125 
L 215.497949 52.503125 
z
" style="fill:#d6d9de;stroke:#ffffff;stroke-linejoin:miter;stroke-width:0.5;"/>
   </g>
   <g id="patch_10">
    <path clip-path="url(#p41f38623ac)" d="M 239.957178 179.479815 
L 255.737326 179.479815 
L 255.737326 52.503125 
L 239.957178 52.503125 
z
" style="fill:#d6d9de;stroke:#ffffff;stroke-linejoin:miter;stroke-width:0.5;"/>
   </g>
   <g id="patch_11">
    <path clip-path="url(#p41f38623ac)" d="M 264.416407 174.316322 
L 280.196555 174.316322 
L 280.196555 52.503125 
L 264.416407 52.503125 
z
" style="fill:#d6d9de;stroke:#ffffff;stroke-linejoin:miter;stroke-width:0.5;"/>
   </g>
   <g id="patch_12">
    <path clip-path="url(#p41f38623ac)" d="M 288.086628 172.935464 
L 303.866776 172.935464 
L 303.866776 52.503125 
L 288.086628 52.503125 
z
" style="fill:#d6d9de;stroke:#ffffff;stroke-linejoin:miter;stroke-width:0.5;"/>
   </g>
   <g id="patch_13">
    <path clip-path="url(#p41f38623ac)" d="M 312.545857 166.535045 
L 328.326005 166.535045 
L 328.326005 52.503125 
L 312.545857 52.503125 
z
" style="fill:#d6d9de;stroke:#ffffff;stroke-linejoin:miter;stroke-width:0.5;"/>
   </g>
   <g id="patch_14">
    <path clip-path="url(#p41f38623ac)" d="M 336.216079 172.594689 
L 351.996226 172.594689 
L 351.996226 52.503125 
L 336.216079 52.503125 
z
" style="fill:#d6d9de;stroke:#ffffff;stroke-linejoin:miter;stroke-width:0.5;"/>
   </g>
   <g id="patch_15">
    <path clip-path="url(#p41f38623ac)" d="M 360.675308 163.204865 
L 376.455455 163.204865 
L 376.455455 52.503125 
L 360.675308 52.503125 
z
" style="fill:#d6d9de;stroke:#ffffff;stroke-linejoin:miter;stroke-width:0.5;"/>
   </g>
   <g id="patch_16">
    <path clip-path="url(#p41f38623ac)" d="M 385.134537 185.290832 
L 400.914684 185.290832 
L 400.914684 52.503125 
L 385.134537 52.503125 
z
" style="fill:#d6d9de;stroke:#ffffff;stroke-linejoin:miter;stroke-width:0.5;"/>
   </g>
   <g id="patch_17">
    <path clip-path="url(#p41f38623ac)" d="M 407.226743 199.148839 
L 423.006891 199.148839 
L 423.006891 52.503125 
L 407.226743 52.503125 
z
" style="fill:#d6d9de;stroke:#ffffff;stroke-linejoin:miter;stroke-width:0.5;"/>
   </g>
   <g id="patch_18">
    <path clip-path="url(#p41f38623ac)" d="M 431.685972 194.009957 
L 447.46612 194.009957 
L 447.46612 52.503125 
L 431.685972 52.503125 
z
" style="fill:#d6d9de;stroke:#ffffff;stroke-linejoin:miter;stroke-width:0.5;"/>
   </g>
   <g id="patch_19">
    <path clip-path="url(#p41f38623ac)" d="M 455.356194 199.202165 
L 471.136341 199.202165 
L 471.136341 52.503125 
L 455.356194 52.503125 
z
" style="fill:#d6d9de;stroke:#ffffff;stroke-linejoin:miter;stroke-width:0.5;"/>
   </g>
   <g id="patch_20">
    <path clip-path="url(#p41f38623ac)" d="M 479.815422 261.539925 
L 495.59557 261.539925 
L 495.59557 52.503125 
L 479.815422 52.503125 
z
" style="fill:#d6d9de;stroke:#ffffff;stroke-linejoin:miter;stroke-width:0.5;"/>
   </g>
   <g id="patch_21">
    <path clip-path="url(#p41f38623ac)" d="M 503.485644 261.897865 
L 519.265792 261.897865 
L 519.265792 52.503125 
L 503.485644 52.503125 
z
" style="fill:#d6d9de;stroke:#ffffff;stroke-linejoin:miter;stroke-width:0.5;"/>
   </g>
   <g id="patch_22">
    <path clip-path="url(#p41f38623ac)" d="M 527.944873 248.045362 
L 543.725021 248.045362 
L 543.725021 52.503125 
L 527.944873 52.503125 
z
" style="fill:#d6d9de;stroke:#ffffff;stroke-linejoin:miter;stroke-width:0.5;"/>
   </g>
   <g id="patch_23">
    <path clip-path="url(#p41f38623ac)" d="M 552.404102 268.450232 
L 568.184249 268.450232 
L 568.184249 52.503125 
L 552.404102 52.503125 
z
" style="fill:#d6d9de;stroke:#ffffff;stroke-linejoin:miter;stroke-width:0.5;"/>
   </g>
   <g id="patch_24">
    <path clip-path="url(#p41f38623ac)" d="M 576.074323 259.274657 
L 591.854471 259.274657 
L 591.854471 52.503125 
L 576.074323 52.503125 
z
" style="fill:#d6d9de;stroke:#ffffff;stroke-linejoin:miter;stroke-width:0.5;"/>
   </g>
   <g id="patch_25">
    <path clip-path="url(#p41f38623ac)" d="M 600.533552 177.109599 
L 616.3137 177.109599 
L 616.3137 52.503125 
L 600.533552 52.503125 
z
" style="fill:#d6d9de;stroke:#ffffff;stroke-linejoin:miter;stroke-width:0.5;"/>
   </g>
   <g id="patch_26">
    <path clip-path="url(#p41f38623ac)" d="M 624.203774 178.37132 
L 639.983921 178.37132 
L 639.983921 52.503125 
L 624.203774 52.503125 
z
" style="fill:#d6d9de;stroke:#ffffff;stroke-linejoin:miter;stroke-width:0.5;"/>
   </g>
   <g id="patch_27">
    <path clip-path="url(#p41f38623ac)" d="M 648.663002 243.678114 
L 664.44315 243.678114 
L 664.44315 52.503125 
L 648.663002 52.503125 
z
" style="fill:#d6d9de;stroke:#ffffff;stroke-linejoin:miter;stroke-width:0.5;"/>
   </g>
   <g id="patch_28">
    <path clip-path="url(#p41f38623ac)" d="M 673.122231 173.210516 
L 688.902379 173.210516 
L 688.902379 52.503125 
L 673.122231 52.503125 
z
" style="fill:#d6d9de;stroke:#ffffff;stroke-linejoin:miter;stroke-width:0.5;"/>
   </g>
   <g id="patch_29">
    <path clip-path="url(#p41f38623ac)" d="M 695.214438 221.256792 
L 710.994586 221.256792 
L 710.994586 52.503125 
L 695.214438 52.503125 
z
" style="fill:#d6d9de;stroke:#ffffff;stroke-linejoin:miter;stroke-width:0.5;"/>
   </g>
   <g id="patch_30">
    <path clip-path="url(#p41f38623ac)" d="M 719.673667 221.256792 
L 735.453815 221.256792 
L 735.453815 52.503125 
L 719.673667 52.503125 
z
" style="fill:#d6d9de;stroke:#ffffff;stroke-linejoin:miter;stroke-width:0.5;"/>
   </g>
   <g id="patch_31">
    <path clip-path="url(#p41f38623ac)" d="M 743.343888 263.845478 
L 759.124036 263.845478 
L 759.124036 52.503125 
L 743.343888 52.503125 
z
" style="fill:#d6d9de;stroke:#ffffff;stroke-linejoin:miter;stroke-width:0.5;"/>
   </g>
   <g id="patch_32">
    <path clip-path="url(#p41f38623ac)" d="M 767.803117 282.743453 
L 783.583265 282.743453 
L 783.583265 52.503125 
L 767.803117 52.503125 
z
" style="fill:#d6d9de;stroke:#ffffff;stroke-linejoin:miter;stroke-width:0.5;"/>
   </g>
   <g id="patch_33">
    <path clip-path="url(#p41f38623ac)" d="M 791.473339 261.744063 
L 807.253486 261.744063 
L 807.253486 52.503125 
L 791.473339 52.503125 
z
" style="fill:#d6d9de;stroke:#ffffff;stroke-linejoin:miter;stroke-width:0.5;"/>
   </g>
   <g id="patch_34">
    <path clip-path="url(#p41f38623ac)" d="M 815.932568 307.675 
L 831.712715 307.675 
L 831.712715 52.503125 
L 815.932568 52.503125 
z
" style="fill:#d6d9de;stroke:#ffffff;stroke-linejoin:miter;stroke-width:0.5;"/>
   </g>
   <g id="patch_35">
    <path clip-path="url(#p41f38623ac)" d="M 840.391797 239.143125 
L 856.171944 239.143125 
L 856.171944 52.503125 
L 840.391797 52.503125 
z
" style="fill:#d6d9de;stroke:#ffffff;stroke-linejoin:miter;stroke-width:0.5;"/>
   </g>
   <g id="patch_36">
    <path clip-path="url(#p41f38623ac)" d="M 864.062018 166.110082 
L 879.842166 166.110082 
L 879.842166 52.503125 
L 864.062018 52.503125 
z
" style="fill:#d6d9de;stroke:#ffffff;stroke-linejoin:miter;stroke-width:0.5;"/>
   </g>
   <g id="patch_37">
    <path clip-path="url(#p41f38623ac)" d="M 888.521247 297.468125 
L 904.301395 297.468125 
L 904.301395 52.503125 
L 888.521247 52.503125 
z
" style="fill:#d6d9de;stroke:#ffffff;stroke-linejoin:miter;stroke-width:0.5;"/>
   </g>
   <g id="patch_38">
    <path clip-path="url(#p41f38623ac)" d="M 912.191468 188.594792 
L 927.971616 188.594792 
L 927.971616 52.503125 
L 912.191468 52.503125 
z
" style="fill:#d6d9de;stroke:#ffffff;stroke-linejoin:miter;stroke-width:0.5;"/>
   </g>
   <g id="patch_39">
    <path clip-path="url(#p41f38623ac)" d="M 71.898605 217.059766 
L 87.678753 217.059766 
L 87.678753 204.593354 
L 71.898605 204.593354 
z
" style="fill:#87bbd8;stroke:#ffffff;stroke-linejoin:miter;stroke-width:0.5;"/>
   </g>
   <g id="patch_40">
    <path clip-path="url(#p41f38623ac)" d="M 96.357834 211.399341 
L 112.137982 211.399341 
L 112.137982 200.80626 
L 96.357834 200.80626 
z
" style="fill:#87bbd8;stroke:#ffffff;stroke-linejoin:miter;stroke-width:0.5;"/>
   </g>
   <g id="patch_41">
    <path clip-path="url(#p41f38623ac)" d="M 119.239048 199.269183 
L 135.019196 199.269183 
L 135.019196 182.998244 
L 119.239048 182.998244 
z
" style="fill:#87bbd8;stroke:#ffffff;stroke-linejoin:miter;stroke-width:0.5;"/>
   </g>
   <g id="patch_42">
    <path clip-path="url(#p41f38623ac)" d="M 143.698277 239.957081 
L 159.478425 239.957081 
L 159.478425 206.625602 
L 143.698277 206.625602 
z
" style="fill:#87bbd8;stroke:#ffffff;stroke-linejoin:miter;stroke-width:0.5;"/>
   </g>
   <g id="patch_43">
    <path clip-path="url(#p41f38623ac)" d="M 167.368499 261.04647 
L 183.148646 261.04647 
L 183.148646 163.310135 
L 167.368499 163.310135 
z
" style="fill:#87bbd8;stroke:#ffffff;stroke-linejoin:miter;stroke-width:0.5;"/>
   </g>
   <g id="patch_44">
    <path clip-path="url(#p41f38623ac)" d="M 191.827728 278.812211 
L 207.607875 278.812211 
L 207.607875 155.513378 
L 191.827728 155.513378 
z
" style="fill:#87bbd8;stroke:#ffffff;stroke-linejoin:miter;stroke-width:0.5;"/>
   </g>
   <g id="patch_45">
    <path clip-path="url(#p41f38623ac)" d="M 215.497949 249.440612 
L 231.278097 249.440612 
L 231.278097 162.217603 
L 215.497949 162.217603 
z
" style="fill:#87bbd8;stroke:#ffffff;stroke-linejoin:miter;stroke-width:0.5;"/>
   </g>
   <g id="patch_46">
    <path clip-path="url(#p41f38623ac)" d="M 239.957178 261.894396 
L 255.737326 261.894396 
L 255.737326 179.479815 
L 239.957178 179.479815 
z
" style="fill:#87bbd8;stroke:#ffffff;stroke-linejoin:miter;stroke-width:0.5;"/>
   </g>
   <g id="patch_47">
    <path clip-path="url(#p41f38623ac)" d="M 264.416407 273.521941 
L 280.196555 273.521941 
L 280.196555 174.316322 
L 264.416407 174.316322 
z
" style="fill:#87bbd8;stroke:#ffffff;stroke-linejoin:miter;stroke-width:0.5;"/>
   </g>
   <g id="patch_48">
    <path clip-path="url(#p41f38623ac)" d="M 288.086628 248.381403 
L 303.866776 248.381403 
L 303.866776 172.935464 
L 288.086628 172.935464 
z
" style="fill:#87bbd8;stroke:#ffffff;stroke-linejoin:miter;stroke-width:0.5;"/>
   </g>
   <g id="patch_49">
    <path clip-path="url(#p41f38623ac)" d="M 312.545857 231.831895 
L 328.326005 231.831895 
L 328.326005 166.535045 
L 312.545857 166.535045 
z
" style="fill:#87bbd8;stroke:#ffffff;stroke-linejoin:miter;stroke-width:0.5;"/>
   </g>
   <g id="patch_50">
    <path clip-path="url(#p41f38623ac)" d="M 336.216079 236.635453 
L 351.996226 236.635453 
L 351.996226 172.594689 
L 336.216079 172.594689 
z
" style="fill:#87bbd8;stroke:#ffffff;stroke-linejoin:miter;stroke-width:0.5;"/>
   </g>
   <g id="patch_51">
    <path clip-path="url(#p41f38623ac)" d="M 360.675308 247.976469 
L 376.455455 247.976469 
L 376.455455 163.204865 
L 360.675308 163.204865 
z
" style="fill:#87bbd8;stroke:#ffffff;stroke-linejoin:miter;stroke-width:0.5;"/>
   </g>
   <g id="patch_52">
    <path clip-path="url(#p41f38623ac)" d="M 385.134537 265.424962 
L 400.914684 265.424962 
L 400.914684 185.290832 
L 385.134537 185.290832 
z
" style="fill:#87bbd8;stroke:#ffffff;stroke-linejoin:miter;stroke-width:0.5;"/>
   </g>
   <g id="patch_53">
    <path clip-path="url(#p41f38623ac)" d="M 407.226743 277.232921 
L 423.006891 277.232921 
L 423.006891 199.148839 
L 407.226743 199.148839 
z
" style="fill:#87bbd8;stroke:#ffffff;stroke-linejoin:miter;stroke-width:0.5;"/>
   </g>
   <g id="patch_54">
    <path clip-path="url(#p41f38623ac)" d="M 431.685972 268.397235 
L 447.46612 268.397235 
L 447.46612 194.009957 
L 431.685972 194.009957 
z
" style="fill:#87bbd8;stroke:#ffffff;stroke-linejoin:miter;stroke-width:0.5;"/>
   </g>
   <g id="patch_55">
    <path clip-path="url(#p41f38623ac)" d="M 455.356194 289.535925 
L 471.136341 289.535925 
L 471.136341 199.202165 
L 455.356194 199.202165 
z
" style="fill:#87bbd8;stroke:#ffffff;stroke-linejoin:miter;stroke-width:0.5;"/>
   </g>
   <g id="patch_56">
    <path clip-path="url(#p41f38623ac)" d="M 479.815422 326.863925 
L 495.59557 326.863925 
L 495.59557 261.539925 
L 479.815422 261.539925 
z
" style="fill:#87bbd8;stroke:#ffffff;stroke-linejoin:miter;stroke-width:0.5;"/>
   </g>
   <g id="patch_57">
    <path clip-path="url(#p41f38623ac)" d="M 503.485644 305.745481 
L 519.265792 305.745481 
L 519.265792 261.897865 
L 503.485644 261.897865 
z
" style="fill:#87bbd8;stroke:#ffffff;stroke-linejoin:miter;stroke-width:0.5;"/>
   </g>
   <g id="patch_58">
    <path clip-path="url(#p41f38623ac)" d="M 527.944873 297.468125 
L 543.725021 297.468125 
L 543.725021 248.045362 
L 527.944873 248.045362 
z
" style="fill:#87bbd8;stroke:#ffffff;stroke-linejoin:miter;stroke-width:0.5;"/>
   </g>
   <g id="patch_59">
    <path clip-path="url(#p41f38623ac)" d="M 552.404102 321.53723 
L 568.184249 321.53723 
L 568.184249 268.450232 
L 552.404102 268.450232 
z
" style="fill:#87bbd8;stroke:#ffffff;stroke-linejoin:miter;stroke-width:0.5;"/>
   </g>
   <g id="patch_60">
    <path clip-path="url(#p41f38623ac)" d="M 576.074323 333.02756 
L 591.854471 333.02756 
L 591.854471 259.274657 
L 576.074323 259.274657 
z
" style="fill:#87bbd8;stroke:#ffffff;stroke-linejoin:miter;stroke-width:0.5;"/>
   </g>
   <g id="patch_61">
    <path clip-path="url(#p41f38623ac)" d="M 600.533552 211.093183 
L 616.3137 211.093183 
L 616.3137 177.109599 
L 600.533552 177.109599 
z
" style="fill:#87bbd8;stroke:#ffffff;stroke-linejoin:miter;stroke-width:0.5;"/>
   </g>
   <g id="patch_62">
    <path clip-path="url(#p41f38623ac)" d="M 624.203774 223.779466 
L 639.983921 223.779466 
L 639.983921 178.37132 
L 624.203774 178.37132 
z
" style="fill:#87bbd8;stroke:#ffffff;stroke-linejoin:miter;stroke-width:0.5;"/>
   </g>
   <g id="patch_63">
    <path clip-path="url(#p41f38623ac)" d="M 648.663002 297.997207 
L 664.44315 297.997207 
L 664.44315 243.678114 
L 648.663002 243.678114 
z
" style="fill:#87bbd8;stroke:#ffffff;stroke-linejoin:miter;stroke-width:0.5;"/>
   </g>
   <g id="patch_64">
    <path clip-path="url(#p41f38623ac)" d="M 673.122231 252.735386 
L 688.902379 252.735386 
L 688.902379 173.210516 
L 673.122231 173.210516 
z
" style="fill:#87bbd8;stroke:#ffffff;stroke-linejoin:miter;stroke-width:0.5;"/>
   </g>
   <g id="patch_65">
    <path clip-path="url(#p41f38623ac)" d="M 695.214438 333.759236 
L 710.994586 333.759236 
L 710.994586 221.256792 
L 695.214438 221.256792 
z
" style="fill:#87bbd8;stroke:#ffffff;stroke-linejoin:miter;stroke-width:0.5;"/>
   </g>
   <g id="patch_66">
    <path clip-path="url(#p41f38623ac)" d="M 719.673667 321.964625 
L 735.453815 321.964625 
L 735.453815 221.256792 
L 719.673667 221.256792 
z
" style="fill:#87bbd8;stroke:#ffffff;stroke-linejoin:miter;stroke-width:0.5;"/>
   </g>
   <g id="patch_67">
    <path clip-path="url(#p41f38623ac)" d="M 743.343888 340.697243 
L 759.124036 340.697243 
L 759.124036 263.845478 
L 743.343888 263.845478 
z
" style="fill:#87bbd8;stroke:#ffffff;stroke-linejoin:miter;stroke-width:0.5;"/>
   </g>
   <g id="patch_68">
    <path clip-path="url(#p41f38623ac)" d="M 767.803117 341.642141 
L 783.583265 341.642141 
L 783.583265 282.743453 
L 767.803117 282.743453 
z
" style="fill:#87bbd8;stroke:#ffffff;stroke-linejoin:miter;stroke-width:0.5;"/>
   </g>
   <g id="patch_69">
    <path clip-path="url(#p41f38623ac)" d="M 791.473339 333.192187 
L 807.253486 333.192187 
L 807.253486 261.744062 
L 791.473339 261.744062 
z
" style="fill:#87bbd8;stroke:#ffffff;stroke-linejoin:miter;stroke-width:0.5;"/>
   </g>
   <g id="patch_70">
    <path clip-path="url(#p41f38623ac)" d="M 815.932568 348.5025 
L 831.712715 348.5025 
L 831.712715 307.675 
L 815.932568 307.675 
z
" style="fill:#87bbd8;stroke:#ffffff;stroke-linejoin:miter;stroke-width:0.5;"/>
   </g>
   <g id="patch_71">
    <path clip-path="url(#p41f38623ac)" d="M 840.391797 351.127125 
L 856.171944 351.127125 
L 856.171944 239.143125 
L 840.391797 239.143125 
z
" style="fill:#87bbd8;stroke:#ffffff;stroke-linejoin:miter;stroke-width:0.5;"/>
   </g>
   <g id="patch_72">
    <path clip-path="url(#p41f38623ac)" d="M 864.062018 279.717038 
L 879.842166 279.717038 
L 879.842166 166.110082 
L 864.062018 166.110082 
z
" style="fill:#87bbd8;stroke:#ffffff;stroke-linejoin:miter;stroke-width:0.5;"/>
   </g>
   <g id="patch_73">
    <path clip-path="url(#p41f38623ac)" d="M 888.521247 338.295625 
L 904.301395 338.295625 
L 904.301395 297.468125 
L 888.521247 297.468125 
z
" style="fill:#87bbd8;stroke:#ffffff;stroke-linejoin:miter;stroke-width:0.5;"/>
   </g>
   <g id="patch_74">
    <path clip-path="url(#p41f38623ac)" d="M 912.191468 297.468125 
L 927.971616 297.468125 
L 927.971616 188.594792 
L 912.191468 188.594792 
z
" style="fill:#87bbd8;stroke:#ffffff;stroke-linejoin:miter;stroke-width:0.5;"/>
   </g>
   <g id="patch_75">
    <path clip-path="url(#p41f38623ac)" d="M 71.898605 379.123125 
L 87.678753 379.123125 
L 87.678753 217.059766 
L 71.898605 217.059766 
z
" style="fill:#eea45f;stroke:#ffffff;stroke-linejoin:miter;stroke-width:0.5;"/>
   </g>
   <g id="patch_76">
    <path clip-path="url(#p41f38623ac)" d="M 96.357834 379.123125 
L 112.137982 379.123125 
L 112.137982 211.399341 
L 96.357834 211.399341 
z
" style="fill:#eea45f;stroke:#ffffff;stroke-linejoin:miter;stroke-width:0.5;"/>
   </g>
   <g id="patch_77">
    <path clip-path="url(#p41f38623ac)" d="M 119.239048 379.123125 
L 135.019196 379.123125 
L 135.019196 199.269183 
L 119.239048 199.269183 
z
" style="fill:#eea45f;stroke:#ffffff;stroke-linejoin:miter;stroke-width:0.5;"/>
   </g>
   <g id="patch_78">
    <path clip-path="url(#p41f38623ac)" d="M 143.698277 379.123125 
L 159.478425 379.123125 
L 159.478425 239.957081 
L 143.698277 239.957081 
z
" style="fill:#eea45f;stroke:#ffffff;stroke-linejoin:miter;stroke-width:0.5;"/>
   </g>
   <g id="patch_79">
    <path clip-path="url(#p41f38623ac)" d="M 167.368499 379.123125 
L 183.148646 379.123125 
L 183.148646 261.04647 
L 167.368499 261.04647 
z
" style="fill:#eea45f;stroke:#ffffff;stroke-linejoin:miter;stroke-width:0.5;"/>
   </g>
   <g id="patch_80">
    <path clip-path="url(#p41f38623ac)" d="M 191.827728 379.123125 
L 207.607875 379.123125 
L 207.607875 278.812211 
L 191.827728 278.812211 
z
" style="fill:#eea45f;stroke:#ffffff;stroke-linejoin:miter;stroke-width:0.5;"/>
   </g>
   <g id="patch_81">
    <path clip-path="url(#p41f38623ac)" d="M 215.497949 379.123125 
L 231.278097 379.123125 
L 231.278097 249.440612 
L 215.497949 249.440612 
z
" style="fill:#eea45f;stroke:#ffffff;stroke-linejoin:miter;stroke-width:0.5;"/>
   </g>
   <g id="patch_82">
    <path clip-path="url(#p41f38623ac)" d="M 239.957178 379.123125 
L 255.737326 379.123125 
L 255.737326 261.894396 
L 239.957178 261.894396 
z
" style="fill:#eea45f;stroke:#ffffff;stroke-linejoin:miter;stroke-width:0.5;"/>
   </g>
   <g id="patch_83">
    <path clip-path="url(#p41f38623ac)" d="M 264.416407 379.123125 
L 280.196555 379.123125 
L 280.196555 273.521941 
L 264.416407 273.521941 
z
" style="fill:#eea45f;stroke:#ffffff;stroke-linejoin:miter;stroke-width:0.5;"/>
   </g>
   <g id="patch_84">
    <path clip-path="url(#p41f38623ac)" d="M 288.086628 379.123125 
L 303.866776 379.123125 
L 303.866776 248.381403 
L 288.086628 248.381403 
z
" style="fill:#eea45f;stroke:#ffffff;stroke-linejoin:miter;stroke-width:0.5;"/>
   </g>
   <g id="patch_85">
    <path clip-path="url(#p41f38623ac)" d="M 312.545857 379.123125 
L 328.326005 379.123125 
L 328.326005 231.831895 
L 312.545857 231.831895 
z
" style="fill:#eea45f;stroke:#ffffff;stroke-linejoin:miter;stroke-width:0.5;"/>
   </g>
   <g id="patch_86">
    <path clip-path="url(#p41f38623ac)" d="M 336.216079 379.123125 
L 351.996226 379.123125 
L 351.996226 236.635453 
L 336.216079 236.635453 
z
" style="fill:#eea45f;stroke:#ffffff;stroke-linejoin:miter;stroke-width:0.5;"/>
   </g>
   <g id="patch_87">
    <path clip-path="url(#p41f38623ac)" d="M 360.675308 379.123125 
L 376.455455 379.123125 
L 376.455455 247.976469 
L 360.675308 247.976469 
z
" style="fill:#eea45f;stroke:#ffffff;stroke-linejoin:miter;stroke-width:0.5;"/>
   </g>
   <g id="patch_88">
    <path clip-path="url(#p41f38623ac)" d="M 385.134537 379.123125 
L 400.914684 379.123125 
L 400.914684 265.424962 
L 385.134537 265.424962 
z
" style="fill:#eea45f;stroke:#ffffff;stroke-linejoin:miter;stroke-width:0.5;"/>
   </g>
   <g id="patch_89">
    <path clip-path="url(#p41f38623ac)" d="M 407.226743 379.123125 
L 423.006891 379.123125 
L 423.006891 277.232921 
L 407.226743 277.232921 
z
" style="fill:#eea45f;stroke:#ffffff;stroke-linejoin:miter;stroke-width:0.5;"/>
   </g>
   <g id="patch_90">
    <path clip-path="url(#p41f38623ac)" d="M 431.685972 379.123125 
L 447.46612 379.123125 
L 447.46612 268.397235 
L 431.685972 268.397235 
z
" style="fill:#eea45f;stroke:#ffffff;stroke-linejoin:miter;stroke-width:0.5;"/>
   </g>
   <g id="patch_91">
    <path clip-path="url(#p41f38623ac)" d="M 455.356194 379.123125 
L 471.136341 379.123125 
L 471.136341 289.535925 
L 455.356194 289.535925 
z
" style="fill:#eea45f;stroke:#ffffff;stroke-linejoin:miter;stroke-width:0.5;"/>
   </g>
   <g id="patch_92">
    <path clip-path="url(#p41f38623ac)" d="M 479.815422 379.123125 
L 495.59557 379.123125 
L 495.59557 326.863925 
L 479.815422 326.863925 
z
" style="fill:#eea45f;stroke:#ffffff;stroke-linejoin:miter;stroke-width:0.5;"/>
   </g>
   <g id="patch_93">
    <path clip-path="url(#p41f38623ac)" d="M 503.485644 379.123125 
L 519.265792 379.123125 
L 519.265792 305.745481 
L 503.485644 305.745481 
z
" style="fill:#eea45f;stroke:#ffffff;stroke-linejoin:miter;stroke-width:0.5;"/>
   </g>
   <g id="patch_94">
    <path clip-path="url(#p41f38623ac)" d="M 527.944873 379.123125 
L 543.725021 379.123125 
L 543.725021 297.468125 
L 527.944873 297.468125 
z
" style="fill:#eea45f;stroke:#ffffff;stroke-linejoin:miter;stroke-width:0.5;"/>
   </g>
   <g id="patch_95">
    <path clip-path="url(#p41f38623ac)" d="M 552.404102 379.123125 
L 568.184249 379.123125 
L 568.184249 321.53723 
L 552.404102 321.53723 
z
" style="fill:#eea45f;stroke:#ffffff;stroke-linejoin:miter;stroke-width:0.5;"/>
   </g>
   <g id="patch_96">
    <path clip-path="url(#p41f38623ac)" d="M 576.074323 379.123125 
L 591.854471 379.123125 
L 591.854471 333.02756 
L 576.074323 333.02756 
z
" style="fill:#eea45f;stroke:#ffffff;stroke-linejoin:miter;stroke-width:0.5;"/>
   </g>
   <g id="patch_97">
    <path clip-path="url(#p41f38623ac)" d="M 600.533552 379.123125 
L 616.3137 379.123125 
L 616.3137 211.093183 
L 600.533552 211.093183 
z
" style="fill:#eea45f;stroke:#ffffff;stroke-linejoin:miter;stroke-width:0.5;"/>
   </g>
   <g id="patch_98">
    <path clip-path="url(#p41f38623ac)" d="M 624.203774 379.123125 
L 639.983921 379.123125 
L 639.983921 223.779466 
L 624.203774 223.779466 
z
" style="fill:#eea45f;stroke:#ffffff;stroke-linejoin:miter;stroke-width:0.5;"/>
   </g>
   <g id="patch_99">
    <path clip-path="url(#p41f38623ac)" d="M 648.663002 379.123125 
L 664.44315 379.123125 
L 664.44315 297.997207 
L 648.663002 297.997207 
z
" style="fill:#eea45f;stroke:#ffffff;stroke-linejoin:miter;stroke-width:0.5;"/>
   </g>
   <g id="patch_100">
    <path clip-path="url(#p41f38623ac)" d="M 673.122231 379.123125 
L 688.902379 379.123125 
L 688.902379 252.735386 
L 673.122231 252.735386 
z
" style="fill:#eea45f;stroke:#ffffff;stroke-linejoin:miter;stroke-width:0.5;"/>
   </g>
   <g id="patch_101">
    <path clip-path="url(#p41f38623ac)" d="M 695.214438 379.123125 
L 710.994586 379.123125 
L 710.994586 333.759236 
L 695.214438 333.759236 
z
" style="fill:#eea45f;stroke:#ffffff;stroke-linejoin:miter;stroke-width:0.5;"/>
   </g>
   <g id="patch_102">
    <path clip-path="url(#p41f38623ac)" d="M 719.673667 379.123125 
L 735.453815 379.123125 
L 735.453815 321.964625 
L 719.673667 321.964625 
z
" style="fill:#eea45f;stroke:#ffffff;stroke-linejoin:miter;stroke-width:0.5;"/>
   </g>
   <g id="patch_103">
    <path clip-path="url(#p41f38623ac)" d="M 743.343888 379.123125 
L 759.124036 379.123125 
L 759.124036 340.697243 
L 743.343888 340.697243 
z
" style="fill:#eea45f;stroke:#ffffff;stroke-linejoin:miter;stroke-width:0.5;"/>
   </g>
   <g id="patch_104">
    <path clip-path="url(#p41f38623ac)" d="M 767.803117 379.123125 
L 783.583265 379.123125 
L 783.583265 341.642141 
L 767.803117 341.642141 
z
" style="fill:#eea45f;stroke:#ffffff;stroke-linejoin:miter;stroke-width:0.5;"/>
   </g>
   <g id="patch_105">
    <path clip-path="url(#p41f38623ac)" d="M 791.473339 379.123125 
L 807.253486 379.123125 
L 807.253486 333.192187 
L 791.473339 333.192187 
z
" style="fill:#eea45f;stroke:#ffffff;stroke-linejoin:miter;stroke-width:0.5;"/>
   </g>
   <g id="patch_106">
    <path clip-path="url(#p41f38623ac)" d="M 815.932568 379.123125 
L 831.712715 379.123125 
L 831.712715 348.5025 
L 815.932568 348.5025 
z
" style="fill:#eea45f;stroke:#ffffff;stroke-linejoin:miter;stroke-width:0.5;"/>
   </g>
   <g id="patch_107">
    <path clip-path="url(#p41f38623ac)" d="M 840.391797 379.123125 
L 856.171944 379.123125 
L 856.171944 351.127125 
L 840.391797 351.127125 
z
" style="fill:#eea45f;stroke:#ffffff;stroke-linejoin:miter;stroke-width:0.5;"/>
   </g>
   <g id="patch_108">
    <path clip-path="url(#p41f38623ac)" d="M 864.062018 379.123125 
L 879.842166 379.123125 
L 879.842166 279.717038 
L 864.062018 279.717038 
z
" style="fill:#eea45f;stroke:#ffffff;stroke-linejoin:miter;stroke-width:0.5;"/>
   </g>
   <g id="patch_109">
    <path clip-path="url(#p41f38623ac)" d="M 888.521247 379.123125 
L 904.301395 379.123125 
L 904.301395 338.295625 
L 888.521247 338.295625 
z
" style="fill:#eea45f;stroke:#ffffff;stroke-linejoin:miter;stroke-width:0.5;"/>
   </g>
   <g id="patch_110">
    <path clip-path="url(#p41f38623ac)" d="M 912.191468 379.123125 
L 927.971616 379.123125 
L 927.971616 297.468125 
L 912.191468 297.468125 
z
" style="fill:#eea45f;stroke:#ffffff;stroke-linejoin:miter;stroke-width:0.5;"/>
   </g>
   <g id="patch_111">
    <path d="M 7.2 379.123125 
L 969 379.123125 
" style="fill:none;stroke:#caced3;stroke-linecap:square;stroke-linejoin:miter;"/>
   </g>
   <g id="text_12">
    <!-- Type of policies enacted over time, compared to caseload, United States -->
    <g style="fill:#2c2b2b;" transform="translate(7.2 22.503125)scale(0.2 -0.2)">
     <defs>
      <path d="M 2028 0 
L 1494 0 
L 1494 4100 
L 56 4100 
L 56 4569 
L 3459 4569 
L 3459 4100 
L 2028 4100 
L 2028 0 
z
" id="OpenSans-Regular-54" transform="scale(0.015625)"/>
      <path d="M 6 3425 
L 563 3425 
L 1319 1438 
Q 1384 1263 1440 1102 
Q 1497 941 1540 794 
Q 1584 647 1609 509 
L 1631 509 
Q 1675 666 1756 920 
Q 1838 1175 1931 1441 
L 2647 3425 
L 3206 3425 
L 1716 -503 
Q 1597 -819 1439 -1053 
Q 1281 -1288 1056 -1414 
Q 831 -1541 513 -1541 
Q 366 -1541 253 -1523 
Q 141 -1506 59 -1484 
L 59 -1069 
Q 128 -1084 226 -1096 
Q 325 -1109 431 -1109 
Q 625 -1109 767 -1036 
Q 909 -963 1012 -822 
Q 1116 -681 1191 -488 
L 1378 -6 
L 6 3425 
z
" id="OpenSans-Regular-79" transform="scale(0.015625)"/>
      <path d="M 2169 3488 
Q 2778 3488 3090 3189 
Q 3403 2891 3403 2231 
L 3403 0 
L 2891 0 
L 2891 2197 
Q 2891 2625 2695 2837 
Q 2500 3050 2097 3050 
Q 1528 3050 1297 2728 
Q 1066 2406 1066 1794 
L 1066 0 
L 547 0 
L 547 3425 
L 966 3425 
L 1044 2931 
L 1072 2931 
Q 1181 3113 1350 3236 
Q 1519 3359 1728 3423 
Q 1938 3488 2169 3488 
z
" id="OpenSans-Regular-6e" transform="scale(0.015625)"/>
      <path d="M 1828 3481 
Q 2441 3481 2737 3206 
Q 3034 2931 3034 2328 
L 3034 0 
L 2656 0 
L 2556 506 
L 2531 506 
Q 2388 319 2231 192 
Q 2075 66 1870 1 
Q 1666 -63 1369 -63 
Q 1056 -63 814 46 
Q 572 156 433 378 
Q 294 600 294 941 
Q 294 1453 700 1728 
Q 1106 2003 1938 2028 
L 2528 2053 
L 2528 2263 
Q 2528 2706 2337 2884 
Q 2147 3063 1800 3063 
Q 1531 3063 1287 2984 
Q 1044 2906 825 2800 
L 666 3194 
Q 897 3313 1197 3397 
Q 1497 3481 1828 3481 
z
M 2522 1688 
L 2000 1666 
Q 1359 1641 1096 1456 
Q 834 1272 834 934 
Q 834 641 1012 500 
Q 1191 359 1484 359 
Q 1941 359 2231 612 
Q 2522 866 2522 1372 
L 2522 1688 
z
" id="OpenSans-Regular-61" transform="scale(0.015625)"/>
      <path d="M 1653 363 
Q 1781 363 1915 384 
Q 2050 406 2134 438 
L 2134 34 
Q 2044 -6 1883 -34 
Q 1722 -63 1569 -63 
Q 1297 -63 1075 32 
Q 853 128 720 356 
Q 588 584 588 988 
L 588 3019 
L 100 3019 
L 100 3272 
L 591 3475 
L 797 4219 
L 1109 4219 
L 1109 3425 
L 2113 3425 
L 2113 3019 
L 1109 3019 
L 1109 1003 
Q 1109 681 1257 522 
Q 1406 363 1653 363 
z
" id="OpenSans-Regular-74" transform="scale(0.015625)"/>
      <path d="M 1766 -63 
Q 1116 -63 736 381 
Q 356 825 356 1700 
Q 356 2584 743 3036 
Q 1131 3488 1775 3488 
Q 2047 3488 2250 3416 
Q 2453 3344 2600 3223 
Q 2747 3103 2847 2950 
L 2884 2950 
Q 2872 3047 2859 3215 
Q 2847 3384 2847 3491 
L 2847 4863 
L 3366 4863 
L 3366 0 
L 2947 0 
L 2869 488 
L 2847 488 
Q 2750 334 2601 209 
Q 2453 84 2248 10 
Q 2044 -63 1766 -63 
z
M 1847 369 
Q 2397 369 2625 681 
Q 2853 994 2853 1609 
L 2853 1703 
Q 2853 2356 2636 2706 
Q 2419 3056 1847 3056 
Q 1369 3056 1131 2689 
Q 894 2322 894 1688 
Q 894 1056 1130 712 
Q 1366 369 1847 369 
z
" id="OpenSans-Regular-64" transform="scale(0.015625)"/>
      <path d="M 1300 0 
L 0 3425 
L 556 3425 
L 1309 1353 
Q 1388 1141 1469 884 
Q 1550 628 1581 472 
L 1603 472 
Q 1641 628 1728 886 
Q 1816 1144 1888 1353 
L 2641 3425 
L 3197 3425 
L 1894 0 
L 1300 0 
z
" id="OpenSans-Regular-76" transform="scale(0.015625)"/>
      <path d="M 2103 3488 
Q 2206 3488 2318 3477 
Q 2431 3466 2519 3447 
L 2453 2966 
Q 2369 2988 2266 3000 
Q 2163 3013 2072 3013 
Q 1866 3013 1683 2930 
Q 1500 2847 1362 2692 
Q 1225 2538 1147 2320 
Q 1069 2103 1069 1838 
L 1069 0 
L 547 0 
L 547 3425 
L 978 3425 
L 1034 2794 
L 1056 2794 
Q 1163 2984 1313 3142 
Q 1463 3300 1661 3394 
Q 1859 3488 2103 3488 
z
" id="OpenSans-Regular-72" transform="scale(0.015625)"/>
      <path d="M 4266 3488 
Q 4831 3488 5118 3192 
Q 5406 2897 5406 2244 
L 5406 0 
L 4894 0 
L 4894 2219 
Q 4894 2634 4714 2842 
Q 4534 3050 4181 3050 
Q 3684 3050 3459 2762 
Q 3234 2475 3234 1916 
L 3234 0 
L 2719 0 
L 2719 2219 
Q 2719 2497 2639 2681 
Q 2559 2866 2401 2958 
Q 2244 3050 2003 3050 
Q 1663 3050 1456 2909 
Q 1250 2769 1158 2492 
Q 1066 2216 1066 1813 
L 1066 0 
L 547 0 
L 547 3425 
L 966 3425 
L 1044 2941 
L 1072 2941 
Q 1175 3119 1331 3241 
Q 1488 3363 1681 3425 
Q 1875 3488 2094 3488 
Q 2484 3488 2748 3342 
Q 3013 3197 3131 2900 
L 3159 2900 
Q 3328 3197 3622 3342 
Q 3916 3488 4266 3488 
z
" id="OpenSans-Regular-6d" transform="scale(0.015625)"/>
      <path d="M 1141 744 
L 1181 672 
Q 1125 444 1039 184 
Q 953 -75 851 -336 
Q 750 -597 647 -825 
L 259 -825 
Q 325 -575 387 -298 
Q 450 -22 501 248 
Q 553 519 584 744 
L 1141 744 
z
" id="OpenSans-Regular-2c" transform="scale(0.015625)"/>
      <path d="M 4081 4569 
L 4081 1613 
Q 4081 1128 3886 750 
Q 3691 372 3297 154 
Q 2903 -63 2309 -63 
Q 1463 -63 1020 396 
Q 578 856 578 1625 
L 578 4569 
L 1113 4569 
L 1113 1609 
Q 1113 1028 1420 712 
Q 1728 397 2341 397 
Q 2759 397 3026 548 
Q 3294 700 3423 973 
Q 3553 1247 3553 1606 
L 3553 4569 
L 4081 4569 
z
" id="OpenSans-Regular-55" transform="scale(0.015625)"/>
      <path d="M 3203 1216 
Q 3203 809 3001 523 
Q 2800 238 2437 87 
Q 2075 -63 1584 -63 
Q 1325 -63 1094 -38 
Q 863 -13 669 34 
Q 475 81 328 150 
L 328 659 
Q 563 563 900 480 
Q 1238 397 1606 397 
Q 1950 397 2187 489 
Q 2425 581 2548 754 
Q 2672 928 2672 1172 
Q 2672 1406 2569 1564 
Q 2466 1722 2227 1851 
Q 1988 1981 1575 2128 
Q 1284 2231 1062 2354 
Q 841 2478 691 2634 
Q 541 2791 464 2997 
Q 388 3203 388 3469 
Q 388 3834 573 4095 
Q 759 4356 1089 4495 
Q 1419 4634 1847 4634 
Q 2213 4634 2523 4565 
Q 2834 4497 3094 4381 
L 2928 3925 
Q 2681 4028 2404 4097 
Q 2128 4166 1834 4166 
Q 1541 4166 1339 4080 
Q 1138 3994 1031 3837 
Q 925 3681 925 3466 
Q 925 3225 1026 3065 
Q 1128 2906 1351 2782 
Q 1575 2659 1944 2525 
Q 2347 2378 2628 2214 
Q 2909 2050 3056 1814 
Q 3203 1578 3203 1216 
z
" id="OpenSans-Regular-53" transform="scale(0.015625)"/>
     </defs>
     <use xlink:href="#OpenSans-Regular-54"/>
     <use x="55.078125" xlink:href="#OpenSans-Regular-79"/>
     <use x="105.175781" xlink:href="#OpenSans-Regular-70"/>
     <use x="166.357422" xlink:href="#OpenSans-Regular-65"/>
     <use x="222.509766" xlink:href="#OpenSans-Regular-20"/>
     <use x="248.486328" xlink:href="#OpenSans-Regular-6f"/>
     <use x="308.642578" xlink:href="#OpenSans-Regular-66"/>
     <use x="342.285156" xlink:href="#OpenSans-Regular-20"/>
     <use x="368.261719" xlink:href="#OpenSans-Regular-70"/>
     <use x="429.443359" xlink:href="#OpenSans-Regular-6f"/>
     <use x="489.599609" xlink:href="#OpenSans-Regular-6c"/>
     <use x="514.84375" xlink:href="#OpenSans-Regular-69"/>
     <use x="540.087891" xlink:href="#OpenSans-Regular-63"/>
     <use x="587.988281" xlink:href="#OpenSans-Regular-69"/>
     <use x="613.232422" xlink:href="#OpenSans-Regular-65"/>
     <use x="669.384766" xlink:href="#OpenSans-Regular-73"/>
     <use x="717.041016" xlink:href="#OpenSans-Regular-20"/>
     <use x="743.017578" xlink:href="#OpenSans-Regular-65"/>
     <use x="799.169922" xlink:href="#OpenSans-Regular-6e"/>
     <use x="860.498047" xlink:href="#OpenSans-Regular-61"/>
     <use x="916.064453" xlink:href="#OpenSans-Regular-63"/>
     <use x="963.964844" xlink:href="#OpenSans-Regular-74"/>
     <use x="999.609375" xlink:href="#OpenSans-Regular-65"/>
     <use x="1055.761719" xlink:href="#OpenSans-Regular-64"/>
     <use x="1116.943359" xlink:href="#OpenSans-Regular-20"/>
     <use x="1142.919922" xlink:href="#OpenSans-Regular-6f"/>
     <use x="1203.076172" xlink:href="#OpenSans-Regular-76"/>
     <use x="1253.027344" xlink:href="#OpenSans-Regular-65"/>
     <use x="1309.179688" xlink:href="#OpenSans-Regular-72"/>
     <use x="1350.048828" xlink:href="#OpenSans-Regular-20"/>
     <use x="1376.025391" xlink:href="#OpenSans-Regular-74"/>
     <use x="1411.669922" xlink:href="#OpenSans-Regular-69"/>
     <use x="1436.914062" xlink:href="#OpenSans-Regular-6d"/>
     <use x="1529.492188" xlink:href="#OpenSans-Regular-65"/>
     <use x="1585.644531" xlink:href="#OpenSans-Regular-2c"/>
     <use x="1611.523438" xlink:href="#OpenSans-Regular-20"/>
     <use x="1637.5" xlink:href="#OpenSans-Regular-63"/>
     <use x="1685.400391" xlink:href="#OpenSans-Regular-6f"/>
     <use x="1745.556641" xlink:href="#OpenSans-Regular-6d"/>
     <use x="1838.134766" xlink:href="#OpenSans-Regular-70"/>
     <use x="1899.316406" xlink:href="#OpenSans-Regular-61"/>
     <use x="1954.882812" xlink:href="#OpenSans-Regular-72"/>
     <use x="1995.751953" xlink:href="#OpenSans-Regular-65"/>
     <use x="2051.904297" xlink:href="#OpenSans-Regular-64"/>
     <use x="2113.085938" xlink:href="#OpenSans-Regular-20"/>
     <use x="2139.0625" xlink:href="#OpenSans-Regular-74"/>
     <use x="2174.707031" xlink:href="#OpenSans-Regular-6f"/>
     <use x="2234.863281" xlink:href="#OpenSans-Regular-20"/>
     <use x="2260.839844" xlink:href="#OpenSans-Regular-63"/>
     <use x="2308.740234" xlink:href="#OpenSans-Regular-61"/>
     <use x="2364.306641" xlink:href="#OpenSans-Regular-73"/>
     <use x="2411.962891" xlink:href="#OpenSans-Regular-65"/>
     <use x="2468.115234" xlink:href="#OpenSans-Regular-6c"/>
     <use x="2493.359375" xlink:href="#OpenSans-Regular-6f"/>
     <use x="2553.515625" xlink:href="#OpenSans-Regular-61"/>
     <use x="2609.082031" xlink:href="#OpenSans-Regular-64"/>
     <use x="2670.263672" xlink:href="#OpenSans-Regular-2c"/>
     <use x="2696.142578" xlink:href="#OpenSans-Regular-20"/>
     <use x="2722.119141" xlink:href="#OpenSans-Regular-55"/>
     <use x="2795.019531" xlink:href="#OpenSans-Regular-6e"/>
     <use x="2856.347656" xlink:href="#OpenSans-Regular-69"/>
     <use x="2881.591797" xlink:href="#OpenSans-Regular-74"/>
     <use x="2917.236328" xlink:href="#OpenSans-Regular-65"/>
     <use x="2973.388672" xlink:href="#OpenSans-Regular-64"/>
     <use x="3034.570312" xlink:href="#OpenSans-Regular-20"/>
     <use x="3060.546875" xlink:href="#OpenSans-Regular-53"/>
     <use x="3115.380859" xlink:href="#OpenSans-Regular-74"/>
     <use x="3151.025391" xlink:href="#OpenSans-Regular-61"/>
     <use x="3206.591797" xlink:href="#OpenSans-Regular-74"/>
     <use x="3242.236328" xlink:href="#OpenSans-Regular-65"/>
     <use x="3298.388672" xlink:href="#OpenSans-Regular-73"/>
    </g>
   </g>
   <g id="legend_1">
    <g id="text_13">
     <!-- Type of policy -->
     <g style="fill:#262626;" transform="translate(1157.4025 51.151912)scale(0.14 -0.14)">
      <use xlink:href="#OpenSans-Regular-54"/>
      <use x="55.078125" xlink:href="#OpenSans-Regular-79"/>
      <use x="105.175781" xlink:href="#OpenSans-Regular-70"/>
      <use x="166.357422" xlink:href="#OpenSans-Regular-65"/>
      <use x="222.509766" xlink:href="#OpenSans-Regular-20"/>
      <use x="248.486328" xlink:href="#OpenSans-Regular-6f"/>
      <use x="308.642578" xlink:href="#OpenSans-Regular-66"/>
      <use x="342.285156" xlink:href="#OpenSans-Regular-20"/>
      <use x="368.261719" xlink:href="#OpenSans-Regular-70"/>
      <use x="429.443359" xlink:href="#OpenSans-Regular-6f"/>
      <use x="489.599609" xlink:href="#OpenSans-Regular-6c"/>
      <use x="514.84375" xlink:href="#OpenSans-Regular-69"/>
      <use x="540.087891" xlink:href="#OpenSans-Regular-63"/>
      <use x="587.988281" xlink:href="#OpenSans-Regular-79"/>
     </g>
    </g>
    <g id="patch_112">
     <path d="M 1161.768125 80.63785 
L 1173.768125 80.63785 
L 1173.768125 68.92285 
L 1161.768125 68.92285 
z
" style="fill:#d6d9de;stroke:#ffffff;stroke-linejoin:miter;stroke-width:0.5;"/>
    </g>
    <g id="text_14">
     <!-- Other -->
     <g style="fill:#565e69;" transform="translate(1183.368125 78.85285)scale(0.12 -0.12)">
      <defs>
       <path d="M 4588 2291 
Q 4588 1763 4453 1330 
Q 4319 897 4055 586 
Q 3791 275 3400 106 
Q 3009 -63 2494 -63 
Q 1963 -63 1567 106 
Q 1172 275 911 587 
Q 650 900 520 1334 
Q 391 1769 391 2297 
Q 391 2997 622 3525 
Q 853 4053 1323 4347 
Q 1794 4641 2503 4641 
Q 3181 4641 3645 4350 
Q 4109 4059 4348 3532 
Q 4588 3006 4588 2291 
z
M 950 2291 
Q 950 1709 1115 1284 
Q 1281 859 1623 628 
Q 1966 397 2494 397 
Q 3025 397 3364 628 
Q 3703 859 3865 1284 
Q 4028 1709 4028 2291 
Q 4028 3175 3658 3673 
Q 3288 4172 2503 4172 
Q 1972 4172 1628 3944 
Q 1284 3716 1117 3295 
Q 950 2875 950 2291 
z
" id="OpenSans-Regular-4f" transform="scale(0.015625)"/>
       <path d="M 1066 4863 
L 1066 3409 
Q 1066 3284 1059 3157 
Q 1053 3031 1038 2925 
L 1072 2925 
Q 1178 3106 1342 3229 
Q 1506 3353 1715 3417 
Q 1925 3481 2159 3481 
Q 2572 3481 2848 3350 
Q 3125 3219 3264 2944 
Q 3403 2669 3403 2231 
L 3403 0 
L 2891 0 
L 2891 2197 
Q 2891 2625 2695 2837 
Q 2500 3050 2097 3050 
Q 1716 3050 1489 2904 
Q 1263 2759 1164 2478 
Q 1066 2197 1066 1791 
L 1066 0 
L 547 0 
L 547 4863 
L 1066 4863 
z
" id="OpenSans-Regular-68" transform="scale(0.015625)"/>
      </defs>
      <use xlink:href="#OpenSans-Regular-4f"/>
      <use x="77.783203" xlink:href="#OpenSans-Regular-74"/>
      <use x="113.427734" xlink:href="#OpenSans-Regular-68"/>
      <use x="174.755859" xlink:href="#OpenSans-Regular-65"/>
      <use x="230.908203" xlink:href="#OpenSans-Regular-72"/>
     </g>
    </g>
    <g id="patch_113">
     <path d="M 1161.768125 107.838475 
L 1173.768125 107.838475 
L 1173.768125 96.123475 
L 1161.768125 96.123475 
z
" style="fill:#87bbd8;stroke:#ffffff;stroke-linejoin:miter;stroke-width:0.5;"/>
    </g>
    <g id="text_15">
     <!-- Relaxing -->
     <g style="fill:#565e69;" transform="translate(1183.368125 106.053475)scale(0.12 -0.12)">
      <defs>
       <path d="M 1859 4569 
Q 2422 4569 2789 4430 
Q 3156 4291 3337 4006 
Q 3519 3722 3519 3281 
Q 3519 2919 3387 2676 
Q 3256 2434 3043 2284 
Q 2831 2134 2591 2053 
L 3844 0 
L 3225 0 
L 2106 1906 
L 1156 1906 
L 1156 0 
L 625 0 
L 625 4569 
L 1859 4569 
z
M 1828 4109 
L 1156 4109 
L 1156 2356 
L 1881 2356 
Q 2441 2356 2705 2584 
Q 2969 2813 2969 3256 
Q 2969 3722 2689 3915 
Q 2409 4109 1828 4109 
z
" id="OpenSans-Regular-52" transform="scale(0.015625)"/>
       <path d="M 1363 1753 
L 178 3425 
L 772 3425 
L 1675 2106 
L 2575 3425 
L 3163 3425 
L 1978 1753 
L 3228 0 
L 2634 0 
L 1675 1397 
L 709 0 
L 122 0 
L 1363 1753 
z
" id="OpenSans-Regular-78" transform="scale(0.015625)"/>
       <path d="M 1503 -1538 
Q 828 -1538 462 -1286 
Q 97 -1034 97 -581 
Q 97 -259 301 -31 
Q 506 197 869 272 
Q 734 334 639 459 
Q 544 584 544 747 
Q 544 934 648 1076 
Q 753 1219 969 1350 
Q 700 1459 533 1720 
Q 366 1981 366 2328 
Q 366 2697 519 2958 
Q 672 3219 962 3356 
Q 1253 3494 1666 3494 
Q 1756 3494 1848 3486 
Q 1941 3478 2025 3464 
Q 2109 3450 2172 3431 
L 3347 3431 
L 3347 3097 
L 2716 3019 
Q 2809 2897 2871 2725 
Q 2934 2553 2934 2344 
Q 2934 1831 2587 1529 
Q 2241 1228 1634 1228 
Q 1491 1228 1341 1253 
Q 1188 1169 1108 1066 
Q 1028 963 1028 828 
Q 1028 728 1089 668 
Q 1150 609 1265 582 
Q 1381 556 1544 556 
L 2147 556 
Q 2706 556 3004 322 
Q 3303 88 3303 -363 
Q 3303 -931 2840 -1234 
Q 2378 -1538 1503 -1538 
z
M 1519 -1131 
Q 1944 -1131 2223 -1045 
Q 2503 -959 2642 -798 
Q 2781 -638 2781 -416 
Q 2781 -209 2687 -104 
Q 2594 0 2412 36 
Q 2231 72 1969 72 
L 1375 72 
Q 1144 72 972 0 
Q 800 -72 708 -212 
Q 616 -353 616 -563 
Q 616 -841 850 -986 
Q 1084 -1131 1519 -1131 
z
M 1653 1606 
Q 2025 1606 2212 1793 
Q 2400 1981 2400 2341 
Q 2400 2725 2209 2917 
Q 2019 3109 1647 3109 
Q 1291 3109 1098 2911 
Q 906 2713 906 2331 
Q 906 1981 1100 1793 
Q 1294 1606 1653 1606 
z
" id="OpenSans-Regular-67" transform="scale(0.015625)"/>
      </defs>
      <use xlink:href="#OpenSans-Regular-52"/>
      <use x="61.71875" xlink:href="#OpenSans-Regular-65"/>
      <use x="117.871094" xlink:href="#OpenSans-Regular-6c"/>
      <use x="143.115234" xlink:href="#OpenSans-Regular-61"/>
      <use x="198.681641" xlink:href="#OpenSans-Regular-78"/>
      <use x="251.025391" xlink:href="#OpenSans-Regular-69"/>
      <use x="276.269531" xlink:href="#OpenSans-Regular-6e"/>
      <use x="337.597656" xlink:href="#OpenSans-Regular-67"/>
     </g>
    </g>
    <g id="patch_114">
     <path d="M 1161.768125 135.052225 
L 1173.768125 135.052225 
L 1173.768125 123.337225 
L 1161.768125 123.337225 
z
" style="fill:#eea45f;stroke:#ffffff;stroke-linejoin:miter;stroke-width:0.5;"/>
    </g>
    <g id="text_16">
     <!-- Restricting -->
     <g style="fill:#565e69;" transform="translate(1183.368125 133.267225)scale(0.12 -0.12)">
      <use xlink:href="#OpenSans-Regular-52"/>
      <use x="61.71875" xlink:href="#OpenSans-Regular-65"/>
      <use x="117.871094" xlink:href="#OpenSans-Regular-73"/>
      <use x="165.527344" xlink:href="#OpenSans-Regular-74"/>
      <use x="201.171875" xlink:href="#OpenSans-Regular-72"/>
      <use x="242.041016" xlink:href="#OpenSans-Regular-69"/>
      <use x="267.285156" xlink:href="#OpenSans-Regular-63"/>
      <use x="315.185547" xlink:href="#OpenSans-Regular-74"/>
      <use x="350.830078" xlink:href="#OpenSans-Regular-69"/>
      <use x="376.074219" xlink:href="#OpenSans-Regular-6e"/>
      <use x="437.402344" xlink:href="#OpenSans-Regular-67"/>
     </g>
    </g>
    <g id="line2d_54">
     <path d="M 1161.768125 155.515975 
L 1173.768125 155.515975 
" style="fill:none;stroke:#2c2b2b;stroke-linecap:round;stroke-width:3;"/>
    </g>
    <g id="line2d_55"/>
    <g id="text_17">
     <!-- Cases -->
     <g style="fill:#565e69;" transform="translate(1183.368125 160.480975)scale(0.12 -0.12)">
      <defs>
       <path d="M 2578 4166 
Q 2200 4166 1898 4036 
Q 1597 3906 1386 3661 
Q 1175 3416 1062 3069 
Q 950 2722 950 2288 
Q 950 1713 1129 1289 
Q 1309 866 1667 634 
Q 2025 403 2563 403 
Q 2869 403 3139 454 
Q 3409 506 3666 584 
L 3666 122 
Q 3416 28 3141 -17 
Q 2866 -63 2488 -63 
Q 1791 -63 1323 226 
Q 856 516 623 1044 
Q 391 1572 391 2291 
Q 391 2809 536 3239 
Q 681 3669 961 3981 
Q 1241 4294 1648 4464 
Q 2056 4634 2584 4634 
Q 2931 4634 3253 4565 
Q 3575 4497 3834 4369 
L 3622 3919 
Q 3403 4019 3142 4092 
Q 2881 4166 2578 4166 
z
" id="OpenSans-Regular-43" transform="scale(0.015625)"/>
      </defs>
      <use xlink:href="#OpenSans-Regular-43"/>
      <use x="62.988281" xlink:href="#OpenSans-Regular-61"/>
      <use x="118.554688" xlink:href="#OpenSans-Regular-73"/>
      <use x="166.210938" xlink:href="#OpenSans-Regular-65"/>
      <use x="222.363281" xlink:href="#OpenSans-Regular-73"/>
     </g>
    </g>
   </g>
  </g>
  <g id="axes_2">
   <g id="matplotlib.axis_3">
    <g id="ytick_7">
     <g id="line2d_56">
      <defs>
       <path d="M 0 0 
L -10 0 
" id="m589e63014b" style="stroke:#caced3;stroke-width:0.5;"/>
      </defs>
      <g>
       <use style="fill:#caced3;stroke:#caced3;stroke-width:0.5;" x="969" xlink:href="#m589e63014b" y="379.123125"/>
      </g>
     </g>
     <g id="text_18">
      <!-- 0 -->
      <g style="fill:#565e69;" transform="translate(959 376.2525)scale(0.12 -0.12)">
       <use xlink:href="#OpenSans-Regular-30"/>
      </g>
     </g>
    </g>
    <g id="ytick_8">
     <g id="line2d_57">
      <g>
       <use style="fill:#caced3;stroke:#caced3;stroke-width:0.5;" x="969" xlink:href="#m589e63014b" y="313.799125"/>
      </g>
     </g>
     <g id="text_19">
      <!-- 2 -->
      <g style="fill:#565e69;" transform="translate(959 310.9285)scale(0.12 -0.12)">
       <use xlink:href="#OpenSans-Regular-32"/>
      </g>
     </g>
    </g>
    <g id="ytick_9">
     <g id="line2d_58">
      <g>
       <use style="fill:#caced3;stroke:#caced3;stroke-width:0.5;" x="969" xlink:href="#m589e63014b" y="248.475125"/>
      </g>
     </g>
     <g id="text_20">
      <!-- 4 -->
      <g style="fill:#565e69;" transform="translate(959 245.6045)scale(0.12 -0.12)">
       <use xlink:href="#OpenSans-Regular-34"/>
      </g>
     </g>
    </g>
    <g id="ytick_10">
     <g id="line2d_59">
      <g>
       <use style="fill:#caced3;stroke:#caced3;stroke-width:0.5;" x="969" xlink:href="#m589e63014b" y="183.151125"/>
      </g>
     </g>
     <g id="text_21">
      <!-- 6 -->
      <g style="fill:#565e69;" transform="translate(959 180.2805)scale(0.12 -0.12)">
       <use xlink:href="#OpenSans-Regular-36"/>
      </g>
     </g>
    </g>
    <g id="ytick_11">
     <g id="line2d_60">
      <g>
       <use style="fill:#caced3;stroke:#caced3;stroke-width:0.5;" x="969" xlink:href="#m589e63014b" y="117.827125"/>
      </g>
     </g>
     <g id="text_22">
      <!-- 8 -->
      <g style="fill:#565e69;" transform="translate(959 114.9565)scale(0.12 -0.12)">
       <use xlink:href="#OpenSans-Regular-38"/>
      </g>
     </g>
    </g>
    <g id="ytick_12">
     <g id="line2d_61">
      <g>
       <use style="fill:#caced3;stroke:#caced3;stroke-width:0.5;" x="969" xlink:href="#m589e63014b" y="52.503125"/>
      </g>
     </g>
     <g id="text_23">
      <!-- 10 -->
      <g style="fill:#565e69;" transform="translate(959 49.6325)scale(0.12 -0.12)">
       <use xlink:href="#OpenSans-Regular-31"/>
       <use x="57.177734" xlink:href="#OpenSans-Regular-30"/>
      </g>
     </g>
    </g>
    <g id="text_24">
     <!-- average new 7-day cases, -->
     <g style="fill:#565e69;" transform="translate(976.660875 48.55645)scale(0.12 -0.12)">
      <defs>
       <path d="M 3334 6 
L 2725 2000 
Q 2684 2128 2648 2251 
Q 2613 2375 2583 2489 
Q 2553 2603 2529 2701 
Q 2506 2800 2491 2872 
L 2469 2872 
Q 2456 2800 2434 2701 
Q 2413 2603 2383 2487 
Q 2353 2372 2318 2245 
Q 2284 2119 2241 1991 
L 1603 6 
L 1019 6 
L 75 3431 
L 613 3431 
L 1106 1541 
Q 1156 1353 1201 1170 
Q 1247 988 1280 827 
Q 1313 666 1328 547 
L 1353 547 
Q 1372 625 1395 734 
Q 1419 844 1448 967 
Q 1478 1091 1512 1214 
Q 1547 1338 1581 1447 
L 2213 3431 
L 2772 3431 
L 3381 1450 
Q 3428 1300 3473 1137 
Q 3519 975 3556 823 
Q 3594 672 3609 553 
L 3634 553 
Q 3647 659 3681 815 
Q 3716 972 3761 1159 
Q 3806 1347 3856 1541 
L 4356 3431 
L 4884 3431 
L 3938 6 
L 3334 6 
z
" id="OpenSans-Regular-77" transform="scale(0.015625)"/>
       <path d="M 906 0 
L 2781 4094 
L 291 4094 
L 291 4569 
L 3338 4569 
L 3338 4169 
L 1475 0 
L 906 0 
z
" id="OpenSans-Regular-37" transform="scale(0.015625)"/>
       <path d="M 256 1488 
L 256 1950 
L 1806 1950 
L 1806 1488 
L 256 1488 
z
" id="OpenSans-Regular-2d" transform="scale(0.015625)"/>
      </defs>
      <use xlink:href="#OpenSans-Regular-61"/>
      <use x="55.566406" xlink:href="#OpenSans-Regular-76"/>
      <use x="105.517578" xlink:href="#OpenSans-Regular-65"/>
      <use x="161.669922" xlink:href="#OpenSans-Regular-72"/>
      <use x="202.539062" xlink:href="#OpenSans-Regular-61"/>
      <use x="258.105469" xlink:href="#OpenSans-Regular-67"/>
      <use x="312.402344" xlink:href="#OpenSans-Regular-65"/>
      <use x="368.554688" xlink:href="#OpenSans-Regular-20"/>
      <use x="394.53125" xlink:href="#OpenSans-Regular-6e"/>
      <use x="455.859375" xlink:href="#OpenSans-Regular-65"/>
      <use x="512.011719" xlink:href="#OpenSans-Regular-77"/>
      <use x="589.501953" xlink:href="#OpenSans-Regular-20"/>
      <use x="615.478516" xlink:href="#OpenSans-Regular-37"/>
      <use x="672.65625" xlink:href="#OpenSans-Regular-2d"/>
      <use x="704.833984" xlink:href="#OpenSans-Regular-64"/>
      <use x="766.015625" xlink:href="#OpenSans-Regular-61"/>
      <use x="821.582031" xlink:href="#OpenSans-Regular-79"/>
      <use x="871.679688" xlink:href="#OpenSans-Regular-20"/>
      <use x="897.65625" xlink:href="#OpenSans-Regular-63"/>
      <use x="945.556641" xlink:href="#OpenSans-Regular-61"/>
      <use x="1001.123047" xlink:href="#OpenSans-Regular-73"/>
      <use x="1048.779297" xlink:href="#OpenSans-Regular-65"/>
      <use x="1104.931641" xlink:href="#OpenSans-Regular-73"/>
      <use x="1152.587891" xlink:href="#OpenSans-Regular-2c"/>
     </g>
     <!-- per 100k -->
     <g style="fill:#565e69;" transform="translate(1069.087125 62.387575)scale(0.12 -0.12)">
      <defs>
       <path d="M 1063 4863 
L 1063 2338 
Q 1063 2213 1053 2033 
Q 1044 1853 1038 1716 
L 1059 1716 
Q 1125 1797 1251 1956 
Q 1378 2116 1466 2213 
L 2603 3425 
L 3213 3425 
L 1834 1963 
L 3313 0 
L 2688 0 
L 1478 1622 
L 1063 1241 
L 1063 0 
L 547 0 
L 547 4863 
L 1063 4863 
z
" id="OpenSans-Regular-6b" transform="scale(0.015625)"/>
      </defs>
      <use xlink:href="#OpenSans-Regular-70"/>
      <use x="61.181641" xlink:href="#OpenSans-Regular-65"/>
      <use x="117.333984" xlink:href="#OpenSans-Regular-72"/>
      <use x="158.203125" xlink:href="#OpenSans-Regular-20"/>
      <use x="184.179688" xlink:href="#OpenSans-Regular-31"/>
      <use x="241.357422" xlink:href="#OpenSans-Regular-30"/>
      <use x="298.535156" xlink:href="#OpenSans-Regular-30"/>
      <use x="355.712891" xlink:href="#OpenSans-Regular-6b"/>
     </g>
    </g>
   </g>
   <g id="line2d_62">
    <path clip-path="url(#p41f38623ac)" d="M 101.091879 379.123125 
L 136.597211 379.031018 
L 139.75324 378.859543 
L 141.331255 378.560359 
L 143.698277 377.643536 
L 146.854307 375.717132 
L 147.643314 375.148486 
L 148.432322 374.393667 
L 149.221329 374.055942 
L 150.010336 373.542496 
L 150.799344 372.807274 
L 151.588351 371.718323 
L 153.166366 370.400411 
L 153.955373 369.952289 
L 154.744381 369.344449 
L 155.533388 368.885548 
L 156.322395 368.709826 
L 157.111403 368.906778 
L 158.689418 368.662466 
L 161.845447 369.229152 
L 163.423462 369.745538 
L 165.790484 369.915381 
L 166.579491 369.774607 
L 167.368499 369.876513 
L 168.946514 369.578309 
L 169.735521 369.657677 
L 170.524528 369.503186 
L 171.313536 369.480976 
L 172.102543 369.740965 
L 174.469565 370.088489 
L 175.258573 369.933345 
L 176.836587 370.227303 
L 179.992617 370.455937 
L 180.781624 370.811299 
L 181.570632 370.92333 
L 183.148646 371.375699 
L 183.937654 371.408361 
L 185.515669 371.721263 
L 186.304676 371.852237 
L 187.882691 371.872814 
L 188.671698 371.725182 
L 189.460705 371.847664 
L 190.249713 371.715057 
L 191.827728 371.773195 
L 192.616735 371.957082 
L 193.405742 371.887839 
L 196.561772 372.507437 
L 200.506809 372.406838 
L 201.295816 372.395406 
L 202.084824 372.088383 
L 202.873831 372.0211 
L 204.451846 372.185063 
L 206.029861 372.211193 
L 206.818868 372.085117 
L 207.607875 372.337594 
L 208.396883 372.366664 
L 209.18589 372.180817 
L 209.974897 372.127578 
L 212.34192 371.48283 
L 215.497949 370.26911 
L 216.286957 369.853976 
L 217.075964 369.191264 
L 218.653979 368.243413 
L 219.442986 367.3991 
L 220.231993 366.9807 
L 221.021001 366.184727 
L 223.388023 364.514066 
L 224.17703 363.78015 
L 224.966038 363.660281 
L 225.755045 363.417929 
L 226.544053 362.903176 
L 227.33306 362.804537 
L 228.122067 362.461259 
L 228.911075 361.939973 
L 229.700082 361.718525 
L 231.278097 360.25886 
L 232.067104 359.966209 
L 232.856112 359.220209 
L 235.223134 358.049929 
L 236.012141 358.147915 
L 236.801148 357.966641 
L 237.590156 358.0238 
L 239.957178 357.794186 
L 240.746185 357.934632 
L 241.535193 357.536809 
L 242.3242 357.563265 
L 243.113208 357.720043 
L 243.902215 357.760217 
L 245.48023 358.093043 
L 246.269237 358.025759 
L 247.058244 358.519282 
L 248.636259 359.222495 
L 249.425267 360.067134 
L 250.214274 360.204315 
L 251.792289 361.095007 
L 252.581296 361.278568 
L 254.159311 360.642965 
L 254.948318 360.188637 
L 255.737326 360.410085 
L 256.526333 360.359459 
L 257.31534 360.760222 
L 258.104348 360.310793 
L 258.893355 360.84449 
L 259.682363 361.758373 
L 261.260377 362.950209 
L 262.049385 363.384614 
L 262.838392 363.678898 
L 263.6274 364.71363 
L 264.416407 365.042537 
L 267.572436 365.636005 
L 268.361444 365.388754 
L 269.939459 365.565129 
L 270.728466 365.459304 
L 273.095488 365.610202 
L 273.884495 365.853861 
L 275.46251 365.736931 
L 276.251518 365.974384 
L 277.040525 366.386251 
L 277.829532 367.079992 
L 279.407547 367.63296 
L 280.196555 367.811948 
L 280.985562 367.701224 
L 281.774569 367.176998 
L 284.141591 366.102419 
L 285.719606 365.578847 
L 288.875636 365.505684 
L 290.453651 365.20552 
L 292.031665 365.409004 
L 292.820673 365.777758 
L 294.398687 365.390714 
L 295.976702 365.621634 
L 297.554717 365.089243 
L 299.132732 365.040577 
L 299.921739 364.913195 
L 301.499754 363.868011 
L 302.288761 363.784723 
L 303.077769 363.510689 
L 303.866776 362.880312 
L 305.444791 362.386463 
L 306.233798 361.933768 
L 307.022806 361.670185 
L 307.811813 360.971218 
L 308.60082 360.990162 
L 309.389828 360.737359 
L 310.178835 359.534417 
L 310.967842 358.97557 
L 311.75685 358.870399 
L 312.545857 358.107414 
L 313.334865 357.555753 
L 314.123872 356.471048 
L 314.912879 356.093802 
L 315.701887 356.29304 
L 316.490894 355.527443 
L 317.279902 354.269303 
L 318.068909 353.687919 
L 318.857916 352.830868 
L 319.646924 352.426186 
L 321.224938 350.689221 
L 322.013946 348.452854 
L 322.802953 347.814638 
L 323.591961 346.071794 
L 324.380968 344.735918 
L 326.74799 339.264053 
L 327.536998 338.686589 
L 328.326005 336.470472 
L 329.115012 335.093769 
L 329.90402 332.778033 
L 330.693027 331.114231 
L 331.482034 330.220925 
L 332.271042 328.530993 
L 334.638064 324.595222 
L 335.427071 323.553631 
L 336.216079 322.866423 
L 337.005086 322.552868 
L 337.794094 321.220911 
L 339.372108 320.499734 
L 340.161116 324.188581 
L 340.950123 323.529788 
L 341.73913 324.001754 
L 342.528138 324.261417 
L 343.317145 325.463052 
L 344.106153 324.349604 
L 344.89516 323.614056 
L 345.684167 318.644206 
L 346.473175 317.714319 
L 347.262182 315.267609 
L 348.840197 311.713656 
L 349.629204 310.375821 
L 351.207219 308.739455 
L 352.785234 308.524865 
L 354.363249 307.282076 
L 355.152256 307.295141 
L 355.941263 306.43613 
L 356.730271 306.27772 
L 357.519278 305.832537 
L 358.308285 306.659865 
L 359.097293 306.868575 
L 359.8863 307.472169 
L 360.675308 308.472279 
L 361.464315 309.09547 
L 362.253322 310.382353 
L 363.04233 316.024387 
L 363.831337 315.420467 
L 364.620345 317.752533 
L 365.409352 318.816008 
L 366.198359 318.767015 
L 366.987367 318.862062 
L 367.776374 314.08753 
L 369.354389 309.111148 
L 370.143396 305.983435 
L 370.932404 305.418709 
L 371.721411 304.238304 
L 372.510418 302.326924 
L 373.299426 303.673578 
L 374.088433 297.825121 
L 374.877441 298.250707 
L 375.666448 297.936498 
L 376.455455 297.107537 
L 377.244463 297.561212 
L 378.03347 299.009771 
L 378.822477 301.349024 
L 379.611485 304.079894 
L 380.400492 306.25061 
L 381.1895 307.826878 
L 382.767514 313.828194 
L 384.345529 317.743061 
L 385.134537 320.215248 
L 386.712551 323.762015 
L 387.501559 324.289833 
L 388.290566 324.556681 
L 389.079573 326.073178 
L 390.657588 328.563329 
L 392.235603 331.090388 
L 393.02461 331.2844 
L 396.969647 339.392742 
L 397.758655 340.484632 
L 398.547662 342.474728 
L 399.336669 343.48431 
L 400.125677 344.822472 
L 400.914684 345.685729 
L 402.492699 348.334944 
L 403.281706 349.313824 
L 404.070714 350.576537 
L 404.859721 352.252424 
L 405.648728 353.497826 
L 406.437736 355.079647 
L 407.226743 356.231309 
L 408.015751 357.013891 
L 408.804758 357.617484 
L 409.593765 357.619771 
L 410.382773 356.966857 
L 411.960788 356.463536 
L 412.749795 356.46125 
L 414.32781 356.757494 
L 415.116817 357.034468 
L 415.905824 357.741273 
L 418.272847 358.873991 
L 419.850861 359.815637 
L 420.639869 360.066154 
L 421.428876 360.199089 
L 423.006891 360.947049 
L 425.373913 361.525493 
L 426.16292 361.208671 
L 426.951928 361.24362 
L 428.529943 361.122117 
L 429.31895 361.185808 
L 430.107957 361.092068 
L 432.474979 361.493484 
L 433.263987 360.189617 
L 434.052994 359.947591 
L 434.842002 359.236866 
L 435.631009 358.978836 
L 436.420016 358.467676 
L 437.209024 357.618138 
L 437.998031 357.174914 
L 438.787039 358.034578 
L 439.576046 357.593314 
L 440.365053 357.699793 
L 441.154061 357.666477 
L 441.943068 358.063321 
L 443.521083 357.934632 
L 444.31009 357.639041 
L 445.099098 357.498921 
L 445.888105 357.007032 
L 446.677112 356.733651 
L 447.46612 356.29206 
L 448.255127 356.526574 
L 449.044135 355.718516 
L 449.833142 355.75477 
L 450.622149 356.01672 
L 451.411157 356.094455 
L 452.200164 356.793422 
L 453.778179 357.114163 
L 454.567186 357.967294 
L 456.145201 358.820426 
L 456.934208 359.758152 
L 457.723216 359.808451 
L 458.512223 360.247755 
L 459.301231 361.019885 
L 460.879245 361.91711 
L 461.668253 362.31526 
L 464.035275 363.009327 
L 464.824282 362.910688 
L 466.402297 363.814446 
L 468.769319 365.424356 
L 469.558326 365.790823 
L 470.347334 366.379066 
L 471.925349 367.185164 
L 473.503363 367.86878 
L 475.081378 368.316249 
L 478.237408 369.637754 
L 479.026415 370.240367 
L 479.815422 370.68653 
L 483.760459 371.646793 
L 486.127482 372.639391 
L 486.916489 373.377226 
L 487.705496 373.503628 
L 490.072518 374.471403 
L 490.861526 374.369498 
L 491.650533 374.430575 
L 492.439541 374.065088 
L 493.228548 374.452132 
L 494.017555 374.37701 
L 494.806563 374.538033 
L 495.59557 374.21174 
L 496.384578 374.507331 
L 497.962592 374.65431 
L 498.7516 374.754909 
L 499.540607 375.055726 
L 501.118622 375.359809 
L 505.852666 375.251045 
L 506.641674 375.086755 
L 508.219688 375.091981 
L 509.008696 374.950228 
L 509.797703 375.101453 
L 512.164725 374.69971 
L 512.953733 374.875105 
L 513.74274 374.893396 
L 514.531747 375.107985 
L 515.320755 374.406406 
L 516.898769 373.901451 
L 517.687777 373.09078 
L 518.476784 372.868679 
L 519.265792 372.518869 
L 520.054799 371.562525 
L 520.843806 371.378965 
L 522.421821 370.351092 
L 523.210829 368.901879 
L 523.999836 368.714072 
L 524.788843 368.312003 
L 525.577851 367.399753 
L 526.366858 366.773623 
L 527.155865 365.992674 
L 527.944873 364.849831 
L 528.73388 362.855163 
L 529.522888 362.139865 
L 530.311895 361.754127 
L 531.88991 359.208777 
L 532.678917 358.008775 
L 533.467925 357.265715 
L 534.256932 353.981877 
L 535.834947 352.483998 
L 538.201969 348.251982 
L 538.990976 346.514037 
L 539.779984 343.677016 
L 540.568991 342.781424 
L 541.357998 343.23314 
L 542.147006 340.857306 
L 542.936013 339.913047 
L 543.725021 337.482341 
L 544.514028 335.884843 
L 545.303035 337.062634 
L 546.88105 336.014184 
L 548.459065 332.848583 
L 550.826087 331.141667 
L 551.615094 330.238563 
L 552.404102 330.354513 
L 553.193109 329.755165 
L 553.982116 329.568665 
L 554.771124 329.013738 
L 555.560131 327.687987 
L 556.349139 327.71869 
L 557.138146 328.34874 
L 557.927153 327.984232 
L 559.505168 325.809269 
L 560.294176 325.285044 
L 561.87219 325.651185 
L 562.661198 325.311174 
L 563.450205 324.773884 
L 564.239212 331.207644 
L 565.02822 329.807424 
L 566.606235 330.985216 
L 567.395242 330.678193 
L 568.184249 330.528601 
L 568.973257 331.234427 
L 569.762264 325.744925 
L 570.551272 328.753422 
L 571.340279 328.959192 
L 572.129286 329.335132 
L 572.918294 330.784345 
L 573.707301 331.44967 
L 574.496308 331.617226 
L 575.285316 333.40449 
L 576.074323 334.511732 
L 576.863331 336.451855 
L 577.652338 337.831825 
L 578.441345 339.514571 
L 579.230353 340.186428 
L 580.01936 339.737326 
L 580.808368 340.459482 
L 582.386382 341.31882 
L 583.964397 343.123069 
L 586.331419 344.750289 
L 587.120427 345.574025 
L 588.698441 346.421931 
L 589.487449 347.554322 
L 590.276456 347.993626 
L 591.065463 348.237285 
L 591.854471 350.463526 
L 592.643478 349.743003 
L 593.432486 349.949753 
L 594.221493 350.646107 
L 595.0105 351.663855 
L 595.799508 351.616822 
L 596.588515 351.981983 
L 597.377523 351.805608 
L 598.16653 353.129399 
L 598.955537 353.879645 
L 599.744545 354.292819 
L 600.533552 354.892494 
L 601.322559 355.221727 
L 602.111567 355.792005 
L 602.900574 355.192657 
L 603.689582 355.890971 
L 604.478589 355.413453 
L 606.056604 355.597993 
L 606.845611 355.504253 
L 607.634619 354.895107 
L 609.212633 354.764459 
L 610.001641 355.49968 
L 610.790648 355.188085 
L 613.15767 354.801367 
L 613.946678 354.918623 
L 615.524692 354.063532 
L 616.3137 355.162608 
L 617.102707 352.968375 
L 617.891715 352.552915 
L 618.680722 352.790367 
L 619.469729 351.683452 
L 620.258737 351.310779 
L 621.047744 350.505007 
L 621.836751 348.129827 
L 622.625759 348.962708 
L 623.414766 348.913061 
L 625.781788 347.923403 
L 626.570796 347.962271 
L 628.148811 354.63969 
L 628.937818 355.516338 
L 629.726825 355.348455 
L 630.515833 353.283564 
L 632.093847 350.889112 
L 633.671862 341.36324 
L 634.46087 339.527309 
L 635.249877 338.993612 
L 636.038884 339.47113 
L 636.827892 339.710869 
L 637.616899 339.133405 
L 638.405906 339.785665 
L 639.194914 339.812775 
L 639.983921 340.282454 
L 640.772929 340.430087 
L 641.561936 340.041082 
L 642.350943 340.000255 
L 643.139951 340.17565 
L 643.928958 339.323825 
L 644.717966 337.686479 
L 645.506973 336.569438 
L 646.29598 334.818755 
L 647.084988 332.116628 
L 647.873995 328.900727 
L 648.663002 324.130116 
L 649.45201 317.961897 
L 650.241017 315.360042 
L 651.030025 315.050733 
L 651.819032 310.729877 
L 652.608039 298.36927 
L 653.397047 289.495004 
L 654.186054 277.215725 
L 654.975062 262.118369 
L 655.764069 249.810674 
L 657.342084 239.702438 
L 658.131091 214.659177 
L 658.920098 193.365839 
L 659.709106 185.678184 
L 660.498113 174.169402 
L 661.287121 157.047328 
L 662.865135 137.748005 
L 663.654143 123.20329 
L 664.44315 125.190446 
L 665.232158 116.880907 
L 666.021165 115.915418 
L 666.810172 115.907906 
L 667.59918 115.552217 
L 668.388187 115.893535 
L 669.177194 148.287706 
L 669.966202 132.113157 
L 670.755209 129.501504 
L 671.544217 135.773261 
L 672.333224 139.198525 
L 673.911239 149.534415 
L 674.700246 137.939078 
L 675.489253 167.830034 
L 677.067268 189.309545 
L 677.856276 198.319358 
L 678.645283 204.258289 
L 679.43429 212.186337 
L 680.223298 229.611187 
L 681.012305 237.348488 
L 681.801313 253.679488 
L 683.379327 276.429551 
L 684.168335 280.827489 
L 684.957342 286.239583 
L 685.746349 295.232084 
L 686.535357 300.486747 
L 687.324364 307.016534 
L 688.113372 311.834832 
L 688.902379 318.673602 
L 689.691386 320.335771 
L 690.480394 321.540999 
L 691.269401 329.72479 
L 692.058409 334.550927 
L 693.636423 341.197317 
L 694.425431 344.196669 
L 695.214438 345.159544 
L 696.003445 346.82302 
L 696.792453 350.908383 
L 697.58146 351.897715 
L 698.370468 353.286177 
L 699.159475 354.907192 
L 699.948482 358.184823 
L 700.73749 357.453194 
L 701.526497 357.686728 
L 702.315505 356.888142 
L 703.104512 358.88183 
L 703.893519 360.329084 
L 705.471534 361.877589 
L 706.260541 363.397678 
L 707.049549 363.673346 
L 707.838556 365.692837 
L 709.416571 367.244282 
L 710.205578 367.37591 
L 710.994586 367.830238 
L 711.783593 368.052013 
L 712.5726 368.113418 
L 713.361608 369.009663 
L 714.150615 369.281085 
L 714.939623 368.612167 
L 715.72863 368.315596 
L 716.517637 369.114508 
L 718.095652 369.069761 
L 718.88466 368.753593 
L 719.673667 368.860398 
L 721.251682 369.854629 
L 722.040689 369.258221 
L 724.407711 369.463012 
L 725.196719 369.377437 
L 725.985726 369.460726 
L 726.774733 369.344122 
L 727.563741 369.962414 
L 728.352748 369.851036 
L 729.141756 370.178636 
L 730.71977 370.070525 
L 731.508778 369.98593 
L 732.297785 369.747171 
L 733.086792 367.786471 
L 733.8758 367.741071 
L 734.664807 367.517337 
L 735.453815 367.517663 
L 737.031829 366.566546 
L 737.820837 366.371227 
L 738.609844 368.177436 
L 740.187859 368.276401 
L 740.976866 367.275964 
L 741.765874 367.123106 
L 742.554881 366.296758 
L 743.343888 365.987775 
L 744.132896 363.463002 
L 746.499918 362.42729 
L 747.288925 362.129086 
L 748.077933 361.100887 
L 748.86694 360.33137 
L 749.655947 361.606168 
L 751.233962 361.243293 
L 752.02297 360.02696 
L 752.811977 359.804205 
L 753.600984 358.752489 
L 754.389992 358.228264 
L 755.178999 355.064622 
L 755.968007 354.880082 
L 756.757014 355.38177 
L 757.546021 353.734299 
L 758.335029 352.761298 
L 759.124036 350.490309 
L 759.913043 349.69107 
L 760.702051 351.640992 
L 761.491058 352.133861 
L 762.280066 350.896625 
L 763.069073 348.669076 
L 763.85808 347.978275 
L 764.647088 345.980667 
L 765.436095 344.570975 
L 766.225103 341.700638 
L 767.01411 341.249576 
L 767.803117 341.822468 
L 768.592125 343.474185 
L 769.381132 343.542449 
L 770.170139 343.220075 
L 770.959147 343.221055 
L 771.748154 345.131782 
L 773.326169 346.419644 
L 774.115176 350.106857 
L 774.904184 346.219426 
L 775.693191 345.380339 
L 776.482199 345.996671 
L 777.271206 343.703146 
L 778.060213 343.055785 
L 778.849221 342.623993 
L 779.638228 338.083649 
L 780.427235 341.841412 
L 781.216243 343.246858 
L 782.00525 342.798082 
L 782.794258 345.16967 
L 783.583265 344.831291 
L 784.372272 344.761721 
L 785.16128 345.146806 
L 785.950287 344.981536 
L 786.739295 345.621385 
L 787.528302 345.710226 
L 788.317309 344.18687 
L 789.106317 345.007993 
L 789.895324 344.995254 
L 790.684331 347.586004 
L 791.473339 346.605818 
L 792.262346 346.583607 
L 793.051354 346.178925 
L 793.840361 347.186875 
L 794.629368 346.098903 
L 795.418376 345.897705 
L 796.207383 342.916318 
L 796.99639 343.540489 
L 797.785398 343.328839 
L 798.574405 341.973693 
L 799.363413 340.12437 
L 800.15242 341.082673 
L 800.941427 341.726768 
L 801.730435 345.622038 
L 802.519442 343.587196 
L 803.30845 343.096939 
L 804.097457 344.435754 
L 804.886464 345.328407 
L 805.675472 344.921438 
L 806.464479 344.169559 
L 807.253486 338.364542 
L 808.042494 338.04772 
L 808.831501 337.86514 
L 809.620509 336.167369 
L 810.409516 335.444559 
L 811.198523 334.97096 
L 811.987531 334.734487 
L 813.565546 337.8622 
L 814.354553 337.298454 
L 815.14356 337.284083 
L 815.932568 338.300524 
L 816.721575 338.900199 
L 817.510582 339.196443 
L 818.29959 338.029103 
L 819.088597 337.334056 
L 819.877605 336.243472 
L 820.666612 336.168022 
L 821.455619 334.869381 
L 823.033634 335.832584 
L 823.822642 336.768023 
L 825.400656 340.525786 
L 826.189664 340.061659 
L 826.978671 342.540379 
L 828.556686 342.613541 
L 829.345693 343.295524 
L 830.134701 342.883983 
L 830.923708 343.066563 
L 831.712715 344.202548 
L 832.501723 344.644138 
L 833.29073 341.439669 
L 834.079737 341.575543 
L 834.868745 343.09204 
L 835.657752 343.464386 
L 836.44676 346.245882 
L 837.235767 346.891937 
L 838.024774 347.783609 
L 838.813782 351.171312 
L 839.602789 351.168699 
L 841.180804 350.526564 
L 841.969811 349.835436 
L 842.758819 350.277026 
L 843.547826 348.246103 
L 845.125841 348.272886 
L 846.703856 350.43903 
L 847.492863 350.32308 
L 848.28187 350.763037 
L 849.070878 353.396574 
L 850.648893 353.46843 
L 851.4379 356.851234 
L 852.226907 355.133539 
L 853.015915 356.542905 
L 853.804922 357.616504 
L 854.593929 355.931145 
L 855.382937 355.992876 
L 856.171944 355.92004 
L 856.960952 354.253625 
L 857.749959 355.78286 
L 859.327974 357.852651 
L 860.116981 359.929954 
L 861.694996 360.17002 
L 862.484003 360.809215 
L 863.273011 361.294899 
L 864.851025 361.640463 
L 865.640033 360.378403 
L 867.218048 360.264413 
L 869.58507 361.672145 
L 870.374077 361.510468 
L 871.163084 363.83045 
L 873.530107 364.140412 
L 874.319114 364.405628 
L 875.108121 365.113413 
L 875.897129 366.213143 
L 876.686136 365.057561 
L 878.264151 365.078465 
L 879.053158 365.937802 
L 879.842166 365.681732 
L 880.631173 365.993328 
L 881.42018 365.869539 
L 882.209188 367.328224 
L 882.998195 367.410205 
L 883.787203 367.355006 
L 884.57621 366.614232 
L 885.365217 367.415758 
L 886.943232 367.891316 
L 887.73224 367.002257 
L 888.521247 367.030346 
L 890.099262 366.925174 
L 890.888269 366.918642 
L 891.677276 366.412708 
L 892.466284 366.323867 
L 893.255291 367.055496 
L 894.044299 366.885653 
L 894.833306 367.128659 
L 896.411321 366.62697 
L 897.200328 366.510367 
L 897.989336 365.97373 
L 898.778343 365.587992 
L 899.56735 365.766327 
L 900.356358 365.546838 
L 901.145365 365.747383 
L 901.934372 366.564586 
L 902.72338 365.477921 
L 903.512387 365.687938 
L 904.301395 366.879121 
L 905.090402 366.880754 
L 905.879409 367.136824 
L 906.668417 366.682496 
L 907.457424 365.356092 
L 909.035439 366.514613 
L 909.824446 364.535296 
L 911.402461 364.486303 
L 912.980476 364.92724 
L 913.769483 363.588425 
L 915.347498 366.903291 
L 916.136505 366.983639 
L 916.925513 366.890226 
L 917.71452 366.059305 
L 918.503527 365.539652 
L 919.292535 365.55925 
L 920.081542 362.092178 
L 920.87055 360.129845 
L 921.659557 359.950531 
L 922.448564 359.968495 
L 923.237572 360.178512 
L 924.026579 358.892609 
L 924.815587 357.379052 
L 925.604594 356.975676 
L 926.393601 358.271704 
L 927.971616 358.226957 
L 928.760623 358.140403 
L 928.760623 358.140403 
" style="fill:none;stroke:#2c2b2b;stroke-linecap:round;stroke-width:3;"/>
   </g>
   <g id="patch_115">
    <path d="M 7.2 379.123125 
L 969 379.123125 
" style="fill:none;stroke:#caced3;stroke-linecap:square;stroke-linejoin:miter;"/>
   </g>
  </g>
 </g>
 <defs>
  <clipPath id="p41f38623ac">
   <rect height="326.62" width="961.8" x="7.2" y="52.503125"/>
  </clipPath>
 </defs>
</svg>
