<?xml version="1.0" encoding="utf-8" standalone="no"?>
<!DOCTYPE svg PUBLIC "-//W3C//DTD SVG 1.1//EN"
  "http://www.w3.org/Graphics/SVG/1.1/DTD/svg11.dtd">
<svg height="695.074523pt" version="1.1" viewBox="0 0 1057.580625 695.074523" width="1057.580625pt" xmlns="http://www.w3.org/2000/svg" xmlns:xlink="http://www.w3.org/1999/xlink">
 <metadata>
  <rdf:RDF xmlns:cc="http://creativecommons.org/ns#" xmlns:dc="http://purl.org/dc/elements/1.1/" xmlns:rdf="http://www.w3.org/1999/02/22-rdf-syntax-ns#">
   <cc:Work>
    <dc:type rdf:resource="http://purl.org/dc/dcmitype/StillImage"/>
    <dc:date>2023-04-03T15:57:53.309757</dc:date>
    <dc:format>image/svg+xml</dc:format>
    <dc:creator>
     <cc:Agent>
      <dc:title>Matplotlib v3.4.3, https://matplotlib.org/</dc:title>
     </cc:Agent>
    </dc:creator>
   </cc:Work>
  </rdf:RDF>
 </metadata>
 <defs>
  <style type="text/css">*{stroke-linecap:butt;stroke-linejoin:round;}</style>
 </defs>
 <g id="figure_1">
  <g id="patch_1">
   <path d="M 0 695.074523 
L 1057.580625 695.074523 
L 1057.580625 0 
L 0 0 
z
" style="fill:#ffffff;"/>
  </g>
  <g id="axes_1">
   <g id="patch_2">
    <path d="M 275.885625 632.673477 
L 1050.380625 632.673477 
L 1050.380625 7.2 
L 275.885625 7.2 
z
" style="fill:#ffffff;"/>
   </g>
   <g id="matplotlib.axis_1">
    <g id="xtick_1">
     <g id="line2d_1"/>
     <g id="text_1">
      <!-- Restricting -->
      <g style="fill:#565e69;" transform="translate(425.746536 685.835404)rotate(-45)scale(0.12 -0.12)">
       <defs>
        <path d="M 1859 4569 
Q 2422 4569 2789 4430 
Q 3156 4291 3337 4006 
Q 3519 3722 3519 3281 
Q 3519 2919 3387 2676 
Q 3256 2434 3043 2284 
Q 2831 2134 2591 2053 
L 3844 0 
L 3225 0 
L 2106 1906 
L 1156 1906 
L 1156 0 
L 625 0 
L 625 4569 
L 1859 4569 
z
M 1828 4109 
L 1156 4109 
L 1156 2356 
L 1881 2356 
Q 2441 2356 2705 2584 
Q 2969 2813 2969 3256 
Q 2969 3722 2689 3915 
Q 2409 4109 1828 4109 
z
" id="OpenSans-Regular-52" transform="scale(0.015625)"/>
        <path d="M 1866 3488 
Q 2303 3488 2615 3294 
Q 2928 3100 3093 2751 
Q 3259 2403 3259 1938 
L 3259 1616 
L 894 1616 
Q 903 1013 1193 697 
Q 1484 381 2013 381 
Q 2338 381 2588 440 
Q 2838 500 3106 616 
L 3106 159 
Q 2847 44 2592 -9 
Q 2338 -63 1991 -63 
Q 1497 -63 1130 139 
Q 763 341 559 731 
Q 356 1122 356 1688 
Q 356 2241 542 2645 
Q 728 3050 1067 3269 
Q 1406 3488 1866 3488 
z
M 1859 3063 
Q 1444 3063 1197 2791 
Q 950 2519 903 2031 
L 2716 2031 
Q 2713 2338 2620 2570 
Q 2528 2803 2340 2933 
Q 2153 3063 1859 3063 
z
" id="OpenSans-Regular-65" transform="scale(0.015625)"/>
        <path d="M 2763 938 
Q 2763 609 2598 386 
Q 2434 163 2129 50 
Q 1825 -63 1403 -63 
Q 1044 -63 781 -6 
Q 519 50 322 153 
L 322 631 
Q 531 528 822 443 
Q 1113 359 1416 359 
Q 1859 359 2059 503 
Q 2259 647 2259 894 
Q 2259 1034 2179 1142 
Q 2100 1250 1912 1351 
Q 1725 1453 1394 1575 
Q 1066 1700 827 1823 
Q 588 1947 458 2125 
Q 328 2303 328 2588 
Q 328 3022 679 3255 
Q 1031 3488 1603 3488 
Q 1913 3488 2183 3427 
Q 2453 3366 2688 3263 
L 2513 2847 
Q 2300 2938 2059 3000 
Q 1819 3063 1569 3063 
Q 1209 3063 1017 2944 
Q 825 2825 825 2619 
Q 825 2459 914 2356 
Q 1003 2253 1200 2162 
Q 1397 2072 1719 1950 
Q 2041 1831 2275 1704 
Q 2509 1578 2636 1398 
Q 2763 1219 2763 938 
z
" id="OpenSans-Regular-73" transform="scale(0.015625)"/>
        <path d="M 1653 363 
Q 1781 363 1915 384 
Q 2050 406 2134 438 
L 2134 34 
Q 2044 -6 1883 -34 
Q 1722 -63 1569 -63 
Q 1297 -63 1075 32 
Q 853 128 720 356 
Q 588 584 588 988 
L 588 3019 
L 100 3019 
L 100 3272 
L 591 3475 
L 797 4219 
L 1109 4219 
L 1109 3425 
L 2113 3425 
L 2113 3019 
L 1109 3019 
L 1109 1003 
Q 1109 681 1257 522 
Q 1406 363 1653 363 
z
" id="OpenSans-Regular-74" transform="scale(0.015625)"/>
        <path d="M 2103 3488 
Q 2206 3488 2318 3477 
Q 2431 3466 2519 3447 
L 2453 2966 
Q 2369 2988 2266 3000 
Q 2163 3013 2072 3013 
Q 1866 3013 1683 2930 
Q 1500 2847 1362 2692 
Q 1225 2538 1147 2320 
Q 1069 2103 1069 1838 
L 1069 0 
L 547 0 
L 547 3425 
L 978 3425 
L 1034 2794 
L 1056 2794 
Q 1163 2984 1313 3142 
Q 1463 3300 1661 3394 
Q 1859 3488 2103 3488 
z
" id="OpenSans-Regular-72" transform="scale(0.015625)"/>
        <path d="M 1066 3425 
L 1066 0 
L 547 0 
L 547 3425 
L 1066 3425 
z
M 813 4706 
Q 941 4706 1033 4623 
Q 1125 4541 1125 4366 
Q 1125 4194 1033 4109 
Q 941 4025 813 4025 
Q 678 4025 589 4109 
Q 500 4194 500 4366 
Q 500 4541 589 4623 
Q 678 4706 813 4706 
z
" id="OpenSans-Regular-69" transform="scale(0.015625)"/>
        <path d="M 1919 -63 
Q 1456 -63 1103 128 
Q 750 319 553 709 
Q 356 1100 356 1694 
Q 356 2316 564 2711 
Q 772 3106 1137 3297 
Q 1503 3488 1969 3488 
Q 2225 3488 2464 3436 
Q 2703 3384 2856 3306 
L 2700 2872 
Q 2544 2934 2339 2984 
Q 2134 3034 1956 3034 
Q 1600 3034 1364 2881 
Q 1128 2728 1011 2431 
Q 894 2134 894 1700 
Q 894 1284 1008 990 
Q 1122 697 1348 542 
Q 1575 388 1916 388 
Q 2188 388 2406 445 
Q 2625 503 2803 581 
L 2803 119 
Q 2631 31 2420 -16 
Q 2209 -63 1919 -63 
z
" id="OpenSans-Regular-63" transform="scale(0.015625)"/>
        <path d="M 2169 3488 
Q 2778 3488 3090 3189 
Q 3403 2891 3403 2231 
L 3403 0 
L 2891 0 
L 2891 2197 
Q 2891 2625 2695 2837 
Q 2500 3050 2097 3050 
Q 1528 3050 1297 2728 
Q 1066 2406 1066 1794 
L 1066 0 
L 547 0 
L 547 3425 
L 966 3425 
L 1044 2931 
L 1072 2931 
Q 1181 3113 1350 3236 
Q 1519 3359 1728 3423 
Q 1938 3488 2169 3488 
z
" id="OpenSans-Regular-6e" transform="scale(0.015625)"/>
        <path d="M 1503 -1538 
Q 828 -1538 462 -1286 
Q 97 -1034 97 -581 
Q 97 -259 301 -31 
Q 506 197 869 272 
Q 734 334 639 459 
Q 544 584 544 747 
Q 544 934 648 1076 
Q 753 1219 969 1350 
Q 700 1459 533 1720 
Q 366 1981 366 2328 
Q 366 2697 519 2958 
Q 672 3219 962 3356 
Q 1253 3494 1666 3494 
Q 1756 3494 1848 3486 
Q 1941 3478 2025 3464 
Q 2109 3450 2172 3431 
L 3347 3431 
L 3347 3097 
L 2716 3019 
Q 2809 2897 2871 2725 
Q 2934 2553 2934 2344 
Q 2934 1831 2587 1529 
Q 2241 1228 1634 1228 
Q 1491 1228 1341 1253 
Q 1188 1169 1108 1066 
Q 1028 963 1028 828 
Q 1028 728 1089 668 
Q 1150 609 1265 582 
Q 1381 556 1544 556 
L 2147 556 
Q 2706 556 3004 322 
Q 3303 88 3303 -363 
Q 3303 -931 2840 -1234 
Q 2378 -1538 1503 -1538 
z
M 1519 -1131 
Q 1944 -1131 2223 -1045 
Q 2503 -959 2642 -798 
Q 2781 -638 2781 -416 
Q 2781 -209 2687 -104 
Q 2594 0 2412 36 
Q 2231 72 1969 72 
L 1375 72 
Q 1144 72 972 0 
Q 800 -72 708 -212 
Q 616 -353 616 -563 
Q 616 -841 850 -986 
Q 1084 -1131 1519 -1131 
z
M 1653 1606 
Q 2025 1606 2212 1793 
Q 2400 1981 2400 2341 
Q 2400 2725 2209 2917 
Q 2019 3109 1647 3109 
Q 1291 3109 1098 2911 
Q 906 2713 906 2331 
Q 906 1981 1100 1793 
Q 1294 1606 1653 1606 
z
" id="OpenSans-Regular-67" transform="scale(0.015625)"/>
       </defs>
       <use xlink:href="#OpenSans-Regular-52"/>
       <use x="61.71875" xlink:href="#OpenSans-Regular-65"/>
       <use x="117.871094" xlink:href="#OpenSans-Regular-73"/>
       <use x="165.527344" xlink:href="#OpenSans-Regular-74"/>
       <use x="201.171875" xlink:href="#OpenSans-Regular-72"/>
       <use x="242.041016" xlink:href="#OpenSans-Regular-69"/>
       <use x="267.285156" xlink:href="#OpenSans-Regular-63"/>
       <use x="315.185547" xlink:href="#OpenSans-Regular-74"/>
       <use x="350.830078" xlink:href="#OpenSans-Regular-69"/>
       <use x="376.074219" xlink:href="#OpenSans-Regular-6e"/>
       <use x="437.402344" xlink:href="#OpenSans-Regular-67"/>
      </g>
     </g>
    </g>
    <g id="xtick_2">
     <g id="line2d_2"/>
     <g id="text_2">
      <!-- Relaxing -->
      <g style="fill:#565e69;" transform="translate(627.839658 677.375313)rotate(-45)scale(0.12 -0.12)">
       <defs>
        <path d="M 1069 0 
L 547 0 
L 547 4863 
L 1069 4863 
L 1069 0 
z
" id="OpenSans-Regular-6c" transform="scale(0.015625)"/>
        <path d="M 1828 3481 
Q 2441 3481 2737 3206 
Q 3034 2931 3034 2328 
L 3034 0 
L 2656 0 
L 2556 506 
L 2531 506 
Q 2388 319 2231 192 
Q 2075 66 1870 1 
Q 1666 -63 1369 -63 
Q 1056 -63 814 46 
Q 572 156 433 378 
Q 294 600 294 941 
Q 294 1453 700 1728 
Q 1106 2003 1938 2028 
L 2528 2053 
L 2528 2263 
Q 2528 2706 2337 2884 
Q 2147 3063 1800 3063 
Q 1531 3063 1287 2984 
Q 1044 2906 825 2800 
L 666 3194 
Q 897 3313 1197 3397 
Q 1497 3481 1828 3481 
z
M 2522 1688 
L 2000 1666 
Q 1359 1641 1096 1456 
Q 834 1272 834 934 
Q 834 641 1012 500 
Q 1191 359 1484 359 
Q 1941 359 2231 612 
Q 2522 866 2522 1372 
L 2522 1688 
z
" id="OpenSans-Regular-61" transform="scale(0.015625)"/>
        <path d="M 1363 1753 
L 178 3425 
L 772 3425 
L 1675 2106 
L 2575 3425 
L 3163 3425 
L 1978 1753 
L 3228 0 
L 2634 0 
L 1675 1397 
L 709 0 
L 122 0 
L 1363 1753 
z
" id="OpenSans-Regular-78" transform="scale(0.015625)"/>
       </defs>
       <use xlink:href="#OpenSans-Regular-52"/>
       <use x="61.71875" xlink:href="#OpenSans-Regular-65"/>
       <use x="117.871094" xlink:href="#OpenSans-Regular-6c"/>
       <use x="143.115234" xlink:href="#OpenSans-Regular-61"/>
       <use x="198.681641" xlink:href="#OpenSans-Regular-78"/>
       <use x="251.025391" xlink:href="#OpenSans-Regular-69"/>
       <use x="276.269531" xlink:href="#OpenSans-Regular-6e"/>
       <use x="337.597656" xlink:href="#OpenSans-Regular-67"/>
      </g>
     </g>
    </g>
    <g id="xtick_3">
     <g id="line2d_3"/>
     <g id="text_3">
      <!-- Other -->
      <g style="fill:#565e69;" transform="translate(831.665633 667.182369)rotate(-45)scale(0.12 -0.12)">
       <defs>
        <path d="M 4588 2291 
Q 4588 1763 4453 1330 
Q 4319 897 4055 586 
Q 3791 275 3400 106 
Q 3009 -63 2494 -63 
Q 1963 -63 1567 106 
Q 1172 275 911 587 
Q 650 900 520 1334 
Q 391 1769 391 2297 
Q 391 2997 622 3525 
Q 853 4053 1323 4347 
Q 1794 4641 2503 4641 
Q 3181 4641 3645 4350 
Q 4109 4059 4348 3532 
Q 4588 3006 4588 2291 
z
M 950 2291 
Q 950 1709 1115 1284 
Q 1281 859 1623 628 
Q 1966 397 2494 397 
Q 3025 397 3364 628 
Q 3703 859 3865 1284 
Q 4028 1709 4028 2291 
Q 4028 3175 3658 3673 
Q 3288 4172 2503 4172 
Q 1972 4172 1628 3944 
Q 1284 3716 1117 3295 
Q 950 2875 950 2291 
z
" id="OpenSans-Regular-4f" transform="scale(0.015625)"/>
        <path d="M 1066 4863 
L 1066 3409 
Q 1066 3284 1059 3157 
Q 1053 3031 1038 2925 
L 1072 2925 
Q 1178 3106 1342 3229 
Q 1506 3353 1715 3417 
Q 1925 3481 2159 3481 
Q 2572 3481 2848 3350 
Q 3125 3219 3264 2944 
Q 3403 2669 3403 2231 
L 3403 0 
L 2891 0 
L 2891 2197 
Q 2891 2625 2695 2837 
Q 2500 3050 2097 3050 
Q 1716 3050 1489 2904 
Q 1263 2759 1164 2478 
Q 1066 2197 1066 1791 
L 1066 0 
L 547 0 
L 547 4863 
L 1066 4863 
z
" id="OpenSans-Regular-68" transform="scale(0.015625)"/>
       </defs>
       <use xlink:href="#OpenSans-Regular-4f"/>
       <use x="77.783203" xlink:href="#OpenSans-Regular-74"/>
       <use x="113.427734" xlink:href="#OpenSans-Regular-68"/>
       <use x="174.755859" xlink:href="#OpenSans-Regular-65"/>
       <use x="230.908203" xlink:href="#OpenSans-Regular-72"/>
      </g>
     </g>
    </g>
   </g>
   <g id="matplotlib.axis_2">
    <g id="ytick_1">
     <g id="text_4">
      <!-- Vaccinations -->
      <g style="fill:#565e69;" transform="translate(190.905 591.908374)scale(0.12 -0.12)">
       <defs>
        <path d="M 3816 4569 
L 2175 0 
L 1641 0 
L 0 4569 
L 556 4569 
L 1625 1559 
Q 1691 1378 1742 1212 
Q 1794 1047 1834 894 
Q 1875 741 1906 597 
Q 1938 741 1978 895 
Q 2019 1050 2072 1217 
Q 2125 1384 2191 1569 
L 3253 4569 
L 3816 4569 
z
" id="OpenSans-Regular-56" transform="scale(0.015625)"/>
        <path d="M 3500 1719 
Q 3500 1297 3390 965 
Q 3281 634 3075 406 
Q 2869 178 2576 57 
Q 2284 -63 1916 -63 
Q 1572 -63 1286 57 
Q 1000 178 792 406 
Q 584 634 470 965 
Q 356 1297 356 1719 
Q 356 2281 547 2676 
Q 738 3072 1092 3280 
Q 1447 3488 1938 3488 
Q 2406 3488 2757 3278 
Q 3109 3069 3304 2673 
Q 3500 2278 3500 1719 
z
M 894 1719 
Q 894 1306 1003 1003 
Q 1113 700 1341 534 
Q 1569 369 1928 369 
Q 2284 369 2514 534 
Q 2744 700 2853 1003 
Q 2963 1306 2963 1719 
Q 2963 2128 2853 2426 
Q 2744 2725 2516 2887 
Q 2288 3050 1925 3050 
Q 1391 3050 1142 2697 
Q 894 2344 894 1719 
z
" id="OpenSans-Regular-6f" transform="scale(0.015625)"/>
       </defs>
       <use xlink:href="#OpenSans-Regular-56"/>
       <use x="59.619141" xlink:href="#OpenSans-Regular-61"/>
       <use x="115.185547" xlink:href="#OpenSans-Regular-63"/>
       <use x="163.085938" xlink:href="#OpenSans-Regular-63"/>
       <use x="210.986328" xlink:href="#OpenSans-Regular-69"/>
       <use x="236.230469" xlink:href="#OpenSans-Regular-6e"/>
       <use x="297.558594" xlink:href="#OpenSans-Regular-61"/>
       <use x="353.125" xlink:href="#OpenSans-Regular-74"/>
       <use x="388.769531" xlink:href="#OpenSans-Regular-69"/>
       <use x="414.013672" xlink:href="#OpenSans-Regular-6f"/>
       <use x="474.169922" xlink:href="#OpenSans-Regular-6e"/>
       <use x="535.498047" xlink:href="#OpenSans-Regular-73"/>
      </g>
     </g>
    </g>
    <g id="ytick_2">
     <g id="text_5">
      <!-- Travel restrictions -->
      <g style="fill:#565e69;" transform="translate(160.895625 531.476154)scale(0.12 -0.12)">
       <defs>
        <path d="M 2028 0 
L 1494 0 
L 1494 4100 
L 56 4100 
L 56 4569 
L 3459 4569 
L 3459 4100 
L 2028 4100 
L 2028 0 
z
" id="OpenSans-Regular-54" transform="scale(0.015625)"/>
        <path d="M 1300 0 
L 0 3425 
L 556 3425 
L 1309 1353 
Q 1388 1141 1469 884 
Q 1550 628 1581 472 
L 1603 472 
Q 1641 628 1728 886 
Q 1816 1144 1888 1353 
L 2641 3425 
L 3197 3425 
L 1894 0 
L 1300 0 
z
" id="OpenSans-Regular-76" transform="scale(0.015625)"/>
        <path id="OpenSans-Regular-20" transform="scale(0.015625)"/>
       </defs>
       <use xlink:href="#OpenSans-Regular-54"/>
       <use x="55.078125" xlink:href="#OpenSans-Regular-72"/>
       <use x="95.947266" xlink:href="#OpenSans-Regular-61"/>
       <use x="151.513672" xlink:href="#OpenSans-Regular-76"/>
       <use x="201.464844" xlink:href="#OpenSans-Regular-65"/>
       <use x="257.617188" xlink:href="#OpenSans-Regular-6c"/>
       <use x="282.861328" xlink:href="#OpenSans-Regular-20"/>
       <use x="308.837891" xlink:href="#OpenSans-Regular-72"/>
       <use x="349.707031" xlink:href="#OpenSans-Regular-65"/>
       <use x="405.859375" xlink:href="#OpenSans-Regular-73"/>
       <use x="453.515625" xlink:href="#OpenSans-Regular-74"/>
       <use x="489.160156" xlink:href="#OpenSans-Regular-72"/>
       <use x="530.029297" xlink:href="#OpenSans-Regular-69"/>
       <use x="555.273438" xlink:href="#OpenSans-Regular-63"/>
       <use x="603.173828" xlink:href="#OpenSans-Regular-74"/>
       <use x="638.818359" xlink:href="#OpenSans-Regular-69"/>
       <use x="664.0625" xlink:href="#OpenSans-Regular-6f"/>
       <use x="724.21875" xlink:href="#OpenSans-Regular-6e"/>
       <use x="785.546875" xlink:href="#OpenSans-Regular-73"/>
      </g>
     </g>
    </g>
    <g id="ytick_3">
     <g id="text_6">
      <!-- Support for public health and clinical capacity -->
      <g style="fill:#565e69;" transform="translate(7.2 471.075809)scale(0.12 -0.12)">
       <defs>
        <path d="M 3203 1216 
Q 3203 809 3001 523 
Q 2800 238 2437 87 
Q 2075 -63 1584 -63 
Q 1325 -63 1094 -38 
Q 863 -13 669 34 
Q 475 81 328 150 
L 328 659 
Q 563 563 900 480 
Q 1238 397 1606 397 
Q 1950 397 2187 489 
Q 2425 581 2548 754 
Q 2672 928 2672 1172 
Q 2672 1406 2569 1564 
Q 2466 1722 2227 1851 
Q 1988 1981 1575 2128 
Q 1284 2231 1062 2354 
Q 841 2478 691 2634 
Q 541 2791 464 2997 
Q 388 3203 388 3469 
Q 388 3834 573 4095 
Q 759 4356 1089 4495 
Q 1419 4634 1847 4634 
Q 2213 4634 2523 4565 
Q 2834 4497 3094 4381 
L 2928 3925 
Q 2681 4028 2404 4097 
Q 2128 4166 1834 4166 
Q 1541 4166 1339 4080 
Q 1138 3994 1031 3837 
Q 925 3681 925 3466 
Q 925 3225 1026 3065 
Q 1128 2906 1351 2782 
Q 1575 2659 1944 2525 
Q 2347 2378 2628 2214 
Q 2909 2050 3056 1814 
Q 3203 1578 3203 1216 
z
" id="OpenSans-Regular-53" transform="scale(0.015625)"/>
        <path d="M 3375 3425 
L 3375 0 
L 2950 0 
L 2875 481 
L 2847 481 
Q 2741 303 2572 181 
Q 2403 59 2192 -2 
Q 1981 -63 1744 -63 
Q 1338 -63 1063 68 
Q 788 200 648 475 
Q 509 750 509 1181 
L 509 3425 
L 1034 3425 
L 1034 1219 
Q 1034 791 1228 580 
Q 1422 369 1819 369 
Q 2200 369 2426 512 
Q 2653 656 2753 936 
Q 2853 1216 2853 1622 
L 2853 3425 
L 3375 3425 
z
" id="OpenSans-Regular-75" transform="scale(0.015625)"/>
        <path d="M 2156 3488 
Q 2797 3488 3178 3047 
Q 3559 2606 3559 1722 
Q 3559 1138 3384 741 
Q 3209 344 2892 140 
Q 2575 -63 2144 -63 
Q 1872 -63 1665 9 
Q 1459 81 1312 203 
Q 1166 325 1069 469 
L 1031 469 
Q 1041 347 1055 175 
Q 1069 3 1069 -125 
L 1069 -1531 
L 547 -1531 
L 547 3425 
L 975 3425 
L 1044 2919 
L 1069 2919 
Q 1169 3075 1312 3204 
Q 1456 3334 1664 3411 
Q 1872 3488 2156 3488 
z
M 2066 3050 
Q 1709 3050 1492 2912 
Q 1275 2775 1175 2501 
Q 1075 2228 1069 1816 
L 1069 1716 
Q 1069 1281 1164 981 
Q 1259 681 1479 525 
Q 1700 369 2072 369 
Q 2391 369 2603 541 
Q 2816 713 2920 1020 
Q 3025 1328 3025 1728 
Q 3025 2334 2789 2692 
Q 2553 3050 2066 3050 
z
" id="OpenSans-Regular-70" transform="scale(0.015625)"/>
        <path d="M 2072 3019 
L 1219 3019 
L 1219 0 
L 700 0 
L 700 3019 
L 94 3019 
L 94 3269 
L 700 3441 
L 700 3669 
Q 700 4100 828 4370 
Q 956 4641 1200 4769 
Q 1444 4897 1794 4897 
Q 1991 4897 2155 4862 
Q 2319 4828 2444 4784 
L 2309 4375 
Q 2203 4409 2070 4439 
Q 1938 4469 1800 4469 
Q 1503 4469 1361 4276 
Q 1219 4084 1219 3675 
L 1219 3425 
L 2072 3425 
L 2072 3019 
z
" id="OpenSans-Regular-66" transform="scale(0.015625)"/>
        <path d="M 1066 4863 
L 1066 3647 
Q 1066 3438 1055 3241 
Q 1044 3044 1038 2934 
L 1066 2934 
Q 1206 3166 1472 3325 
Q 1738 3484 2150 3484 
Q 2794 3484 3176 3039 
Q 3559 2594 3559 1716 
Q 3559 1138 3384 741 
Q 3209 344 2890 140 
Q 2572 -63 2138 -63 
Q 1731 -63 1470 89 
Q 1209 241 1069 459 
L 1028 459 
L 922 0 
L 547 0 
L 547 4863 
L 1066 4863 
z
M 2066 3050 
Q 1694 3050 1475 2904 
Q 1256 2759 1161 2467 
Q 1066 2175 1066 1728 
L 1066 1700 
Q 1066 1053 1281 711 
Q 1497 369 2066 369 
Q 2544 369 2783 719 
Q 3022 1069 3022 1719 
Q 3022 2381 2786 2715 
Q 2550 3050 2066 3050 
z
" id="OpenSans-Regular-62" transform="scale(0.015625)"/>
        <path d="M 1766 -63 
Q 1116 -63 736 381 
Q 356 825 356 1700 
Q 356 2584 743 3036 
Q 1131 3488 1775 3488 
Q 2047 3488 2250 3416 
Q 2453 3344 2600 3223 
Q 2747 3103 2847 2950 
L 2884 2950 
Q 2872 3047 2859 3215 
Q 2847 3384 2847 3491 
L 2847 4863 
L 3366 4863 
L 3366 0 
L 2947 0 
L 2869 488 
L 2847 488 
Q 2750 334 2601 209 
Q 2453 84 2248 10 
Q 2044 -63 1766 -63 
z
M 1847 369 
Q 2397 369 2625 681 
Q 2853 994 2853 1609 
L 2853 1703 
Q 2853 2356 2636 2706 
Q 2419 3056 1847 3056 
Q 1369 3056 1131 2689 
Q 894 2322 894 1688 
Q 894 1056 1130 712 
Q 1366 369 1847 369 
z
" id="OpenSans-Regular-64" transform="scale(0.015625)"/>
        <path d="M 6 3425 
L 563 3425 
L 1319 1438 
Q 1384 1263 1440 1102 
Q 1497 941 1540 794 
Q 1584 647 1609 509 
L 1631 509 
Q 1675 666 1756 920 
Q 1838 1175 1931 1441 
L 2647 3425 
L 3206 3425 
L 1716 -503 
Q 1597 -819 1439 -1053 
Q 1281 -1288 1056 -1414 
Q 831 -1541 513 -1541 
Q 366 -1541 253 -1523 
Q 141 -1506 59 -1484 
L 59 -1069 
Q 128 -1084 226 -1096 
Q 325 -1109 431 -1109 
Q 625 -1109 767 -1036 
Q 909 -963 1012 -822 
Q 1116 -681 1191 -488 
L 1378 -6 
L 6 3425 
z
" id="OpenSans-Regular-79" transform="scale(0.015625)"/>
       </defs>
       <use xlink:href="#OpenSans-Regular-53"/>
       <use x="54.833984" xlink:href="#OpenSans-Regular-75"/>
       <use x="116.162109" xlink:href="#OpenSans-Regular-70"/>
       <use x="177.34375" xlink:href="#OpenSans-Regular-70"/>
       <use x="238.525391" xlink:href="#OpenSans-Regular-6f"/>
       <use x="298.681641" xlink:href="#OpenSans-Regular-72"/>
       <use x="339.550781" xlink:href="#OpenSans-Regular-74"/>
       <use x="375.195312" xlink:href="#OpenSans-Regular-20"/>
       <use x="401.171875" xlink:href="#OpenSans-Regular-66"/>
       <use x="434.814453" xlink:href="#OpenSans-Regular-6f"/>
       <use x="494.970703" xlink:href="#OpenSans-Regular-72"/>
       <use x="535.839844" xlink:href="#OpenSans-Regular-20"/>
       <use x="561.816406" xlink:href="#OpenSans-Regular-70"/>
       <use x="622.998047" xlink:href="#OpenSans-Regular-75"/>
       <use x="684.326172" xlink:href="#OpenSans-Regular-62"/>
       <use x="745.507812" xlink:href="#OpenSans-Regular-6c"/>
       <use x="770.751953" xlink:href="#OpenSans-Regular-69"/>
       <use x="795.996094" xlink:href="#OpenSans-Regular-63"/>
       <use x="843.896484" xlink:href="#OpenSans-Regular-20"/>
       <use x="869.873047" xlink:href="#OpenSans-Regular-68"/>
       <use x="931.201172" xlink:href="#OpenSans-Regular-65"/>
       <use x="987.353516" xlink:href="#OpenSans-Regular-61"/>
       <use x="1042.919922" xlink:href="#OpenSans-Regular-6c"/>
       <use x="1068.164062" xlink:href="#OpenSans-Regular-74"/>
       <use x="1103.808594" xlink:href="#OpenSans-Regular-68"/>
       <use x="1165.136719" xlink:href="#OpenSans-Regular-20"/>
       <use x="1191.113281" xlink:href="#OpenSans-Regular-61"/>
       <use x="1246.679688" xlink:href="#OpenSans-Regular-6e"/>
       <use x="1308.007812" xlink:href="#OpenSans-Regular-64"/>
       <use x="1369.189453" xlink:href="#OpenSans-Regular-20"/>
       <use x="1395.166016" xlink:href="#OpenSans-Regular-63"/>
       <use x="1443.066406" xlink:href="#OpenSans-Regular-6c"/>
       <use x="1468.310547" xlink:href="#OpenSans-Regular-69"/>
       <use x="1493.554688" xlink:href="#OpenSans-Regular-6e"/>
       <use x="1554.882812" xlink:href="#OpenSans-Regular-69"/>
       <use x="1580.126953" xlink:href="#OpenSans-Regular-63"/>
       <use x="1628.027344" xlink:href="#OpenSans-Regular-61"/>
       <use x="1683.59375" xlink:href="#OpenSans-Regular-6c"/>
       <use x="1708.837891" xlink:href="#OpenSans-Regular-20"/>
       <use x="1734.814453" xlink:href="#OpenSans-Regular-63"/>
       <use x="1782.714844" xlink:href="#OpenSans-Regular-61"/>
       <use x="1838.28125" xlink:href="#OpenSans-Regular-70"/>
       <use x="1899.462891" xlink:href="#OpenSans-Regular-61"/>
       <use x="1955.029297" xlink:href="#OpenSans-Regular-63"/>
       <use x="2002.929688" xlink:href="#OpenSans-Regular-69"/>
       <use x="2028.173828" xlink:href="#OpenSans-Regular-74"/>
       <use x="2063.818359" xlink:href="#OpenSans-Regular-79"/>
      </g>
     </g>
    </g>
    <g id="ytick_4">
     <g id="text_7">
      <!-- Social distancing -->
      <g style="fill:#565e69;" transform="translate(168.444375 410.611714)scale(0.12 -0.12)">
       <use xlink:href="#OpenSans-Regular-53"/>
       <use x="54.833984" xlink:href="#OpenSans-Regular-6f"/>
       <use x="114.990234" xlink:href="#OpenSans-Regular-63"/>
       <use x="162.890625" xlink:href="#OpenSans-Regular-69"/>
       <use x="188.134766" xlink:href="#OpenSans-Regular-61"/>
       <use x="243.701172" xlink:href="#OpenSans-Regular-6c"/>
       <use x="268.945312" xlink:href="#OpenSans-Regular-20"/>
       <use x="294.921875" xlink:href="#OpenSans-Regular-64"/>
       <use x="356.103516" xlink:href="#OpenSans-Regular-69"/>
       <use x="381.347656" xlink:href="#OpenSans-Regular-73"/>
       <use x="429.003906" xlink:href="#OpenSans-Regular-74"/>
       <use x="464.648438" xlink:href="#OpenSans-Regular-61"/>
       <use x="520.214844" xlink:href="#OpenSans-Regular-6e"/>
       <use x="581.542969" xlink:href="#OpenSans-Regular-63"/>
       <use x="629.443359" xlink:href="#OpenSans-Regular-69"/>
       <use x="654.6875" xlink:href="#OpenSans-Regular-6e"/>
       <use x="716.015625" xlink:href="#OpenSans-Regular-67"/>
      </g>
     </g>
    </g>
    <g id="ytick_5">
     <g id="text_8">
      <!-- Face mask -->
      <g style="fill:#565e69;" transform="translate(202.618125 350.179494)scale(0.12 -0.12)">
       <defs>
        <path d="M 1156 0 
L 625 0 
L 625 4569 
L 3169 4569 
L 3169 4100 
L 1156 4100 
L 1156 2425 
L 3047 2425 
L 3047 1959 
L 1156 1959 
L 1156 0 
z
" id="OpenSans-Regular-46" transform="scale(0.015625)"/>
        <path d="M 4266 3488 
Q 4831 3488 5118 3192 
Q 5406 2897 5406 2244 
L 5406 0 
L 4894 0 
L 4894 2219 
Q 4894 2634 4714 2842 
Q 4534 3050 4181 3050 
Q 3684 3050 3459 2762 
Q 3234 2475 3234 1916 
L 3234 0 
L 2719 0 
L 2719 2219 
Q 2719 2497 2639 2681 
Q 2559 2866 2401 2958 
Q 2244 3050 2003 3050 
Q 1663 3050 1456 2909 
Q 1250 2769 1158 2492 
Q 1066 2216 1066 1813 
L 1066 0 
L 547 0 
L 547 3425 
L 966 3425 
L 1044 2941 
L 1072 2941 
Q 1175 3119 1331 3241 
Q 1488 3363 1681 3425 
Q 1875 3488 2094 3488 
Q 2484 3488 2748 3342 
Q 3013 3197 3131 2900 
L 3159 2900 
Q 3328 3197 3622 3342 
Q 3916 3488 4266 3488 
z
" id="OpenSans-Regular-6d" transform="scale(0.015625)"/>
        <path d="M 1063 4863 
L 1063 2338 
Q 1063 2213 1053 2033 
Q 1044 1853 1038 1716 
L 1059 1716 
Q 1125 1797 1251 1956 
Q 1378 2116 1466 2213 
L 2603 3425 
L 3213 3425 
L 1834 1963 
L 3313 0 
L 2688 0 
L 1478 1622 
L 1063 1241 
L 1063 0 
L 547 0 
L 547 4863 
L 1063 4863 
z
" id="OpenSans-Regular-6b" transform="scale(0.015625)"/>
       </defs>
       <use xlink:href="#OpenSans-Regular-46"/>
       <use x="51.611328" xlink:href="#OpenSans-Regular-61"/>
       <use x="107.177734" xlink:href="#OpenSans-Regular-63"/>
       <use x="155.078125" xlink:href="#OpenSans-Regular-65"/>
       <use x="211.230469" xlink:href="#OpenSans-Regular-20"/>
       <use x="237.207031" xlink:href="#OpenSans-Regular-6d"/>
       <use x="329.785156" xlink:href="#OpenSans-Regular-61"/>
       <use x="385.351562" xlink:href="#OpenSans-Regular-73"/>
       <use x="433.007812" xlink:href="#OpenSans-Regular-6b"/>
      </g>
     </g>
    </g>
    <g id="ytick_6">
     <g id="text_9">
      <!-- Enabling and relief measures -->
      <g style="fill:#565e69;" transform="translate(98.754375 289.779149)scale(0.12 -0.12)">
       <defs>
        <path d="M 3169 0 
L 625 0 
L 625 4569 
L 3169 4569 
L 3169 4100 
L 1156 4100 
L 1156 2622 
L 3053 2622 
L 3053 2159 
L 1156 2159 
L 1156 469 
L 3169 469 
L 3169 0 
z
" id="OpenSans-Regular-45" transform="scale(0.015625)"/>
       </defs>
       <use xlink:href="#OpenSans-Regular-45"/>
       <use x="55.566406" xlink:href="#OpenSans-Regular-6e"/>
       <use x="116.894531" xlink:href="#OpenSans-Regular-61"/>
       <use x="172.460938" xlink:href="#OpenSans-Regular-62"/>
       <use x="233.642578" xlink:href="#OpenSans-Regular-6c"/>
       <use x="258.886719" xlink:href="#OpenSans-Regular-69"/>
       <use x="284.130859" xlink:href="#OpenSans-Regular-6e"/>
       <use x="345.458984" xlink:href="#OpenSans-Regular-67"/>
       <use x="399.755859" xlink:href="#OpenSans-Regular-20"/>
       <use x="425.732422" xlink:href="#OpenSans-Regular-61"/>
       <use x="481.298828" xlink:href="#OpenSans-Regular-6e"/>
       <use x="542.626953" xlink:href="#OpenSans-Regular-64"/>
       <use x="603.808594" xlink:href="#OpenSans-Regular-20"/>
       <use x="629.785156" xlink:href="#OpenSans-Regular-72"/>
       <use x="670.654297" xlink:href="#OpenSans-Regular-65"/>
       <use x="726.806641" xlink:href="#OpenSans-Regular-6c"/>
       <use x="752.050781" xlink:href="#OpenSans-Regular-69"/>
       <use x="777.294922" xlink:href="#OpenSans-Regular-65"/>
       <use x="833.447266" xlink:href="#OpenSans-Regular-66"/>
       <use x="867.089844" xlink:href="#OpenSans-Regular-20"/>
       <use x="893.066406" xlink:href="#OpenSans-Regular-6d"/>
       <use x="985.644531" xlink:href="#OpenSans-Regular-65"/>
       <use x="1041.796875" xlink:href="#OpenSans-Regular-61"/>
       <use x="1097.363281" xlink:href="#OpenSans-Regular-73"/>
       <use x="1145.019531" xlink:href="#OpenSans-Regular-75"/>
       <use x="1206.347656" xlink:href="#OpenSans-Regular-72"/>
       <use x="1247.216797" xlink:href="#OpenSans-Regular-65"/>
       <use x="1303.369141" xlink:href="#OpenSans-Regular-73"/>
      </g>
     </g>
    </g>
    <g id="ytick_7">
     <g id="text_10">
      <!-- Emergency declarations -->
      <g style="fill:#565e69;" transform="translate(127.269375 229.315054)scale(0.12 -0.12)">
       <use xlink:href="#OpenSans-Regular-45"/>
       <use x="55.566406" xlink:href="#OpenSans-Regular-6d"/>
       <use x="148.144531" xlink:href="#OpenSans-Regular-65"/>
       <use x="204.296875" xlink:href="#OpenSans-Regular-72"/>
       <use x="245.166016" xlink:href="#OpenSans-Regular-67"/>
       <use x="299.462891" xlink:href="#OpenSans-Regular-65"/>
       <use x="355.615234" xlink:href="#OpenSans-Regular-6e"/>
       <use x="416.943359" xlink:href="#OpenSans-Regular-63"/>
       <use x="464.84375" xlink:href="#OpenSans-Regular-79"/>
       <use x="514.941406" xlink:href="#OpenSans-Regular-20"/>
       <use x="540.917969" xlink:href="#OpenSans-Regular-64"/>
       <use x="602.099609" xlink:href="#OpenSans-Regular-65"/>
       <use x="658.251953" xlink:href="#OpenSans-Regular-63"/>
       <use x="706.152344" xlink:href="#OpenSans-Regular-6c"/>
       <use x="731.396484" xlink:href="#OpenSans-Regular-61"/>
       <use x="786.962891" xlink:href="#OpenSans-Regular-72"/>
       <use x="827.832031" xlink:href="#OpenSans-Regular-61"/>
       <use x="883.398438" xlink:href="#OpenSans-Regular-74"/>
       <use x="919.042969" xlink:href="#OpenSans-Regular-69"/>
       <use x="944.287109" xlink:href="#OpenSans-Regular-6f"/>
       <use x="1004.443359" xlink:href="#OpenSans-Regular-6e"/>
       <use x="1065.771484" xlink:href="#OpenSans-Regular-73"/>
      </g>
     </g>
    </g>
    <g id="ytick_8">
     <g id="text_11">
      <!-- Contact tracing/Testing -->
      <g style="fill:#565e69;" transform="translate(131.50875 168.876272)scale(0.12 -0.12)">
       <defs>
        <path d="M 2578 4166 
Q 2200 4166 1898 4036 
Q 1597 3906 1386 3661 
Q 1175 3416 1062 3069 
Q 950 2722 950 2288 
Q 950 1713 1129 1289 
Q 1309 866 1667 634 
Q 2025 403 2563 403 
Q 2869 403 3139 454 
Q 3409 506 3666 584 
L 3666 122 
Q 3416 28 3141 -17 
Q 2866 -63 2488 -63 
Q 1791 -63 1323 226 
Q 856 516 623 1044 
Q 391 1572 391 2291 
Q 391 2809 536 3239 
Q 681 3669 961 3981 
Q 1241 4294 1648 4464 
Q 2056 4634 2584 4634 
Q 2931 4634 3253 4565 
Q 3575 4497 3834 4369 
L 3622 3919 
Q 3403 4019 3142 4092 
Q 2881 4166 2578 4166 
z
" id="OpenSans-Regular-43" transform="scale(0.015625)"/>
        <path d="M 2278 4569 
L 578 0 
L 66 0 
L 1769 4569 
L 2278 4569 
z
" id="OpenSans-Regular-2f" transform="scale(0.015625)"/>
       </defs>
       <use xlink:href="#OpenSans-Regular-43"/>
       <use x="62.988281" xlink:href="#OpenSans-Regular-6f"/>
       <use x="123.144531" xlink:href="#OpenSans-Regular-6e"/>
       <use x="184.472656" xlink:href="#OpenSans-Regular-74"/>
       <use x="220.117188" xlink:href="#OpenSans-Regular-61"/>
       <use x="275.683594" xlink:href="#OpenSans-Regular-63"/>
       <use x="323.583984" xlink:href="#OpenSans-Regular-74"/>
       <use x="359.228516" xlink:href="#OpenSans-Regular-20"/>
       <use x="385.205078" xlink:href="#OpenSans-Regular-74"/>
       <use x="420.849609" xlink:href="#OpenSans-Regular-72"/>
       <use x="461.71875" xlink:href="#OpenSans-Regular-61"/>
       <use x="517.285156" xlink:href="#OpenSans-Regular-63"/>
       <use x="565.185547" xlink:href="#OpenSans-Regular-69"/>
       <use x="590.429688" xlink:href="#OpenSans-Regular-6e"/>
       <use x="651.757812" xlink:href="#OpenSans-Regular-67"/>
       <use x="706.054688" xlink:href="#OpenSans-Regular-2f"/>
       <use x="742.724609" xlink:href="#OpenSans-Regular-54"/>
       <use x="797.802734" xlink:href="#OpenSans-Regular-65"/>
       <use x="853.955078" xlink:href="#OpenSans-Regular-73"/>
       <use x="901.611328" xlink:href="#OpenSans-Regular-74"/>
       <use x="937.255859" xlink:href="#OpenSans-Regular-69"/>
       <use x="962.5" xlink:href="#OpenSans-Regular-6e"/>
       <use x="1023.828125" xlink:href="#OpenSans-Regular-67"/>
      </g>
     </g>
    </g>
    <g id="ytick_9">
     <g id="text_12">
      <!-- Authorization and enforcement -->
      <g style="fill:#565e69;" transform="translate(85.134375 108.450614)scale(0.12 -0.12)">
       <defs>
        <path d="M 3491 0 
L 2928 1450 
L 1097 1450 
L 538 0 
L 0 0 
L 1788 4588 
L 2266 4588 
L 4041 0 
L 3491 0 
z
M 2769 1922 
L 2234 3363 
Q 2216 3419 2173 3547 
Q 2131 3675 2087 3812 
Q 2044 3950 2016 4034 
Q 1984 3906 1948 3779 
Q 1913 3653 1878 3545 
Q 1844 3438 1819 3363 
L 1275 1922 
L 2769 1922 
z
" id="OpenSans-Regular-41" transform="scale(0.015625)"/>
        <path d="M 2747 0 
L 250 0 
L 250 344 
L 2128 3019 
L 369 3019 
L 369 3425 
L 2706 3425 
L 2706 3041 
L 853 403 
L 2747 403 
L 2747 0 
z
" id="OpenSans-Regular-7a" transform="scale(0.015625)"/>
       </defs>
       <use xlink:href="#OpenSans-Regular-41"/>
       <use x="63.232422" xlink:href="#OpenSans-Regular-75"/>
       <use x="124.560547" xlink:href="#OpenSans-Regular-74"/>
       <use x="160.205078" xlink:href="#OpenSans-Regular-68"/>
       <use x="221.533203" xlink:href="#OpenSans-Regular-6f"/>
       <use x="281.689453" xlink:href="#OpenSans-Regular-72"/>
       <use x="322.558594" xlink:href="#OpenSans-Regular-69"/>
       <use x="347.802734" xlink:href="#OpenSans-Regular-7a"/>
       <use x="394.677734" xlink:href="#OpenSans-Regular-61"/>
       <use x="450.244141" xlink:href="#OpenSans-Regular-74"/>
       <use x="485.888672" xlink:href="#OpenSans-Regular-69"/>
       <use x="511.132812" xlink:href="#OpenSans-Regular-6f"/>
       <use x="571.289062" xlink:href="#OpenSans-Regular-6e"/>
       <use x="632.617188" xlink:href="#OpenSans-Regular-20"/>
       <use x="658.59375" xlink:href="#OpenSans-Regular-61"/>
       <use x="714.160156" xlink:href="#OpenSans-Regular-6e"/>
       <use x="775.488281" xlink:href="#OpenSans-Regular-64"/>
       <use x="836.669922" xlink:href="#OpenSans-Regular-20"/>
       <use x="862.646484" xlink:href="#OpenSans-Regular-65"/>
       <use x="918.798828" xlink:href="#OpenSans-Regular-6e"/>
       <use x="980.126953" xlink:href="#OpenSans-Regular-66"/>
       <use x="1013.769531" xlink:href="#OpenSans-Regular-6f"/>
       <use x="1073.925781" xlink:href="#OpenSans-Regular-72"/>
       <use x="1114.794922" xlink:href="#OpenSans-Regular-63"/>
       <use x="1162.695312" xlink:href="#OpenSans-Regular-65"/>
       <use x="1218.847656" xlink:href="#OpenSans-Regular-6d"/>
       <use x="1311.425781" xlink:href="#OpenSans-Regular-65"/>
       <use x="1367.578125" xlink:href="#OpenSans-Regular-6e"/>
       <use x="1428.90625" xlink:href="#OpenSans-Regular-74"/>
      </g>
     </g>
    </g>
    <g id="ytick_10">
     <g id="text_13">
      <!-- Military mobilization -->
      <g style="fill:#565e69;" transform="translate(147.08625 48.018394)scale(0.12 -0.12)">
       <defs>
        <path d="M 2634 0 
L 1100 4044 
L 1075 4044 
Q 1088 3916 1097 3731 
Q 1106 3547 1112 3330 
Q 1119 3113 1119 2888 
L 1119 0 
L 625 0 
L 625 4569 
L 1413 4569 
L 2859 769 
L 2881 769 
L 4350 4569 
L 5131 4569 
L 5131 0 
L 4606 0 
L 4606 2925 
Q 4606 3128 4612 3333 
Q 4619 3538 4628 3720 
Q 4638 3903 4647 4038 
L 4622 4038 
L 3069 0 
L 2634 0 
z
" id="OpenSans-Regular-4d" transform="scale(0.015625)"/>
       </defs>
       <use xlink:href="#OpenSans-Regular-4d"/>
       <use x="89.941406" xlink:href="#OpenSans-Regular-69"/>
       <use x="115.185547" xlink:href="#OpenSans-Regular-6c"/>
       <use x="140.429688" xlink:href="#OpenSans-Regular-69"/>
       <use x="165.673828" xlink:href="#OpenSans-Regular-74"/>
       <use x="201.318359" xlink:href="#OpenSans-Regular-61"/>
       <use x="256.884766" xlink:href="#OpenSans-Regular-72"/>
       <use x="297.753906" xlink:href="#OpenSans-Regular-79"/>
       <use x="347.851562" xlink:href="#OpenSans-Regular-20"/>
       <use x="373.828125" xlink:href="#OpenSans-Regular-6d"/>
       <use x="466.40625" xlink:href="#OpenSans-Regular-6f"/>
       <use x="526.5625" xlink:href="#OpenSans-Regular-62"/>
       <use x="587.744141" xlink:href="#OpenSans-Regular-69"/>
       <use x="612.988281" xlink:href="#OpenSans-Regular-6c"/>
       <use x="638.232422" xlink:href="#OpenSans-Regular-69"/>
       <use x="663.476562" xlink:href="#OpenSans-Regular-7a"/>
       <use x="710.351562" xlink:href="#OpenSans-Regular-61"/>
       <use x="765.917969" xlink:href="#OpenSans-Regular-74"/>
       <use x="801.5625" xlink:href="#OpenSans-Regular-69"/>
       <use x="826.806641" xlink:href="#OpenSans-Regular-6f"/>
       <use x="886.962891" xlink:href="#OpenSans-Regular-6e"/>
      </g>
     </g>
    </g>
   </g>
   <g id="PathCollection_1">
    <path clip-path="url(#p6138a61471)" d="M 469.509375 600.358601 
C 472.959479 600.358601 476.26874 598.98786 478.708332 596.548268 
C 481.147923 594.108677 482.518664 590.799416 482.518664 587.349312 
C 482.518664 583.899208 481.147923 580.589947 478.708332 578.150355 
C 476.26874 575.710763 472.959479 574.340023 469.509375 574.340023 
C 466.059271 574.340023 462.75001 575.710763 460.310418 578.150355 
C 457.870827 580.589947 456.500086 583.899208 456.500086 587.349312 
C 456.500086 590.799416 457.870827 594.108677 460.310418 596.548268 
C 462.75001 598.98786 466.059271 600.358601 469.509375 600.358601 
z
" style="fill:#eea45f;stroke:#eea45f;stroke-width:1.5;"/>
    <path clip-path="url(#p6138a61471)" d="M 469.509375 552.731988 
C 476.355565 552.731988 482.922275 550.011968 487.763263 545.17098 
C 492.604251 540.329992 495.324271 533.763282 495.324271 526.917092 
C 495.324271 520.070901 492.604251 513.504192 487.763263 508.663204 
C 482.922275 503.822216 476.355565 501.102196 469.509375 501.102196 
C 462.663185 501.102196 456.096475 503.822216 451.255487 508.663204 
C 446.414499 513.504192 443.694479 520.070901 443.694479 526.917092 
C 443.694479 533.763282 446.414499 540.329992 451.255487 545.17098 
C 456.096475 550.011968 462.663185 552.731988 469.509375 552.731988 
z
" style="fill:#eea45f;stroke:#eea45f;stroke-width:1.5;"/>
    <path clip-path="url(#p6138a61471)" d="M 469.509375 472.575818 
C 471.124713 472.575818 472.674108 471.934038 473.816324 470.791821 
C 474.958541 469.649605 475.600321 468.10021 475.600321 466.484872 
C 475.600321 464.869534 474.958541 463.320139 473.816324 462.177922 
C 472.674108 461.035706 471.124713 460.393926 469.509375 460.393926 
C 467.894037 460.393926 466.344642 461.035706 465.202426 462.177922 
C 464.060209 463.320139 463.418429 464.869534 463.418429 466.484872 
C 463.418429 468.10021 464.060209 469.649605 465.202426 470.791821 
C 466.344642 471.934038 467.894037 472.575818 469.509375 472.575818 
z
" style="fill:#eea45f;stroke:#eea45f;stroke-width:1.5;"/>
    <path clip-path="url(#p6138a61471)" d="M 469.509375 429.743995 
C 475.792393 429.743995 481.81892 427.247725 486.261684 422.804961 
C 490.704449 418.362197 493.200718 412.335669 493.200718 406.052652 
C 493.200718 399.769634 490.704449 393.743107 486.261684 389.300343 
C 481.81892 384.857578 475.792393 382.361309 469.509375 382.361309 
C 463.226357 382.361309 457.19983 384.857578 452.757066 389.300343 
C 448.314301 393.743107 445.818032 399.769634 445.818032 406.052652 
C 445.818032 412.335669 448.314301 418.362197 452.757066 422.804961 
C 457.19983 427.247725 463.226357 429.743995 469.509375 429.743995 
z
" style="fill:#eea45f;stroke:#eea45f;stroke-width:1.5;"/>
    <path clip-path="url(#p6138a61471)" d="M 469.509375 369.783459 
C 475.917485 369.783459 482.063998 367.23749 486.595215 362.706272 
C 491.126433 358.175055 493.672402 352.028542 493.672402 345.620432 
C 493.672402 339.212322 491.126433 333.065809 486.595215 328.534591 
C 482.063998 324.003374 475.917485 321.457405 469.509375 321.457405 
C 463.101265 321.457405 456.954752 324.003374 452.423535 328.534591 
C 447.892317 333.065809 445.346348 339.212322 445.346348 345.620432 
C 445.346348 352.028542 447.892317 358.175055 452.423535 362.706272 
C 456.954752 367.23749 463.101265 369.783459 469.509375 369.783459 
z
" style="fill:#eea45f;stroke:#eea45f;stroke-width:1.5;"/>
    <path clip-path="url(#p6138a61471)" d="M 469.509375 285.188212 
C 469.509375 285.188212 469.509375 285.188212 469.509375 285.188212 
C 469.509375 285.188212 469.509375 285.188212 469.509375 285.188212 
C 469.509375 285.188212 469.509375 285.188212 469.509375 285.188212 
C 469.509375 285.188212 469.509375 285.188212 469.509375 285.188212 
C 469.509375 285.188212 469.509375 285.188212 469.509375 285.188212 
C 469.509375 285.188212 469.509375 285.188212 469.509375 285.188212 
C 469.509375 285.188212 469.509375 285.188212 469.509375 285.188212 
C 469.509375 285.188212 469.509375 285.188212 469.509375 285.188212 
z
" style="fill:#eea45f;stroke:#eea45f;stroke-width:1.5;"/>
    <path clip-path="url(#p6138a61471)" d="M 469.509375 236.326112 
C 472.577807 236.326112 475.520976 235.107011 477.690685 232.937302 
C 479.860394 230.767593 481.079495 227.824424 481.079495 224.755992 
C 481.079495 221.68756 479.860394 218.744391 477.690685 216.574682 
C 475.520976 214.404973 472.577807 213.185872 469.509375 213.185872 
C 466.440943 213.185872 463.497774 214.404973 461.328065 216.574682 
C 459.158356 218.744391 457.939255 221.68756 457.939255 224.755992 
C 457.939255 227.824424 459.158356 230.767593 461.328065 232.937302 
C 463.497774 235.107011 466.440943 236.326112 469.509375 236.326112 
z
" style="fill:#eea45f;stroke:#eea45f;stroke-width:1.5;"/>
    <path clip-path="url(#p6138a61471)" d="M 469.509375 178.786087 
C 473.344826 178.786087 477.023703 177.262246 479.735776 174.550173 
C 482.447849 171.8381 483.97169 168.159223 483.97169 164.323772 
C 483.97169 160.488321 482.447849 156.809444 479.735776 154.097371 
C 477.023703 151.385298 473.344826 149.861457 469.509375 149.861457 
C 465.673924 149.861457 461.995047 151.385298 459.282974 154.097371 
C 456.570901 156.809444 455.04706 160.488321 455.04706 164.323772 
C 455.04706 168.159223 456.570901 171.8381 459.282974 174.550173 
C 461.995047 177.262246 465.673924 178.786087 469.509375 178.786087 
z
" style="fill:#eea45f;stroke:#eea45f;stroke-width:1.5;"/>
    <path clip-path="url(#p6138a61471)" d="M 469.509375 121.045799 
C 474.058735 121.045799 478.422377 119.238319 481.63926 116.021436 
C 484.856142 112.804554 486.663622 108.440911 486.663622 103.891552 
C 486.663622 99.342192 484.856142 94.97855 481.63926 91.761667 
C 478.422377 88.544784 474.058735 86.737305 469.509375 86.737305 
C 464.960015 86.737305 460.596373 88.544784 457.37949 91.761667 
C 454.162608 94.97855 452.355128 99.342192 452.355128 103.891552 
C 452.355128 108.440911 454.162608 112.804554 457.37949 116.021436 
C 460.596373 119.238319 464.960015 121.045799 469.509375 121.045799 
z
" style="fill:#eea45f;stroke:#eea45f;stroke-width:1.5;"/>
    <path clip-path="url(#p6138a61471)" d="M 663.133125 593.971528 
C 664.889357 593.971528 666.573895 593.273769 667.815739 592.031926 
C 669.057583 590.790082 669.755341 589.105544 669.755341 587.349312 
C 669.755341 585.59308 669.057583 583.908542 667.815739 582.666698 
C 666.573895 581.424854 664.889357 580.727096 663.133125 580.727096 
C 661.376893 580.727096 659.692355 581.424854 658.450511 582.666698 
C 657.208667 583.908542 656.510909 585.59308 656.510909 587.349312 
C 656.510909 589.105544 657.208667 590.790082 658.450511 592.031926 
C 659.692355 593.273769 661.376893 593.971528 663.133125 593.971528 
z
" style="fill:#87bbd8;stroke:#87bbd8;stroke-width:1.5;"/>
    <path clip-path="url(#p6138a61471)" d="M 663.133125 538.745241 
C 666.269987 538.745241 669.278793 537.498952 671.496889 535.280856 
C 673.714985 533.06276 674.961274 530.053954 674.961274 526.917092 
C 674.961274 523.78023 673.714985 520.771424 671.496889 518.553328 
C 669.278793 516.335231 666.269987 515.088943 663.133125 515.088943 
C 659.996263 515.088943 656.987457 516.335231 654.769361 518.553328 
C 652.551265 520.771424 651.304976 523.78023 651.304976 526.917092 
C 651.304976 530.053954 652.551265 533.06276 654.769361 535.280856 
C 656.987457 537.498952 659.996263 538.745241 663.133125 538.745241 
z
" style="fill:#87bbd8;stroke:#87bbd8;stroke-width:1.5;"/>
    <path clip-path="url(#p6138a61471)" d="M 663.133125 473.593807 
C 665.018437 473.593807 666.826785 472.844765 668.159901 471.511648 
C 669.493018 470.178531 670.24206 468.370183 670.24206 466.484872 
C 670.24206 464.59956 669.493018 462.791212 668.159901 461.458096 
C 666.826785 460.124979 665.018437 459.375937 663.133125 459.375937 
C 661.247813 459.375937 659.439465 460.124979 658.106349 461.458096 
C 656.773232 462.791212 656.02419 464.59956 656.02419 466.484872 
C 656.02419 468.370183 656.773232 470.178531 658.106349 471.511648 
C 659.439465 472.844765 661.247813 473.593807 663.133125 473.593807 
z
" style="fill:#87bbd8;stroke:#87bbd8;stroke-width:1.5;"/>
    <path clip-path="url(#p6138a61471)" d="M 663.133125 424.104251 
C 667.920465 424.104251 672.512372 422.20222 675.897533 418.81706 
C 679.282693 415.431899 681.184724 410.839992 681.184724 406.052652 
C 681.184724 401.265312 679.282693 396.673405 675.897533 393.288244 
C 672.512372 389.903083 667.920465 388.001053 663.133125 388.001053 
C 658.345785 388.001053 653.753878 389.903083 650.368717 393.288244 
C 646.983557 396.673405 645.081526 401.265312 645.081526 406.052652 
C 645.081526 410.839992 646.983557 415.431899 650.368717 418.81706 
C 653.753878 422.20222 658.345785 424.104251 663.133125 424.104251 
z
" style="fill:#87bbd8;stroke:#87bbd8;stroke-width:1.5;"/>
    <path clip-path="url(#p6138a61471)" d="M 663.133125 43.740908 
C 663.2078 43.740908 663.279426 43.711239 663.332229 43.658436 
C 663.385032 43.605633 663.414701 43.534007 663.414701 43.459332 
C 663.414701 43.384657 663.385032 43.313031 663.332229 43.260228 
C 663.279426 43.207425 663.2078 43.177756 663.133125 43.177756 
C 663.05845 43.177756 662.986824 43.207425 662.934021 43.260228 
C 662.881218 43.313031 662.851549 43.384657 662.851549 43.459332 
C 662.851549 43.534007 662.881218 43.605633 662.934021 43.658436 
C 662.986824 43.711239 663.05845 43.740908 663.133125 43.740908 
z
" style="fill:#87bbd8;stroke:#87bbd8;stroke-width:1.5;"/>
    <path clip-path="url(#p6138a61471)" d="M 663.133125 357.327029 
C 666.237751 357.327029 669.215637 356.093548 671.41094 353.898246 
C 673.606242 351.702944 674.839723 348.725058 674.839723 345.620432 
C 674.839723 342.515806 673.606242 339.537919 671.41094 337.342617 
C 669.215637 335.147315 666.237751 333.913834 663.133125 333.913834 
C 660.028499 333.913834 657.050613 335.147315 654.85531 337.342617 
C 652.660008 339.537919 651.426527 342.515806 651.426527 345.620432 
C 651.426527 348.725058 652.660008 351.702944 654.85531 353.898246 
C 657.050613 356.093548 660.028499 357.327029 663.133125 357.327029 
z
" style="fill:#87bbd8;stroke:#87bbd8;stroke-width:1.5;"/>
    <path clip-path="url(#p6138a61471)" d="M 663.133125 290.333386 
C 664.497641 290.333386 665.806454 289.791258 666.771313 288.8264 
C 667.736171 287.861541 668.278299 286.552728 668.278299 285.188212 
C 668.278299 283.823696 667.736171 282.514883 666.771313 281.550024 
C 665.806454 280.585166 664.497641 280.043037 663.133125 280.043037 
C 661.768609 280.043037 660.459796 280.585166 659.494937 281.550024 
C 658.530079 282.514883 657.987951 283.823696 657.987951 285.188212 
C 657.987951 286.552728 658.530079 287.861541 659.494937 288.8264 
C 660.459796 289.791258 661.768609 290.333386 663.133125 290.333386 
z
" style="fill:#87bbd8;stroke:#87bbd8;stroke-width:1.5;"/>
    <path clip-path="url(#p6138a61471)" d="M 663.133125 227.054917 
C 663.742807 227.054917 664.3276 226.812688 664.758711 226.381578 
C 665.189821 225.950467 665.432051 225.365674 665.432051 224.755992 
C 665.432051 224.14631 665.189821 223.561516 664.758711 223.130406 
C 664.3276 222.699296 663.742807 222.457066 663.133125 222.457066 
C 662.523443 222.457066 661.93865 222.699296 661.507539 223.130406 
C 661.076429 223.561516 660.834199 224.14631 660.834199 224.755992 
C 660.834199 225.365674 661.076429 225.950467 661.507539 226.381578 
C 661.93865 226.812688 662.523443 227.054917 663.133125 227.054917 
z
" style="fill:#87bbd8;stroke:#87bbd8;stroke-width:1.5;"/>
    <path clip-path="url(#p6138a61471)" d="M 663.133125 167.703281 
C 664.029381 167.703281 664.88905 167.347195 665.522799 166.713446 
C 666.156548 166.079697 666.512634 165.220028 666.512634 164.323772 
C 666.512634 163.427516 666.156548 162.567847 665.522799 161.934098 
C 664.88905 161.300349 664.029381 160.944263 663.133125 160.944263 
C 662.236869 160.944263 661.3772 161.300349 660.743451 161.934098 
C 660.109702 162.567847 659.753616 163.427516 659.753616 164.323772 
C 659.753616 165.220028 660.109702 166.079697 660.743451 166.713446 
C 661.3772 167.347195 662.236869 167.703281 663.133125 167.703281 
z
" style="fill:#87bbd8;stroke:#87bbd8;stroke-width:1.5;"/>
    <path clip-path="url(#p6138a61471)" d="M 663.133125 119.83929 
C 667.362515 119.83929 671.419249 118.158936 674.409879 115.168306 
C 677.400509 112.177676 679.080863 108.120942 679.080863 103.891552 
C 679.080863 99.662162 677.400509 95.605428 674.409879 92.614798 
C 671.419249 89.624168 667.362515 87.943814 663.133125 87.943814 
C 658.903735 87.943814 654.847001 89.624168 651.856371 92.614798 
C 648.865741 95.605428 647.185387 99.662162 647.185387 103.891552 
C 647.185387 108.120942 648.865741 112.177676 651.856371 115.168306 
C 654.847001 118.158936 658.903735 119.83929 663.133125 119.83929 
z
" style="fill:#87bbd8;stroke:#87bbd8;stroke-width:1.5;"/>
    <path clip-path="url(#p6138a61471)" d="M 856.756875 614.698074 
C 864.009852 614.698074 870.966741 611.816436 876.09537 606.687807 
C 881.223999 601.559178 884.105637 594.602288 884.105637 587.349312 
C 884.105637 580.096335 881.223999 573.139445 876.09537 568.010816 
C 870.966741 562.882188 864.009852 560.000549 856.756875 560.000549 
C 849.503898 560.000549 842.547009 562.882188 837.41838 568.010816 
C 832.289751 573.139445 829.408113 580.096335 829.408113 587.349312 
C 829.408113 594.602288 832.289751 601.559178 837.41838 606.687807 
C 842.547009 611.816436 849.503898 614.698074 856.756875 614.698074 
z
" style="fill:#d6d9de;stroke:#d6d9de;stroke-width:1.5;"/>
    <path clip-path="url(#p6138a61471)" d="M 856.756875 539.356392 
C 860.055816 539.356392 863.220085 538.045709 865.552789 535.713006 
C 867.885492 533.380302 869.196175 530.216033 869.196175 526.917092 
C 869.196175 523.618151 867.885492 520.453882 865.552789 518.121178 
C 863.220085 515.788475 860.055816 514.477791 856.756875 514.477791 
C 853.457934 514.477791 850.293665 515.788475 847.960961 518.121178 
C 845.628258 520.453882 844.317575 523.618151 844.317575 526.917092 
C 844.317575 530.216033 845.628258 533.380302 847.960961 535.713006 
C 850.293665 538.045709 853.457934 539.356392 856.756875 539.356392 
z
" style="fill:#d6d9de;stroke:#d6d9de;stroke-width:1.5;"/>
    <path clip-path="url(#p6138a61471)" d="M 856.756875 496.038443 
C 864.594574 496.038443 872.112316 492.924492 877.654406 487.382402 
C 883.196495 481.840313 886.310446 474.322571 886.310446 466.484872 
C 886.310446 458.647173 883.196495 451.129431 877.654406 445.587341 
C 872.112316 440.045251 864.594574 436.931301 856.756875 436.931301 
C 848.919176 436.931301 841.401434 440.045251 835.859344 445.587341 
C 830.317255 451.129431 827.203304 458.647173 827.203304 466.484872 
C 827.203304 474.322571 830.317255 481.840313 835.859344 487.382402 
C 841.401434 492.924492 848.919176 496.038443 856.756875 496.038443 
z
" style="fill:#d6d9de;stroke:#d6d9de;stroke-width:1.5;"/>
    <path clip-path="url(#p6138a61471)" d="M 856.756875 414.649757 
C 859.036854 414.649757 861.223758 413.743911 862.835946 412.131723 
C 864.448135 410.519534 865.35398 408.332631 865.35398 406.052652 
C 865.35398 403.772673 864.448135 401.585769 862.835946 399.973581 
C 861.223758 398.361392 859.036854 397.455547 856.756875 397.455547 
C 854.476896 397.455547 852.289992 398.361392 850.677804 399.973581 
C 849.065615 401.585769 848.15977 403.772673 848.15977 406.052652 
C 848.15977 408.332631 849.065615 410.519534 850.677804 412.131723 
C 852.289992 413.743911 854.476896 414.649757 856.756875 414.649757 
z
" style="fill:#d6d9de;stroke:#d6d9de;stroke-width:1.5;"/>
    <path clip-path="url(#p6138a61471)" d="M 856.756875 74.772269 
C 865.061163 74.772269 873.026447 71.47294 878.898465 65.600922 
C 884.770483 59.728904 888.069812 51.76362 888.069812 43.459332 
C 888.069812 35.155044 884.770483 27.18976 878.898465 21.317742 
C 873.026447 15.445724 865.061163 12.146395 856.756875 12.146395 
C 848.452587 12.146395 840.487303 15.445724 834.615285 21.317742 
C 828.743267 27.18976 825.443938 35.155044 825.443938 43.459332 
C 825.443938 51.76362 828.743267 59.728904 834.615285 65.600922 
C 840.487303 71.47294 848.452587 74.772269 856.756875 74.772269 
z
" style="fill:#d6d9de;stroke:#d6d9de;stroke-width:1.5;"/>
    <path clip-path="url(#p6138a61471)" d="M 856.756875 361.11733 
C 860.8667 361.11733 864.808751 359.484479 867.714837 356.578393 
C 870.620922 353.672308 872.253773 349.730257 872.253773 345.620432 
C 872.253773 341.510607 870.620922 337.568556 867.714837 334.66247 
C 864.808751 331.756385 860.8667 330.123534 856.756875 330.123534 
C 852.64705 330.123534 848.704999 331.756385 845.798913 334.66247 
C 842.892828 337.568556 841.259977 341.510607 841.259977 345.620432 
C 841.259977 349.730257 842.892828 353.672308 845.798913 356.578393 
C 848.704999 359.484479 852.64705 361.11733 856.756875 361.11733 
z
" style="fill:#d6d9de;stroke:#d6d9de;stroke-width:1.5;"/>
    <path clip-path="url(#p6138a61471)" d="M 856.756875 315.75907 
C 864.864361 315.75907 872.640877 312.537931 878.373736 306.805073 
C 884.106594 301.072214 887.327733 293.295698 887.327733 285.188212 
C 887.327733 277.080726 884.106594 269.30421 878.373736 263.571351 
C 872.640877 257.838493 864.864361 254.617354 856.756875 254.617354 
C 848.649389 254.617354 840.872873 257.838493 835.140014 263.571351 
C 829.407156 269.30421 826.186017 277.080726 826.186017 285.188212 
C 826.186017 293.295698 829.407156 301.072214 835.140014 306.805073 
C 840.872873 312.537931 848.649389 315.75907 856.756875 315.75907 
z
" style="fill:#d6d9de;stroke:#d6d9de;stroke-width:1.5;"/>
    <path clip-path="url(#p6138a61471)" d="M 856.756875 253.424745 
C 864.359917 253.424745 871.652582 250.404025 877.028745 245.027862 
C 882.404908 239.651699 885.425629 232.359034 885.425629 224.755992 
C 885.425629 217.15295 882.404908 209.860285 877.028745 204.484122 
C 871.652582 199.107959 864.359917 196.087238 856.756875 196.087238 
C 849.153833 196.087238 841.861168 199.107959 836.485005 204.484122 
C 831.108842 209.860285 828.088121 217.15295 828.088121 224.755992 
C 828.088121 232.359034 831.108842 239.651699 836.485005 245.027862 
C 841.861168 250.404025 849.153833 253.424745 856.756875 253.424745 
z
" style="fill:#d6d9de;stroke:#d6d9de;stroke-width:1.5;"/>
    <path clip-path="url(#p6138a61471)" d="M 856.756875 191.53536 
C 863.973473 191.53536 870.895468 188.668175 875.998373 183.56527 
C 881.101278 178.462365 883.968463 171.540369 883.968463 164.323772 
C 883.968463 157.107174 881.101278 150.185179 875.998373 145.082274 
C 870.895468 139.979368 863.973473 137.112184 856.756875 137.112184 
C 849.540277 137.112184 842.618282 139.979368 837.515377 145.082274 
C 832.412472 150.185179 829.545287 157.107174 829.545287 164.323772 
C 829.545287 171.540369 832.412472 178.462365 837.515377 183.56527 
C 842.618282 188.668175 849.540277 191.53536 856.756875 191.53536 
z
" style="fill:#d6d9de;stroke:#d6d9de;stroke-width:1.5;"/>
    <path clip-path="url(#p6138a61471)" d="M 856.756875 124.200457 
C 862.142859 124.200457 867.308973 122.060582 871.117439 118.252116 
C 874.925905 114.44365 877.06578 109.277536 877.06578 103.891552 
C 877.06578 98.505568 874.925905 93.339454 871.117439 89.530988 
C 867.308973 85.722522 862.142859 83.582647 856.756875 83.582647 
C 851.370891 83.582647 846.204777 85.722522 842.396311 89.530988 
C 838.587845 93.339454 836.44797 98.505568 836.44797 103.891552 
C 836.44797 109.277536 838.587845 114.44365 842.396311 118.252116 
C 846.204777 122.060582 851.370891 124.200457 856.756875 124.200457 
z
" style="fill:#d6d9de;stroke:#d6d9de;stroke-width:1.5;"/>
   </g>
   <g id="patch_3">
    <path d="M 275.885625 632.673477 
L 275.885625 7.2 
" style="fill:none;stroke:#caced3;stroke-linecap:square;stroke-linejoin:miter;"/>
   </g>
   <g id="patch_4">
    <path d="M 275.885625 632.673477 
L 1050.380625 632.673477 
" style="fill:none;stroke:#caced3;stroke-linecap:square;stroke-linejoin:miter;"/>
   </g>
  </g>
 </g>
 <defs>
  <clipPath id="p6138a61471">
   <rect height="625.473477" width="774.495" x="275.885625" y="7.2"/>
  </clipPath>
 </defs>
</svg>
