<?xml version="1.0" encoding="utf-8" standalone="no"?>
<!DOCTYPE svg PUBLIC "-//W3C//DTD SVG 1.1//EN"
  "http://www.w3.org/Graphics/SVG/1.1/DTD/svg11.dtd">
<svg height="406.351875pt" version="1.1" viewBox="0 0 1143.372 406.351875" width="1143.372pt" xmlns="http://www.w3.org/2000/svg" xmlns:xlink="http://www.w3.org/1999/xlink">
 <metadata>
  <rdf:RDF xmlns:cc="http://creativecommons.org/ns#" xmlns:dc="http://purl.org/dc/elements/1.1/" xmlns:rdf="http://www.w3.org/1999/02/22-rdf-syntax-ns#">
   <cc:Work>
    <dc:type rdf:resource="http://purl.org/dc/dcmitype/StillImage"/>
    <dc:date>2023-04-03T11:10:47.260917</dc:date>
    <dc:format>image/svg+xml</dc:format>
    <dc:creator>
     <cc:Agent>
      <dc:title>Matplotlib v3.4.3, https://matplotlib.org/</dc:title>
     </cc:Agent>
    </dc:creator>
   </cc:Work>
  </rdf:RDF>
 </metadata>
 <defs>
  <style type="text/css">*{stroke-linecap:butt;stroke-linejoin:round;}</style>
 </defs>
 <g id="figure_1">
  <g id="patch_1">
   <path d="M 0 406.351875 
L 1143.372 406.351875 
L 1143.372 0 
L 0 0 
z
" style="fill:#ffffff;"/>
  </g>
  <g id="axes_1">
   <g id="patch_2">
    <path d="M 7.2 378.663125 
L 1011.6 378.663125 
L 1011.6 52.503125 
L 7.2 52.503125 
z
" style="fill:#ffffff;"/>
   </g>
   <g id="matplotlib.axis_1">
    <g id="xtick_1">
     <g id="line2d_1">
      <defs>
       <path d="M 0 0 
L 0 5 
" id="m652698476c" style="stroke:#caced3;stroke-width:0.5;"/>
      </defs>
      <g>
       <use style="fill:#caced3;stroke:#caced3;stroke-width:0.5;" x="84.981818" xlink:href="#m652698476c" y="378.663125"/>
      </g>
     </g>
     <g id="text_1">
      <!-- 2020 -->
      <g style="fill:#565e69;" transform="translate(71.260568 396.28125)scale(0.12 -0.12)">
       <defs>
        <path d="M 3309 0 
L 316 0 
L 316 434 
L 1538 1675 
Q 1878 2019 2111 2287 
Q 2344 2556 2466 2817 
Q 2588 3078 2588 3391 
Q 2588 3778 2358 3983 
Q 2128 4188 1753 4188 
Q 1425 4188 1172 4075 
Q 919 3963 653 3756 
L 375 4106 
Q 556 4259 770 4378 
Q 984 4497 1229 4565 
Q 1475 4634 1753 4634 
Q 2175 4634 2481 4487 
Q 2788 4341 2955 4069 
Q 3122 3797 3122 3422 
Q 3122 3059 2978 2748 
Q 2834 2438 2575 2133 
Q 2316 1828 1969 1488 
L 975 497 
L 975 475 
L 3309 475 
L 3309 0 
z
" id="OpenSans-Regular-32" transform="scale(0.015625)"/>
        <path d="M 3334 2291 
Q 3334 1734 3250 1296 
Q 3166 859 2984 556 
Q 2803 253 2515 95 
Q 2228 -63 1825 -63 
Q 1316 -63 983 215 
Q 650 494 486 1020 
Q 322 1547 322 2291 
Q 322 3022 470 3548 
Q 619 4075 950 4358 
Q 1281 4641 1825 4641 
Q 2341 4641 2675 4361 
Q 3009 4081 3171 3554 
Q 3334 3028 3334 2291 
z
M 844 2291 
Q 844 1653 941 1228 
Q 1038 803 1255 592 
Q 1472 381 1825 381 
Q 2178 381 2395 590 
Q 2613 800 2711 1225 
Q 2809 1650 2809 2291 
Q 2809 2919 2712 3342 
Q 2616 3766 2400 3980 
Q 2184 4194 1825 4194 
Q 1466 4194 1250 3980 
Q 1034 3766 939 3342 
Q 844 2919 844 2291 
z
" id="OpenSans-Regular-30" transform="scale(0.015625)"/>
       </defs>
       <use xlink:href="#OpenSans-Regular-32"/>
       <use x="57.177734" xlink:href="#OpenSans-Regular-30"/>
       <use x="114.355469" xlink:href="#OpenSans-Regular-32"/>
       <use x="171.533203" xlink:href="#OpenSans-Regular-30"/>
      </g>
     </g>
    </g>
    <g id="xtick_2">
     <g id="line2d_2">
      <g>
       <use style="fill:#caced3;stroke:#caced3;stroke-width:0.5;" x="394.418182" xlink:href="#m652698476c" y="378.663125"/>
      </g>
     </g>
     <g id="text_2">
      <!-- 2021 -->
      <g style="fill:#565e69;" transform="translate(380.696932 396.28125)scale(0.12 -0.12)">
       <defs>
        <path d="M 2247 0 
L 1741 0 
L 1741 3238 
Q 1741 3422 1742 3555 
Q 1744 3688 1748 3798 
Q 1753 3909 1763 4025 
Q 1666 3925 1581 3854 
Q 1497 3784 1372 3681 
L 850 3263 
L 578 3616 
L 1816 4569 
L 2247 4569 
L 2247 0 
z
" id="OpenSans-Regular-31" transform="scale(0.015625)"/>
       </defs>
       <use xlink:href="#OpenSans-Regular-32"/>
       <use x="57.177734" xlink:href="#OpenSans-Regular-30"/>
       <use x="114.355469" xlink:href="#OpenSans-Regular-32"/>
       <use x="171.533203" xlink:href="#OpenSans-Regular-31"/>
      </g>
     </g>
    </g>
    <g id="xtick_3">
     <g id="line2d_3">
      <g>
       <use style="fill:#caced3;stroke:#caced3;stroke-width:0.5;" x="703.009091" xlink:href="#m652698476c" y="378.663125"/>
      </g>
     </g>
     <g id="text_3">
      <!-- 2022 -->
      <g style="fill:#565e69;" transform="translate(689.287841 396.28125)scale(0.12 -0.12)">
       <use xlink:href="#OpenSans-Regular-32"/>
       <use x="57.177734" xlink:href="#OpenSans-Regular-30"/>
       <use x="114.355469" xlink:href="#OpenSans-Regular-32"/>
       <use x="171.533203" xlink:href="#OpenSans-Regular-32"/>
      </g>
     </g>
    </g>
    <g id="xtick_4">
     <g id="line2d_4">
      <g>
       <use style="fill:#caced3;stroke:#caced3;stroke-width:0.5;" x="1011.6" xlink:href="#m652698476c" y="378.663125"/>
      </g>
     </g>
     <g id="text_4">
      <!-- 2023 -->
      <g style="fill:#565e69;" transform="translate(997.87875 396.28125)scale(0.12 -0.12)">
       <defs>
        <path d="M 3141 3503 
Q 3141 3197 3022 2972 
Q 2903 2747 2690 2605 
Q 2478 2463 2191 2406 
L 2191 2381 
Q 2734 2313 3007 2031 
Q 3281 1750 3281 1294 
Q 3281 897 3095 590 
Q 2909 284 2526 110 
Q 2144 -63 1547 -63 
Q 1184 -63 876 -5 
Q 569 53 288 188 
L 288 675 
Q 572 534 906 454 
Q 1241 375 1553 375 
Q 2178 375 2456 623 
Q 2734 872 2734 1303 
Q 2734 1600 2579 1783 
Q 2425 1966 2136 2052 
Q 1847 2138 1441 2138 
L 984 2138 
L 984 2581 
L 1444 2581 
Q 1816 2581 2075 2690 
Q 2334 2800 2470 2998 
Q 2606 3197 2606 3469 
Q 2606 3816 2375 4005 
Q 2144 4194 1747 4194 
Q 1503 4194 1303 4144 
Q 1103 4094 928 4006 
Q 753 3919 578 3803 
L 316 4159 
Q 566 4353 925 4493 
Q 1284 4634 1741 4634 
Q 2441 4634 2791 4315 
Q 3141 3997 3141 3503 
z
" id="OpenSans-Regular-33" transform="scale(0.015625)"/>
       </defs>
       <use xlink:href="#OpenSans-Regular-32"/>
       <use x="57.177734" xlink:href="#OpenSans-Regular-30"/>
       <use x="114.355469" xlink:href="#OpenSans-Regular-32"/>
       <use x="171.533203" xlink:href="#OpenSans-Regular-33"/>
      </g>
     </g>
    </g>
    <g id="xtick_5">
     <g id="line2d_5">
      <defs>
       <path d="M 0 0 
L 0 6 
" id="md8b2fa7d87" style="stroke:#caced3;stroke-width:0.5;"/>
      </defs>
      <g>
       <use style="fill:#caced3;stroke:#caced3;stroke-width:0.5;" x="7.2" xlink:href="#md8b2fa7d87" y="378.663125"/>
      </g>
     </g>
    </g>
    <g id="xtick_6">
     <g id="line2d_6">
      <g>
       <use style="fill:#caced3;stroke:#caced3;stroke-width:0.5;" x="33.409091" xlink:href="#md8b2fa7d87" y="378.663125"/>
      </g>
     </g>
    </g>
    <g id="xtick_7">
     <g id="line2d_7">
      <g>
       <use style="fill:#caced3;stroke:#caced3;stroke-width:0.5;" x="58.772727" xlink:href="#md8b2fa7d87" y="378.663125"/>
      </g>
     </g>
    </g>
    <g id="xtick_8">
     <g id="line2d_8">
      <g>
       <use style="fill:#caced3;stroke:#caced3;stroke-width:0.5;" x="111.190909" xlink:href="#md8b2fa7d87" y="378.663125"/>
      </g>
     </g>
    </g>
    <g id="xtick_9">
     <g id="line2d_9">
      <g>
       <use style="fill:#caced3;stroke:#caced3;stroke-width:0.5;" x="135.709091" xlink:href="#md8b2fa7d87" y="378.663125"/>
      </g>
     </g>
    </g>
    <g id="xtick_10">
     <g id="line2d_10">
      <g>
       <use style="fill:#caced3;stroke:#caced3;stroke-width:0.5;" x="161.918182" xlink:href="#md8b2fa7d87" y="378.663125"/>
      </g>
     </g>
    </g>
    <g id="xtick_11">
     <g id="line2d_11">
      <g>
       <use style="fill:#caced3;stroke:#caced3;stroke-width:0.5;" x="187.281818" xlink:href="#md8b2fa7d87" y="378.663125"/>
      </g>
     </g>
    </g>
    <g id="xtick_12">
     <g id="line2d_12">
      <g>
       <use style="fill:#caced3;stroke:#caced3;stroke-width:0.5;" x="213.490909" xlink:href="#md8b2fa7d87" y="378.663125"/>
      </g>
     </g>
    </g>
    <g id="xtick_13">
     <g id="line2d_13">
      <g>
       <use style="fill:#caced3;stroke:#caced3;stroke-width:0.5;" x="238.854545" xlink:href="#md8b2fa7d87" y="378.663125"/>
      </g>
     </g>
    </g>
    <g id="xtick_14">
     <g id="line2d_14">
      <g>
       <use style="fill:#caced3;stroke:#caced3;stroke-width:0.5;" x="265.063636" xlink:href="#md8b2fa7d87" y="378.663125"/>
      </g>
     </g>
    </g>
    <g id="xtick_15">
     <g id="line2d_15">
      <g>
       <use style="fill:#caced3;stroke:#caced3;stroke-width:0.5;" x="291.272727" xlink:href="#md8b2fa7d87" y="378.663125"/>
      </g>
     </g>
    </g>
    <g id="xtick_16">
     <g id="line2d_16">
      <g>
       <use style="fill:#caced3;stroke:#caced3;stroke-width:0.5;" x="316.636364" xlink:href="#md8b2fa7d87" y="378.663125"/>
      </g>
     </g>
    </g>
    <g id="xtick_17">
     <g id="line2d_17">
      <g>
       <use style="fill:#caced3;stroke:#caced3;stroke-width:0.5;" x="342.845455" xlink:href="#md8b2fa7d87" y="378.663125"/>
      </g>
     </g>
    </g>
    <g id="xtick_18">
     <g id="line2d_18">
      <g>
       <use style="fill:#caced3;stroke:#caced3;stroke-width:0.5;" x="368.209091" xlink:href="#md8b2fa7d87" y="378.663125"/>
      </g>
     </g>
    </g>
    <g id="xtick_19">
     <g id="line2d_19">
      <g>
       <use style="fill:#caced3;stroke:#caced3;stroke-width:0.5;" x="420.627273" xlink:href="#md8b2fa7d87" y="378.663125"/>
      </g>
     </g>
    </g>
    <g id="xtick_20">
     <g id="line2d_20">
      <g>
       <use style="fill:#caced3;stroke:#caced3;stroke-width:0.5;" x="444.3" xlink:href="#md8b2fa7d87" y="378.663125"/>
      </g>
     </g>
    </g>
    <g id="xtick_21">
     <g id="line2d_21">
      <g>
       <use style="fill:#caced3;stroke:#caced3;stroke-width:0.5;" x="470.509091" xlink:href="#md8b2fa7d87" y="378.663125"/>
      </g>
     </g>
    </g>
    <g id="xtick_22">
     <g id="line2d_22">
      <g>
       <use style="fill:#caced3;stroke:#caced3;stroke-width:0.5;" x="495.872727" xlink:href="#md8b2fa7d87" y="378.663125"/>
      </g>
     </g>
    </g>
    <g id="xtick_23">
     <g id="line2d_23">
      <g>
       <use style="fill:#caced3;stroke:#caced3;stroke-width:0.5;" x="522.081818" xlink:href="#md8b2fa7d87" y="378.663125"/>
      </g>
     </g>
    </g>
    <g id="xtick_24">
     <g id="line2d_24">
      <g>
       <use style="fill:#caced3;stroke:#caced3;stroke-width:0.5;" x="547.445455" xlink:href="#md8b2fa7d87" y="378.663125"/>
      </g>
     </g>
    </g>
    <g id="xtick_25">
     <g id="line2d_25">
      <g>
       <use style="fill:#caced3;stroke:#caced3;stroke-width:0.5;" x="573.654545" xlink:href="#md8b2fa7d87" y="378.663125"/>
      </g>
     </g>
    </g>
    <g id="xtick_26">
     <g id="line2d_26">
      <g>
       <use style="fill:#caced3;stroke:#caced3;stroke-width:0.5;" x="599.863636" xlink:href="#md8b2fa7d87" y="378.663125"/>
      </g>
     </g>
    </g>
    <g id="xtick_27">
     <g id="line2d_27">
      <g>
       <use style="fill:#caced3;stroke:#caced3;stroke-width:0.5;" x="625.227273" xlink:href="#md8b2fa7d87" y="378.663125"/>
      </g>
     </g>
    </g>
    <g id="xtick_28">
     <g id="line2d_28">
      <g>
       <use style="fill:#caced3;stroke:#caced3;stroke-width:0.5;" x="651.436364" xlink:href="#md8b2fa7d87" y="378.663125"/>
      </g>
     </g>
    </g>
    <g id="xtick_29">
     <g id="line2d_29">
      <g>
       <use style="fill:#caced3;stroke:#caced3;stroke-width:0.5;" x="676.8" xlink:href="#md8b2fa7d87" y="378.663125"/>
      </g>
     </g>
    </g>
    <g id="xtick_30">
     <g id="line2d_30">
      <g>
       <use style="fill:#caced3;stroke:#caced3;stroke-width:0.5;" x="729.218182" xlink:href="#md8b2fa7d87" y="378.663125"/>
      </g>
     </g>
    </g>
    <g id="xtick_31">
     <g id="line2d_31">
      <g>
       <use style="fill:#caced3;stroke:#caced3;stroke-width:0.5;" x="752.890909" xlink:href="#md8b2fa7d87" y="378.663125"/>
      </g>
     </g>
    </g>
    <g id="xtick_32">
     <g id="line2d_32">
      <g>
       <use style="fill:#caced3;stroke:#caced3;stroke-width:0.5;" x="779.1" xlink:href="#md8b2fa7d87" y="378.663125"/>
      </g>
     </g>
    </g>
    <g id="xtick_33">
     <g id="line2d_33">
      <g>
       <use style="fill:#caced3;stroke:#caced3;stroke-width:0.5;" x="804.463636" xlink:href="#md8b2fa7d87" y="378.663125"/>
      </g>
     </g>
    </g>
    <g id="xtick_34">
     <g id="line2d_34">
      <g>
       <use style="fill:#caced3;stroke:#caced3;stroke-width:0.5;" x="830.672727" xlink:href="#md8b2fa7d87" y="378.663125"/>
      </g>
     </g>
    </g>
    <g id="xtick_35">
     <g id="line2d_35">
      <g>
       <use style="fill:#caced3;stroke:#caced3;stroke-width:0.5;" x="856.036364" xlink:href="#md8b2fa7d87" y="378.663125"/>
      </g>
     </g>
    </g>
    <g id="xtick_36">
     <g id="line2d_36">
      <g>
       <use style="fill:#caced3;stroke:#caced3;stroke-width:0.5;" x="882.245455" xlink:href="#md8b2fa7d87" y="378.663125"/>
      </g>
     </g>
    </g>
    <g id="xtick_37">
     <g id="line2d_37">
      <g>
       <use style="fill:#caced3;stroke:#caced3;stroke-width:0.5;" x="908.454545" xlink:href="#md8b2fa7d87" y="378.663125"/>
      </g>
     </g>
    </g>
    <g id="xtick_38">
     <g id="line2d_38">
      <g>
       <use style="fill:#caced3;stroke:#caced3;stroke-width:0.5;" x="933.818182" xlink:href="#md8b2fa7d87" y="378.663125"/>
      </g>
     </g>
    </g>
    <g id="xtick_39">
     <g id="line2d_39">
      <g>
       <use style="fill:#caced3;stroke:#caced3;stroke-width:0.5;" x="960.027273" xlink:href="#md8b2fa7d87" y="378.663125"/>
      </g>
     </g>
    </g>
    <g id="xtick_40">
     <g id="line2d_40">
      <g>
       <use style="fill:#caced3;stroke:#caced3;stroke-width:0.5;" x="985.390909" xlink:href="#md8b2fa7d87" y="378.663125"/>
      </g>
     </g>
    </g>
   </g>
   <g id="matplotlib.axis_2">
    <g id="ytick_1">
     <g id="line2d_41">
      <path clip-path="url(#p5d6e9ac922)" d="M 7.2 378.663125 
L 1011.6 378.663125 
" style="fill:none;stroke:#caced3;stroke-dasharray:1.85,0.8;stroke-dashoffset:0;stroke-width:0.5;"/>
     </g>
     <g id="text_5">
      <!-- 0% -->
      <g style="fill:#565e69;" transform="translate(25.41875 375.7925)scale(0.12 -0.12)">
       <defs>
        <path d="M 1247 4634 
Q 1716 4634 1958 4261 
Q 2200 3888 2200 3206 
Q 2200 2525 1965 2145 
Q 1731 1766 1247 1766 
Q 797 1766 558 2145 
Q 319 2525 319 3206 
Q 319 3888 547 4261 
Q 775 4634 1247 4634 
z
M 1247 4263 
Q 994 4263 875 3998 
Q 756 3734 756 3206 
Q 756 2678 875 2409 
Q 994 2141 1247 2141 
Q 1509 2141 1637 2409 
Q 1766 2678 1766 3206 
Q 1766 3731 1639 3997 
Q 1513 4263 1247 4263 
z
M 4141 4569 
L 1606 0 
L 1150 0 
L 3684 4569 
L 4141 4569 
z
M 4019 2803 
Q 4484 2803 4728 2429 
Q 4972 2056 4972 1375 
Q 4972 697 4737 317 
Q 4503 -63 4019 -63 
Q 3566 -63 3328 317 
Q 3091 697 3091 1375 
Q 3091 2056 3317 2429 
Q 3544 2803 4019 2803 
z
M 4019 2428 
Q 3766 2428 3647 2165 
Q 3528 1903 3528 1375 
Q 3528 847 3647 580 
Q 3766 313 4019 313 
Q 4281 313 4409 577 
Q 4538 841 4538 1375 
Q 4538 1900 4411 2164 
Q 4284 2428 4019 2428 
z
" id="OpenSans-Regular-25" transform="scale(0.015625)"/>
       </defs>
       <use xlink:href="#OpenSans-Regular-30"/>
       <use x="57.177734" xlink:href="#OpenSans-Regular-25"/>
      </g>
     </g>
    </g>
    <g id="ytick_2">
     <g id="line2d_42">
      <path clip-path="url(#p5d6e9ac922)" d="M 7.2 313.431125 
L 1011.6 313.431125 
" style="fill:none;stroke:#caced3;stroke-dasharray:1.85,0.8;stroke-dashoffset:0;stroke-width:0.5;"/>
     </g>
     <g id="text_6">
      <!-- 20% -->
      <g style="fill:#565e69;" transform="translate(18.558125 310.5605)scale(0.12 -0.12)">
       <use xlink:href="#OpenSans-Regular-32"/>
       <use x="57.177734" xlink:href="#OpenSans-Regular-30"/>
       <use x="114.355469" xlink:href="#OpenSans-Regular-25"/>
      </g>
     </g>
    </g>
    <g id="ytick_3">
     <g id="line2d_43">
      <path clip-path="url(#p5d6e9ac922)" d="M 7.2 248.199125 
L 1011.6 248.199125 
" style="fill:none;stroke:#caced3;stroke-dasharray:1.85,0.8;stroke-dashoffset:0;stroke-width:0.5;"/>
     </g>
     <g id="text_7">
      <!-- 40% -->
      <g style="fill:#565e69;" transform="translate(18.558125 245.3285)scale(0.12 -0.12)">
       <defs>
        <path d="M 3538 1059 
L 2853 1059 
L 2853 0 
L 2347 0 
L 2347 1059 
L 138 1059 
L 138 1497 
L 2313 4594 
L 2853 4594 
L 2853 1528 
L 3538 1528 
L 3538 1059 
z
M 2347 1528 
L 2347 3022 
Q 2347 3194 2350 3333 
Q 2353 3472 2359 3592 
Q 2366 3713 2370 3822 
Q 2375 3931 2378 4038 
L 2353 4038 
Q 2294 3913 2217 3773 
Q 2141 3634 2063 3525 
L 653 1528 
L 2347 1528 
z
" id="OpenSans-Regular-34" transform="scale(0.015625)"/>
       </defs>
       <use xlink:href="#OpenSans-Regular-34"/>
       <use x="57.177734" xlink:href="#OpenSans-Regular-30"/>
       <use x="114.355469" xlink:href="#OpenSans-Regular-25"/>
      </g>
     </g>
    </g>
    <g id="ytick_4">
     <g id="line2d_44">
      <path clip-path="url(#p5d6e9ac922)" d="M 7.2 182.967125 
L 1011.6 182.967125 
" style="fill:none;stroke:#caced3;stroke-dasharray:1.85,0.8;stroke-dashoffset:0;stroke-width:0.5;"/>
     </g>
     <g id="text_8">
      <!-- 60% -->
      <g style="fill:#565e69;" transform="translate(18.558125 180.0965)scale(0.12 -0.12)">
       <defs>
        <path d="M 363 1953 
Q 363 2366 420 2759 
Q 478 3153 615 3492 
Q 753 3831 990 4087 
Q 1228 4344 1583 4489 
Q 1938 4634 2434 4634 
Q 2575 4634 2737 4620 
Q 2900 4606 3006 4575 
L 3006 4128 
Q 2891 4169 2742 4187 
Q 2594 4206 2444 4206 
Q 1863 4206 1530 3953 
Q 1197 3700 1050 3267 
Q 903 2834 881 2294 
L 916 2294 
Q 1013 2450 1163 2576 
Q 1313 2703 1527 2778 
Q 1741 2853 2025 2853 
Q 2425 2853 2723 2690 
Q 3022 2528 3186 2218 
Q 3350 1909 3350 1469 
Q 3350 997 3175 653 
Q 3000 309 2676 123 
Q 2353 -63 1906 -63 
Q 1572 -63 1290 65 
Q 1009 194 801 447 
Q 594 700 478 1076 
Q 363 1453 363 1953 
z
M 1900 375 
Q 2325 375 2581 647 
Q 2838 919 2838 1469 
Q 2838 1919 2609 2181 
Q 2381 2444 1922 2444 
Q 1609 2444 1378 2314 
Q 1147 2184 1019 1987 
Q 891 1791 891 1588 
Q 891 1381 952 1168 
Q 1013 956 1138 775 
Q 1263 594 1453 484 
Q 1644 375 1900 375 
z
" id="OpenSans-Regular-36" transform="scale(0.015625)"/>
       </defs>
       <use xlink:href="#OpenSans-Regular-36"/>
       <use x="57.177734" xlink:href="#OpenSans-Regular-30"/>
       <use x="114.355469" xlink:href="#OpenSans-Regular-25"/>
      </g>
     </g>
    </g>
    <g id="ytick_5">
     <g id="line2d_45">
      <path clip-path="url(#p5d6e9ac922)" d="M 7.2 117.735125 
L 1011.6 117.735125 
" style="fill:none;stroke:#caced3;stroke-dasharray:1.85,0.8;stroke-dashoffset:0;stroke-width:0.5;"/>
     </g>
     <g id="text_9">
      <!-- 80% -->
      <g style="fill:#565e69;" transform="translate(18.558125 114.8645)scale(0.12 -0.12)">
       <defs>
        <path d="M 1825 4634 
Q 2222 4634 2528 4509 
Q 2834 4384 3007 4142 
Q 3181 3900 3181 3547 
Q 3181 3269 3061 3061 
Q 2941 2853 2737 2698 
Q 2534 2544 2288 2422 
Q 2581 2288 2817 2119 
Q 3053 1950 3190 1722 
Q 3328 1494 3328 1181 
Q 3328 797 3142 517 
Q 2956 238 2622 87 
Q 2288 -63 1838 -63 
Q 1353 -63 1014 82 
Q 675 228 498 501 
Q 322 775 322 1159 
Q 322 1475 456 1708 
Q 591 1941 812 2109 
Q 1034 2278 1297 2394 
Q 1069 2519 880 2678 
Q 691 2838 580 3052 
Q 469 3266 469 3550 
Q 469 3897 645 4139 
Q 822 4381 1130 4507 
Q 1438 4634 1825 4634 
z
M 831 1156 
Q 831 806 1078 579 
Q 1325 353 1825 353 
Q 2300 353 2559 579 
Q 2819 806 2819 1175 
Q 2819 1403 2700 1576 
Q 2581 1750 2362 1887 
Q 2144 2025 1847 2138 
L 1734 2178 
Q 1447 2059 1245 1914 
Q 1044 1769 937 1584 
Q 831 1400 831 1156 
z
M 1819 4209 
Q 1450 4209 1215 4032 
Q 981 3856 981 3525 
Q 981 3288 1095 3123 
Q 1209 2959 1406 2842 
Q 1603 2725 1847 2625 
Q 2084 2725 2268 2845 
Q 2453 2966 2559 3131 
Q 2666 3297 2666 3528 
Q 2666 3859 2433 4034 
Q 2200 4209 1819 4209 
z
" id="OpenSans-Regular-38" transform="scale(0.015625)"/>
       </defs>
       <use xlink:href="#OpenSans-Regular-38"/>
       <use x="57.177734" xlink:href="#OpenSans-Regular-30"/>
       <use x="114.355469" xlink:href="#OpenSans-Regular-25"/>
      </g>
     </g>
    </g>
    <g id="ytick_6">
     <g id="line2d_46">
      <path clip-path="url(#p5d6e9ac922)" d="M 7.2 52.503125 
L 1011.6 52.503125 
" style="fill:none;stroke:#caced3;stroke-dasharray:1.85,0.8;stroke-dashoffset:0;stroke-width:0.5;"/>
     </g>
     <g id="text_10">
      <!-- 100% -->
      <g style="fill:#565e69;" transform="translate(11.6975 49.6325)scale(0.12 -0.12)">
       <use xlink:href="#OpenSans-Regular-31"/>
       <use x="57.177734" xlink:href="#OpenSans-Regular-30"/>
       <use x="114.355469" xlink:href="#OpenSans-Regular-30"/>
       <use x="171.533203" xlink:href="#OpenSans-Regular-25"/>
      </g>
     </g>
    </g>
    <g id="text_11">
     <!-- of policies -->
     <g style="fill:#565e69;" transform="translate(45.96875 49.6325)scale(0.12 -0.12)">
      <defs>
       <path d="M 3500 1719 
Q 3500 1297 3390 965 
Q 3281 634 3075 406 
Q 2869 178 2576 57 
Q 2284 -63 1916 -63 
Q 1572 -63 1286 57 
Q 1000 178 792 406 
Q 584 634 470 965 
Q 356 1297 356 1719 
Q 356 2281 547 2676 
Q 738 3072 1092 3280 
Q 1447 3488 1938 3488 
Q 2406 3488 2757 3278 
Q 3109 3069 3304 2673 
Q 3500 2278 3500 1719 
z
M 894 1719 
Q 894 1306 1003 1003 
Q 1113 700 1341 534 
Q 1569 369 1928 369 
Q 2284 369 2514 534 
Q 2744 700 2853 1003 
Q 2963 1306 2963 1719 
Q 2963 2128 2853 2426 
Q 2744 2725 2516 2887 
Q 2288 3050 1925 3050 
Q 1391 3050 1142 2697 
Q 894 2344 894 1719 
z
" id="OpenSans-Regular-6f" transform="scale(0.015625)"/>
       <path d="M 2072 3019 
L 1219 3019 
L 1219 0 
L 700 0 
L 700 3019 
L 94 3019 
L 94 3269 
L 700 3441 
L 700 3669 
Q 700 4100 828 4370 
Q 956 4641 1200 4769 
Q 1444 4897 1794 4897 
Q 1991 4897 2155 4862 
Q 2319 4828 2444 4784 
L 2309 4375 
Q 2203 4409 2070 4439 
Q 1938 4469 1800 4469 
Q 1503 4469 1361 4276 
Q 1219 4084 1219 3675 
L 1219 3425 
L 2072 3425 
L 2072 3019 
z
" id="OpenSans-Regular-66" transform="scale(0.015625)"/>
       <path id="OpenSans-Regular-20" transform="scale(0.015625)"/>
       <path d="M 2156 3488 
Q 2797 3488 3178 3047 
Q 3559 2606 3559 1722 
Q 3559 1138 3384 741 
Q 3209 344 2892 140 
Q 2575 -63 2144 -63 
Q 1872 -63 1665 9 
Q 1459 81 1312 203 
Q 1166 325 1069 469 
L 1031 469 
Q 1041 347 1055 175 
Q 1069 3 1069 -125 
L 1069 -1531 
L 547 -1531 
L 547 3425 
L 975 3425 
L 1044 2919 
L 1069 2919 
Q 1169 3075 1312 3204 
Q 1456 3334 1664 3411 
Q 1872 3488 2156 3488 
z
M 2066 3050 
Q 1709 3050 1492 2912 
Q 1275 2775 1175 2501 
Q 1075 2228 1069 1816 
L 1069 1716 
Q 1069 1281 1164 981 
Q 1259 681 1479 525 
Q 1700 369 2072 369 
Q 2391 369 2603 541 
Q 2816 713 2920 1020 
Q 3025 1328 3025 1728 
Q 3025 2334 2789 2692 
Q 2553 3050 2066 3050 
z
" id="OpenSans-Regular-70" transform="scale(0.015625)"/>
       <path d="M 1069 0 
L 547 0 
L 547 4863 
L 1069 4863 
L 1069 0 
z
" id="OpenSans-Regular-6c" transform="scale(0.015625)"/>
       <path d="M 1066 3425 
L 1066 0 
L 547 0 
L 547 3425 
L 1066 3425 
z
M 813 4706 
Q 941 4706 1033 4623 
Q 1125 4541 1125 4366 
Q 1125 4194 1033 4109 
Q 941 4025 813 4025 
Q 678 4025 589 4109 
Q 500 4194 500 4366 
Q 500 4541 589 4623 
Q 678 4706 813 4706 
z
" id="OpenSans-Regular-69" transform="scale(0.015625)"/>
       <path d="M 1919 -63 
Q 1456 -63 1103 128 
Q 750 319 553 709 
Q 356 1100 356 1694 
Q 356 2316 564 2711 
Q 772 3106 1137 3297 
Q 1503 3488 1969 3488 
Q 2225 3488 2464 3436 
Q 2703 3384 2856 3306 
L 2700 2872 
Q 2544 2934 2339 2984 
Q 2134 3034 1956 3034 
Q 1600 3034 1364 2881 
Q 1128 2728 1011 2431 
Q 894 2134 894 1700 
Q 894 1284 1008 990 
Q 1122 697 1348 542 
Q 1575 388 1916 388 
Q 2188 388 2406 445 
Q 2625 503 2803 581 
L 2803 119 
Q 2631 31 2420 -16 
Q 2209 -63 1919 -63 
z
" id="OpenSans-Regular-63" transform="scale(0.015625)"/>
       <path d="M 1866 3488 
Q 2303 3488 2615 3294 
Q 2928 3100 3093 2751 
Q 3259 2403 3259 1938 
L 3259 1616 
L 894 1616 
Q 903 1013 1193 697 
Q 1484 381 2013 381 
Q 2338 381 2588 440 
Q 2838 500 3106 616 
L 3106 159 
Q 2847 44 2592 -9 
Q 2338 -63 1991 -63 
Q 1497 -63 1130 139 
Q 763 341 559 731 
Q 356 1122 356 1688 
Q 356 2241 542 2645 
Q 728 3050 1067 3269 
Q 1406 3488 1866 3488 
z
M 1859 3063 
Q 1444 3063 1197 2791 
Q 950 2519 903 2031 
L 2716 2031 
Q 2713 2338 2620 2570 
Q 2528 2803 2340 2933 
Q 2153 3063 1859 3063 
z
" id="OpenSans-Regular-65" transform="scale(0.015625)"/>
       <path d="M 2763 938 
Q 2763 609 2598 386 
Q 2434 163 2129 50 
Q 1825 -63 1403 -63 
Q 1044 -63 781 -6 
Q 519 50 322 153 
L 322 631 
Q 531 528 822 443 
Q 1113 359 1416 359 
Q 1859 359 2059 503 
Q 2259 647 2259 894 
Q 2259 1034 2179 1142 
Q 2100 1250 1912 1351 
Q 1725 1453 1394 1575 
Q 1066 1700 827 1823 
Q 588 1947 458 2125 
Q 328 2303 328 2588 
Q 328 3022 679 3255 
Q 1031 3488 1603 3488 
Q 1913 3488 2183 3427 
Q 2453 3366 2688 3263 
L 2513 2847 
Q 2300 2938 2059 3000 
Q 1819 3063 1569 3063 
Q 1209 3063 1017 2944 
Q 825 2825 825 2619 
Q 825 2459 914 2356 
Q 1003 2253 1200 2162 
Q 1397 2072 1719 1950 
Q 2041 1831 2275 1704 
Q 2509 1578 2636 1398 
Q 2763 1219 2763 938 
z
" id="OpenSans-Regular-73" transform="scale(0.015625)"/>
      </defs>
      <use xlink:href="#OpenSans-Regular-6f"/>
      <use x="60.15625" xlink:href="#OpenSans-Regular-66"/>
      <use x="93.798828" xlink:href="#OpenSans-Regular-20"/>
      <use x="119.775391" xlink:href="#OpenSans-Regular-70"/>
      <use x="180.957031" xlink:href="#OpenSans-Regular-6f"/>
      <use x="241.113281" xlink:href="#OpenSans-Regular-6c"/>
      <use x="266.357422" xlink:href="#OpenSans-Regular-69"/>
      <use x="291.601562" xlink:href="#OpenSans-Regular-63"/>
      <use x="339.501953" xlink:href="#OpenSans-Regular-69"/>
      <use x="364.746094" xlink:href="#OpenSans-Regular-65"/>
      <use x="420.898438" xlink:href="#OpenSans-Regular-73"/>
     </g>
    </g>
   </g>
   <g id="patch_3">
    <path clip-path="url(#p5d6e9ac922)" d="M 76.527273 204.379156 
L 93.436364 204.379156 
L 93.436364 52.503125 
L 76.527273 52.503125 
z
" style="fill:#caced3;stroke:#ffffff;stroke-linejoin:miter;stroke-width:0.5;"/>
   </g>
   <g id="patch_4">
    <path clip-path="url(#p5d6e9ac922)" d="M 102.736364 200.597395 
L 119.645455 200.597395 
L 119.645455 52.503125 
L 102.736364 52.503125 
z
" style="fill:#caced3;stroke:#ffffff;stroke-linejoin:miter;stroke-width:0.5;"/>
   </g>
   <g id="patch_5">
    <path clip-path="url(#p5d6e9ac922)" d="M 127.254545 182.650888 
L 144.163636 182.650888 
L 144.163636 52.503125 
L 127.254545 52.503125 
z
" style="fill:#caced3;stroke:#ffffff;stroke-linejoin:miter;stroke-width:0.5;"/>
   </g>
   <g id="patch_6">
    <path clip-path="url(#p5d6e9ac922)" d="M 153.463636 206.408541 
L 170.372727 206.408541 
L 170.372727 52.503125 
L 153.463636 52.503125 
z
" style="fill:#caced3;stroke:#ffffff;stroke-linejoin:miter;stroke-width:0.5;"/>
   </g>
   <g id="patch_7">
    <path clip-path="url(#p5d6e9ac922)" d="M 178.827273 163.154078 
L 195.736364 163.154078 
L 195.736364 52.503125 
L 178.827273 52.503125 
z
" style="fill:#caced3;stroke:#ffffff;stroke-linejoin:miter;stroke-width:0.5;"/>
   </g>
   <g id="patch_8">
    <path clip-path="url(#p5d6e9ac922)" d="M 205.036364 155.216976 
L 221.945455 155.216976 
L 221.945455 52.503125 
L 205.036364 52.503125 
z
" style="fill:#caced3;stroke:#ffffff;stroke-linejoin:miter;stroke-width:0.5;"/>
   </g>
   <g id="patch_9">
    <path clip-path="url(#p5d6e9ac922)" d="M 230.4 162.063085 
L 247.309091 162.063085 
L 247.309091 52.503125 
L 230.4 52.503125 
z
" style="fill:#caced3;stroke:#ffffff;stroke-linejoin:miter;stroke-width:0.5;"/>
   </g>
   <g id="patch_10">
    <path clip-path="url(#p5d6e9ac922)" d="M 256.609091 179.068899 
L 273.518182 179.068899 
L 273.518182 52.503125 
L 256.609091 52.503125 
z
" style="fill:#caced3;stroke:#ffffff;stroke-linejoin:miter;stroke-width:0.5;"/>
   </g>
   <g id="patch_11">
    <path clip-path="url(#p5d6e9ac922)" d="M 282.818182 174.144764 
L 299.727273 174.144764 
L 299.727273 52.503125 
L 282.818182 52.503125 
z
" style="fill:#caced3;stroke:#ffffff;stroke-linejoin:miter;stroke-width:0.5;"/>
   </g>
   <g id="patch_12">
    <path clip-path="url(#p5d6e9ac922)" d="M 308.181818 172.765851 
L 325.090909 172.765851 
L 325.090909 52.503125 
L 308.181818 52.503125 
z
" style="fill:#caced3;stroke:#ffffff;stroke-linejoin:miter;stroke-width:0.5;"/>
   </g>
   <g id="patch_13">
    <path clip-path="url(#p5d6e9ac922)" d="M 334.390909 166.374447 
L 351.3 166.374447 
L 351.3 52.503125 
L 334.390909 52.503125 
z
" style="fill:#caced3;stroke:#ffffff;stroke-linejoin:miter;stroke-width:0.5;"/>
   </g>
   <g id="patch_14">
    <path clip-path="url(#p5d6e9ac922)" d="M 359.754545 172.425556 
L 376.663636 172.425556 
L 376.663636 52.503125 
L 359.754545 52.503125 
z
" style="fill:#caced3;stroke:#ffffff;stroke-linejoin:miter;stroke-width:0.5;"/>
   </g>
   <g id="patch_15">
    <path clip-path="url(#p5d6e9ac922)" d="M 385.963636 163.048957 
L 402.872727 163.048957 
L 402.872727 52.503125 
L 385.963636 52.503125 
z
" style="fill:#caced3;stroke:#ffffff;stroke-linejoin:miter;stroke-width:0.5;"/>
   </g>
   <g id="patch_16">
    <path clip-path="url(#p5d6e9ac922)" d="M 412.172727 185.103819 
L 429.081818 185.103819 
L 429.081818 52.503125 
L 412.172727 52.503125 
z
" style="fill:#caced3;stroke:#ffffff;stroke-linejoin:miter;stroke-width:0.5;"/>
   </g>
   <g id="patch_17">
    <path clip-path="url(#p5d6e9ac922)" d="M 435.845455 198.942309 
L 452.754545 198.942309 
L 452.754545 52.503125 
L 435.845455 52.503125 
z
" style="fill:#caced3;stroke:#ffffff;stroke-linejoin:miter;stroke-width:0.5;"/>
   </g>
   <g id="patch_18">
    <path clip-path="url(#p5d6e9ac922)" d="M 462.054545 193.810664 
L 478.963636 193.810664 
L 478.963636 52.503125 
L 462.054545 52.503125 
z
" style="fill:#caced3;stroke:#ffffff;stroke-linejoin:miter;stroke-width:0.5;"/>
   </g>
   <g id="patch_19">
    <path clip-path="url(#p5d6e9ac922)" d="M 487.418182 198.58395 
L 504.327273 198.58395 
L 504.327273 52.503125 
L 487.418182 52.503125 
z
" style="fill:#caced3;stroke:#ffffff;stroke-linejoin:miter;stroke-width:0.5;"/>
   </g>
   <g id="patch_20">
    <path clip-path="url(#p5d6e9ac922)" d="M 513.627273 261.245525 
L 530.536364 261.245525 
L 530.536364 52.503125 
L 513.627273 52.503125 
z
" style="fill:#caced3;stroke:#ffffff;stroke-linejoin:miter;stroke-width:0.5;"/>
   </g>
   <g id="patch_21">
    <path clip-path="url(#p5d6e9ac922)" d="M 538.990909 260.305895 
L 555.9 260.305895 
L 555.9 52.503125 
L 538.990909 52.503125 
z
" style="fill:#caced3;stroke:#ffffff;stroke-linejoin:miter;stroke-width:0.5;"/>
   </g>
   <g id="patch_22">
    <path clip-path="url(#p5d6e9ac922)" d="M 565.2 247.769967 
L 582.109091 247.769967 
L 582.109091 52.503125 
L 565.2 52.503125 
z
" style="fill:#caced3;stroke:#ffffff;stroke-linejoin:miter;stroke-width:0.5;"/>
   </g>
   <g id="patch_23">
    <path clip-path="url(#p5d6e9ac922)" d="M 591.409091 268.1461 
L 608.318182 268.1461 
L 608.318182 52.503125 
L 591.409091 52.503125 
z
" style="fill:#caced3;stroke:#ffffff;stroke-linejoin:miter;stroke-width:0.5;"/>
   </g>
   <g id="patch_24">
    <path clip-path="url(#p5d6e9ac922)" d="M 616.772727 258.983448 
L 633.681818 258.983448 
L 633.681818 52.503125 
L 616.772727 52.503125 
z
" style="fill:#caced3;stroke:#ffffff;stroke-linejoin:miter;stroke-width:0.5;"/>
   </g>
   <g id="patch_25">
    <path clip-path="url(#p5d6e9ac922)" d="M 642.981818 176.934108 
L 659.890909 176.934108 
L 659.890909 52.503125 
L 642.981818 52.503125 
z
" style="fill:#caced3;stroke:#ffffff;stroke-linejoin:miter;stroke-width:0.5;"/>
   </g>
   <g id="patch_26">
    <path clip-path="url(#p5d6e9ac922)" d="M 668.345455 178.194052 
L 685.254545 178.194052 
L 685.254545 52.503125 
L 668.345455 52.503125 
z
" style="fill:#caced3;stroke:#ffffff;stroke-linejoin:miter;stroke-width:0.5;"/>
   </g>
   <g id="patch_27">
    <path clip-path="url(#p5d6e9ac922)" d="M 694.554545 243.40887 
L 711.463636 243.40887 
L 711.463636 52.503125 
L 694.554545 52.503125 
z
" style="fill:#caced3;stroke:#ffffff;stroke-linejoin:miter;stroke-width:0.5;"/>
   </g>
   <g id="patch_28">
    <path clip-path="url(#p5d6e9ac922)" d="M 720.763636 173.040516 
L 737.672727 173.040516 
L 737.672727 52.503125 
L 720.763636 52.503125 
z
" style="fill:#caced3;stroke:#ffffff;stroke-linejoin:miter;stroke-width:0.5;"/>
   </g>
   <g id="patch_29">
    <path clip-path="url(#p5d6e9ac922)" d="M 744.436364 221.019125 
L 761.345455 221.019125 
L 761.345455 52.503125 
L 744.436364 52.503125 
z
" style="fill:#caced3;stroke:#ffffff;stroke-linejoin:miter;stroke-width:0.5;"/>
   </g>
   <g id="patch_30">
    <path clip-path="url(#p5d6e9ac922)" d="M 770.645455 221.019125 
L 787.554545 221.019125 
L 787.554545 52.503125 
L 770.645455 52.503125 
z
" style="fill:#caced3;stroke:#ffffff;stroke-linejoin:miter;stroke-width:0.5;"/>
   </g>
   <g id="patch_31">
    <path clip-path="url(#p5d6e9ac922)" d="M 796.009091 263.547831 
L 812.918182 263.547831 
L 812.918182 52.503125 
L 796.009091 52.503125 
z
" style="fill:#caced3;stroke:#ffffff;stroke-linejoin:miter;stroke-width:0.5;"/>
   </g>
   <g id="patch_32">
    <path clip-path="url(#p5d6e9ac922)" d="M 822.218182 282.419191 
L 839.127273 282.419191 
L 839.127273 52.503125 
L 822.218182 52.503125 
z
" style="fill:#caced3;stroke:#ffffff;stroke-linejoin:miter;stroke-width:0.5;"/>
   </g>
   <g id="patch_33">
    <path clip-path="url(#p5d6e9ac922)" d="M 847.581818 257.668286 
L 864.490909 257.668286 
L 864.490909 52.503125 
L 847.581818 52.503125 
z
" style="fill:#caced3;stroke:#ffffff;stroke-linejoin:miter;stroke-width:0.5;"/>
   </g>
   <g id="patch_34">
    <path clip-path="url(#p5d6e9ac922)" d="M 873.790909 307.315625 
L 890.7 307.315625 
L 890.7 52.503125 
L 873.790909 52.503125 
z
" style="fill:#caced3;stroke:#ffffff;stroke-linejoin:miter;stroke-width:0.5;"/>
   </g>
   <g id="patch_35">
    <path clip-path="url(#p5d6e9ac922)" d="M 900 238.880268 
L 916.909091 238.880268 
L 916.909091 52.503125 
L 900 52.503125 
z
" style="fill:#caced3;stroke:#ffffff;stroke-linejoin:miter;stroke-width:0.5;"/>
   </g>
   <g id="patch_36">
    <path clip-path="url(#p5d6e9ac922)" d="M 925.363636 165.950082 
L 942.272727 165.950082 
L 942.272727 52.503125 
L 925.363636 52.503125 
z
" style="fill:#caced3;stroke:#ffffff;stroke-linejoin:miter;stroke-width:0.5;"/>
   </g>
   <g id="patch_37">
    <path clip-path="url(#p5d6e9ac922)" d="M 951.572727 297.123125 
L 968.481818 297.123125 
L 968.481818 52.503125 
L 951.572727 52.503125 
z
" style="fill:#caced3;stroke:#ffffff;stroke-linejoin:miter;stroke-width:0.5;"/>
   </g>
   <g id="patch_38">
    <path clip-path="url(#p5d6e9ac922)" d="M 976.936364 188.403125 
L 993.845455 188.403125 
L 993.845455 52.503125 
L 976.936364 52.503125 
z
" style="fill:#caced3;stroke:#ffffff;stroke-linejoin:miter;stroke-width:0.5;"/>
   </g>
   <g id="patch_39">
    <path clip-path="url(#p5d6e9ac922)" d="M 76.527273 216.82801 
L 93.436364 216.82801 
L 93.436364 204.379156 
L 76.527273 204.379156 
z
" style="fill:#5495ba;stroke:#ffffff;stroke-linejoin:miter;stroke-width:0.5;"/>
   </g>
   <g id="patch_40">
    <path clip-path="url(#p5d6e9ac922)" d="M 102.736364 211.175557 
L 119.645455 211.175557 
L 119.645455 200.597395 
L 102.736364 200.597395 
z
" style="fill:#5495ba;stroke:#ffffff;stroke-linejoin:miter;stroke-width:0.5;"/>
   </g>
   <g id="patch_41">
    <path clip-path="url(#p5d6e9ac922)" d="M 127.254545 199.062483 
L 144.163636 199.062483 
L 144.163636 182.650888 
L 127.254545 182.650888 
z
" style="fill:#5495ba;stroke:#ffffff;stroke-linejoin:miter;stroke-width:0.5;"/>
   </g>
   <g id="patch_42">
    <path clip-path="url(#p5d6e9ac922)" d="M 153.463636 239.693077 
L 170.372727 239.693077 
L 170.372727 206.408541 
L 153.463636 206.408541 
z
" style="fill:#5495ba;stroke:#ffffff;stroke-linejoin:miter;stroke-width:0.5;"/>
   </g>
   <g id="patch_43">
    <path clip-path="url(#p5d6e9ac922)" d="M 178.827273 260.752765 
L 195.736364 260.752765 
L 195.736364 163.154078 
L 178.827273 163.154078 
z
" style="fill:#5495ba;stroke:#ffffff;stroke-linejoin:miter;stroke-width:0.5;"/>
   </g>
   <g id="patch_44">
    <path clip-path="url(#p5d6e9ac922)" d="M 205.036364 278.473597 
L 221.945455 278.473597 
L 221.945455 155.216976 
L 205.036364 155.216976 
z
" style="fill:#5495ba;stroke:#ffffff;stroke-linejoin:miter;stroke-width:0.5;"/>
   </g>
   <g id="patch_45">
    <path clip-path="url(#p5d6e9ac922)" d="M 230.4 249.163253 
L 247.309091 249.163253 
L 247.309091 162.063085 
L 230.4 162.063085 
z
" style="fill:#5495ba;stroke:#ffffff;stroke-linejoin:miter;stroke-width:0.5;"/>
   </g>
   <g id="patch_46">
    <path clip-path="url(#p5d6e9ac922)" d="M 256.609091 261.463218 
L 273.518182 261.463218 
L 273.518182 179.068899 
L 256.609091 179.068899 
z
" style="fill:#5495ba;stroke:#ffffff;stroke-linejoin:miter;stroke-width:0.5;"/>
   </g>
   <g id="patch_47">
    <path clip-path="url(#p5d6e9ac922)" d="M 282.818182 273.210666 
L 299.727273 273.210666 
L 299.727273 174.144764 
L 282.818182 174.144764 
z
" style="fill:#5495ba;stroke:#ffffff;stroke-linejoin:miter;stroke-width:0.5;"/>
   </g>
   <g id="patch_48">
    <path clip-path="url(#p5d6e9ac922)" d="M 308.181818 248.105535 
L 325.090909 248.105535 
L 325.090909 172.765851 
L 308.181818 172.765851 
z
" style="fill:#5495ba;stroke:#ffffff;stroke-linejoin:miter;stroke-width:0.5;"/>
   </g>
   <g id="patch_49">
    <path clip-path="url(#p5d6e9ac922)" d="M 334.390909 231.579334 
L 351.3 231.579334 
L 351.3 166.374447 
L 334.390909 166.374447 
z
" style="fill:#5495ba;stroke:#ffffff;stroke-linejoin:miter;stroke-width:0.5;"/>
   </g>
   <g id="patch_50">
    <path clip-path="url(#p5d6e9ac922)" d="M 359.754545 236.376127 
L 376.663636 236.376127 
L 376.663636 172.425556 
L 359.754545 172.425556 
z
" style="fill:#5495ba;stroke:#ffffff;stroke-linejoin:miter;stroke-width:0.5;"/>
   </g>
   <g id="patch_51">
    <path clip-path="url(#p5d6e9ac922)" d="M 385.963636 247.701171 
L 402.872727 247.701171 
L 402.872727 163.048957 
L 385.963636 163.048957 
z
" style="fill:#5495ba;stroke:#ffffff;stroke-linejoin:miter;stroke-width:0.5;"/>
   </g>
   <g id="patch_52">
    <path clip-path="url(#p5d6e9ac922)" d="M 412.172727 265.12509 
L 429.081818 265.12509 
L 429.081818 185.103819 
L 412.172727 185.103819 
z
" style="fill:#5495ba;stroke:#ffffff;stroke-linejoin:miter;stroke-width:0.5;"/>
   </g>
   <g id="patch_53">
    <path clip-path="url(#p5d6e9ac922)" d="M 435.845455 276.916419 
L 452.754545 276.916419 
L 452.754545 198.942309 
L 435.845455 198.942309 
z
" style="fill:#5495ba;stroke:#ffffff;stroke-linejoin:miter;stroke-width:0.5;"/>
   </g>
   <g id="patch_54">
    <path clip-path="url(#p5d6e9ac922)" d="M 462.054545 268.093177 
L 478.963636 268.093177 
L 478.963636 193.810664 
L 462.054545 193.810664 
z
" style="fill:#5495ba;stroke:#ffffff;stroke-linejoin:miter;stroke-width:0.5;"/>
   </g>
   <g id="patch_55">
    <path clip-path="url(#p5d6e9ac922)" d="M 487.418182 288.997146 
L 504.327273 288.997146 
L 504.327273 198.58395 
L 487.418182 198.58395 
z
" style="fill:#5495ba;stroke:#ffffff;stroke-linejoin:miter;stroke-width:0.5;"/>
   </g>
   <g id="patch_56">
    <path clip-path="url(#p5d6e9ac922)" d="M 513.627273 326.477525 
L 530.536364 326.477525 
L 530.536364 261.245525 
L 513.627273 261.245525 
z
" style="fill:#5495ba;stroke:#ffffff;stroke-linejoin:miter;stroke-width:0.5;"/>
   </g>
   <g id="patch_57">
    <path clip-path="url(#p5d6e9ac922)" d="M 538.990909 304.57692 
L 555.9 304.57692 
L 555.9 260.305895 
L 538.990909 260.305895 
z
" style="fill:#5495ba;stroke:#ffffff;stroke-linejoin:miter;stroke-width:0.5;"/>
   </g>
   <g id="patch_58">
    <path clip-path="url(#p5d6e9ac922)" d="M 565.2 297.123125 
L 582.109091 297.123125 
L 582.109091 247.769967 
L 565.2 247.769967 
z
" style="fill:#5495ba;stroke:#ffffff;stroke-linejoin:miter;stroke-width:0.5;"/>
   </g>
   <g id="patch_59">
    <path clip-path="url(#p5d6e9ac922)" d="M 591.409091 321.158332 
L 608.318182 321.158332 
L 608.318182 268.1461 
L 591.409091 268.1461 
z
" style="fill:#5495ba;stroke:#ffffff;stroke-linejoin:miter;stroke-width:0.5;"/>
   </g>
   <g id="patch_60">
    <path clip-path="url(#p5d6e9ac922)" d="M 616.772727 332.63248 
L 633.681818 332.63248 
L 633.681818 258.983448 
L 616.772727 258.983448 
z
" style="fill:#5495ba;stroke:#ffffff;stroke-linejoin:miter;stroke-width:0.5;"/>
   </g>
   <g id="patch_61">
    <path clip-path="url(#p5d6e9ac922)" d="M 642.981818 210.86983 
L 659.890909 210.86983 
L 659.890909 176.934108 
L 642.981818 176.934108 
z
" style="fill:#5495ba;stroke:#ffffff;stroke-linejoin:miter;stroke-width:0.5;"/>
   </g>
   <g id="patch_62">
    <path clip-path="url(#p5d6e9ac922)" d="M 668.345455 223.538247 
L 685.254545 223.538247 
L 685.254545 178.194052 
L 668.345455 178.194052 
z
" style="fill:#5495ba;stroke:#ffffff;stroke-linejoin:miter;stroke-width:0.5;"/>
   </g>
   <g id="patch_63">
    <path clip-path="url(#p5d6e9ac922)" d="M 694.554545 297.651462 
L 711.463636 297.651462 
L 711.463636 243.40887 
L 694.554545 243.40887 
z
" style="fill:#5495ba;stroke:#ffffff;stroke-linejoin:miter;stroke-width:0.5;"/>
   </g>
   <g id="patch_64">
    <path clip-path="url(#p5d6e9ac922)" d="M 720.763636 252.453386 
L 737.672727 252.453386 
L 737.672727 173.040516 
L 720.763636 173.040516 
z
" style="fill:#5495ba;stroke:#ffffff;stroke-linejoin:miter;stroke-width:0.5;"/>
   </g>
   <g id="patch_65">
    <path clip-path="url(#p5d6e9ac922)" d="M 744.436364 333.363125 
L 761.345455 333.363125 
L 761.345455 221.019125 
L 744.436364 221.019125 
z
" style="fill:#5495ba;stroke:#ffffff;stroke-linejoin:miter;stroke-width:0.5;"/>
   </g>
   <g id="patch_66">
    <path clip-path="url(#p5d6e9ac922)" d="M 770.645455 321.585125 
L 787.554545 321.585125 
L 787.554545 221.019125 
L 770.645455 221.019125 
z
" style="fill:#5495ba;stroke:#ffffff;stroke-linejoin:miter;stroke-width:0.5;"/>
   </g>
   <g id="patch_67">
    <path clip-path="url(#p5d6e9ac922)" d="M 796.009091 340.29136 
L 812.918182 340.29136 
L 812.918182 263.547831 
L 796.009091 263.547831 
z
" style="fill:#5495ba;stroke:#ffffff;stroke-linejoin:miter;stroke-width:0.5;"/>
   </g>
   <g id="patch_68">
    <path clip-path="url(#p5d6e9ac922)" d="M 822.218182 341.234928 
L 839.127273 341.234928 
L 839.127273 282.419191 
L 822.218182 282.419191 
z
" style="fill:#5495ba;stroke:#ffffff;stroke-linejoin:miter;stroke-width:0.5;"/>
   </g>
   <g id="patch_69">
    <path clip-path="url(#p5d6e9ac922)" d="M 847.581818 331.317319 
L 864.490909 331.317319 
L 864.490909 257.668286 
L 847.581818 257.668286 
z
" style="fill:#5495ba;stroke:#ffffff;stroke-linejoin:miter;stroke-width:0.5;"/>
   </g>
   <g id="patch_70">
    <path clip-path="url(#p5d6e9ac922)" d="M 873.790909 348.085625 
L 890.7 348.085625 
L 890.7 307.315625 
L 873.790909 307.315625 
z
" style="fill:#5495ba;stroke:#ffffff;stroke-linejoin:miter;stroke-width:0.5;"/>
   </g>
   <g id="patch_71">
    <path clip-path="url(#p5d6e9ac922)" d="M 900 350.706554 
L 916.909091 350.706554 
L 916.909091 238.880268 
L 900 238.880268 
z
" style="fill:#5495ba;stroke:#ffffff;stroke-linejoin:miter;stroke-width:0.5;"/>
   </g>
   <g id="patch_72">
    <path clip-path="url(#p5d6e9ac922)" d="M 925.363636 279.397038 
L 942.272727 279.397038 
L 942.272727 165.950082 
L 925.363636 165.950082 
z
" style="fill:#5495ba;stroke:#ffffff;stroke-linejoin:miter;stroke-width:0.5;"/>
   </g>
   <g id="patch_73">
    <path clip-path="url(#p5d6e9ac922)" d="M 951.572727 337.893125 
L 968.481818 337.893125 
L 968.481818 297.123125 
L 951.572727 297.123125 
z
" style="fill:#5495ba;stroke:#ffffff;stroke-linejoin:miter;stroke-width:0.5;"/>
   </g>
   <g id="patch_74">
    <path clip-path="url(#p5d6e9ac922)" d="M 976.936364 297.123125 
L 993.845455 297.123125 
L 993.845455 188.403125 
L 976.936364 188.403125 
z
" style="fill:#5495ba;stroke:#ffffff;stroke-linejoin:miter;stroke-width:0.5;"/>
   </g>
   <g id="patch_75">
    <path clip-path="url(#p5d6e9ac922)" d="M 76.527273 378.663125 
L 93.436364 378.663125 
L 93.436364 216.82801 
L 76.527273 216.82801 
z
" style="fill:#dd7d54;stroke:#ffffff;stroke-linejoin:miter;stroke-width:0.5;"/>
   </g>
   <g id="patch_76">
    <path clip-path="url(#p5d6e9ac922)" d="M 102.736364 378.663125 
L 119.645455 378.663125 
L 119.645455 211.175557 
L 102.736364 211.175557 
z
" style="fill:#dd7d54;stroke:#ffffff;stroke-linejoin:miter;stroke-width:0.5;"/>
   </g>
   <g id="patch_77">
    <path clip-path="url(#p5d6e9ac922)" d="M 127.254545 378.663125 
L 144.163636 378.663125 
L 144.163636 199.062483 
L 127.254545 199.062483 
z
" style="fill:#dd7d54;stroke:#ffffff;stroke-linejoin:miter;stroke-width:0.5;"/>
   </g>
   <g id="patch_78">
    <path clip-path="url(#p5d6e9ac922)" d="M 153.463636 378.663125 
L 170.372727 378.663125 
L 170.372727 239.693077 
L 153.463636 239.693077 
z
" style="fill:#dd7d54;stroke:#ffffff;stroke-linejoin:miter;stroke-width:0.5;"/>
   </g>
   <g id="patch_79">
    <path clip-path="url(#p5d6e9ac922)" d="M 178.827273 378.663125 
L 195.736364 378.663125 
L 195.736364 260.752765 
L 178.827273 260.752765 
z
" style="fill:#dd7d54;stroke:#ffffff;stroke-linejoin:miter;stroke-width:0.5;"/>
   </g>
   <g id="patch_80">
    <path clip-path="url(#p5d6e9ac922)" d="M 205.036364 378.663125 
L 221.945455 378.663125 
L 221.945455 278.473597 
L 205.036364 278.473597 
z
" style="fill:#dd7d54;stroke:#ffffff;stroke-linejoin:miter;stroke-width:0.5;"/>
   </g>
   <g id="patch_81">
    <path clip-path="url(#p5d6e9ac922)" d="M 230.4 378.663125 
L 247.309091 378.663125 
L 247.309091 249.163253 
L 230.4 249.163253 
z
" style="fill:#dd7d54;stroke:#ffffff;stroke-linejoin:miter;stroke-width:0.5;"/>
   </g>
   <g id="patch_82">
    <path clip-path="url(#p5d6e9ac922)" d="M 256.609091 378.663125 
L 273.518182 378.663125 
L 273.518182 261.463218 
L 256.609091 261.463218 
z
" style="fill:#dd7d54;stroke:#ffffff;stroke-linejoin:miter;stroke-width:0.5;"/>
   </g>
   <g id="patch_83">
    <path clip-path="url(#p5d6e9ac922)" d="M 282.818182 378.663125 
L 299.727273 378.663125 
L 299.727273 273.210666 
L 282.818182 273.210666 
z
" style="fill:#dd7d54;stroke:#ffffff;stroke-linejoin:miter;stroke-width:0.5;"/>
   </g>
   <g id="patch_84">
    <path clip-path="url(#p5d6e9ac922)" d="M 308.181818 378.663125 
L 325.090909 378.663125 
L 325.090909 248.105535 
L 308.181818 248.105535 
z
" style="fill:#dd7d54;stroke:#ffffff;stroke-linejoin:miter;stroke-width:0.5;"/>
   </g>
   <g id="patch_85">
    <path clip-path="url(#p5d6e9ac922)" d="M 334.390909 378.663125 
L 351.3 378.663125 
L 351.3 231.579334 
L 334.390909 231.579334 
z
" style="fill:#dd7d54;stroke:#ffffff;stroke-linejoin:miter;stroke-width:0.5;"/>
   </g>
   <g id="patch_86">
    <path clip-path="url(#p5d6e9ac922)" d="M 359.754545 378.663125 
L 376.663636 378.663125 
L 376.663636 236.376127 
L 359.754545 236.376127 
z
" style="fill:#dd7d54;stroke:#ffffff;stroke-linejoin:miter;stroke-width:0.5;"/>
   </g>
   <g id="patch_87">
    <path clip-path="url(#p5d6e9ac922)" d="M 385.963636 378.663125 
L 402.872727 378.663125 
L 402.872727 247.701171 
L 385.963636 247.701171 
z
" style="fill:#dd7d54;stroke:#ffffff;stroke-linejoin:miter;stroke-width:0.5;"/>
   </g>
   <g id="patch_88">
    <path clip-path="url(#p5d6e9ac922)" d="M 412.172727 378.663125 
L 429.081818 378.663125 
L 429.081818 265.12509 
L 412.172727 265.12509 
z
" style="fill:#dd7d54;stroke:#ffffff;stroke-linejoin:miter;stroke-width:0.5;"/>
   </g>
   <g id="patch_89">
    <path clip-path="url(#p5d6e9ac922)" d="M 435.845455 378.663125 
L 452.754545 378.663125 
L 452.754545 276.916419 
L 435.845455 276.916419 
z
" style="fill:#dd7d54;stroke:#ffffff;stroke-linejoin:miter;stroke-width:0.5;"/>
   </g>
   <g id="patch_90">
    <path clip-path="url(#p5d6e9ac922)" d="M 462.054545 378.663125 
L 478.963636 378.663125 
L 478.963636 268.093177 
L 462.054545 268.093177 
z
" style="fill:#dd7d54;stroke:#ffffff;stroke-linejoin:miter;stroke-width:0.5;"/>
   </g>
   <g id="patch_91">
    <path clip-path="url(#p5d6e9ac922)" d="M 487.418182 378.663125 
L 504.327273 378.663125 
L 504.327273 288.997146 
L 487.418182 288.997146 
z
" style="fill:#dd7d54;stroke:#ffffff;stroke-linejoin:miter;stroke-width:0.5;"/>
   </g>
   <g id="patch_92">
    <path clip-path="url(#p5d6e9ac922)" d="M 513.627273 378.663125 
L 530.536364 378.663125 
L 530.536364 326.477525 
L 513.627273 326.477525 
z
" style="fill:#dd7d54;stroke:#ffffff;stroke-linejoin:miter;stroke-width:0.5;"/>
   </g>
   <g id="patch_93">
    <path clip-path="url(#p5d6e9ac922)" d="M 538.990909 378.663125 
L 555.9 378.663125 
L 555.9 304.57692 
L 538.990909 304.57692 
z
" style="fill:#dd7d54;stroke:#ffffff;stroke-linejoin:miter;stroke-width:0.5;"/>
   </g>
   <g id="patch_94">
    <path clip-path="url(#p5d6e9ac922)" d="M 565.2 378.663125 
L 582.109091 378.663125 
L 582.109091 297.123125 
L 565.2 297.123125 
z
" style="fill:#dd7d54;stroke:#ffffff;stroke-linejoin:miter;stroke-width:0.5;"/>
   </g>
   <g id="patch_95">
    <path clip-path="url(#p5d6e9ac922)" d="M 591.409091 378.663125 
L 608.318182 378.663125 
L 608.318182 321.158332 
L 591.409091 321.158332 
z
" style="fill:#dd7d54;stroke:#ffffff;stroke-linejoin:miter;stroke-width:0.5;"/>
   </g>
   <g id="patch_96">
    <path clip-path="url(#p5d6e9ac922)" d="M 616.772727 378.663125 
L 633.681818 378.663125 
L 633.681818 332.63248 
L 616.772727 332.63248 
z
" style="fill:#dd7d54;stroke:#ffffff;stroke-linejoin:miter;stroke-width:0.5;"/>
   </g>
   <g id="patch_97">
    <path clip-path="url(#p5d6e9ac922)" d="M 642.981818 378.663125 
L 659.890909 378.663125 
L 659.890909 210.86983 
L 642.981818 210.86983 
z
" style="fill:#dd7d54;stroke:#ffffff;stroke-linejoin:miter;stroke-width:0.5;"/>
   </g>
   <g id="patch_98">
    <path clip-path="url(#p5d6e9ac922)" d="M 668.345455 378.663125 
L 685.254545 378.663125 
L 685.254545 223.538247 
L 668.345455 223.538247 
z
" style="fill:#dd7d54;stroke:#ffffff;stroke-linejoin:miter;stroke-width:0.5;"/>
   </g>
   <g id="patch_99">
    <path clip-path="url(#p5d6e9ac922)" d="M 694.554545 378.663125 
L 711.463636 378.663125 
L 711.463636 297.651462 
L 694.554545 297.651462 
z
" style="fill:#dd7d54;stroke:#ffffff;stroke-linejoin:miter;stroke-width:0.5;"/>
   </g>
   <g id="patch_100">
    <path clip-path="url(#p5d6e9ac922)" d="M 720.763636 378.663125 
L 737.672727 378.663125 
L 737.672727 252.453386 
L 720.763636 252.453386 
z
" style="fill:#dd7d54;stroke:#ffffff;stroke-linejoin:miter;stroke-width:0.5;"/>
   </g>
   <g id="patch_101">
    <path clip-path="url(#p5d6e9ac922)" d="M 744.436364 378.663125 
L 761.345455 378.663125 
L 761.345455 333.363125 
L 744.436364 333.363125 
z
" style="fill:#dd7d54;stroke:#ffffff;stroke-linejoin:miter;stroke-width:0.5;"/>
   </g>
   <g id="patch_102">
    <path clip-path="url(#p5d6e9ac922)" d="M 770.645455 378.663125 
L 787.554545 378.663125 
L 787.554545 321.585125 
L 770.645455 321.585125 
z
" style="fill:#dd7d54;stroke:#ffffff;stroke-linejoin:miter;stroke-width:0.5;"/>
   </g>
   <g id="patch_103">
    <path clip-path="url(#p5d6e9ac922)" d="M 796.009091 378.663125 
L 812.918182 378.663125 
L 812.918182 340.29136 
L 796.009091 340.29136 
z
" style="fill:#dd7d54;stroke:#ffffff;stroke-linejoin:miter;stroke-width:0.5;"/>
   </g>
   <g id="patch_104">
    <path clip-path="url(#p5d6e9ac922)" d="M 822.218182 378.663125 
L 839.127273 378.663125 
L 839.127273 341.234928 
L 822.218182 341.234928 
z
" style="fill:#dd7d54;stroke:#ffffff;stroke-linejoin:miter;stroke-width:0.5;"/>
   </g>
   <g id="patch_105">
    <path clip-path="url(#p5d6e9ac922)" d="M 847.581818 378.663125 
L 864.490909 378.663125 
L 864.490909 331.317319 
L 847.581818 331.317319 
z
" style="fill:#dd7d54;stroke:#ffffff;stroke-linejoin:miter;stroke-width:0.5;"/>
   </g>
   <g id="patch_106">
    <path clip-path="url(#p5d6e9ac922)" d="M 873.790909 378.663125 
L 890.7 378.663125 
L 890.7 348.085625 
L 873.790909 348.085625 
z
" style="fill:#dd7d54;stroke:#ffffff;stroke-linejoin:miter;stroke-width:0.5;"/>
   </g>
   <g id="patch_107">
    <path clip-path="url(#p5d6e9ac922)" d="M 900 378.663125 
L 916.909091 378.663125 
L 916.909091 350.706554 
L 900 350.706554 
z
" style="fill:#dd7d54;stroke:#ffffff;stroke-linejoin:miter;stroke-width:0.5;"/>
   </g>
   <g id="patch_108">
    <path clip-path="url(#p5d6e9ac922)" d="M 925.363636 378.663125 
L 942.272727 378.663125 
L 942.272727 279.397038 
L 925.363636 279.397038 
z
" style="fill:#dd7d54;stroke:#ffffff;stroke-linejoin:miter;stroke-width:0.5;"/>
   </g>
   <g id="patch_109">
    <path clip-path="url(#p5d6e9ac922)" d="M 951.572727 378.663125 
L 968.481818 378.663125 
L 968.481818 337.893125 
L 951.572727 337.893125 
z
" style="fill:#dd7d54;stroke:#ffffff;stroke-linejoin:miter;stroke-width:0.5;"/>
   </g>
   <g id="patch_110">
    <path clip-path="url(#p5d6e9ac922)" d="M 976.936364 378.663125 
L 993.845455 378.663125 
L 993.845455 297.123125 
L 976.936364 297.123125 
z
" style="fill:#dd7d54;stroke:#ffffff;stroke-linejoin:miter;stroke-width:0.5;"/>
   </g>
   <g id="patch_111">
    <path d="M 7.2 378.663125 
L 1011.6 378.663125 
" style="fill:none;stroke:#caced3;stroke-linecap:square;stroke-linejoin:miter;"/>
   </g>
   <g id="text_12">
    <!-- Type of policies enacted over time, compared to caseload, U.S. -->
    <g style="fill:#2c2b2b;" transform="translate(7.2 22.503125)scale(0.2 -0.2)">
     <defs>
      <path d="M 2028 0 
L 1494 0 
L 1494 4100 
L 56 4100 
L 56 4569 
L 3459 4569 
L 3459 4100 
L 2028 4100 
L 2028 0 
z
" id="OpenSans-Regular-54" transform="scale(0.015625)"/>
      <path d="M 6 3425 
L 563 3425 
L 1319 1438 
Q 1384 1263 1440 1102 
Q 1497 941 1540 794 
Q 1584 647 1609 509 
L 1631 509 
Q 1675 666 1756 920 
Q 1838 1175 1931 1441 
L 2647 3425 
L 3206 3425 
L 1716 -503 
Q 1597 -819 1439 -1053 
Q 1281 -1288 1056 -1414 
Q 831 -1541 513 -1541 
Q 366 -1541 253 -1523 
Q 141 -1506 59 -1484 
L 59 -1069 
Q 128 -1084 226 -1096 
Q 325 -1109 431 -1109 
Q 625 -1109 767 -1036 
Q 909 -963 1012 -822 
Q 1116 -681 1191 -488 
L 1378 -6 
L 6 3425 
z
" id="OpenSans-Regular-79" transform="scale(0.015625)"/>
      <path d="M 2169 3488 
Q 2778 3488 3090 3189 
Q 3403 2891 3403 2231 
L 3403 0 
L 2891 0 
L 2891 2197 
Q 2891 2625 2695 2837 
Q 2500 3050 2097 3050 
Q 1528 3050 1297 2728 
Q 1066 2406 1066 1794 
L 1066 0 
L 547 0 
L 547 3425 
L 966 3425 
L 1044 2931 
L 1072 2931 
Q 1181 3113 1350 3236 
Q 1519 3359 1728 3423 
Q 1938 3488 2169 3488 
z
" id="OpenSans-Regular-6e" transform="scale(0.015625)"/>
      <path d="M 1828 3481 
Q 2441 3481 2737 3206 
Q 3034 2931 3034 2328 
L 3034 0 
L 2656 0 
L 2556 506 
L 2531 506 
Q 2388 319 2231 192 
Q 2075 66 1870 1 
Q 1666 -63 1369 -63 
Q 1056 -63 814 46 
Q 572 156 433 378 
Q 294 600 294 941 
Q 294 1453 700 1728 
Q 1106 2003 1938 2028 
L 2528 2053 
L 2528 2263 
Q 2528 2706 2337 2884 
Q 2147 3063 1800 3063 
Q 1531 3063 1287 2984 
Q 1044 2906 825 2800 
L 666 3194 
Q 897 3313 1197 3397 
Q 1497 3481 1828 3481 
z
M 2522 1688 
L 2000 1666 
Q 1359 1641 1096 1456 
Q 834 1272 834 934 
Q 834 641 1012 500 
Q 1191 359 1484 359 
Q 1941 359 2231 612 
Q 2522 866 2522 1372 
L 2522 1688 
z
" id="OpenSans-Regular-61" transform="scale(0.015625)"/>
      <path d="M 1653 363 
Q 1781 363 1915 384 
Q 2050 406 2134 438 
L 2134 34 
Q 2044 -6 1883 -34 
Q 1722 -63 1569 -63 
Q 1297 -63 1075 32 
Q 853 128 720 356 
Q 588 584 588 988 
L 588 3019 
L 100 3019 
L 100 3272 
L 591 3475 
L 797 4219 
L 1109 4219 
L 1109 3425 
L 2113 3425 
L 2113 3019 
L 1109 3019 
L 1109 1003 
Q 1109 681 1257 522 
Q 1406 363 1653 363 
z
" id="OpenSans-Regular-74" transform="scale(0.015625)"/>
      <path d="M 1766 -63 
Q 1116 -63 736 381 
Q 356 825 356 1700 
Q 356 2584 743 3036 
Q 1131 3488 1775 3488 
Q 2047 3488 2250 3416 
Q 2453 3344 2600 3223 
Q 2747 3103 2847 2950 
L 2884 2950 
Q 2872 3047 2859 3215 
Q 2847 3384 2847 3491 
L 2847 4863 
L 3366 4863 
L 3366 0 
L 2947 0 
L 2869 488 
L 2847 488 
Q 2750 334 2601 209 
Q 2453 84 2248 10 
Q 2044 -63 1766 -63 
z
M 1847 369 
Q 2397 369 2625 681 
Q 2853 994 2853 1609 
L 2853 1703 
Q 2853 2356 2636 2706 
Q 2419 3056 1847 3056 
Q 1369 3056 1131 2689 
Q 894 2322 894 1688 
Q 894 1056 1130 712 
Q 1366 369 1847 369 
z
" id="OpenSans-Regular-64" transform="scale(0.015625)"/>
      <path d="M 1300 0 
L 0 3425 
L 556 3425 
L 1309 1353 
Q 1388 1141 1469 884 
Q 1550 628 1581 472 
L 1603 472 
Q 1641 628 1728 886 
Q 1816 1144 1888 1353 
L 2641 3425 
L 3197 3425 
L 1894 0 
L 1300 0 
z
" id="OpenSans-Regular-76" transform="scale(0.015625)"/>
      <path d="M 2103 3488 
Q 2206 3488 2318 3477 
Q 2431 3466 2519 3447 
L 2453 2966 
Q 2369 2988 2266 3000 
Q 2163 3013 2072 3013 
Q 1866 3013 1683 2930 
Q 1500 2847 1362 2692 
Q 1225 2538 1147 2320 
Q 1069 2103 1069 1838 
L 1069 0 
L 547 0 
L 547 3425 
L 978 3425 
L 1034 2794 
L 1056 2794 
Q 1163 2984 1313 3142 
Q 1463 3300 1661 3394 
Q 1859 3488 2103 3488 
z
" id="OpenSans-Regular-72" transform="scale(0.015625)"/>
      <path d="M 4266 3488 
Q 4831 3488 5118 3192 
Q 5406 2897 5406 2244 
L 5406 0 
L 4894 0 
L 4894 2219 
Q 4894 2634 4714 2842 
Q 4534 3050 4181 3050 
Q 3684 3050 3459 2762 
Q 3234 2475 3234 1916 
L 3234 0 
L 2719 0 
L 2719 2219 
Q 2719 2497 2639 2681 
Q 2559 2866 2401 2958 
Q 2244 3050 2003 3050 
Q 1663 3050 1456 2909 
Q 1250 2769 1158 2492 
Q 1066 2216 1066 1813 
L 1066 0 
L 547 0 
L 547 3425 
L 966 3425 
L 1044 2941 
L 1072 2941 
Q 1175 3119 1331 3241 
Q 1488 3363 1681 3425 
Q 1875 3488 2094 3488 
Q 2484 3488 2748 3342 
Q 3013 3197 3131 2900 
L 3159 2900 
Q 3328 3197 3622 3342 
Q 3916 3488 4266 3488 
z
" id="OpenSans-Regular-6d" transform="scale(0.015625)"/>
      <path d="M 1141 744 
L 1181 672 
Q 1125 444 1039 184 
Q 953 -75 851 -336 
Q 750 -597 647 -825 
L 259 -825 
Q 325 -575 387 -298 
Q 450 -22 501 248 
Q 553 519 584 744 
L 1141 744 
z
" id="OpenSans-Regular-2c" transform="scale(0.015625)"/>
      <path d="M 4081 4569 
L 4081 1613 
Q 4081 1128 3886 750 
Q 3691 372 3297 154 
Q 2903 -63 2309 -63 
Q 1463 -63 1020 396 
Q 578 856 578 1625 
L 578 4569 
L 1113 4569 
L 1113 1609 
Q 1113 1028 1420 712 
Q 1728 397 2341 397 
Q 2759 397 3026 548 
Q 3294 700 3423 973 
Q 3553 1247 3553 1606 
L 3553 4569 
L 4081 4569 
z
" id="OpenSans-Regular-55" transform="scale(0.015625)"/>
      <path d="M 469 325 
Q 469 544 575 636 
Q 681 728 834 728 
Q 994 728 1103 636 
Q 1213 544 1213 325 
Q 1213 109 1103 10 
Q 994 -88 834 -88 
Q 681 -88 575 10 
Q 469 109 469 325 
z
" id="OpenSans-Regular-2e" transform="scale(0.015625)"/>
      <path d="M 3203 1216 
Q 3203 809 3001 523 
Q 2800 238 2437 87 
Q 2075 -63 1584 -63 
Q 1325 -63 1094 -38 
Q 863 -13 669 34 
Q 475 81 328 150 
L 328 659 
Q 563 563 900 480 
Q 1238 397 1606 397 
Q 1950 397 2187 489 
Q 2425 581 2548 754 
Q 2672 928 2672 1172 
Q 2672 1406 2569 1564 
Q 2466 1722 2227 1851 
Q 1988 1981 1575 2128 
Q 1284 2231 1062 2354 
Q 841 2478 691 2634 
Q 541 2791 464 2997 
Q 388 3203 388 3469 
Q 388 3834 573 4095 
Q 759 4356 1089 4495 
Q 1419 4634 1847 4634 
Q 2213 4634 2523 4565 
Q 2834 4497 3094 4381 
L 2928 3925 
Q 2681 4028 2404 4097 
Q 2128 4166 1834 4166 
Q 1541 4166 1339 4080 
Q 1138 3994 1031 3837 
Q 925 3681 925 3466 
Q 925 3225 1026 3065 
Q 1128 2906 1351 2782 
Q 1575 2659 1944 2525 
Q 2347 2378 2628 2214 
Q 2909 2050 3056 1814 
Q 3203 1578 3203 1216 
z
" id="OpenSans-Regular-53" transform="scale(0.015625)"/>
     </defs>
     <use xlink:href="#OpenSans-Regular-54"/>
     <use x="55.078125" xlink:href="#OpenSans-Regular-79"/>
     <use x="105.175781" xlink:href="#OpenSans-Regular-70"/>
     <use x="166.357422" xlink:href="#OpenSans-Regular-65"/>
     <use x="222.509766" xlink:href="#OpenSans-Regular-20"/>
     <use x="248.486328" xlink:href="#OpenSans-Regular-6f"/>
     <use x="308.642578" xlink:href="#OpenSans-Regular-66"/>
     <use x="342.285156" xlink:href="#OpenSans-Regular-20"/>
     <use x="368.261719" xlink:href="#OpenSans-Regular-70"/>
     <use x="429.443359" xlink:href="#OpenSans-Regular-6f"/>
     <use x="489.599609" xlink:href="#OpenSans-Regular-6c"/>
     <use x="514.84375" xlink:href="#OpenSans-Regular-69"/>
     <use x="540.087891" xlink:href="#OpenSans-Regular-63"/>
     <use x="587.988281" xlink:href="#OpenSans-Regular-69"/>
     <use x="613.232422" xlink:href="#OpenSans-Regular-65"/>
     <use x="669.384766" xlink:href="#OpenSans-Regular-73"/>
     <use x="717.041016" xlink:href="#OpenSans-Regular-20"/>
     <use x="743.017578" xlink:href="#OpenSans-Regular-65"/>
     <use x="799.169922" xlink:href="#OpenSans-Regular-6e"/>
     <use x="860.498047" xlink:href="#OpenSans-Regular-61"/>
     <use x="916.064453" xlink:href="#OpenSans-Regular-63"/>
     <use x="963.964844" xlink:href="#OpenSans-Regular-74"/>
     <use x="999.609375" xlink:href="#OpenSans-Regular-65"/>
     <use x="1055.761719" xlink:href="#OpenSans-Regular-64"/>
     <use x="1116.943359" xlink:href="#OpenSans-Regular-20"/>
     <use x="1142.919922" xlink:href="#OpenSans-Regular-6f"/>
     <use x="1203.076172" xlink:href="#OpenSans-Regular-76"/>
     <use x="1253.027344" xlink:href="#OpenSans-Regular-65"/>
     <use x="1309.179688" xlink:href="#OpenSans-Regular-72"/>
     <use x="1350.048828" xlink:href="#OpenSans-Regular-20"/>
     <use x="1376.025391" xlink:href="#OpenSans-Regular-74"/>
     <use x="1411.669922" xlink:href="#OpenSans-Regular-69"/>
     <use x="1436.914062" xlink:href="#OpenSans-Regular-6d"/>
     <use x="1529.492188" xlink:href="#OpenSans-Regular-65"/>
     <use x="1585.644531" xlink:href="#OpenSans-Regular-2c"/>
     <use x="1611.523438" xlink:href="#OpenSans-Regular-20"/>
     <use x="1637.5" xlink:href="#OpenSans-Regular-63"/>
     <use x="1685.400391" xlink:href="#OpenSans-Regular-6f"/>
     <use x="1745.556641" xlink:href="#OpenSans-Regular-6d"/>
     <use x="1838.134766" xlink:href="#OpenSans-Regular-70"/>
     <use x="1899.316406" xlink:href="#OpenSans-Regular-61"/>
     <use x="1954.882812" xlink:href="#OpenSans-Regular-72"/>
     <use x="1995.751953" xlink:href="#OpenSans-Regular-65"/>
     <use x="2051.904297" xlink:href="#OpenSans-Regular-64"/>
     <use x="2113.085938" xlink:href="#OpenSans-Regular-20"/>
     <use x="2139.0625" xlink:href="#OpenSans-Regular-74"/>
     <use x="2174.707031" xlink:href="#OpenSans-Regular-6f"/>
     <use x="2234.863281" xlink:href="#OpenSans-Regular-20"/>
     <use x="2260.839844" xlink:href="#OpenSans-Regular-63"/>
     <use x="2308.740234" xlink:href="#OpenSans-Regular-61"/>
     <use x="2364.306641" xlink:href="#OpenSans-Regular-73"/>
     <use x="2411.962891" xlink:href="#OpenSans-Regular-65"/>
     <use x="2468.115234" xlink:href="#OpenSans-Regular-6c"/>
     <use x="2493.359375" xlink:href="#OpenSans-Regular-6f"/>
     <use x="2553.515625" xlink:href="#OpenSans-Regular-61"/>
     <use x="2609.082031" xlink:href="#OpenSans-Regular-64"/>
     <use x="2670.263672" xlink:href="#OpenSans-Regular-2c"/>
     <use x="2696.142578" xlink:href="#OpenSans-Regular-20"/>
     <use x="2722.119141" xlink:href="#OpenSans-Regular-55"/>
     <use x="2795.019531" xlink:href="#OpenSans-Regular-2e"/>
     <use x="2821.289062" xlink:href="#OpenSans-Regular-53"/>
     <use x="2876.123047" xlink:href="#OpenSans-Regular-2e"/>
    </g>
   </g>
   <g id="legend_1">
    <g id="text_13">
     <!-- Type of policy -->
     <g style="fill:#262626;" transform="translate(1041.482938 60.968913)scale(0.14 -0.14)">
      <use xlink:href="#OpenSans-Regular-54"/>
      <use x="55.078125" xlink:href="#OpenSans-Regular-79"/>
      <use x="105.175781" xlink:href="#OpenSans-Regular-70"/>
      <use x="166.357422" xlink:href="#OpenSans-Regular-65"/>
      <use x="222.509766" xlink:href="#OpenSans-Regular-20"/>
      <use x="248.486328" xlink:href="#OpenSans-Regular-6f"/>
      <use x="308.642578" xlink:href="#OpenSans-Regular-66"/>
      <use x="342.285156" xlink:href="#OpenSans-Regular-20"/>
      <use x="368.261719" xlink:href="#OpenSans-Regular-70"/>
      <use x="429.443359" xlink:href="#OpenSans-Regular-6f"/>
      <use x="489.599609" xlink:href="#OpenSans-Regular-6c"/>
      <use x="514.84375" xlink:href="#OpenSans-Regular-69"/>
      <use x="540.087891" xlink:href="#OpenSans-Regular-63"/>
      <use x="587.988281" xlink:href="#OpenSans-Regular-79"/>
     </g>
    </g>
    <g id="patch_112">
     <path d="M 1040.931375 91.162663 
L 1052.931375 91.162663 
L 1052.931375 79.447663 
L 1040.931375 79.447663 
z
" style="fill:#caced3;stroke:#ffffff;stroke-linejoin:miter;stroke-width:0.5;"/>
    </g>
    <g id="text_14">
     <!-- Other -->
     <g style="fill:#565e69;" transform="translate(1062.531375 89.377663)scale(0.14 -0.14)">
      <defs>
       <path d="M 4588 2291 
Q 4588 1763 4453 1330 
Q 4319 897 4055 586 
Q 3791 275 3400 106 
Q 3009 -63 2494 -63 
Q 1963 -63 1567 106 
Q 1172 275 911 587 
Q 650 900 520 1334 
Q 391 1769 391 2297 
Q 391 2997 622 3525 
Q 853 4053 1323 4347 
Q 1794 4641 2503 4641 
Q 3181 4641 3645 4350 
Q 4109 4059 4348 3532 
Q 4588 3006 4588 2291 
z
M 950 2291 
Q 950 1709 1115 1284 
Q 1281 859 1623 628 
Q 1966 397 2494 397 
Q 3025 397 3364 628 
Q 3703 859 3865 1284 
Q 4028 1709 4028 2291 
Q 4028 3175 3658 3673 
Q 3288 4172 2503 4172 
Q 1972 4172 1628 3944 
Q 1284 3716 1117 3295 
Q 950 2875 950 2291 
z
" id="OpenSans-Regular-4f" transform="scale(0.015625)"/>
       <path d="M 1066 4863 
L 1066 3409 
Q 1066 3284 1059 3157 
Q 1053 3031 1038 2925 
L 1072 2925 
Q 1178 3106 1342 3229 
Q 1506 3353 1715 3417 
Q 1925 3481 2159 3481 
Q 2572 3481 2848 3350 
Q 3125 3219 3264 2944 
Q 3403 2669 3403 2231 
L 3403 0 
L 2891 0 
L 2891 2197 
Q 2891 2625 2695 2837 
Q 2500 3050 2097 3050 
Q 1716 3050 1489 2904 
Q 1263 2759 1164 2478 
Q 1066 2197 1066 1791 
L 1066 0 
L 547 0 
L 547 4863 
L 1066 4863 
z
" id="OpenSans-Regular-68" transform="scale(0.015625)"/>
      </defs>
      <use xlink:href="#OpenSans-Regular-4f"/>
      <use x="77.783203" xlink:href="#OpenSans-Regular-74"/>
      <use x="113.427734" xlink:href="#OpenSans-Regular-68"/>
      <use x="174.755859" xlink:href="#OpenSans-Regular-65"/>
      <use x="230.908203" xlink:href="#OpenSans-Regular-72"/>
     </g>
    </g>
    <g id="patch_113">
     <path d="M 1040.931375 119.549538 
L 1052.931375 119.549538 
L 1052.931375 107.834538 
L 1040.931375 107.834538 
z
" style="fill:#5495ba;stroke:#ffffff;stroke-linejoin:miter;stroke-width:0.5;"/>
    </g>
    <g id="text_15">
     <!-- Relaxing -->
     <g style="fill:#565e69;" transform="translate(1062.531375 117.764538)scale(0.14 -0.14)">
      <defs>
       <path d="M 1859 4569 
Q 2422 4569 2789 4430 
Q 3156 4291 3337 4006 
Q 3519 3722 3519 3281 
Q 3519 2919 3387 2676 
Q 3256 2434 3043 2284 
Q 2831 2134 2591 2053 
L 3844 0 
L 3225 0 
L 2106 1906 
L 1156 1906 
L 1156 0 
L 625 0 
L 625 4569 
L 1859 4569 
z
M 1828 4109 
L 1156 4109 
L 1156 2356 
L 1881 2356 
Q 2441 2356 2705 2584 
Q 2969 2813 2969 3256 
Q 2969 3722 2689 3915 
Q 2409 4109 1828 4109 
z
" id="OpenSans-Regular-52" transform="scale(0.015625)"/>
       <path d="M 1363 1753 
L 178 3425 
L 772 3425 
L 1675 2106 
L 2575 3425 
L 3163 3425 
L 1978 1753 
L 3228 0 
L 2634 0 
L 1675 1397 
L 709 0 
L 122 0 
L 1363 1753 
z
" id="OpenSans-Regular-78" transform="scale(0.015625)"/>
       <path d="M 1503 -1538 
Q 828 -1538 462 -1286 
Q 97 -1034 97 -581 
Q 97 -259 301 -31 
Q 506 197 869 272 
Q 734 334 639 459 
Q 544 584 544 747 
Q 544 934 648 1076 
Q 753 1219 969 1350 
Q 700 1459 533 1720 
Q 366 1981 366 2328 
Q 366 2697 519 2958 
Q 672 3219 962 3356 
Q 1253 3494 1666 3494 
Q 1756 3494 1848 3486 
Q 1941 3478 2025 3464 
Q 2109 3450 2172 3431 
L 3347 3431 
L 3347 3097 
L 2716 3019 
Q 2809 2897 2871 2725 
Q 2934 2553 2934 2344 
Q 2934 1831 2587 1529 
Q 2241 1228 1634 1228 
Q 1491 1228 1341 1253 
Q 1188 1169 1108 1066 
Q 1028 963 1028 828 
Q 1028 728 1089 668 
Q 1150 609 1265 582 
Q 1381 556 1544 556 
L 2147 556 
Q 2706 556 3004 322 
Q 3303 88 3303 -363 
Q 3303 -931 2840 -1234 
Q 2378 -1538 1503 -1538 
z
M 1519 -1131 
Q 1944 -1131 2223 -1045 
Q 2503 -959 2642 -798 
Q 2781 -638 2781 -416 
Q 2781 -209 2687 -104 
Q 2594 0 2412 36 
Q 2231 72 1969 72 
L 1375 72 
Q 1144 72 972 0 
Q 800 -72 708 -212 
Q 616 -353 616 -563 
Q 616 -841 850 -986 
Q 1084 -1131 1519 -1131 
z
M 1653 1606 
Q 2025 1606 2212 1793 
Q 2400 1981 2400 2341 
Q 2400 2725 2209 2917 
Q 2019 3109 1647 3109 
Q 1291 3109 1098 2911 
Q 906 2713 906 2331 
Q 906 1981 1100 1793 
Q 1294 1606 1653 1606 
z
" id="OpenSans-Regular-67" transform="scale(0.015625)"/>
      </defs>
      <use xlink:href="#OpenSans-Regular-52"/>
      <use x="61.71875" xlink:href="#OpenSans-Regular-65"/>
      <use x="117.871094" xlink:href="#OpenSans-Regular-6c"/>
      <use x="143.115234" xlink:href="#OpenSans-Regular-61"/>
      <use x="198.681641" xlink:href="#OpenSans-Regular-78"/>
      <use x="251.025391" xlink:href="#OpenSans-Regular-69"/>
      <use x="276.269531" xlink:href="#OpenSans-Regular-6e"/>
      <use x="337.597656" xlink:href="#OpenSans-Regular-67"/>
     </g>
    </g>
    <g id="patch_114">
     <path d="M 1040.931375 147.951725 
L 1052.931375 147.951725 
L 1052.931375 136.236725 
L 1040.931375 136.236725 
z
" style="fill:#dd7d54;stroke:#ffffff;stroke-linejoin:miter;stroke-width:0.5;"/>
    </g>
    <g id="text_16">
     <!-- Restricting -->
     <g style="fill:#565e69;" transform="translate(1062.531375 146.166725)scale(0.14 -0.14)">
      <use xlink:href="#OpenSans-Regular-52"/>
      <use x="61.71875" xlink:href="#OpenSans-Regular-65"/>
      <use x="117.871094" xlink:href="#OpenSans-Regular-73"/>
      <use x="165.527344" xlink:href="#OpenSans-Regular-74"/>
      <use x="201.171875" xlink:href="#OpenSans-Regular-72"/>
      <use x="242.041016" xlink:href="#OpenSans-Regular-69"/>
      <use x="267.285156" xlink:href="#OpenSans-Regular-63"/>
      <use x="315.185547" xlink:href="#OpenSans-Regular-74"/>
      <use x="350.830078" xlink:href="#OpenSans-Regular-69"/>
      <use x="376.074219" xlink:href="#OpenSans-Regular-6e"/>
      <use x="437.402344" xlink:href="#OpenSans-Regular-67"/>
     </g>
    </g>
   </g>
  </g>
 </g>
 <defs>
  <clipPath id="p5d6e9ac922">
   <rect height="326.16" width="1004.4" x="7.2" y="52.503125"/>
  </clipPath>
 </defs>
</svg>
